<svg class="main-svg" xmlns="http://www.w3.org/2000/svg" xmlns:xlink="http://www.w3.org/1999/xlink" width="700" height="500" style="" viewBox="0 0 700 500"><rect x="0" y="0" width="700" height="500" style="fill: rgb(255, 255, 255); fill-opacity: 1;"/><defs id="defs-acedbd"><g class="clips"><clipPath id="clipacedbdxyplot" class="plotclip"><rect width="582" height="378"/></clipPath><clipPath class="axesclip" id="clipacedbdx"><rect x="98" y="0" width="582" height="500"/></clipPath><clipPath class="axesclip" id="clipacedbdy"><rect x="0" y="30" width="700" height="378"/></clipPath><clipPath class="axesclip" id="clipacedbdxy"><rect x="98" y="30" width="582" height="378"/></clipPath></g><g class="gradients"/><g class="patterns"/></defs><g class="bglayer"/><g class="layer-below"><g class="imagelayer"/><g class="shapelayer"/></g><g class="cartesianlayer"><g class="subplot xy"><g class="layer-subplot"><g class="shapelayer"/><g class="imagelayer"/></g><g class="minor-gridlayer"><g class="x"/><g class="y"/></g><g class="gridlayer"><g class="x"><path class="xgrid crisp" transform="translate(156.2,0)" d="M0,30v378" style="stroke: rgb(255, 255, 255); stroke-opacity: 1; stroke-width: 1px;"/><path class="xgrid crisp" transform="translate(272.6,0)" d="M0,30v378" style="stroke: rgb(255, 255, 255); stroke-opacity: 1; stroke-width: 1px;"/><path class="xgrid crisp" transform="translate(389,0)" d="M0,30v378" style="stroke: rgb(255, 255, 255); stroke-opacity: 1; stroke-width: 1px;"/><path class="xgrid crisp" transform="translate(505.4,0)" d="M0,30v378" style="stroke: rgb(255, 255, 255); stroke-opacity: 1; stroke-width: 1px;"/><path class="xgrid crisp" transform="translate(621.8,0)" d="M0,30v378" style="stroke: rgb(255, 255, 255); stroke-opacity: 1; stroke-width: 1px;"/></g><g class="y"><path class="ygrid crisp" transform="translate(0,343.93)" d="M98,0h582" style="stroke: rgb(236, 236, 236); stroke-opacity: 1; stroke-width: 1px;"/><path class="ygrid crisp" transform="translate(0,279.86)" d="M98,0h582" style="stroke: rgb(236, 236, 236); stroke-opacity: 1; stroke-width: 1px;"/><path class="ygrid crisp" transform="translate(0,215.8)" d="M98,0h582" style="stroke: rgb(236, 236, 236); stroke-opacity: 1; stroke-width: 1px;"/><path class="ygrid crisp" transform="translate(0,151.73000000000002)" d="M98,0h582" style="stroke: rgb(236, 236, 236); stroke-opacity: 1; stroke-width: 1px;"/><path class="ygrid crisp" transform="translate(0,87.66)" d="M98,0h582" style="stroke: rgb(236, 236, 236); stroke-opacity: 1; stroke-width: 1px;"/></g></g><g class="zerolinelayer"><path class="yzl zl crisp" transform="translate(0,408)" d="M98,0h582" style="stroke: rgb(51, 51, 51); stroke-opacity: 1; stroke-width: 2px;"/></g><path class="xlines-below"/><path class="ylines-below"/><g class="overlines-below"/><g class="xaxislayer-below"/><g class="yaxislayer-below"/><g class="overaxes-below"/><g class="plot" transform="translate(98,30)" clip-path="url(#clipacedbdxyplot)"><g class="barlayer mlayer"><g class="trace bars" style="opacity: 1;"><g class="points"><g class="point"><path d="M11.64,378V202.73H104.76V378Z" style="vector-effect: none; opacity: 1; stroke-width: 0.5px; fill: rgb(199, 125, 255); fill-opacity: 1; stroke: rgb(229, 236, 246); stroke-opacity: 1;"/></g><g class="point"><path d="M128.04,378V205.71H221.16V378Z" style="vector-effect: none; opacity: 1; stroke-width: 0.5px; fill: rgb(157, 78, 221); fill-opacity: 1; stroke: rgb(229, 236, 246); stroke-opacity: 1;"/></g><g class="point"><path d="M244.44,378V283.85H337.56V378Z" style="vector-effect: none; opacity: 1; stroke-width: 0.5px; fill: rgb(157, 78, 221); fill-opacity: 1; stroke: rgb(229, 236, 246); stroke-opacity: 1;"/></g><g class="point"><path d="M360.84,378V290.78H453.96V378Z" style="vector-effect: none; opacity: 1; stroke-width: 0.5px; fill: rgb(157, 78, 221); fill-opacity: 1; stroke: rgb(229, 236, 246); stroke-opacity: 1;"/></g><g class="point"><path d="M477.24,378V298.14H570.36V378Z" style="vector-effect: none; opacity: 1; stroke-width: 0.5px; fill: rgb(72, 202, 228); fill-opacity: 1; stroke: rgb(229, 236, 246); stroke-opacity: 1;"/></g></g><g class="errorbar" style="opacity: 1;"><path class="yerror" d="M54.2,21.11h8m-4,0V384.35m-4,0h8" style="vector-effect: none; stroke-width: 2px; stroke: rgb(51, 51, 51); stroke-opacity: 1;"/></g><g class="errorbar" style="opacity: 1;"><path class="yerror" d="M170.6,80.64h8m-4,0V330.77m-4,0h8" style="vector-effect: none; stroke-width: 2px; stroke: rgb(51, 51, 51); stroke-opacity: 1;"/></g><g class="errorbar" style="opacity: 1;"><path class="yerror" d="M287,207.96h8m-4,0V359.73m-4,0h8" style="vector-effect: none; stroke-width: 2px; stroke: rgb(51, 51, 51); stroke-opacity: 1;"/></g><g class="errorbar" style="opacity: 1;"><path class="yerror" d="M403.4,217.6h8m-4,0V363.97m-4,0h8" style="vector-effect: none; stroke-width: 2px; stroke: rgb(51, 51, 51); stroke-opacity: 1;"/></g><g class="errorbar" style="opacity: 1;"><path class="yerror" d="M519.8,223.48h8m-4,0V372.8m-4,0h8" style="vector-effect: none; stroke-width: 2px; stroke: rgb(51, 51, 51); stroke-opacity: 1;"/></g></g></g></g><g class="overplot"/><path class="xlines-above crisp" d="M96,409H682M96,29H682" style="fill: none; stroke-width: 2px; stroke: rgb(51, 51, 51); stroke-opacity: 1;"/><path class="ylines-above crisp" d="M97,30V408M681,30V408" style="fill: none; stroke-width: 2px; stroke: rgb(51, 51, 51); stroke-opacity: 1;"/><g class="overlines-above"/><g class="xaxislayer-above"><path class="xtick ticks crisp" d="M0,410v5" transform="translate(156.2,0)" style="stroke: rgb(68, 68, 68); stroke-opacity: 1; stroke-width: 1px;"/><path class="xtick ticks crisp" d="M0,410v5" transform="translate(272.6,0)" style="stroke: rgb(68, 68, 68); stroke-opacity: 1; stroke-width: 1px;"/><path class="xtick ticks crisp" d="M0,410v5" transform="translate(389,0)" style="stroke: rgb(68, 68, 68); stroke-opacity: 1; stroke-width: 1px;"/><path class="xtick ticks crisp" d="M0,410v5" transform="translate(505.4,0)" style="stroke: rgb(68, 68, 68); stroke-opacity: 1; stroke-width: 1px;"/><path class="xtick ticks crisp" d="M0,410v5" transform="translate(621.8,0)" style="stroke: rgb(68, 68, 68); stroke-opacity: 1; stroke-width: 1px;"/><g class="xtick"><text text-anchor="middle" x="0" y="439" transform="translate(156.2,0)" style="font-family: Helvetica; font-size: 20px; fill: rgb(51, 51, 51); fill-opacity: 1; white-space: pre; opacity: 1;">MP2[∞]</text></g><g class="xtick"><text text-anchor="middle" x="0" y="439" transform="translate(272.6,0)" style="font-family: Helvetica; font-size: 20px; fill: rgb(51, 51, 51); fill-opacity: 1; white-space: pre; opacity: 1;"><tspan class="line" dy="0em" x="0" y="439">MP2[∞]</tspan><tspan class="line" dy="1.3em" x="0" y="439">+δ(STO-3G)</tspan></text></g><g class="xtick"><text text-anchor="middle" x="0" y="439" transform="translate(389,0)" style="font-family: Helvetica; font-size: 20px; fill: rgb(51, 51, 51); fill-opacity: 1; white-space: pre; opacity: 1;"><tspan class="line" dy="0em" x="0" y="439">MP2[∞]</tspan><tspan class="line" dy="1.3em" x="0" y="439">+δ(3-21G)</tspan></text></g><g class="xtick"><text text-anchor="middle" x="0" y="439" transform="translate(505.4,0)" style="font-family: Helvetica; font-size: 20px; fill: rgb(51, 51, 51); fill-opacity: 1; white-space: pre; opacity: 1;"><tspan class="line" dy="0em" x="0" y="439">MP2[∞]</tspan><tspan class="line" dy="1.3em" x="0" y="439">+δ(D)</tspan></text></g><g class="xtick"><text text-anchor="middle" x="0" y="439" transform="translate(621.8,0)" style="font-family: Helvetica; font-size: 20px; fill: rgb(51, 51, 51); fill-opacity: 1; white-space: pre; opacity: 1;">CCSD[∞]</text></g></g><g class="yaxislayer-above"><path class="ytick ticks crisp" d="M96,0h-5" transform="translate(0,408)" style="stroke: rgb(68, 68, 68); stroke-opacity: 1; stroke-width: 1px;"/><path class="ytick ticks crisp" d="M96,0h-5" transform="translate(0,343.93)" style="stroke: rgb(68, 68, 68); stroke-opacity: 1; stroke-width: 1px;"/><path class="ytick ticks crisp" d="M96,0h-5" transform="translate(0,279.86)" style="stroke: rgb(68, 68, 68); stroke-opacity: 1; stroke-width: 1px;"/><path class="ytick ticks crisp" d="M96,0h-5" transform="translate(0,215.8)" style="stroke: rgb(68, 68, 68); stroke-opacity: 1; stroke-width: 1px;"/><path class="ytick ticks crisp" d="M96,0h-5" transform="translate(0,151.73000000000002)" style="stroke: rgb(68, 68, 68); stroke-opacity: 1; stroke-width: 1px;"/><path class="ytick ticks crisp" d="M96,0h-5" transform="translate(0,87.66)" style="stroke: rgb(68, 68, 68); stroke-opacity: 1; stroke-width: 1px;"/><g class="ytick"><text text-anchor="end" x="87" y="7" transform="translate(0,408)" style="font-family: Helvetica; font-size: 20px; fill: rgb(51, 51, 51); fill-opacity: 1; white-space: pre; opacity: 1;">0</text></g><g class="ytick"><text text-anchor="end" x="87" y="7" style="font-family: Helvetica; font-size: 20px; fill: rgb(51, 51, 51); fill-opacity: 1; white-space: pre; opacity: 1;" transform="translate(0,343.93)">0.1</text></g><g class="ytick"><text text-anchor="end" x="87" y="7" style="font-family: Helvetica; font-size: 20px; fill: rgb(51, 51, 51); fill-opacity: 1; white-space: pre; opacity: 1;" transform="translate(0,279.86)">0.2</text></g><g class="ytick"><text text-anchor="end" x="87" y="7" style="font-family: Helvetica; font-size: 20px; fill: rgb(51, 51, 51); fill-opacity: 1; white-space: pre; opacity: 1;" transform="translate(0,215.8)">0.3</text></g><g class="ytick"><text text-anchor="end" x="87" y="7" style="font-family: Helvetica; font-size: 20px; fill: rgb(51, 51, 51); fill-opacity: 1; white-space: pre; opacity: 1;" transform="translate(0,151.73000000000002)">0.4</text></g><g class="ytick"><text text-anchor="end" x="87" y="7" style="font-family: Helvetica; font-size: 20px; fill: rgb(51, 51, 51); fill-opacity: 1; white-space: pre; opacity: 1;" transform="translate(0,87.66)">0.5</text></g></g><g class="overaxes-above"/></g></g><g class="polarlayer"/><g class="smithlayer"/><g class="ternarylayer"/><g class="geolayer"/><g class="funnelarealayer"/><g class="pielayer"/><g class="iciclelayer"/><g class="treemaplayer"/><g class="sunburstlayer"/><g class="glimages"/><defs id="topdefs-acedbd"><g class="clips"/></defs><g class="layer-above"><g class="imagelayer"/><g class="shapelayer"/></g><g class="infolayer"><g class="g-gtitle"/><g class="g-xtitle"/><g class="g-ytitle" transform="translate(18.8125,0)"><text class="ytitle" transform="rotate(-90,1.1875,219)" x="1.1875" y="219" text-anchor="middle" style="font-family: Helvetica; font-size: 22px; fill: rgb(51, 51, 51); opacity: 1; font-weight: normal; white-space: pre;"><tspan class="line" dy="0em" x="1.1875" y="219">MAE compared with</tspan><tspan class="line" dy="1.3em" x="1.1875" y="219">experimental CEBEs (eV)</tspan></text></g></g></svg>