<svg class="main-svg" xmlns="http://www.w3.org/2000/svg" xmlns:xlink="http://www.w3.org/1999/xlink" width="500" height="500" style="" viewBox="0 0 500 500"><rect x="0" y="0" width="500" height="500" style="fill: rgb(255, 255, 255); fill-opacity: 1;"/><defs id="defs-603d14"><g class="clips"><clipPath id="clip603d14xyplot" class="plotclip"><rect width="186" height="183.54"/></clipPath><clipPath id="clip603d14x2y2plot" class="plotclip"><rect width="186" height="183.54"/></clipPath><clipPath id="clip603d14x3y3plot" class="plotclip"><rect width="186" height="183.54000000000002"/></clipPath><clipPath id="clip603d14x4y4plot" class="plotclip"><rect width="186" height="183.54000000000002"/></clipPath><clipPath class="axesclip" id="clip603d14x"><rect x="80" y="0" width="186" height="500"/></clipPath><clipPath class="axesclip" id="clip603d14y"><rect x="0" y="30" width="500" height="183.54"/></clipPath><clipPath class="axesclip" id="clip603d14xy"><rect x="80" y="30" width="186" height="183.54"/></clipPath><clipPath class="axesclip" id="clip603d14y2"><rect x="0" y="30" width="500" height="183.54"/></clipPath><clipPath class="axesclip" id="clip603d14xy2"><rect x="80" y="30" width="186" height="183.54"/></clipPath><clipPath class="axesclip" id="clip603d14y3"><rect x="0" y="245.46" width="500" height="183.54000000000002"/></clipPath><clipPath class="axesclip" id="clip603d14xy3"><rect x="80" y="245.46" width="186" height="183.54000000000002"/></clipPath><clipPath class="axesclip" id="clip603d14y4"><rect x="0" y="245.46" width="500" height="183.54000000000002"/></clipPath><clipPath class="axesclip" id="clip603d14xy4"><rect x="80" y="245.46" width="186" height="183.54000000000002"/></clipPath><clipPath class="axesclip" id="clip603d14x2"><rect x="294" y="0" width="186" height="500"/></clipPath><clipPath class="axesclip" id="clip603d14x2y"><rect x="294" y="30" width="186" height="183.54"/></clipPath><clipPath class="axesclip" id="clip603d14x2y2"><rect x="294" y="30" width="186" height="183.54"/></clipPath><clipPath class="axesclip" id="clip603d14x2y3"><rect x="294" y="245.46" width="186" height="183.54000000000002"/></clipPath><clipPath class="axesclip" id="clip603d14x2y4"><rect x="294" y="245.46" width="186" height="183.54000000000002"/></clipPath><clipPath class="axesclip" id="clip603d14x3"><rect x="80" y="0" width="186" height="500"/></clipPath><clipPath class="axesclip" id="clip603d14x3y"><rect x="80" y="30" width="186" height="183.54"/></clipPath><clipPath class="axesclip" id="clip603d14x3y2"><rect x="80" y="30" width="186" height="183.54"/></clipPath><clipPath class="axesclip" id="clip603d14x3y3"><rect x="80" y="245.46" width="186" height="183.54000000000002"/></clipPath><clipPath class="axesclip" id="clip603d14x3y4"><rect x="80" y="245.46" width="186" height="183.54000000000002"/></clipPath><clipPath class="axesclip" id="clip603d14x4"><rect x="294" y="0" width="186" height="500"/></clipPath><clipPath class="axesclip" id="clip603d14x4y"><rect x="294" y="30" width="186" height="183.54"/></clipPath><clipPath class="axesclip" id="clip603d14x4y2"><rect x="294" y="30" width="186" height="183.54"/></clipPath><clipPath class="axesclip" id="clip603d14x4y3"><rect x="294" y="245.46" width="186" height="183.54000000000002"/></clipPath><clipPath class="axesclip" id="clip603d14x4y4"><rect x="294" y="245.46" width="186" height="183.54000000000002"/></clipPath></g><g class="gradients"/><g class="patterns"/></defs><g class="bglayer"/><g class="layer-below"><g class="imagelayer"/><g class="shapelayer"/></g><g class="cartesianlayer"><g class="subplot xy"><g class="layer-subplot"><g class="shapelayer"/><g class="imagelayer"/></g><g class="minor-gridlayer"><g class="x"/><g class="y"/></g><g class="gridlayer"><g class="x"/><g class="y"/></g><g class="zerolinelayer"><path class="xzl zl crisp" transform="translate(200.68,0)" d="M0,30v183.54" style="stroke: rgb(51, 51, 51); stroke-opacity: 1; stroke-width: 2px;"/><path class="yzl zl crisp" transform="translate(0,94.46)" d="M80,0h186" style="stroke: rgb(51, 51, 51); stroke-opacity: 1; stroke-width: 2px;"/></g><path class="xlines-below"/><path class="ylines-below"/><g class="overlines-below"/><g class="xaxislayer-below"/><g class="yaxislayer-below"/><g class="overaxes-below"/><g class="plot" transform="translate(80,30)" clip-path="url(#clip603d14xyplot)"><g class="scatterlayer mlayer"><g class="trace scatter trace4813ca" style="stroke-miterlimit: 2; opacity: 1;"><g class="fills"/><g class="errorbars"/><g class="lines"><path class="js-line" d="M75.12,109.42L163.51,22.19" style="vector-effect: none; fill: none; stroke: rgb(25, 118, 210); stroke-opacity: 1; stroke-dasharray: 3px, 3px; stroke-width: 2px; opacity: 1;"/></g><g class="points"/><g class="text"/></g><g class="trace scatter trace403c6b" style="stroke-miterlimit: 2; opacity: 1;"><g class="fills"/><g class="errorbars"/><g class="lines"/><g class="points"><path class="point" transform="translate(115.84,42.34)" d="M3,0A3,3 0 1,1 0,-3A3,3 0 0,1 3,0Z" style="opacity: 1; stroke-width: 1px; fill: rgb(100, 181, 246); fill-opacity: 1; stroke: rgb(51, 51, 51); stroke-opacity: 1;"/><path class="point" transform="translate(110.16,54.43)" d="M3,0A3,3 0 1,1 0,-3A3,3 0 0,1 3,0Z" style="opacity: 1; stroke-width: 1px; fill: rgb(100, 181, 246); fill-opacity: 1; stroke: rgb(51, 51, 51); stroke-opacity: 1;"/><path class="point" transform="translate(121.52,31.71)" d="M3,0A3,3 0 1,1 0,-3A3,3 0 0,1 3,0Z" style="opacity: 1; stroke-width: 1px; fill: rgb(100, 181, 246); fill-opacity: 1; stroke: rgb(51, 51, 51); stroke-opacity: 1;"/><path class="point" transform="translate(110.99,49.39)" d="M3,0A3,3 0 1,1 0,-3A3,3 0 0,1 3,0Z" style="opacity: 1; stroke-width: 1px; fill: rgb(100, 181, 246); fill-opacity: 1; stroke: rgb(51, 51, 51); stroke-opacity: 1;"/><path class="point" transform="translate(112.27,53.54)" d="M3,0A3,3 0 1,1 0,-3A3,3 0 0,1 3,0Z" style="opacity: 1; stroke-width: 1px; fill: rgb(100, 181, 246); fill-opacity: 1; stroke: rgb(51, 51, 51); stroke-opacity: 1;"/><path class="point" transform="translate(117.73,45.08)" d="M3,0A3,3 0 1,1 0,-3A3,3 0 0,1 3,0Z" style="opacity: 1; stroke-width: 1px; fill: rgb(100, 181, 246); fill-opacity: 1; stroke: rgb(51, 51, 51); stroke-opacity: 1;"/><path class="point" transform="translate(105.93,58.14)" d="M3,0A3,3 0 1,1 0,-3A3,3 0 0,1 3,0Z" style="opacity: 1; stroke-width: 1px; fill: rgb(100, 181, 246); fill-opacity: 1; stroke: rgb(51, 51, 51); stroke-opacity: 1;"/><path class="point" transform="translate(112.05,49.71)" d="M3,0A3,3 0 1,1 0,-3A3,3 0 0,1 3,0Z" style="opacity: 1; stroke-width: 1px; fill: rgb(100, 181, 246); fill-opacity: 1; stroke: rgb(51, 51, 51); stroke-opacity: 1;"/><path class="point" transform="translate(129.73,32.47)" d="M3,0A3,3 0 1,1 0,-3A3,3 0 0,1 3,0Z" style="opacity: 1; stroke-width: 1px; fill: rgb(100, 181, 246); fill-opacity: 1; stroke: rgb(51, 51, 51); stroke-opacity: 1;"/><path class="point" transform="translate(120.58,39.03)" d="M3,0A3,3 0 1,1 0,-3A3,3 0 0,1 3,0Z" style="opacity: 1; stroke-width: 1px; fill: rgb(100, 181, 246); fill-opacity: 1; stroke: rgb(51, 51, 51); stroke-opacity: 1;"/><path class="point" transform="translate(126.15,33.72)" d="M3,0A3,3 0 1,1 0,-3A3,3 0 0,1 3,0Z" style="opacity: 1; stroke-width: 1px; fill: rgb(100, 181, 246); fill-opacity: 1; stroke: rgb(51, 51, 51); stroke-opacity: 1;"/><path class="point" transform="translate(138.58,22.74)" d="M3,0A3,3 0 1,1 0,-3A3,3 0 0,1 3,0Z" style="opacity: 1; stroke-width: 1px; fill: rgb(100, 181, 246); fill-opacity: 1; stroke: rgb(51, 51, 51); stroke-opacity: 1;"/><path class="point" transform="translate(120.81,41.91)" d="M3,0A3,3 0 1,1 0,-3A3,3 0 0,1 3,0Z" style="opacity: 1; stroke-width: 1px; fill: rgb(100, 181, 246); fill-opacity: 1; stroke: rgb(51, 51, 51); stroke-opacity: 1;"/><path class="point" transform="translate(119.63,46.39)" d="M3,0A3,3 0 1,1 0,-3A3,3 0 0,1 3,0Z" style="opacity: 1; stroke-width: 1px; fill: rgb(100, 181, 246); fill-opacity: 1; stroke: rgb(51, 51, 51); stroke-opacity: 1;"/><path class="point" transform="translate(125.14,33.82)" d="M3,0A3,3 0 1,1 0,-3A3,3 0 0,1 3,0Z" style="opacity: 1; stroke-width: 1px; fill: rgb(100, 181, 246); fill-opacity: 1; stroke: rgb(51, 51, 51); stroke-opacity: 1;"/><path class="point" transform="translate(127.9,31.47)" d="M3,0A3,3 0 1,1 0,-3A3,3 0 0,1 3,0Z" style="opacity: 1; stroke-width: 1px; fill: rgb(100, 181, 246); fill-opacity: 1; stroke: rgb(51, 51, 51); stroke-opacity: 1;"/><path class="point" transform="translate(142.99,22.19)" d="M3,0A3,3 0 1,1 0,-3A3,3 0 0,1 3,0Z" style="opacity: 1; stroke-width: 1px; fill: rgb(100, 181, 246); fill-opacity: 1; stroke: rgb(51, 51, 51); stroke-opacity: 1;"/><path class="point" transform="translate(98.28,63.18)" d="M3,0A3,3 0 1,1 0,-3A3,3 0 0,1 3,0Z" style="opacity: 1; stroke-width: 1px; fill: rgb(100, 181, 246); fill-opacity: 1; stroke: rgb(51, 51, 51); stroke-opacity: 1;"/><path class="point" transform="translate(115.4,47.76)" d="M3,0A3,3 0 1,1 0,-3A3,3 0 0,1 3,0Z" style="opacity: 1; stroke-width: 1px; fill: rgb(100, 181, 246); fill-opacity: 1; stroke: rgb(51, 51, 51); stroke-opacity: 1;"/><path class="point" transform="translate(123.72,36.09)" d="M3,0A3,3 0 1,1 0,-3A3,3 0 0,1 3,0Z" style="opacity: 1; stroke-width: 1px; fill: rgb(100, 181, 246); fill-opacity: 1; stroke: rgb(51, 51, 51); stroke-opacity: 1;"/><path class="point" transform="translate(125.06,37.22)" d="M3,0A3,3 0 1,1 0,-3A3,3 0 0,1 3,0Z" style="opacity: 1; stroke-width: 1px; fill: rgb(100, 181, 246); fill-opacity: 1; stroke: rgb(51, 51, 51); stroke-opacity: 1;"/><path class="point" transform="translate(131.69,24.55)" d="M3,0A3,3 0 1,1 0,-3A3,3 0 0,1 3,0Z" style="opacity: 1; stroke-width: 1px; fill: rgb(100, 181, 246); fill-opacity: 1; stroke: rgb(51, 51, 51); stroke-opacity: 1;"/><path class="point" transform="translate(109.57,52.53)" d="M3,0A3,3 0 1,1 0,-3A3,3 0 0,1 3,0Z" style="opacity: 1; stroke-width: 1px; fill: rgb(100, 181, 246); fill-opacity: 1; stroke: rgb(51, 51, 51); stroke-opacity: 1;"/><path class="point" transform="translate(107.93,56.32)" d="M3,0A3,3 0 1,1 0,-3A3,3 0 0,1 3,0Z" style="opacity: 1; stroke-width: 1px; fill: rgb(100, 181, 246); fill-opacity: 1; stroke: rgb(51, 51, 51); stroke-opacity: 1;"/><path class="point" transform="translate(75.12,82.17)" d="M3,0A3,3 0 1,1 0,-3A3,3 0 0,1 3,0Z" style="opacity: 1; stroke-width: 1px; fill: rgb(100, 181, 246); fill-opacity: 1; stroke: rgb(51, 51, 51); stroke-opacity: 1;"/><path class="point" transform="translate(124.14,36.69)" d="M3,0A3,3 0 1,1 0,-3A3,3 0 0,1 3,0Z" style="opacity: 1; stroke-width: 1px; fill: rgb(100, 181, 246); fill-opacity: 1; stroke: rgb(51, 51, 51); stroke-opacity: 1;"/></g><g class="text"/></g></g></g><g class="overplot"/><path class="xlines-above crisp" d="M78,214.54H268M78,29H268" style="fill: none; stroke-width: 2px; stroke: rgb(51, 51, 51); stroke-opacity: 1;"/><path class="ylines-above crisp" d="M79,30V213.54M267,30V213.54" style="fill: none; stroke-width: 2px; stroke: rgb(51, 51, 51); stroke-opacity: 1;"/><g class="overlines-above"/><g class="xaxislayer-above"/><g class="yaxislayer-above"><path class="ytick ticks crisp" d="M78,0h-5" transform="translate(0,192.78)" style="stroke: rgb(68, 68, 68); stroke-opacity: 1; stroke-width: 1px;"/><path class="ytick ticks crisp" d="M78,0h-5" transform="translate(0,160.01)" style="stroke: rgb(68, 68, 68); stroke-opacity: 1; stroke-width: 1px;"/><path class="ytick ticks crisp" d="M78,0h-5" transform="translate(0,127.23)" style="stroke: rgb(68, 68, 68); stroke-opacity: 1; stroke-width: 1px;"/><path class="ytick ticks crisp" d="M78,0h-5" transform="translate(0,94.46)" style="stroke: rgb(68, 68, 68); stroke-opacity: 1; stroke-width: 1px;"/><path class="ytick ticks crisp" d="M78,0h-5" transform="translate(0,61.68)" style="stroke: rgb(68, 68, 68); stroke-opacity: 1; stroke-width: 1px;"/><g class="ytick"><text text-anchor="end" x="70.6" y="4.199999999999999" transform="translate(0,192.78)" style="font-family: Helvetica; font-size: 12px; fill: rgb(51, 51, 51); fill-opacity: 1; white-space: pre; opacity: 1;">−0.9</text></g><g class="ytick"><text text-anchor="end" x="70.6" y="4.199999999999999" style="font-family: Helvetica; font-size: 12px; fill: rgb(51, 51, 51); fill-opacity: 1; white-space: pre; opacity: 1;" transform="translate(0,160.01)">−0.6</text></g><g class="ytick"><text text-anchor="end" x="70.6" y="4.199999999999999" style="font-family: Helvetica; font-size: 12px; fill: rgb(51, 51, 51); fill-opacity: 1; white-space: pre; opacity: 1;" transform="translate(0,127.23)">−0.3</text></g><g class="ytick"><text text-anchor="end" x="70.6" y="4.199999999999999" style="font-family: Helvetica; font-size: 12px; fill: rgb(51, 51, 51); fill-opacity: 1; white-space: pre; opacity: 1;" transform="translate(0,94.46)">0</text></g><g class="ytick"><text text-anchor="end" x="70.6" y="4.199999999999999" style="font-family: Helvetica; font-size: 12px; fill: rgb(51, 51, 51); fill-opacity: 1; white-space: pre; opacity: 1;" transform="translate(0,61.68)">0.3</text></g></g><g class="overaxes-above"/></g><g class="subplot x2y2"><g class="layer-subplot"><g class="shapelayer"/><g class="imagelayer"/></g><g class="minor-gridlayer"><g class="x2"/><g class="y2"/></g><g class="gridlayer"><g class="x2"/><g class="y2"/></g><g class="zerolinelayer"><path class="x2zl zl crisp" transform="translate(414.68,0)" d="M0,30v183.54" style="stroke: rgb(51, 51, 51); stroke-opacity: 1; stroke-width: 2px;"/><path class="y2zl zl crisp" transform="translate(0,94.46)" d="M294,0h186" style="stroke: rgb(51, 51, 51); stroke-opacity: 1; stroke-width: 2px;"/></g><path class="xlines-below"/><path class="ylines-below"/><g class="overlines-below"/><g class="xaxislayer-below"/><g class="yaxislayer-below"/><g class="overaxes-below"/><g class="plot" transform="translate(294,30)" clip-path="url(#clip603d14x2y2plot)"><g class="scatterlayer mlayer"><g class="trace scatter trace68ac7c" style="stroke-miterlimit: 2; opacity: 1;"><g class="fills"/><g class="errorbars"/><g class="lines"><path class="js-line" d="M28.83,155.09L156.52,29.09" style="vector-effect: none; fill: none; stroke: rgb(25, 118, 210); stroke-opacity: 1; stroke-dasharray: 3px, 3px; stroke-width: 2px; opacity: 1;"/></g><g class="points"/><g class="text"/></g><g class="trace scatter trace09ad58" style="stroke-miterlimit: 2; opacity: 1;"><g class="fills"/><g class="errorbars"/><g class="lines"/><g class="points"><path class="point" transform="translate(110.21,41.23)" d="M3,0A3,3 0 1,1 0,-3A3,3 0 0,1 3,0Z" style="opacity: 1; stroke-width: 1px; fill: rgb(100, 181, 246); fill-opacity: 1; stroke: rgb(51, 51, 51); stroke-opacity: 1;"/><path class="point" transform="translate(110.33,46.69)" d="M3,0A3,3 0 1,1 0,-3A3,3 0 0,1 3,0Z" style="opacity: 1; stroke-width: 1px; fill: rgb(100, 181, 246); fill-opacity: 1; stroke: rgb(51, 51, 51); stroke-opacity: 1;"/><path class="point" transform="translate(106.52,49.83)" d="M3,0A3,3 0 1,1 0,-3A3,3 0 0,1 3,0Z" style="opacity: 1; stroke-width: 1px; fill: rgb(100, 181, 246); fill-opacity: 1; stroke: rgb(51, 51, 51); stroke-opacity: 1;"/><path class="point" transform="translate(85.1,70.93)" d="M3,0A3,3 0 1,1 0,-3A3,3 0 0,1 3,0Z" style="opacity: 1; stroke-width: 1px; fill: rgb(100, 181, 246); fill-opacity: 1; stroke: rgb(51, 51, 51); stroke-opacity: 1;"/><path class="point" transform="translate(117.24,41.83)" d="M3,0A3,3 0 1,1 0,-3A3,3 0 0,1 3,0Z" style="opacity: 1; stroke-width: 1px; fill: rgb(100, 181, 246); fill-opacity: 1; stroke: rgb(51, 51, 51); stroke-opacity: 1;"/><path class="point" transform="translate(108.73,48.23)" d="M3,0A3,3 0 1,1 0,-3A3,3 0 0,1 3,0Z" style="opacity: 1; stroke-width: 1px; fill: rgb(100, 181, 246); fill-opacity: 1; stroke: rgb(51, 51, 51); stroke-opacity: 1;"/><path class="point" transform="translate(92.55,62.34)" d="M3,0A3,3 0 1,1 0,-3A3,3 0 0,1 3,0Z" style="opacity: 1; stroke-width: 1px; fill: rgb(100, 181, 246); fill-opacity: 1; stroke: rgb(51, 51, 51); stroke-opacity: 1;"/><path class="point" transform="translate(121.33,34.73)" d="M3,0A3,3 0 1,1 0,-3A3,3 0 0,1 3,0Z" style="opacity: 1; stroke-width: 1px; fill: rgb(100, 181, 246); fill-opacity: 1; stroke: rgb(51, 51, 51); stroke-opacity: 1;"/><path class="point" transform="translate(99.33,56.98)" d="M3,0A3,3 0 1,1 0,-3A3,3 0 0,1 3,0Z" style="opacity: 1; stroke-width: 1px; fill: rgb(100, 181, 246); fill-opacity: 1; stroke: rgb(51, 51, 51); stroke-opacity: 1;"/><path class="point" transform="translate(92.38,62.99)" d="M3,0A3,3 0 1,1 0,-3A3,3 0 0,1 3,0Z" style="opacity: 1; stroke-width: 1px; fill: rgb(100, 181, 246); fill-opacity: 1; stroke: rgb(51, 51, 51); stroke-opacity: 1;"/><path class="point" transform="translate(96.3,59.45)" d="M3,0A3,3 0 1,1 0,-3A3,3 0 0,1 3,0Z" style="opacity: 1; stroke-width: 1px; fill: rgb(100, 181, 246); fill-opacity: 1; stroke: rgb(51, 51, 51); stroke-opacity: 1;"/><path class="point" transform="translate(117.43,34.16)" d="M3,0A3,3 0 1,1 0,-3A3,3 0 0,1 3,0Z" style="opacity: 1; stroke-width: 1px; fill: rgb(100, 181, 246); fill-opacity: 1; stroke: rgb(51, 51, 51); stroke-opacity: 1;"/><path class="point" transform="translate(89.42,65.98)" d="M3,0A3,3 0 1,1 0,-3A3,3 0 0,1 3,0Z" style="opacity: 1; stroke-width: 1px; fill: rgb(100, 181, 246); fill-opacity: 1; stroke: rgb(51, 51, 51); stroke-opacity: 1;"/><path class="point" transform="translate(28.83,120.1)" d="M3,0A3,3 0 1,1 0,-3A3,3 0 0,1 3,0Z" style="opacity: 1; stroke-width: 1px; fill: rgb(100, 181, 246); fill-opacity: 1; stroke: rgb(51, 51, 51); stroke-opacity: 1;"/><path class="point" transform="translate(127.02,29.09)" d="M3,0A3,3 0 1,1 0,-3A3,3 0 0,1 3,0Z" style="opacity: 1; stroke-width: 1px; fill: rgb(100, 181, 246); fill-opacity: 1; stroke: rgb(51, 51, 51); stroke-opacity: 1;"/><path class="point" transform="translate(99.09,57.88)" d="M3,0A3,3 0 1,1 0,-3A3,3 0 0,1 3,0Z" style="opacity: 1; stroke-width: 1px; fill: rgb(100, 181, 246); fill-opacity: 1; stroke: rgb(51, 51, 51); stroke-opacity: 1;"/><path class="point" transform="translate(113.58,41.37)" d="M3,0A3,3 0 1,1 0,-3A3,3 0 0,1 3,0Z" style="opacity: 1; stroke-width: 1px; fill: rgb(100, 181, 246); fill-opacity: 1; stroke: rgb(51, 51, 51); stroke-opacity: 1;"/><path class="point" transform="translate(104.12,51.52)" d="M3,0A3,3 0 1,1 0,-3A3,3 0 0,1 3,0Z" style="opacity: 1; stroke-width: 1px; fill: rgb(100, 181, 246); fill-opacity: 1; stroke: rgb(51, 51, 51); stroke-opacity: 1;"/><path class="point" transform="translate(121.84,33.72)" d="M3,0A3,3 0 1,1 0,-3A3,3 0 0,1 3,0Z" style="opacity: 1; stroke-width: 1px; fill: rgb(100, 181, 246); fill-opacity: 1; stroke: rgb(51, 51, 51); stroke-opacity: 1;"/><path class="point" transform="translate(109.96,46.59)" d="M3,0A3,3 0 1,1 0,-3A3,3 0 0,1 3,0Z" style="opacity: 1; stroke-width: 1px; fill: rgb(100, 181, 246); fill-opacity: 1; stroke: rgb(51, 51, 51); stroke-opacity: 1;"/><path class="point" transform="translate(121.84,33.72)" d="M3,0A3,3 0 1,1 0,-3A3,3 0 0,1 3,0Z" style="opacity: 1; stroke-width: 1px; fill: rgb(100, 181, 246); fill-opacity: 1; stroke: rgb(51, 51, 51); stroke-opacity: 1;"/><path class="point" transform="translate(96.69,58.14)" d="M3,0A3,3 0 1,1 0,-3A3,3 0 0,1 3,0Z" style="opacity: 1; stroke-width: 1px; fill: rgb(100, 181, 246); fill-opacity: 1; stroke: rgb(51, 51, 51); stroke-opacity: 1;"/><path class="point" transform="translate(60.25,94.49)" d="M3,0A3,3 0 1,1 0,-3A3,3 0 0,1 3,0Z" style="opacity: 1; stroke-width: 1px; fill: rgb(100, 181, 246); fill-opacity: 1; stroke: rgb(51, 51, 51); stroke-opacity: 1;"/><path class="point" transform="translate(109.31,47.58)" d="M3,0A3,3 0 1,1 0,-3A3,3 0 0,1 3,0Z" style="opacity: 1; stroke-width: 1px; fill: rgb(100, 181, 246); fill-opacity: 1; stroke: rgb(51, 51, 51); stroke-opacity: 1;"/><path class="point" transform="translate(105.59,51.5)" d="M3,0A3,3 0 1,1 0,-3A3,3 0 0,1 3,0Z" style="opacity: 1; stroke-width: 1px; fill: rgb(100, 181, 246); fill-opacity: 1; stroke: rgb(51, 51, 51); stroke-opacity: 1;"/><path class="point" transform="translate(114.04,38.1)" d="M3,0A3,3 0 1,1 0,-3A3,3 0 0,1 3,0Z" style="opacity: 1; stroke-width: 1px; fill: rgb(100, 181, 246); fill-opacity: 1; stroke: rgb(51, 51, 51); stroke-opacity: 1;"/><path class="point" transform="translate(109.69,48.83)" d="M3,0A3,3 0 1,1 0,-3A3,3 0 0,1 3,0Z" style="opacity: 1; stroke-width: 1px; fill: rgb(100, 181, 246); fill-opacity: 1; stroke: rgb(51, 51, 51); stroke-opacity: 1;"/><path class="point" transform="translate(105.17,47.42)" d="M3,0A3,3 0 1,1 0,-3A3,3 0 0,1 3,0Z" style="opacity: 1; stroke-width: 1px; fill: rgb(100, 181, 246); fill-opacity: 1; stroke: rgb(51, 51, 51); stroke-opacity: 1;"/><path class="point" transform="translate(108.88,42.32)" d="M3,0A3,3 0 1,1 0,-3A3,3 0 0,1 3,0Z" style="opacity: 1; stroke-width: 1px; fill: rgb(100, 181, 246); fill-opacity: 1; stroke: rgb(51, 51, 51); stroke-opacity: 1;"/><path class="point" transform="translate(107.02,48.94)" d="M3,0A3,3 0 1,1 0,-3A3,3 0 0,1 3,0Z" style="opacity: 1; stroke-width: 1px; fill: rgb(100, 181, 246); fill-opacity: 1; stroke: rgb(51, 51, 51); stroke-opacity: 1;"/></g><g class="text"/></g></g></g><g class="overplot"/><path class="xlines-above crisp" d="M292,214.54H482M292,29H482" style="fill: none; stroke-width: 2px; stroke: rgb(51, 51, 51); stroke-opacity: 1;"/><path class="ylines-above crisp" d="M293,30V213.54M481,30V213.54" style="fill: none; stroke-width: 2px; stroke: rgb(51, 51, 51); stroke-opacity: 1;"/><g class="overlines-above"/><g class="xaxislayer-above"/><g class="yaxislayer-above"/><g class="overaxes-above"/></g><g class="subplot x3y3"><g class="layer-subplot"><g class="shapelayer"/><g class="imagelayer"/></g><g class="minor-gridlayer"><g class="x3"/><g class="y3"/></g><g class="gridlayer"><g class="x3"/><g class="y3"/></g><g class="zerolinelayer"><path class="x3zl zl crisp" transform="translate(200.68,0)" d="M0,245.46v183.54000000000002" style="stroke: rgb(51, 51, 51); stroke-opacity: 1; stroke-width: 2px;"/><path class="y3zl zl crisp" transform="translate(0,309.92)" d="M80,0h186" style="stroke: rgb(51, 51, 51); stroke-opacity: 1; stroke-width: 2px;"/></g><path class="xlines-below"/><path class="ylines-below"/><g class="overlines-below"/><g class="xaxislayer-below"/><g class="yaxislayer-below"/><g class="overaxes-below"/><g class="plot" transform="translate(80,245.46)" clip-path="url(#clip603d14x3y3plot)"><g class="scatterlayer mlayer"><g class="trace scatter tracea5c59f" style="stroke-miterlimit: 2; opacity: 1;"><g class="fills"/><g class="errorbars"/><g class="lines"><path class="js-line" d="M23.18,160.67L167.57,18.19" style="vector-effect: none; fill: none; stroke: rgb(25, 118, 210); stroke-opacity: 1; stroke-dasharray: 3px, 3px; stroke-width: 2px; opacity: 1;"/></g><g class="points"/><g class="text"/></g><g class="trace scatter traced33e8c" style="stroke-miterlimit: 2; opacity: 1;"><g class="fills"/><g class="errorbars"/><g class="lines"/><g class="points"><path class="point" transform="translate(109.23,44.09)" d="M3,0A3,3 0 1,1 0,-3A3,3 0 0,1 3,0Z" style="opacity: 1; stroke-width: 1px; fill: rgb(100, 181, 246); fill-opacity: 1; stroke: rgb(51, 51, 51); stroke-opacity: 1;"/><path class="point" transform="translate(96.44,56.46)" d="M3,0A3,3 0 1,1 0,-3A3,3 0 0,1 3,0Z" style="opacity: 1; stroke-width: 1px; fill: rgb(100, 181, 246); fill-opacity: 1; stroke: rgb(51, 51, 51); stroke-opacity: 1;"/><path class="point" transform="translate(136.92,18.19)" d="M3,0A3,3 0 1,1 0,-3A3,3 0 0,1 3,0Z" style="opacity: 1; stroke-width: 1px; fill: rgb(100, 181, 246); fill-opacity: 1; stroke: rgb(51, 51, 51); stroke-opacity: 1;"/><path class="point" transform="translate(96.73,53.46)" d="M3,0A3,3 0 1,1 0,-3A3,3 0 0,1 3,0Z" style="opacity: 1; stroke-width: 1px; fill: rgb(100, 181, 246); fill-opacity: 1; stroke: rgb(51, 51, 51); stroke-opacity: 1;"/><path class="point" transform="translate(91.82,59.29)" d="M3,0A3,3 0 1,1 0,-3A3,3 0 0,1 3,0Z" style="opacity: 1; stroke-width: 1px; fill: rgb(100, 181, 246); fill-opacity: 1; stroke: rgb(51, 51, 51); stroke-opacity: 1;"/><path class="point" transform="translate(84.26,66.29)" d="M3,0A3,3 0 1,1 0,-3A3,3 0 0,1 3,0Z" style="opacity: 1; stroke-width: 1px; fill: rgb(100, 181, 246); fill-opacity: 1; stroke: rgb(51, 51, 51); stroke-opacity: 1;"/><path class="point" transform="translate(99.52,53.15)" d="M3,0A3,3 0 1,1 0,-3A3,3 0 0,1 3,0Z" style="opacity: 1; stroke-width: 1px; fill: rgb(100, 181, 246); fill-opacity: 1; stroke: rgb(51, 51, 51); stroke-opacity: 1;"/><path class="point" transform="translate(83.04,63.37)" d="M3,0A3,3 0 1,1 0,-3A3,3 0 0,1 3,0Z" style="opacity: 1; stroke-width: 1px; fill: rgb(100, 181, 246); fill-opacity: 1; stroke: rgb(51, 51, 51); stroke-opacity: 1;"/><path class="point" transform="translate(102.65,51.7)" d="M3,0A3,3 0 1,1 0,-3A3,3 0 0,1 3,0Z" style="opacity: 1; stroke-width: 1px; fill: rgb(100, 181, 246); fill-opacity: 1; stroke: rgb(51, 51, 51); stroke-opacity: 1;"/><path class="point" transform="translate(74.3,75)" d="M3,0A3,3 0 1,1 0,-3A3,3 0 0,1 3,0Z" style="opacity: 1; stroke-width: 1px; fill: rgb(100, 181, 246); fill-opacity: 1; stroke: rgb(51, 51, 51); stroke-opacity: 1;"/><path class="point" transform="translate(120.75,32.59)" d="M3,0A3,3 0 1,1 0,-3A3,3 0 0,1 3,0Z" style="opacity: 1; stroke-width: 1px; fill: rgb(100, 181, 246); fill-opacity: 1; stroke: rgb(51, 51, 51); stroke-opacity: 1;"/><path class="point" transform="translate(80.92,67.37)" d="M3,0A3,3 0 1,1 0,-3A3,3 0 0,1 3,0Z" style="opacity: 1; stroke-width: 1px; fill: rgb(100, 181, 246); fill-opacity: 1; stroke: rgb(51, 51, 51); stroke-opacity: 1;"/><path class="point" transform="translate(65.62,82.98)" d="M3,0A3,3 0 1,1 0,-3A3,3 0 0,1 3,0Z" style="opacity: 1; stroke-width: 1px; fill: rgb(100, 181, 246); fill-opacity: 1; stroke: rgb(51, 51, 51); stroke-opacity: 1;"/><path class="point" transform="translate(112.94,41.32)" d="M3,0A3,3 0 1,1 0,-3A3,3 0 0,1 3,0Z" style="opacity: 1; stroke-width: 1px; fill: rgb(100, 181, 246); fill-opacity: 1; stroke: rgb(51, 51, 51); stroke-opacity: 1;"/><path class="point" transform="translate(91.61,57.68)" d="M3,0A3,3 0 1,1 0,-3A3,3 0 0,1 3,0Z" style="opacity: 1; stroke-width: 1px; fill: rgb(100, 181, 246); fill-opacity: 1; stroke: rgb(51, 51, 51); stroke-opacity: 1;"/><path class="point" transform="translate(98.09,53.97)" d="M3,0A3,3 0 1,1 0,-3A3,3 0 0,1 3,0Z" style="opacity: 1; stroke-width: 1px; fill: rgb(100, 181, 246); fill-opacity: 1; stroke: rgb(51, 51, 51); stroke-opacity: 1;"/><path class="point" transform="translate(87.72,64.61)" d="M3,0A3,3 0 1,1 0,-3A3,3 0 0,1 3,0Z" style="opacity: 1; stroke-width: 1px; fill: rgb(100, 181, 246); fill-opacity: 1; stroke: rgb(51, 51, 51); stroke-opacity: 1;"/><path class="point" transform="translate(106.49,44.44)" d="M3,0A3,3 0 1,1 0,-3A3,3 0 0,1 3,0Z" style="opacity: 1; stroke-width: 1px; fill: rgb(100, 181, 246); fill-opacity: 1; stroke: rgb(51, 51, 51); stroke-opacity: 1;"/><path class="point" transform="translate(122.13,27.31)" d="M3,0A3,3 0 1,1 0,-3A3,3 0 0,1 3,0Z" style="opacity: 1; stroke-width: 1px; fill: rgb(100, 181, 246); fill-opacity: 1; stroke: rgb(51, 51, 51); stroke-opacity: 1;"/><path class="point" transform="translate(92.15,58.56)" d="M3,0A3,3 0 1,1 0,-3A3,3 0 0,1 3,0Z" style="opacity: 1; stroke-width: 1px; fill: rgb(100, 181, 246); fill-opacity: 1; stroke: rgb(51, 51, 51); stroke-opacity: 1;"/><path class="point" transform="translate(99.28,53.67)" d="M3,0A3,3 0 1,1 0,-3A3,3 0 0,1 3,0Z" style="opacity: 1; stroke-width: 1px; fill: rgb(100, 181, 246); fill-opacity: 1; stroke: rgb(51, 51, 51); stroke-opacity: 1;"/><path class="point" transform="translate(23.18,125.2)" d="M3,0A3,3 0 1,1 0,-3A3,3 0 0,1 3,0Z" style="opacity: 1; stroke-width: 1px; fill: rgb(100, 181, 246); fill-opacity: 1; stroke: rgb(51, 51, 51); stroke-opacity: 1;"/><path class="point" transform="translate(95.54,53.8)" d="M3,0A3,3 0 1,1 0,-3A3,3 0 0,1 3,0Z" style="opacity: 1; stroke-width: 1px; fill: rgb(100, 181, 246); fill-opacity: 1; stroke: rgb(51, 51, 51); stroke-opacity: 1;"/><path class="point" transform="translate(72.38,82.07)" d="M3,0A3,3 0 1,1 0,-3A3,3 0 0,1 3,0Z" style="opacity: 1; stroke-width: 1px; fill: rgb(100, 181, 246); fill-opacity: 1; stroke: rgb(51, 51, 51); stroke-opacity: 1;"/><path class="point" transform="translate(99.23,50.68)" d="M3,0A3,3 0 1,1 0,-3A3,3 0 0,1 3,0Z" style="opacity: 1; stroke-width: 1px; fill: rgb(100, 181, 246); fill-opacity: 1; stroke: rgb(51, 51, 51); stroke-opacity: 1;"/></g><g class="text"/></g></g></g><g class="overplot"/><path class="xlines-above crisp" d="M78,430H268M78,244.46H268" style="fill: none; stroke-width: 2px; stroke: rgb(51, 51, 51); stroke-opacity: 1;"/><path class="ylines-above crisp" d="M79,245.46V429M267,245.46V429" style="fill: none; stroke-width: 2px; stroke: rgb(51, 51, 51); stroke-opacity: 1;"/><g class="overlines-above"/><g class="xaxislayer-above"><path class="x3tick ticks crisp" d="M0,431v5" transform="translate(101.03999999999999,0)" style="stroke: rgb(68, 68, 68); stroke-opacity: 1; stroke-width: 1px;"/><path class="x3tick ticks crisp" d="M0,431v5" transform="translate(134.25,0)" style="stroke: rgb(68, 68, 68); stroke-opacity: 1; stroke-width: 1px;"/><path class="x3tick ticks crisp" d="M0,431v5" transform="translate(167.45999999999998,0)" style="stroke: rgb(68, 68, 68); stroke-opacity: 1; stroke-width: 1px;"/><path class="x3tick ticks crisp" d="M0,431v5" transform="translate(200.68,0)" style="stroke: rgb(68, 68, 68); stroke-opacity: 1; stroke-width: 1px;"/><path class="x3tick ticks crisp" d="M0,431v5" transform="translate(233.89,0)" style="stroke: rgb(68, 68, 68); stroke-opacity: 1; stroke-width: 1px;"/><g class="x3tick"><text text-anchor="middle" x="0" y="450.4" transform="translate(101.03999999999999,0)" style="font-family: Helvetica; font-size: 12px; fill: rgb(51, 51, 51); fill-opacity: 1; white-space: pre; opacity: 1;">−0.9</text></g><g class="x3tick"><text text-anchor="middle" x="0" y="450.4" style="font-family: Helvetica; font-size: 12px; fill: rgb(51, 51, 51); fill-opacity: 1; white-space: pre; opacity: 1;" transform="translate(134.25,0)">−0.6</text></g><g class="x3tick"><text text-anchor="middle" x="0" y="450.4" style="font-family: Helvetica; font-size: 12px; fill: rgb(51, 51, 51); fill-opacity: 1; white-space: pre; opacity: 1;" transform="translate(167.45999999999998,0)">−0.3</text></g><g class="x3tick"><text text-anchor="middle" x="0" y="450.4" style="font-family: Helvetica; font-size: 12px; fill: rgb(51, 51, 51); fill-opacity: 1; white-space: pre; opacity: 1;" transform="translate(200.68,0)">0</text></g><g class="x3tick"><text text-anchor="middle" x="0" y="450.4" style="font-family: Helvetica; font-size: 12px; fill: rgb(51, 51, 51); fill-opacity: 1; white-space: pre; opacity: 1;" transform="translate(233.89,0)">0.3</text></g></g><g class="yaxislayer-above"><path class="y3tick ticks crisp" d="M78,0h-5" transform="translate(0,408.24)" style="stroke: rgb(68, 68, 68); stroke-opacity: 1; stroke-width: 1px;"/><path class="y3tick ticks crisp" d="M78,0h-5" transform="translate(0,375.47)" style="stroke: rgb(68, 68, 68); stroke-opacity: 1; stroke-width: 1px;"/><path class="y3tick ticks crisp" d="M78,0h-5" transform="translate(0,342.69)" style="stroke: rgb(68, 68, 68); stroke-opacity: 1; stroke-width: 1px;"/><path class="y3tick ticks crisp" d="M78,0h-5" transform="translate(0,309.92)" style="stroke: rgb(68, 68, 68); stroke-opacity: 1; stroke-width: 1px;"/><path class="y3tick ticks crisp" d="M78,0h-5" transform="translate(0,277.14)" style="stroke: rgb(68, 68, 68); stroke-opacity: 1; stroke-width: 1px;"/><g class="y3tick"><text text-anchor="end" x="70.6" y="4.199999999999999" transform="translate(0,408.24)" style="font-family: Helvetica; font-size: 12px; fill: rgb(51, 51, 51); fill-opacity: 1; white-space: pre; opacity: 1;">−0.9</text></g><g class="y3tick"><text text-anchor="end" x="70.6" y="4.199999999999999" style="font-family: Helvetica; font-size: 12px; fill: rgb(51, 51, 51); fill-opacity: 1; white-space: pre; opacity: 1;" transform="translate(0,375.47)">−0.6</text></g><g class="y3tick"><text text-anchor="end" x="70.6" y="4.199999999999999" style="font-family: Helvetica; font-size: 12px; fill: rgb(51, 51, 51); fill-opacity: 1; white-space: pre; opacity: 1;" transform="translate(0,342.69)">−0.3</text></g><g class="y3tick"><text text-anchor="end" x="70.6" y="4.199999999999999" style="font-family: Helvetica; font-size: 12px; fill: rgb(51, 51, 51); fill-opacity: 1; white-space: pre; opacity: 1;" transform="translate(0,309.92)">0</text></g><g class="y3tick"><text text-anchor="end" x="70.6" y="4.199999999999999" style="font-family: Helvetica; font-size: 12px; fill: rgb(51, 51, 51); fill-opacity: 1; white-space: pre; opacity: 1;" transform="translate(0,277.14)">0.3</text></g></g><g class="overaxes-above"/></g><g class="subplot x4y4"><g class="layer-subplot"><g class="shapelayer"/><g class="imagelayer"/></g><g class="minor-gridlayer"><g class="x4"/><g class="y4"/></g><g class="gridlayer"><g class="x4"/><g class="y4"/></g><g class="zerolinelayer"><path class="x4zl zl crisp" transform="translate(414.68,0)" d="M0,245.46v183.54000000000002" style="stroke: rgb(51, 51, 51); stroke-opacity: 1; stroke-width: 2px;"/><path class="y4zl zl crisp" transform="translate(0,309.92)" d="M294,0h186" style="stroke: rgb(51, 51, 51); stroke-opacity: 1; stroke-width: 2px;"/></g><path class="xlines-below"/><path class="ylines-below"/><g class="overlines-below"/><g class="xaxislayer-below"/><g class="yaxislayer-below"/><g class="overaxes-below"/><g class="plot" transform="translate(294,245.46)" clip-path="url(#clip603d14x4y4plot)"><g class="scatterlayer mlayer"><g class="trace scatter tracef02ffe" style="stroke-miterlimit: 2; opacity: 1;"><g class="fills"/><g class="errorbars"/><g class="lines"><path class="js-line" d="M32.17,151.8L151.56,33.98" style="vector-effect: none; fill: none; stroke: rgb(25, 118, 210); stroke-opacity: 1; stroke-dasharray: 3px, 3px; stroke-width: 2px; opacity: 1;"/></g><g class="points"/><g class="text"/></g><g class="trace scatter tracee24ab4" style="stroke-miterlimit: 2; opacity: 1;"><g class="fills"/><g class="errorbars"/><g class="lines"/><g class="points"><path class="point" transform="translate(109.96,33.98)" d="M3,0A3,3 0 1,1 0,-3A3,3 0 0,1 3,0Z" style="opacity: 1; stroke-width: 1px; fill: rgb(100, 181, 246); fill-opacity: 1; stroke: rgb(51, 51, 51); stroke-opacity: 1;"/><path class="point" transform="translate(74.55,69.95)" d="M3,0A3,3 0 1,1 0,-3A3,3 0 0,1 3,0Z" style="opacity: 1; stroke-width: 1px; fill: rgb(100, 181, 246); fill-opacity: 1; stroke: rgb(51, 51, 51); stroke-opacity: 1;"/><path class="point" transform="translate(32.17,112.24)" d="M3,0A3,3 0 1,1 0,-3A3,3 0 0,1 3,0Z" style="opacity: 1; stroke-width: 1px; fill: rgb(100, 181, 246); fill-opacity: 1; stroke: rgb(51, 51, 51); stroke-opacity: 1;"/><path class="point" transform="translate(77.31,71.07)" d="M3,0A3,3 0 1,1 0,-3A3,3 0 0,1 3,0Z" style="opacity: 1; stroke-width: 1px; fill: rgb(100, 181, 246); fill-opacity: 1; stroke: rgb(51, 51, 51); stroke-opacity: 1;"/><path class="point" transform="translate(67.94,76.48)" d="M3,0A3,3 0 1,1 0,-3A3,3 0 0,1 3,0Z" style="opacity: 1; stroke-width: 1px; fill: rgb(100, 181, 246); fill-opacity: 1; stroke: rgb(51, 51, 51); stroke-opacity: 1;"/><path class="point" transform="translate(69.63,76.8)" d="M3,0A3,3 0 1,1 0,-3A3,3 0 0,1 3,0Z" style="opacity: 1; stroke-width: 1px; fill: rgb(100, 181, 246); fill-opacity: 1; stroke: rgb(51, 51, 51); stroke-opacity: 1;"/><path class="point" transform="translate(68.72,78.03)" d="M3,0A3,3 0 1,1 0,-3A3,3 0 0,1 3,0Z" style="opacity: 1; stroke-width: 1px; fill: rgb(100, 181, 246); fill-opacity: 1; stroke: rgb(51, 51, 51); stroke-opacity: 1;"/><path class="point" transform="translate(85.18,60.39)" d="M3,0A3,3 0 1,1 0,-3A3,3 0 0,1 3,0Z" style="opacity: 1; stroke-width: 1px; fill: rgb(100, 181, 246); fill-opacity: 1; stroke: rgb(51, 51, 51); stroke-opacity: 1;"/><path class="point" transform="translate(70.27,75.81)" d="M3,0A3,3 0 1,1 0,-3A3,3 0 0,1 3,0Z" style="opacity: 1; stroke-width: 1px; fill: rgb(100, 181, 246); fill-opacity: 1; stroke: rgb(51, 51, 51); stroke-opacity: 1;"/><path class="point" transform="translate(103.91,41.22)" d="M3,0A3,3 0 1,1 0,-3A3,3 0 0,1 3,0Z" style="opacity: 1; stroke-width: 1px; fill: rgb(100, 181, 246); fill-opacity: 1; stroke: rgb(51, 51, 51); stroke-opacity: 1;"/><path class="point" transform="translate(81.63,64.51)" d="M3,0A3,3 0 1,1 0,-3A3,3 0 0,1 3,0Z" style="opacity: 1; stroke-width: 1px; fill: rgb(100, 181, 246); fill-opacity: 1; stroke: rgb(51, 51, 51); stroke-opacity: 1;"/><path class="point" transform="translate(102.67,42.46)" d="M3,0A3,3 0 1,1 0,-3A3,3 0 0,1 3,0Z" style="opacity: 1; stroke-width: 1px; fill: rgb(100, 181, 246); fill-opacity: 1; stroke: rgb(51, 51, 51); stroke-opacity: 1;"/><path class="point" transform="translate(101.25,45.78)" d="M3,0A3,3 0 1,1 0,-3A3,3 0 0,1 3,0Z" style="opacity: 1; stroke-width: 1px; fill: rgb(100, 181, 246); fill-opacity: 1; stroke: rgb(51, 51, 51); stroke-opacity: 1;"/></g><g class="text"/></g></g></g><g class="overplot"/><path class="xlines-above crisp" d="M292,430H482M292,244.46H482" style="fill: none; stroke-width: 2px; stroke: rgb(51, 51, 51); stroke-opacity: 1;"/><path class="ylines-above crisp" d="M293,245.46V429M481,245.46V429" style="fill: none; stroke-width: 2px; stroke: rgb(51, 51, 51); stroke-opacity: 1;"/><g class="overlines-above"/><g class="xaxislayer-above"><path class="x4tick ticks crisp" d="M0,431v5" transform="translate(315.04,0)" style="stroke: rgb(68, 68, 68); stroke-opacity: 1; stroke-width: 1px;"/><path class="x4tick ticks crisp" d="M0,431v5" transform="translate(348.25,0)" style="stroke: rgb(68, 68, 68); stroke-opacity: 1; stroke-width: 1px;"/><path class="x4tick ticks crisp" d="M0,431v5" transform="translate(381.46,0)" style="stroke: rgb(68, 68, 68); stroke-opacity: 1; stroke-width: 1px;"/><path class="x4tick ticks crisp" d="M0,431v5" transform="translate(414.68,0)" style="stroke: rgb(68, 68, 68); stroke-opacity: 1; stroke-width: 1px;"/><path class="x4tick ticks crisp" d="M0,431v5" transform="translate(447.89,0)" style="stroke: rgb(68, 68, 68); stroke-opacity: 1; stroke-width: 1px;"/><g class="x4tick"><text text-anchor="middle" x="0" y="450.4" transform="translate(315.04,0)" style="font-family: Helvetica; font-size: 12px; fill: rgb(51, 51, 51); fill-opacity: 1; white-space: pre; opacity: 1;">−0.9</text></g><g class="x4tick"><text text-anchor="middle" x="0" y="450.4" style="font-family: Helvetica; font-size: 12px; fill: rgb(51, 51, 51); fill-opacity: 1; white-space: pre; opacity: 1;" transform="translate(348.25,0)">−0.6</text></g><g class="x4tick"><text text-anchor="middle" x="0" y="450.4" style="font-family: Helvetica; font-size: 12px; fill: rgb(51, 51, 51); fill-opacity: 1; white-space: pre; opacity: 1;" transform="translate(381.46,0)">−0.3</text></g><g class="x4tick"><text text-anchor="middle" x="0" y="450.4" style="font-family: Helvetica; font-size: 12px; fill: rgb(51, 51, 51); fill-opacity: 1; white-space: pre; opacity: 1;" transform="translate(414.68,0)">0</text></g><g class="x4tick"><text text-anchor="middle" x="0" y="450.4" style="font-family: Helvetica; font-size: 12px; fill: rgb(51, 51, 51); fill-opacity: 1; white-space: pre; opacity: 1;" transform="translate(447.89,0)">0.3</text></g></g><g class="yaxislayer-above"/><g class="overaxes-above"/></g></g><g class="polarlayer"/><g class="smithlayer"/><g class="ternarylayer"/><g class="geolayer"/><g class="funnelarealayer"/><g class="pielayer"/><g class="iciclelayer"/><g class="treemaplayer"/><g class="sunburstlayer"/><g class="glimages"/><defs id="topdefs-603d14"><g class="clips"/></defs><g class="layer-above"><g class="imagelayer"/><g class="shapelayer"/></g><g class="infolayer"><g class="g-gtitle"/><g class="g-xtitle"/><g class="g-x2title"/><g class="g-x3title" transform="translate(0,-24.21875)"><text class="x3title" x="173" y="499.40625" text-anchor="middle" style="font-family: Helvetica; font-size: 16px; fill: rgb(51, 51, 51); opacity: 1; font-weight: normal; white-space: pre;"><tspan class="line" dy="0em" x="173" y="499.40625">Error from extrapolations</tspan><tspan class="line" dy="1.3em" x="173" y="499.40625">including double-zeta basis</tspan></text></g><g class="g-x4title" transform="translate(0,-24.21875)"><text class="x4title" x="387" y="499.40625" text-anchor="middle" style="font-family: Helvetica; font-size: 16px; fill: rgb(51, 51, 51); opacity: 1; font-weight: normal; white-space: pre;"><tspan class="line" dy="0em" x="387" y="499.40625">Error from extrapolations</tspan><tspan class="line" dy="1.3em" x="387" y="499.40625">including double-zeta basis</tspan></text></g><g class="g-ytitle" transform="translate(13.09765625,0)"><text class="ytitle" transform="rotate(-90,0.90625,121.77)" x="0.90625" y="121.77" text-anchor="middle" style="font-family: Helvetica; font-size: 16px; fill: rgb(51, 51, 51); opacity: 1; font-weight: normal; white-space: pre;"><tspan class="line" dy="0em" x="0.90625" y="121.77">Error from extrapolations</tspan><tspan class="line" dy="1.3em" x="0.90625" y="121.77">excluding double-zeta basis</tspan></text></g><g class="g-y2title"/><g class="g-y3title" transform="translate(13.10546875,0)"><text class="y3title" transform="rotate(-90,0.90625,337.23)" x="0.90625" y="337.23" text-anchor="middle" style="font-family: Helvetica; font-size: 16px; fill: rgb(51, 51, 51); opacity: 1; font-weight: normal; white-space: pre;"><tspan class="line" dy="0em" x="0.90625" y="337.23">Error from extrapolations</tspan><tspan class="line" dy="1.3em" x="0.90625" y="337.23">excluding double-zeta basis</tspan></text></g><g class="g-y4title"/><g class="annotation" data-index="0" style="opacity: 1;"><g class="annotation-text-g" transform="rotate(0,173,19)"><g class="cursor-pointer" transform="translate(139,8)"><rect class="bg" x="0.5" y="0.5" width="68" height="21" style="stroke-width: 1px; stroke: rgb(0, 0, 0); stroke-opacity: 0; fill: rgb(0, 0, 0); fill-opacity: 0;"/><text class="annotation-text" text-anchor="middle" x="34.46875" y="16" style="font-family: Helvetica; font-size: 16px; fill: rgb(51, 51, 51); fill-opacity: 1; white-space: pre;"><tspan style="font-weight:bold">C-Series</tspan></text></g></g></g><g class="annotation" data-index="1" style="opacity: 1;"><g class="annotation-text-g" transform="rotate(0,386.99999999999994,19)"><g class="cursor-pointer" transform="translate(352,8)"><rect class="bg" x="0.5" y="0.5" width="68" height="21" style="stroke-width: 1px; stroke: rgb(0, 0, 0); stroke-opacity: 0; fill: rgb(0, 0, 0); fill-opacity: 0;"/><text class="annotation-text" text-anchor="middle" x="34.46875" y="16" style="font-family: Helvetica; font-size: 16px; fill: rgb(51, 51, 51); fill-opacity: 1; white-space: pre;"><tspan style="font-weight:bold">N-Series</tspan></text></g></g></g><g class="annotation" data-index="2" style="opacity: 1;"><g class="annotation-text-g" transform="rotate(0,173,234.46)"><g class="cursor-pointer" transform="translate(138,223)"><rect class="bg" x="0.5" y="0.5" width="69" height="21" style="stroke-width: 1px; stroke: rgb(0, 0, 0); stroke-opacity: 0; fill: rgb(0, 0, 0); fill-opacity: 0;"/><text class="annotation-text" text-anchor="middle" x="34.90625" y="16" style="font-family: Helvetica; font-size: 16px; fill: rgb(51, 51, 51); fill-opacity: 1; white-space: pre;"><tspan style="font-weight:bold">O-Series</tspan></text></g></g></g><g class="annotation" data-index="3" style="opacity: 1;"><g class="annotation-text-g" transform="rotate(0,386.99999999999994,234.46)"><g class="cursor-pointer" transform="translate(353,223)"><rect class="bg" x="0.5" y="0.5" width="66" height="21" style="stroke-width: 1px; stroke: rgb(0, 0, 0); stroke-opacity: 0; fill: rgb(0, 0, 0); fill-opacity: 0;"/><text class="annotation-text" text-anchor="middle" x="33.578125" y="16" style="font-family: Helvetica; font-size: 16px; fill: rgb(51, 51, 51); fill-opacity: 1; white-space: pre;"><tspan style="font-weight:bold">F-Series</tspan></text></g></g></g></g></svg>