<svg class="main-svg" xmlns="http://www.w3.org/2000/svg" xmlns:xlink="http://www.w3.org/1999/xlink" width="500" height="500" style="" viewBox="0 0 500 500"><rect x="0" y="0" width="500" height="500" style="fill: rgb(255, 255, 255); fill-opacity: 1;"/><defs id="defs-475f23"><g class="clips"><clipPath id="clip475f23xyplot" class="plotclip"><rect width="186" height="183.54"/></clipPath><clipPath id="clip475f23x2y2plot" class="plotclip"><rect width="186" height="183.54"/></clipPath><clipPath id="clip475f23x3y3plot" class="plotclip"><rect width="186" height="183.54000000000002"/></clipPath><clipPath id="clip475f23x4y4plot" class="plotclip"><rect width="186" height="183.54000000000002"/></clipPath><clipPath class="axesclip" id="clip475f23x"><rect x="80" y="0" width="186" height="500"/></clipPath><clipPath class="axesclip" id="clip475f23y"><rect x="0" y="30" width="500" height="183.54"/></clipPath><clipPath class="axesclip" id="clip475f23xy"><rect x="80" y="30" width="186" height="183.54"/></clipPath><clipPath class="axesclip" id="clip475f23y2"><rect x="0" y="30" width="500" height="183.54"/></clipPath><clipPath class="axesclip" id="clip475f23xy2"><rect x="80" y="30" width="186" height="183.54"/></clipPath><clipPath class="axesclip" id="clip475f23y3"><rect x="0" y="245.46" width="500" height="183.54000000000002"/></clipPath><clipPath class="axesclip" id="clip475f23xy3"><rect x="80" y="245.46" width="186" height="183.54000000000002"/></clipPath><clipPath class="axesclip" id="clip475f23y4"><rect x="0" y="245.46" width="500" height="183.54000000000002"/></clipPath><clipPath class="axesclip" id="clip475f23xy4"><rect x="80" y="245.46" width="186" height="183.54000000000002"/></clipPath><clipPath class="axesclip" id="clip475f23x2"><rect x="294" y="0" width="186" height="500"/></clipPath><clipPath class="axesclip" id="clip475f23x2y"><rect x="294" y="30" width="186" height="183.54"/></clipPath><clipPath class="axesclip" id="clip475f23x2y2"><rect x="294" y="30" width="186" height="183.54"/></clipPath><clipPath class="axesclip" id="clip475f23x2y3"><rect x="294" y="245.46" width="186" height="183.54000000000002"/></clipPath><clipPath class="axesclip" id="clip475f23x2y4"><rect x="294" y="245.46" width="186" height="183.54000000000002"/></clipPath><clipPath class="axesclip" id="clip475f23x3"><rect x="80" y="0" width="186" height="500"/></clipPath><clipPath class="axesclip" id="clip475f23x3y"><rect x="80" y="30" width="186" height="183.54"/></clipPath><clipPath class="axesclip" id="clip475f23x3y2"><rect x="80" y="30" width="186" height="183.54"/></clipPath><clipPath class="axesclip" id="clip475f23x3y3"><rect x="80" y="245.46" width="186" height="183.54000000000002"/></clipPath><clipPath class="axesclip" id="clip475f23x3y4"><rect x="80" y="245.46" width="186" height="183.54000000000002"/></clipPath><clipPath class="axesclip" id="clip475f23x4"><rect x="294" y="0" width="186" height="500"/></clipPath><clipPath class="axesclip" id="clip475f23x4y"><rect x="294" y="30" width="186" height="183.54"/></clipPath><clipPath class="axesclip" id="clip475f23x4y2"><rect x="294" y="30" width="186" height="183.54"/></clipPath><clipPath class="axesclip" id="clip475f23x4y3"><rect x="294" y="245.46" width="186" height="183.54000000000002"/></clipPath><clipPath class="axesclip" id="clip475f23x4y4"><rect x="294" y="245.46" width="186" height="183.54000000000002"/></clipPath></g><g class="gradients"/><g class="patterns"/></defs><g class="bglayer"/><g class="layer-below"><g class="imagelayer"/><g class="shapelayer"/></g><g class="cartesianlayer"><g class="subplot xy"><g class="layer-subplot"><g class="shapelayer"/><g class="imagelayer"/></g><g class="minor-gridlayer"><g class="x"/><g class="y"/></g><g class="gridlayer"><g class="x"/><g class="y"/></g><g class="zerolinelayer"><path class="xzl zl crisp" transform="translate(200.68,0)" d="M0,30v183.54" style="stroke: rgb(51, 51, 51); stroke-opacity: 1; stroke-width: 2px;"/><path class="yzl zl crisp" transform="translate(0,94.46)" d="M80,0h186" style="stroke: rgb(51, 51, 51); stroke-opacity: 1; stroke-width: 2px;"/></g><path class="xlines-below"/><path class="ylines-below"/><g class="overlines-below"/><g class="xaxislayer-below"/><g class="yaxislayer-below"/><g class="overaxes-below"/><g class="plot" transform="translate(80,30)" clip-path="url(#clip475f23xyplot)"><g class="scatterlayer mlayer"><g class="trace scatter tracea2e8b0" style="stroke-miterlimit: 2; opacity: 1;"><g class="fills"/><g class="errorbars"/><g class="lines"><path class="js-line" d="M75.12,109.42L157.66,27.96" style="vector-effect: none; fill: none; stroke: rgb(25, 118, 210); stroke-opacity: 1; stroke-dasharray: 3px, 3px; stroke-width: 2px; opacity: 1;"/></g><g class="points"/><g class="text"/></g><g class="trace scatter trace44a633" style="stroke-miterlimit: 2; opacity: 1;"><g class="fills"/><g class="errorbars"/><g class="lines"/><g class="points"><path class="point" transform="translate(139.84,69.23)" d="M3,0A3,3 0 1,1 0,-3A3,3 0 0,1 3,0Z" style="opacity: 1; stroke-width: 1px; fill: rgb(100, 181, 246); fill-opacity: 1; stroke: rgb(51, 51, 51); stroke-opacity: 1;"/><path class="point" transform="translate(112.74,74.84)" d="M3,0A3,3 0 1,1 0,-3A3,3 0 0,1 3,0Z" style="opacity: 1; stroke-width: 1px; fill: rgb(100, 181, 246); fill-opacity: 1; stroke: rgb(51, 51, 51); stroke-opacity: 1;"/><path class="point" transform="translate(168.74,63.63)" d="M3,0A3,3 0 1,1 0,-3A3,3 0 0,1 3,0Z" style="opacity: 1; stroke-width: 1px; fill: rgb(100, 181, 246); fill-opacity: 1; stroke: rgb(51, 51, 51); stroke-opacity: 1;"/><path class="point" transform="translate(121.68,74.02)" d="M3,0A3,3 0 1,1 0,-3A3,3 0 0,1 3,0Z" style="opacity: 1; stroke-width: 1px; fill: rgb(100, 181, 246); fill-opacity: 1; stroke: rgb(51, 51, 51); stroke-opacity: 1;"/><path class="point" transform="translate(113.03,72.75)" d="M3,0A3,3 0 1,1 0,-3A3,3 0 0,1 3,0Z" style="opacity: 1; stroke-width: 1px; fill: rgb(100, 181, 246); fill-opacity: 1; stroke: rgb(51, 51, 51); stroke-opacity: 1;"/><path class="point" transform="translate(121.11,67.37)" d="M3,0A3,3 0 1,1 0,-3A3,3 0 0,1 3,0Z" style="opacity: 1; stroke-width: 1px; fill: rgb(100, 181, 246); fill-opacity: 1; stroke: rgb(51, 51, 51); stroke-opacity: 1;"/><path class="point" transform="translate(108.95,79.01)" d="M3,0A3,3 0 1,1 0,-3A3,3 0 0,1 3,0Z" style="opacity: 1; stroke-width: 1px; fill: rgb(100, 181, 246); fill-opacity: 1; stroke: rgb(51, 51, 51); stroke-opacity: 1;"/><path class="point" transform="translate(115.65,72.97)" d="M3,0A3,3 0 1,1 0,-3A3,3 0 0,1 3,0Z" style="opacity: 1; stroke-width: 1px; fill: rgb(100, 181, 246); fill-opacity: 1; stroke: rgb(51, 51, 51); stroke-opacity: 1;"/><path class="point" transform="translate(135.7,55.53)" d="M3,0A3,3 0 1,1 0,-3A3,3 0 0,1 3,0Z" style="opacity: 1; stroke-width: 1px; fill: rgb(100, 181, 246); fill-opacity: 1; stroke: rgb(51, 51, 51); stroke-opacity: 1;"/><path class="point" transform="translate(137.67,64.56)" d="M3,0A3,3 0 1,1 0,-3A3,3 0 0,1 3,0Z" style="opacity: 1; stroke-width: 1px; fill: rgb(100, 181, 246); fill-opacity: 1; stroke: rgb(51, 51, 51); stroke-opacity: 1;"/><path class="point" transform="translate(139.48,59.06)" d="M3,0A3,3 0 1,1 0,-3A3,3 0 0,1 3,0Z" style="opacity: 1; stroke-width: 1px; fill: rgb(100, 181, 246); fill-opacity: 1; stroke: rgb(51, 51, 51); stroke-opacity: 1;"/><path class="point" transform="translate(134.2,46.79)" d="M3,0A3,3 0 1,1 0,-3A3,3 0 0,1 3,0Z" style="opacity: 1; stroke-width: 1px; fill: rgb(100, 181, 246); fill-opacity: 1; stroke: rgb(51, 51, 51); stroke-opacity: 1;"/><path class="point" transform="translate(118.44,64.33)" d="M3,0A3,3 0 1,1 0,-3A3,3 0 0,1 3,0Z" style="opacity: 1; stroke-width: 1px; fill: rgb(100, 181, 246); fill-opacity: 1; stroke: rgb(51, 51, 51); stroke-opacity: 1;"/><path class="point" transform="translate(121.99,65.49)" d="M3,0A3,3 0 1,1 0,-3A3,3 0 0,1 3,0Z" style="opacity: 1; stroke-width: 1px; fill: rgb(100, 181, 246); fill-opacity: 1; stroke: rgb(51, 51, 51); stroke-opacity: 1;"/><path class="point" transform="translate(149.75,60.05)" d="M3,0A3,3 0 1,1 0,-3A3,3 0 0,1 3,0Z" style="opacity: 1; stroke-width: 1px; fill: rgb(100, 181, 246); fill-opacity: 1; stroke: rgb(51, 51, 51); stroke-opacity: 1;"/><path class="point" transform="translate(126.56,57.34)" d="M3,0A3,3 0 1,1 0,-3A3,3 0 0,1 3,0Z" style="opacity: 1; stroke-width: 1px; fill: rgb(100, 181, 246); fill-opacity: 1; stroke: rgb(51, 51, 51); stroke-opacity: 1;"/><path class="point" transform="translate(145.96,42.44)" d="M3,0A3,3 0 1,1 0,-3A3,3 0 0,1 3,0Z" style="opacity: 1; stroke-width: 1px; fill: rgb(100, 181, 246); fill-opacity: 1; stroke: rgb(51, 51, 51); stroke-opacity: 1;"/><path class="point" transform="translate(103.66,86.56)" d="M3,0A3,3 0 1,1 0,-3A3,3 0 0,1 3,0Z" style="opacity: 1; stroke-width: 1px; fill: rgb(100, 181, 246); fill-opacity: 1; stroke: rgb(51, 51, 51); stroke-opacity: 1;"/><path class="point" transform="translate(119.27,69.67)" d="M3,0A3,3 0 1,1 0,-3A3,3 0 0,1 3,0Z" style="opacity: 1; stroke-width: 1px; fill: rgb(100, 181, 246); fill-opacity: 1; stroke: rgb(51, 51, 51); stroke-opacity: 1;"/><path class="point" transform="translate(126.76,61.46)" d="M3,0A3,3 0 1,1 0,-3A3,3 0 0,1 3,0Z" style="opacity: 1; stroke-width: 1px; fill: rgb(100, 181, 246); fill-opacity: 1; stroke: rgb(51, 51, 51); stroke-opacity: 1;"/><path class="point" transform="translate(132.48,60.14)" d="M3,0A3,3 0 1,1 0,-3A3,3 0 0,1 3,0Z" style="opacity: 1; stroke-width: 1px; fill: rgb(100, 181, 246); fill-opacity: 1; stroke: rgb(51, 51, 51); stroke-opacity: 1;"/><path class="point" transform="translate(141.74,53.59)" d="M3,0A3,3 0 1,1 0,-3A3,3 0 0,1 3,0Z" style="opacity: 1; stroke-width: 1px; fill: rgb(100, 181, 246); fill-opacity: 1; stroke: rgb(51, 51, 51); stroke-opacity: 1;"/><path class="point" transform="translate(114.29,75.42)" d="M3,0A3,3 0 1,1 0,-3A3,3 0 0,1 3,0Z" style="opacity: 1; stroke-width: 1px; fill: rgb(100, 181, 246); fill-opacity: 1; stroke: rgb(51, 51, 51); stroke-opacity: 1;"/><path class="point" transform="translate(109.69,77.04)" d="M3,0A3,3 0 1,1 0,-3A3,3 0 0,1 3,0Z" style="opacity: 1; stroke-width: 1px; fill: rgb(100, 181, 246); fill-opacity: 1; stroke: rgb(51, 51, 51); stroke-opacity: 1;"/><path class="point" transform="translate(78.37,109.42)" d="M3,0A3,3 0 1,1 0,-3A3,3 0 0,1 3,0Z" style="opacity: 1; stroke-width: 1px; fill: rgb(100, 181, 246); fill-opacity: 1; stroke: rgb(51, 51, 51); stroke-opacity: 1;"/><path class="point" transform="translate(127.79,61.04)" d="M3,0A3,3 0 1,1 0,-3A3,3 0 0,1 3,0Z" style="opacity: 1; stroke-width: 1px; fill: rgb(100, 181, 246); fill-opacity: 1; stroke: rgb(51, 51, 51); stroke-opacity: 1;"/></g><g class="text"/></g></g></g><g class="overplot"/><path class="xlines-above crisp" d="M78,214.54H268M78,29H268" style="fill: none; stroke-width: 2px; stroke: rgb(51, 51, 51); stroke-opacity: 1;"/><path class="ylines-above crisp" d="M79,30V213.54M267,30V213.54" style="fill: none; stroke-width: 2px; stroke: rgb(51, 51, 51); stroke-opacity: 1;"/><g class="overlines-above"/><g class="xaxislayer-above"/><g class="yaxislayer-above"><path class="ytick ticks crisp" d="M78,0h-5" transform="translate(0,192.78)" style="stroke: rgb(68, 68, 68); stroke-opacity: 1; stroke-width: 1px;"/><path class="ytick ticks crisp" d="M78,0h-5" transform="translate(0,160.01)" style="stroke: rgb(68, 68, 68); stroke-opacity: 1; stroke-width: 1px;"/><path class="ytick ticks crisp" d="M78,0h-5" transform="translate(0,127.23)" style="stroke: rgb(68, 68, 68); stroke-opacity: 1; stroke-width: 1px;"/><path class="ytick ticks crisp" d="M78,0h-5" transform="translate(0,94.46)" style="stroke: rgb(68, 68, 68); stroke-opacity: 1; stroke-width: 1px;"/><path class="ytick ticks crisp" d="M78,0h-5" transform="translate(0,61.68)" style="stroke: rgb(68, 68, 68); stroke-opacity: 1; stroke-width: 1px;"/><g class="ytick"><text text-anchor="end" x="70.6" y="4.199999999999999" transform="translate(0,192.78)" style="font-family: Helvetica; font-size: 12px; fill: rgb(51, 51, 51); fill-opacity: 1; white-space: pre; opacity: 1;">−0.9</text></g><g class="ytick"><text text-anchor="end" x="70.6" y="4.199999999999999" style="font-family: Helvetica; font-size: 12px; fill: rgb(51, 51, 51); fill-opacity: 1; white-space: pre; opacity: 1;" transform="translate(0,160.01)">−0.6</text></g><g class="ytick"><text text-anchor="end" x="70.6" y="4.199999999999999" style="font-family: Helvetica; font-size: 12px; fill: rgb(51, 51, 51); fill-opacity: 1; white-space: pre; opacity: 1;" transform="translate(0,127.23)">−0.3</text></g><g class="ytick"><text text-anchor="end" x="70.6" y="4.199999999999999" style="font-family: Helvetica; font-size: 12px; fill: rgb(51, 51, 51); fill-opacity: 1; white-space: pre; opacity: 1;" transform="translate(0,94.46)">0</text></g><g class="ytick"><text text-anchor="end" x="70.6" y="4.199999999999999" style="font-family: Helvetica; font-size: 12px; fill: rgb(51, 51, 51); fill-opacity: 1; white-space: pre; opacity: 1;" transform="translate(0,61.68)">0.3</text></g></g><g class="overaxes-above"/></g><g class="subplot x2y2"><g class="layer-subplot"><g class="shapelayer"/><g class="imagelayer"/></g><g class="minor-gridlayer"><g class="x2"/><g class="y2"/></g><g class="gridlayer"><g class="x2"/><g class="y2"/></g><g class="zerolinelayer"><path class="x2zl zl crisp" transform="translate(414.68,0)" d="M0,30v183.54" style="stroke: rgb(51, 51, 51); stroke-opacity: 1; stroke-width: 2px;"/><path class="y2zl zl crisp" transform="translate(0,94.46)" d="M294,0h186" style="stroke: rgb(51, 51, 51); stroke-opacity: 1; stroke-width: 2px;"/></g><path class="xlines-below"/><path class="ylines-below"/><g class="overlines-below"/><g class="xaxislayer-below"/><g class="yaxislayer-below"/><g class="overaxes-below"/><g class="plot" transform="translate(294,30)" clip-path="url(#clip475f23x2y2plot)"><g class="scatterlayer mlayer"><g class="trace scatter tracea0a800" style="stroke-miterlimit: 2; opacity: 1;"><g class="fills"/><g class="errorbars"/><g class="lines"><path class="js-line" d="M26.93,156.97L115.95,69.12" style="vector-effect: none; fill: none; stroke: rgb(25, 118, 210); stroke-opacity: 1; stroke-dasharray: 3px, 3px; stroke-width: 2px; opacity: 1;"/></g><g class="points"/><g class="text"/></g><g class="trace scatter trace8c9591" style="stroke-miterlimit: 2; opacity: 1;"><g class="fills"/><g class="errorbars"/><g class="lines"/><g class="points"><path class="point" transform="translate(106.31,74.78)" d="M3,0A3,3 0 1,1 0,-3A3,3 0 0,1 3,0Z" style="opacity: 1; stroke-width: 1px; fill: rgb(100, 181, 246); fill-opacity: 1; stroke: rgb(51, 51, 51); stroke-opacity: 1;"/><path class="point" transform="translate(104.5,74.67)" d="M3,0A3,3 0 1,1 0,-3A3,3 0 0,1 3,0Z" style="opacity: 1; stroke-width: 1px; fill: rgb(100, 181, 246); fill-opacity: 1; stroke: rgb(51, 51, 51); stroke-opacity: 1;"/><path class="point" transform="translate(100.75,78.43)" d="M3,0A3,3 0 1,1 0,-3A3,3 0 0,1 3,0Z" style="opacity: 1; stroke-width: 1px; fill: rgb(100, 181, 246); fill-opacity: 1; stroke: rgb(51, 51, 51); stroke-opacity: 1;"/><path class="point" transform="translate(79.94,99.56)" d="M3,0A3,3 0 1,1 0,-3A3,3 0 0,1 3,0Z" style="opacity: 1; stroke-width: 1px; fill: rgb(100, 181, 246); fill-opacity: 1; stroke: rgb(51, 51, 51); stroke-opacity: 1;"/><path class="point" transform="translate(109.18,67.85)" d="M3,0A3,3 0 1,1 0,-3A3,3 0 0,1 3,0Z" style="opacity: 1; stroke-width: 1px; fill: rgb(100, 181, 246); fill-opacity: 1; stroke: rgb(51, 51, 51); stroke-opacity: 1;"/><path class="point" transform="translate(102.96,76.25)" d="M3,0A3,3 0 1,1 0,-3A3,3 0 0,1 3,0Z" style="opacity: 1; stroke-width: 1px; fill: rgb(100, 181, 246); fill-opacity: 1; stroke: rgb(51, 51, 51); stroke-opacity: 1;"/><path class="point" transform="translate(85.91,92.21)" d="M3,0A3,3 0 1,1 0,-3A3,3 0 0,1 3,0Z" style="opacity: 1; stroke-width: 1px; fill: rgb(100, 181, 246); fill-opacity: 1; stroke: rgb(51, 51, 51); stroke-opacity: 1;"/><path class="point" transform="translate(116.18,63.81)" d="M3,0A3,3 0 1,1 0,-3A3,3 0 0,1 3,0Z" style="opacity: 1; stroke-width: 1px; fill: rgb(100, 181, 246); fill-opacity: 1; stroke: rgb(51, 51, 51); stroke-opacity: 1;"/><path class="point" transform="translate(91.2,85.52)" d="M3,0A3,3 0 1,1 0,-3A3,3 0 0,1 3,0Z" style="opacity: 1; stroke-width: 1px; fill: rgb(100, 181, 246); fill-opacity: 1; stroke: rgb(51, 51, 51); stroke-opacity: 1;"/><path class="point" transform="translate(84.62,92.38)" d="M3,0A3,3 0 1,1 0,-3A3,3 0 0,1 3,0Z" style="opacity: 1; stroke-width: 1px; fill: rgb(100, 181, 246); fill-opacity: 1; stroke: rgb(51, 51, 51); stroke-opacity: 1;"/><path class="point" transform="translate(90.29,88.51)" d="M3,0A3,3 0 1,1 0,-3A3,3 0 0,1 3,0Z" style="opacity: 1; stroke-width: 1px; fill: rgb(100, 181, 246); fill-opacity: 1; stroke: rgb(51, 51, 51); stroke-opacity: 1;"/><path class="point" transform="translate(111.55,67.66)" d="M3,0A3,3 0 1,1 0,-3A3,3 0 0,1 3,0Z" style="opacity: 1; stroke-width: 1px; fill: rgb(100, 181, 246); fill-opacity: 1; stroke: rgb(51, 51, 51); stroke-opacity: 1;"/><path class="point" transform="translate(81.44,95.31)" d="M3,0A3,3 0 1,1 0,-3A3,3 0 0,1 3,0Z" style="opacity: 1; stroke-width: 1px; fill: rgb(100, 181, 246); fill-opacity: 1; stroke: rgb(51, 51, 51); stroke-opacity: 1;"/><path class="point" transform="translate(26.93,155.09)" d="M3,0A3,3 0 1,1 0,-3A3,3 0 0,1 3,0Z" style="opacity: 1; stroke-width: 1px; fill: rgb(100, 181, 246); fill-opacity: 1; stroke: rgb(51, 51, 51); stroke-opacity: 1;"/><path class="point" transform="translate(121.32,58.2)" d="M3,0A3,3 0 1,1 0,-3A3,3 0 0,1 3,0Z" style="opacity: 1; stroke-width: 1px; fill: rgb(100, 181, 246); fill-opacity: 1; stroke: rgb(51, 51, 51); stroke-opacity: 1;"/><path class="point" transform="translate(94.14,85.76)" d="M3,0A3,3 0 1,1 0,-3A3,3 0 0,1 3,0Z" style="opacity: 1; stroke-width: 1px; fill: rgb(100, 181, 246); fill-opacity: 1; stroke: rgb(51, 51, 51); stroke-opacity: 1;"/><path class="point" transform="translate(110.56,71.47)" d="M3,0A3,3 0 1,1 0,-3A3,3 0 0,1 3,0Z" style="opacity: 1; stroke-width: 1px; fill: rgb(100, 181, 246); fill-opacity: 1; stroke: rgb(51, 51, 51); stroke-opacity: 1;"/><path class="point" transform="translate(98.53,80.8)" d="M3,0A3,3 0 1,1 0,-3A3,3 0 0,1 3,0Z" style="opacity: 1; stroke-width: 1px; fill: rgb(100, 181, 246); fill-opacity: 1; stroke: rgb(51, 51, 51); stroke-opacity: 1;"/><path class="point" transform="translate(118.62,63.31)" d="M3,0A3,3 0 1,1 0,-3A3,3 0 0,1 3,0Z" style="opacity: 1; stroke-width: 1px; fill: rgb(100, 181, 246); fill-opacity: 1; stroke: rgb(51, 51, 51); stroke-opacity: 1;"/><path class="point" transform="translate(104.77,75.03)" d="M3,0A3,3 0 1,1 0,-3A3,3 0 0,1 3,0Z" style="opacity: 1; stroke-width: 1px; fill: rgb(100, 181, 246); fill-opacity: 1; stroke: rgb(51, 51, 51); stroke-opacity: 1;"/><path class="point" transform="translate(118.62,63.31)" d="M3,0A3,3 0 1,1 0,-3A3,3 0 0,1 3,0Z" style="opacity: 1; stroke-width: 1px; fill: rgb(100, 181, 246); fill-opacity: 1; stroke: rgb(51, 51, 51); stroke-opacity: 1;"/><path class="point" transform="translate(90.16,88.13)" d="M3,0A3,3 0 1,1 0,-3A3,3 0 0,1 3,0Z" style="opacity: 1; stroke-width: 1px; fill: rgb(100, 181, 246); fill-opacity: 1; stroke: rgb(51, 51, 51); stroke-opacity: 1;"/><path class="point" transform="translate(52.91,124.09)" d="M3,0A3,3 0 1,1 0,-3A3,3 0 0,1 3,0Z" style="opacity: 1; stroke-width: 1px; fill: rgb(100, 181, 246); fill-opacity: 1; stroke: rgb(51, 51, 51); stroke-opacity: 1;"/><path class="point" transform="translate(102.96,75.68)" d="M3,0A3,3 0 1,1 0,-3A3,3 0 0,1 3,0Z" style="opacity: 1; stroke-width: 1px; fill: rgb(100, 181, 246); fill-opacity: 1; stroke: rgb(51, 51, 51); stroke-opacity: 1;"/><path class="point" transform="translate(97.44,79.35)" d="M3,0A3,3 0 1,1 0,-3A3,3 0 0,1 3,0Z" style="opacity: 1; stroke-width: 1px; fill: rgb(100, 181, 246); fill-opacity: 1; stroke: rgb(51, 51, 51); stroke-opacity: 1;"/><path class="point" transform="translate(108.67,71.01)" d="M3,0A3,3 0 1,1 0,-3A3,3 0 0,1 3,0Z" style="opacity: 1; stroke-width: 1px; fill: rgb(100, 181, 246); fill-opacity: 1; stroke: rgb(51, 51, 51); stroke-opacity: 1;"/><path class="point" transform="translate(102.49,75.3)" d="M3,0A3,3 0 1,1 0,-3A3,3 0 0,1 3,0Z" style="opacity: 1; stroke-width: 1px; fill: rgb(100, 181, 246); fill-opacity: 1; stroke: rgb(51, 51, 51); stroke-opacity: 1;"/><path class="point" transform="translate(101.84,79.76)" d="M3,0A3,3 0 1,1 0,-3A3,3 0 0,1 3,0Z" style="opacity: 1; stroke-width: 1px; fill: rgb(100, 181, 246); fill-opacity: 1; stroke: rgb(51, 51, 51); stroke-opacity: 1;"/><path class="point" transform="translate(106.03,76.1)" d="M3,0A3,3 0 1,1 0,-3A3,3 0 0,1 3,0Z" style="opacity: 1; stroke-width: 1px; fill: rgb(100, 181, 246); fill-opacity: 1; stroke: rgb(51, 51, 51); stroke-opacity: 1;"/><path class="point" transform="translate(102.26,77.93)" d="M3,0A3,3 0 1,1 0,-3A3,3 0 0,1 3,0Z" style="opacity: 1; stroke-width: 1px; fill: rgb(100, 181, 246); fill-opacity: 1; stroke: rgb(51, 51, 51); stroke-opacity: 1;"/></g><g class="text"/></g></g></g><g class="overplot"/><path class="xlines-above crisp" d="M292,214.54H482M292,29H482" style="fill: none; stroke-width: 2px; stroke: rgb(51, 51, 51); stroke-opacity: 1;"/><path class="ylines-above crisp" d="M293,30V213.54M481,30V213.54" style="fill: none; stroke-width: 2px; stroke: rgb(51, 51, 51); stroke-opacity: 1;"/><g class="overlines-above"/><g class="xaxislayer-above"/><g class="yaxislayer-above"/><g class="overaxes-above"/></g><g class="subplot x3y3"><g class="layer-subplot"><g class="shapelayer"/><g class="imagelayer"/></g><g class="minor-gridlayer"><g class="x3"/><g class="y3"/></g><g class="gridlayer"><g class="x3"/><g class="y3"/></g><g class="zerolinelayer"><path class="x3zl zl crisp" transform="translate(200.68,0)" d="M0,245.46v183.54000000000002" style="stroke: rgb(51, 51, 51); stroke-opacity: 1; stroke-width: 2px;"/><path class="y3zl zl crisp" transform="translate(0,309.92)" d="M80,0h186" style="stroke: rgb(51, 51, 51); stroke-opacity: 1; stroke-width: 2px;"/></g><path class="xlines-below"/><path class="ylines-below"/><g class="overlines-below"/><g class="xaxislayer-below"/><g class="yaxislayer-below"/><g class="overaxes-below"/><g class="plot" transform="translate(80,245.46)" clip-path="url(#clip475f23x3y3plot)"><g class="scatterlayer mlayer"><g class="trace scatter tracec20485" style="stroke-miterlimit: 2; opacity: 1;"><g class="fills"/><g class="errorbars"/><g class="lines"><path class="js-line" d="M11.02,172.67L125.85,59.36" style="vector-effect: none; fill: none; stroke: rgb(25, 118, 210); stroke-opacity: 1; stroke-dasharray: 3px, 3px; stroke-width: 2px; opacity: 1;"/></g><g class="points"/><g class="text"/></g><g class="trace scatter tracedcda66" style="stroke-miterlimit: 2; opacity: 1;"><g class="fills"/><g class="errorbars"/><g class="lines"/><g class="points"><path class="point" transform="translate(102.71,75.76)" d="M3,0A3,3 0 1,1 0,-3A3,3 0 0,1 3,0Z" style="opacity: 1; stroke-width: 1px; fill: rgb(100, 181, 246); fill-opacity: 1; stroke: rgb(51, 51, 51); stroke-opacity: 1;"/><path class="point" transform="translate(84.84,88.38)" d="M3,0A3,3 0 1,1 0,-3A3,3 0 0,1 3,0Z" style="opacity: 1; stroke-width: 1px; fill: rgb(100, 181, 246); fill-opacity: 1; stroke: rgb(51, 51, 51); stroke-opacity: 1;"/><path class="point" transform="translate(120.9,48.43)" d="M3,0A3,3 0 1,1 0,-3A3,3 0 0,1 3,0Z" style="opacity: 1; stroke-width: 1px; fill: rgb(100, 181, 246); fill-opacity: 1; stroke: rgb(51, 51, 51); stroke-opacity: 1;"/><path class="point" transform="translate(89.68,88.09)" d="M3,0A3,3 0 1,1 0,-3A3,3 0 0,1 3,0Z" style="opacity: 1; stroke-width: 1px; fill: rgb(100, 181, 246); fill-opacity: 1; stroke: rgb(51, 51, 51); stroke-opacity: 1;"/><path class="point" transform="translate(75.08,92.94)" d="M3,0A3,3 0 1,1 0,-3A3,3 0 0,1 3,0Z" style="opacity: 1; stroke-width: 1px; fill: rgb(100, 181, 246); fill-opacity: 1; stroke: rgb(51, 51, 51); stroke-opacity: 1;"/><path class="point" transform="translate(68,100.39)" d="M3,0A3,3 0 1,1 0,-3A3,3 0 0,1 3,0Z" style="opacity: 1; stroke-width: 1px; fill: rgb(100, 181, 246); fill-opacity: 1; stroke: rgb(51, 51, 51); stroke-opacity: 1;"/><path class="point" transform="translate(88.05,85.33)" d="M3,0A3,3 0 1,1 0,-3A3,3 0 0,1 3,0Z" style="opacity: 1; stroke-width: 1px; fill: rgb(100, 181, 246); fill-opacity: 1; stroke: rgb(51, 51, 51); stroke-opacity: 1;"/><path class="point" transform="translate(74.69,101.6)" d="M3,0A3,3 0 1,1 0,-3A3,3 0 0,1 3,0Z" style="opacity: 1; stroke-width: 1px; fill: rgb(100, 181, 246); fill-opacity: 1; stroke: rgb(51, 51, 51); stroke-opacity: 1;"/><path class="point" transform="translate(92.24,82.25)" d="M3,0A3,3 0 1,1 0,-3A3,3 0 0,1 3,0Z" style="opacity: 1; stroke-width: 1px; fill: rgb(100, 181, 246); fill-opacity: 1; stroke: rgb(51, 51, 51); stroke-opacity: 1;"/><path class="point" transform="translate(61.77,110.23)" d="M3,0A3,3 0 1,1 0,-3A3,3 0 0,1 3,0Z" style="opacity: 1; stroke-width: 1px; fill: rgb(100, 181, 246); fill-opacity: 1; stroke: rgb(51, 51, 51); stroke-opacity: 1;"/><path class="point" transform="translate(114.79,64.39)" d="M3,0A3,3 0 1,1 0,-3A3,3 0 0,1 3,0Z" style="opacity: 1; stroke-width: 1px; fill: rgb(100, 181, 246); fill-opacity: 1; stroke: rgb(51, 51, 51); stroke-opacity: 1;"/><path class="point" transform="translate(69.7,103.69)" d="M3,0A3,3 0 1,1 0,-3A3,3 0 0,1 3,0Z" style="opacity: 1; stroke-width: 1px; fill: rgb(100, 181, 246); fill-opacity: 1; stroke: rgb(51, 51, 51); stroke-opacity: 1;"/><path class="point" transform="translate(54.54,118.79)" d="M3,0A3,3 0 1,1 0,-3A3,3 0 0,1 3,0Z" style="opacity: 1; stroke-width: 1px; fill: rgb(100, 181, 246); fill-opacity: 1; stroke: rgb(51, 51, 51); stroke-opacity: 1;"/><path class="point" transform="translate(102.71,72.1)" d="M3,0A3,3 0 1,1 0,-3A3,3 0 0,1 3,0Z" style="opacity: 1; stroke-width: 1px; fill: rgb(100, 181, 246); fill-opacity: 1; stroke: rgb(51, 51, 51); stroke-opacity: 1;"/><path class="point" transform="translate(84.83,93.14)" d="M3,0A3,3 0 1,1 0,-3A3,3 0 0,1 3,0Z" style="opacity: 1; stroke-width: 1px; fill: rgb(100, 181, 246); fill-opacity: 1; stroke: rgb(51, 51, 51); stroke-opacity: 1;"/><path class="point" transform="translate(83.71,86.75)" d="M3,0A3,3 0 1,1 0,-3A3,3 0 0,1 3,0Z" style="opacity: 1; stroke-width: 1px; fill: rgb(100, 181, 246); fill-opacity: 1; stroke: rgb(51, 51, 51); stroke-opacity: 1;"/><path class="point" transform="translate(76.9,96.98)" d="M3,0A3,3 0 1,1 0,-3A3,3 0 0,1 3,0Z" style="opacity: 1; stroke-width: 1px; fill: rgb(100, 181, 246); fill-opacity: 1; stroke: rgb(51, 51, 51); stroke-opacity: 1;"/><path class="point" transform="translate(102.17,78.46)" d="M3,0A3,3 0 1,1 0,-3A3,3 0 0,1 3,0Z" style="opacity: 1; stroke-width: 1px; fill: rgb(100, 181, 246); fill-opacity: 1; stroke: rgb(51, 51, 51); stroke-opacity: 1;"/><path class="point" transform="translate(107,63.03)" d="M3,0A3,3 0 1,1 0,-3A3,3 0 0,1 3,0Z" style="opacity: 1; stroke-width: 1px; fill: rgb(100, 181, 246); fill-opacity: 1; stroke: rgb(51, 51, 51); stroke-opacity: 1;"/><path class="point" transform="translate(75.68,92.61)" d="M3,0A3,3 0 1,1 0,-3A3,3 0 0,1 3,0Z" style="opacity: 1; stroke-width: 1px; fill: rgb(100, 181, 246); fill-opacity: 1; stroke: rgb(51, 51, 51); stroke-opacity: 1;"/><path class="point" transform="translate(87.36,85.58)" d="M3,0A3,3 0 1,1 0,-3A3,3 0 0,1 3,0Z" style="opacity: 1; stroke-width: 1px; fill: rgb(100, 181, 246); fill-opacity: 1; stroke: rgb(51, 51, 51); stroke-opacity: 1;"/><path class="point" transform="translate(11.02,160.67)" d="M3,0A3,3 0 1,1 0,-3A3,3 0 0,1 3,0Z" style="opacity: 1; stroke-width: 1px; fill: rgb(100, 181, 246); fill-opacity: 1; stroke: rgb(51, 51, 51); stroke-opacity: 1;"/><path class="point" transform="translate(83.69,89.26)" d="M3,0A3,3 0 1,1 0,-3A3,3 0 0,1 3,0Z" style="opacity: 1; stroke-width: 1px; fill: rgb(100, 181, 246); fill-opacity: 1; stroke: rgb(51, 51, 51); stroke-opacity: 1;"/><path class="point" transform="translate(58.25,112.11)" d="M3,0A3,3 0 1,1 0,-3A3,3 0 0,1 3,0Z" style="opacity: 1; stroke-width: 1px; fill: rgb(100, 181, 246); fill-opacity: 1; stroke: rgb(51, 51, 51); stroke-opacity: 1;"/><path class="point" transform="translate(90.44,85.62)" d="M3,0A3,3 0 1,1 0,-3A3,3 0 0,1 3,0Z" style="opacity: 1; stroke-width: 1px; fill: rgb(100, 181, 246); fill-opacity: 1; stroke: rgb(51, 51, 51); stroke-opacity: 1;"/></g><g class="text"/></g></g></g><g class="overplot"/><path class="xlines-above crisp" d="M78,430H268M78,244.46H268" style="fill: none; stroke-width: 2px; stroke: rgb(51, 51, 51); stroke-opacity: 1;"/><path class="ylines-above crisp" d="M79,245.46V429M267,245.46V429" style="fill: none; stroke-width: 2px; stroke: rgb(51, 51, 51); stroke-opacity: 1;"/><g class="overlines-above"/><g class="xaxislayer-above"><path class="x3tick ticks crisp" d="M0,431v5" transform="translate(101.03999999999999,0)" style="stroke: rgb(68, 68, 68); stroke-opacity: 1; stroke-width: 1px;"/><path class="x3tick ticks crisp" d="M0,431v5" transform="translate(134.25,0)" style="stroke: rgb(68, 68, 68); stroke-opacity: 1; stroke-width: 1px;"/><path class="x3tick ticks crisp" d="M0,431v5" transform="translate(167.45999999999998,0)" style="stroke: rgb(68, 68, 68); stroke-opacity: 1; stroke-width: 1px;"/><path class="x3tick ticks crisp" d="M0,431v5" transform="translate(200.68,0)" style="stroke: rgb(68, 68, 68); stroke-opacity: 1; stroke-width: 1px;"/><path class="x3tick ticks crisp" d="M0,431v5" transform="translate(233.89,0)" style="stroke: rgb(68, 68, 68); stroke-opacity: 1; stroke-width: 1px;"/><g class="x3tick"><text text-anchor="middle" x="0" y="450.4" transform="translate(101.03999999999999,0)" style="font-family: Helvetica; font-size: 12px; fill: rgb(51, 51, 51); fill-opacity: 1; white-space: pre; opacity: 1;">−0.9</text></g><g class="x3tick"><text text-anchor="middle" x="0" y="450.4" style="font-family: Helvetica; font-size: 12px; fill: rgb(51, 51, 51); fill-opacity: 1; white-space: pre; opacity: 1;" transform="translate(134.25,0)">−0.6</text></g><g class="x3tick"><text text-anchor="middle" x="0" y="450.4" style="font-family: Helvetica; font-size: 12px; fill: rgb(51, 51, 51); fill-opacity: 1; white-space: pre; opacity: 1;" transform="translate(167.45999999999998,0)">−0.3</text></g><g class="x3tick"><text text-anchor="middle" x="0" y="450.4" style="font-family: Helvetica; font-size: 12px; fill: rgb(51, 51, 51); fill-opacity: 1; white-space: pre; opacity: 1;" transform="translate(200.68,0)">0</text></g><g class="x3tick"><text text-anchor="middle" x="0" y="450.4" style="font-family: Helvetica; font-size: 12px; fill: rgb(51, 51, 51); fill-opacity: 1; white-space: pre; opacity: 1;" transform="translate(233.89,0)">0.3</text></g></g><g class="yaxislayer-above"><path class="y3tick ticks crisp" d="M78,0h-5" transform="translate(0,408.24)" style="stroke: rgb(68, 68, 68); stroke-opacity: 1; stroke-width: 1px;"/><path class="y3tick ticks crisp" d="M78,0h-5" transform="translate(0,375.47)" style="stroke: rgb(68, 68, 68); stroke-opacity: 1; stroke-width: 1px;"/><path class="y3tick ticks crisp" d="M78,0h-5" transform="translate(0,342.69)" style="stroke: rgb(68, 68, 68); stroke-opacity: 1; stroke-width: 1px;"/><path class="y3tick ticks crisp" d="M78,0h-5" transform="translate(0,309.92)" style="stroke: rgb(68, 68, 68); stroke-opacity: 1; stroke-width: 1px;"/><path class="y3tick ticks crisp" d="M78,0h-5" transform="translate(0,277.14)" style="stroke: rgb(68, 68, 68); stroke-opacity: 1; stroke-width: 1px;"/><g class="y3tick"><text text-anchor="end" x="70.6" y="4.199999999999999" transform="translate(0,408.24)" style="font-family: Helvetica; font-size: 12px; fill: rgb(51, 51, 51); fill-opacity: 1; white-space: pre; opacity: 1;">−0.9</text></g><g class="y3tick"><text text-anchor="end" x="70.6" y="4.199999999999999" style="font-family: Helvetica; font-size: 12px; fill: rgb(51, 51, 51); fill-opacity: 1; white-space: pre; opacity: 1;" transform="translate(0,375.47)">−0.6</text></g><g class="y3tick"><text text-anchor="end" x="70.6" y="4.199999999999999" style="font-family: Helvetica; font-size: 12px; fill: rgb(51, 51, 51); fill-opacity: 1; white-space: pre; opacity: 1;" transform="translate(0,342.69)">−0.3</text></g><g class="y3tick"><text text-anchor="end" x="70.6" y="4.199999999999999" style="font-family: Helvetica; font-size: 12px; fill: rgb(51, 51, 51); fill-opacity: 1; white-space: pre; opacity: 1;" transform="translate(0,309.92)">0</text></g><g class="y3tick"><text text-anchor="end" x="70.6" y="4.199999999999999" style="font-family: Helvetica; font-size: 12px; fill: rgb(51, 51, 51); fill-opacity: 1; white-space: pre; opacity: 1;" transform="translate(0,277.14)">0.3</text></g></g><g class="overaxes-above"/></g><g class="subplot x4y4"><g class="layer-subplot"><g class="shapelayer"/><g class="imagelayer"/></g><g class="minor-gridlayer"><g class="x4"/><g class="y4"/></g><g class="gridlayer"><g class="x4"/><g class="y4"/></g><g class="zerolinelayer"><path class="x4zl zl crisp" transform="translate(414.68,0)" d="M0,245.46v183.54000000000002" style="stroke: rgb(51, 51, 51); stroke-opacity: 1; stroke-width: 2px;"/><path class="y4zl zl crisp" transform="translate(0,309.92)" d="M294,0h186" style="stroke: rgb(51, 51, 51); stroke-opacity: 1; stroke-width: 2px;"/></g><path class="xlines-below"/><path class="ylines-below"/><g class="overlines-below"/><g class="xaxislayer-below"/><g class="yaxislayer-below"/><g class="overaxes-below"/><g class="plot" transform="translate(294,245.46)" clip-path="url(#clip475f23x4y4plot)"><g class="scatterlayer mlayer"><g class="trace scatter trace85e88a" style="stroke-miterlimit: 2; opacity: 1;"><g class="fills"/><g class="errorbars"/><g class="lines"><path class="js-line" d="M25.01,158.86L98.89,85.96" style="vector-effect: none; fill: none; stroke: rgb(25, 118, 210); stroke-opacity: 1; stroke-dasharray: 3px, 3px; stroke-width: 2px; opacity: 1;"/></g><g class="points"/><g class="text"/></g><g class="trace scatter tracedfdb67" style="stroke-miterlimit: 2; opacity: 1;"><g class="fills"/><g class="errorbars"/><g class="lines"/><g class="points"><path class="point" transform="translate(104.63,75.03)" d="M3,0A3,3 0 1,1 0,-3A3,3 0 0,1 3,0Z" style="opacity: 1; stroke-width: 1px; fill: rgb(100, 181, 246); fill-opacity: 1; stroke: rgb(51, 51, 51); stroke-opacity: 1;"/><path class="point" transform="translate(69.03,109.97)" d="M3,0A3,3 0 1,1 0,-3A3,3 0 0,1 3,0Z" style="opacity: 1; stroke-width: 1px; fill: rgb(100, 181, 246); fill-opacity: 1; stroke: rgb(51, 51, 51); stroke-opacity: 1;"/><path class="point" transform="translate(25.01,151.8)" d="M3,0A3,3 0 1,1 0,-3A3,3 0 0,1 3,0Z" style="opacity: 1; stroke-width: 1px; fill: rgb(100, 181, 246); fill-opacity: 1; stroke: rgb(51, 51, 51); stroke-opacity: 1;"/><path class="point" transform="translate(70.03,107.25)" d="M3,0A3,3 0 1,1 0,-3A3,3 0 0,1 3,0Z" style="opacity: 1; stroke-width: 1px; fill: rgb(100, 181, 246); fill-opacity: 1; stroke: rgb(51, 51, 51); stroke-opacity: 1;"/><path class="point" transform="translate(58.91,116.5)" d="M3,0A3,3 0 1,1 0,-3A3,3 0 0,1 3,0Z" style="opacity: 1; stroke-width: 1px; fill: rgb(100, 181, 246); fill-opacity: 1; stroke: rgb(51, 51, 51); stroke-opacity: 1;"/><path class="point" transform="translate(54.48,114.83)" d="M3,0A3,3 0 1,1 0,-3A3,3 0 0,1 3,0Z" style="opacity: 1; stroke-width: 1px; fill: rgb(100, 181, 246); fill-opacity: 1; stroke: rgb(51, 51, 51); stroke-opacity: 1;"/><path class="point" transform="translate(53.56,115.72)" d="M3,0A3,3 0 1,1 0,-3A3,3 0 0,1 3,0Z" style="opacity: 1; stroke-width: 1px; fill: rgb(100, 181, 246); fill-opacity: 1; stroke: rgb(51, 51, 51); stroke-opacity: 1;"/><path class="point" transform="translate(73.9,99.48)" d="M3,0A3,3 0 1,1 0,-3A3,3 0 0,1 3,0Z" style="opacity: 1; stroke-width: 1px; fill: rgb(100, 181, 246); fill-opacity: 1; stroke: rgb(51, 51, 51); stroke-opacity: 1;"/><path class="point" transform="translate(54.95,114.2)" d="M3,0A3,3 0 1,1 0,-3A3,3 0 0,1 3,0Z" style="opacity: 1; stroke-width: 1px; fill: rgb(100, 181, 246); fill-opacity: 1; stroke: rgb(51, 51, 51); stroke-opacity: 1;"/><path class="point" transform="translate(95.63,81.01)" d="M3,0A3,3 0 1,1 0,-3A3,3 0 0,1 3,0Z" style="opacity: 1; stroke-width: 1px; fill: rgb(100, 181, 246); fill-opacity: 1; stroke: rgb(51, 51, 51); stroke-opacity: 1;"/><path class="point" transform="translate(72.69,102.99)" d="M3,0A3,3 0 1,1 0,-3A3,3 0 0,1 3,0Z" style="opacity: 1; stroke-width: 1px; fill: rgb(100, 181, 246); fill-opacity: 1; stroke: rgb(51, 51, 51); stroke-opacity: 1;"/><path class="point" transform="translate(93.87,82.23)" d="M3,0A3,3 0 1,1 0,-3A3,3 0 0,1 3,0Z" style="opacity: 1; stroke-width: 1px; fill: rgb(100, 181, 246); fill-opacity: 1; stroke: rgb(51, 51, 51); stroke-opacity: 1;"/><path class="point" transform="translate(87.14,83.63)" d="M3,0A3,3 0 1,1 0,-3A3,3 0 0,1 3,0Z" style="opacity: 1; stroke-width: 1px; fill: rgb(100, 181, 246); fill-opacity: 1; stroke: rgb(51, 51, 51); stroke-opacity: 1;"/></g><g class="text"/></g></g></g><g class="overplot"/><path class="xlines-above crisp" d="M292,430H482M292,244.46H482" style="fill: none; stroke-width: 2px; stroke: rgb(51, 51, 51); stroke-opacity: 1;"/><path class="ylines-above crisp" d="M293,245.46V429M481,245.46V429" style="fill: none; stroke-width: 2px; stroke: rgb(51, 51, 51); stroke-opacity: 1;"/><g class="overlines-above"/><g class="xaxislayer-above"><path class="x4tick ticks crisp" d="M0,431v5" transform="translate(315.04,0)" style="stroke: rgb(68, 68, 68); stroke-opacity: 1; stroke-width: 1px;"/><path class="x4tick ticks crisp" d="M0,431v5" transform="translate(348.25,0)" style="stroke: rgb(68, 68, 68); stroke-opacity: 1; stroke-width: 1px;"/><path class="x4tick ticks crisp" d="M0,431v5" transform="translate(381.46,0)" style="stroke: rgb(68, 68, 68); stroke-opacity: 1; stroke-width: 1px;"/><path class="x4tick ticks crisp" d="M0,431v5" transform="translate(414.68,0)" style="stroke: rgb(68, 68, 68); stroke-opacity: 1; stroke-width: 1px;"/><path class="x4tick ticks crisp" d="M0,431v5" transform="translate(447.89,0)" style="stroke: rgb(68, 68, 68); stroke-opacity: 1; stroke-width: 1px;"/><g class="x4tick"><text text-anchor="middle" x="0" y="450.4" transform="translate(315.04,0)" style="font-family: Helvetica; font-size: 12px; fill: rgb(51, 51, 51); fill-opacity: 1; white-space: pre; opacity: 1;">−0.9</text></g><g class="x4tick"><text text-anchor="middle" x="0" y="450.4" style="font-family: Helvetica; font-size: 12px; fill: rgb(51, 51, 51); fill-opacity: 1; white-space: pre; opacity: 1;" transform="translate(348.25,0)">−0.6</text></g><g class="x4tick"><text text-anchor="middle" x="0" y="450.4" style="font-family: Helvetica; font-size: 12px; fill: rgb(51, 51, 51); fill-opacity: 1; white-space: pre; opacity: 1;" transform="translate(381.46,0)">−0.3</text></g><g class="x4tick"><text text-anchor="middle" x="0" y="450.4" style="font-family: Helvetica; font-size: 12px; fill: rgb(51, 51, 51); fill-opacity: 1; white-space: pre; opacity: 1;" transform="translate(414.68,0)">0</text></g><g class="x4tick"><text text-anchor="middle" x="0" y="450.4" style="font-family: Helvetica; font-size: 12px; fill: rgb(51, 51, 51); fill-opacity: 1; white-space: pre; opacity: 1;" transform="translate(447.89,0)">0.3</text></g></g><g class="yaxislayer-above"/><g class="overaxes-above"/></g></g><g class="polarlayer"/><g class="smithlayer"/><g class="ternarylayer"/><g class="geolayer"/><g class="funnelarealayer"/><g class="pielayer"/><g class="iciclelayer"/><g class="treemaplayer"/><g class="sunburstlayer"/><g class="glimages"/><defs id="topdefs-475f23"><g class="clips"/></defs><g class="layer-above"><g class="imagelayer"/><g class="shapelayer"/></g><g class="infolayer"><g class="g-gtitle"/><g class="g-xtitle"/><g class="g-x2title"/><g class="g-x3title" transform="translate(0,-24.21875)"><text class="x3title" x="173" y="499.40625" text-anchor="middle" style="font-family: Helvetica; font-size: 16px; fill: rgb(51, 51, 51); opacity: 1; font-weight: normal; white-space: pre;"><tspan class="line" dy="0em" x="173" y="499.40625">Error from extrapolations</tspan><tspan class="line" dy="1.3em" x="173" y="499.40625">involving CCSD</tspan></text></g><g class="g-x4title" transform="translate(0,-24.21875)"><text class="x4title" x="387" y="499.40625" text-anchor="middle" style="font-family: Helvetica; font-size: 16px; fill: rgb(51, 51, 51); opacity: 1; font-weight: normal; white-space: pre;"><tspan class="line" dy="0em" x="387" y="499.40625">Error from extrapolations</tspan><tspan class="line" dy="1.3em" x="387" y="499.40625">involving CCSD</tspan></text></g><g class="g-ytitle" transform="translate(13.09765625,0)"><text class="ytitle" transform="rotate(-90,0.90625,121.77)" x="0.90625" y="121.77" text-anchor="middle" style="font-family: Helvetica; font-size: 16px; fill: rgb(51, 51, 51); opacity: 1; font-weight: normal; white-space: pre;"><tspan class="line" dy="0em" x="0.90625" y="121.77">Error from extrapolations</tspan><tspan class="line" dy="1.3em" x="0.90625" y="121.77">involving CCSD(T)</tspan></text></g><g class="g-y2title"/><g class="g-y3title" transform="translate(13.10546875,0)"><text class="y3title" transform="rotate(-90,0.90625,337.23)" x="0.90625" y="337.23" text-anchor="middle" style="font-family: Helvetica; font-size: 16px; fill: rgb(51, 51, 51); opacity: 1; font-weight: normal; white-space: pre;"><tspan class="line" dy="0em" x="0.90625" y="337.23">Error from extrapolations</tspan><tspan class="line" dy="1.3em" x="0.90625" y="337.23">involving CCSD(T)</tspan></text></g><g class="g-y4title"/><g class="annotation" data-index="0" style="opacity: 1;"><g class="annotation-text-g" transform="rotate(0,173,19)"><g class="cursor-pointer" transform="translate(139,8)"><rect class="bg" x="0.5" y="0.5" width="68" height="21" style="stroke-width: 1px; stroke: rgb(0, 0, 0); stroke-opacity: 0; fill: rgb(0, 0, 0); fill-opacity: 0;"/><text class="annotation-text" text-anchor="middle" x="34.46875" y="16" style="font-family: Helvetica; font-size: 16px; fill: rgb(51, 51, 51); fill-opacity: 1; white-space: pre;"><tspan style="font-weight:bold">C-Series</tspan></text></g></g></g><g class="annotation" data-index="1" style="opacity: 1;"><g class="annotation-text-g" transform="rotate(0,386.99999999999994,19)"><g class="cursor-pointer" transform="translate(352,8)"><rect class="bg" x="0.5" y="0.5" width="68" height="21" style="stroke-width: 1px; stroke: rgb(0, 0, 0); stroke-opacity: 0; fill: rgb(0, 0, 0); fill-opacity: 0;"/><text class="annotation-text" text-anchor="middle" x="34.46875" y="16" style="font-family: Helvetica; font-size: 16px; fill: rgb(51, 51, 51); fill-opacity: 1; white-space: pre;"><tspan style="font-weight:bold">N-Series</tspan></text></g></g></g><g class="annotation" data-index="2" style="opacity: 1;"><g class="annotation-text-g" transform="rotate(0,173,234.46)"><g class="cursor-pointer" transform="translate(138,223)"><rect class="bg" x="0.5" y="0.5" width="69" height="21" style="stroke-width: 1px; stroke: rgb(0, 0, 0); stroke-opacity: 0; fill: rgb(0, 0, 0); fill-opacity: 0;"/><text class="annotation-text" text-anchor="middle" x="34.90625" y="16" style="font-family: Helvetica; font-size: 16px; fill: rgb(51, 51, 51); fill-opacity: 1; white-space: pre;"><tspan style="font-weight:bold">O-Series</tspan></text></g></g></g><g class="annotation" data-index="3" style="opacity: 1;"><g class="annotation-text-g" transform="rotate(0,386.99999999999994,234.46)"><g class="cursor-pointer" transform="translate(353,223)"><rect class="bg" x="0.5" y="0.5" width="66" height="21" style="stroke-width: 1px; stroke: rgb(0, 0, 0); stroke-opacity: 0; fill: rgb(0, 0, 0); fill-opacity: 0;"/><text class="annotation-text" text-anchor="middle" x="33.578125" y="16" style="font-family: Helvetica; font-size: 16px; fill: rgb(51, 51, 51); fill-opacity: 1; white-space: pre;"><tspan style="font-weight:bold">F-Series</tspan></text></g></g></g></g></svg>