<svg class="main-svg" xmlns="http://www.w3.org/2000/svg" xmlns:xlink="http://www.w3.org/1999/xlink" width="500" height="500" style="" viewBox="0 0 500 500"><rect x="0" y="0" width="500" height="500" style="fill: rgb(255, 255, 255); fill-opacity: 1;"/><defs id="defs-924d0a"><g class="clips"><clipPath id="clip924d0axyplot" class="plotclip"><rect width="186" height="183.54"/></clipPath><clipPath id="clip924d0ax2y2plot" class="plotclip"><rect width="186" height="183.54"/></clipPath><clipPath id="clip924d0ax3y3plot" class="plotclip"><rect width="186" height="183.54000000000002"/></clipPath><clipPath id="clip924d0ax4y4plot" class="plotclip"><rect width="186" height="183.54000000000002"/></clipPath><clipPath class="axesclip" id="clip924d0ax"><rect x="80" y="0" width="186" height="500"/></clipPath><clipPath class="axesclip" id="clip924d0ay"><rect x="0" y="30" width="500" height="183.54"/></clipPath><clipPath class="axesclip" id="clip924d0axy"><rect x="80" y="30" width="186" height="183.54"/></clipPath><clipPath class="axesclip" id="clip924d0ay2"><rect x="0" y="30" width="500" height="183.54"/></clipPath><clipPath class="axesclip" id="clip924d0axy2"><rect x="80" y="30" width="186" height="183.54"/></clipPath><clipPath class="axesclip" id="clip924d0ay3"><rect x="0" y="245.46" width="500" height="183.54000000000002"/></clipPath><clipPath class="axesclip" id="clip924d0axy3"><rect x="80" y="245.46" width="186" height="183.54000000000002"/></clipPath><clipPath class="axesclip" id="clip924d0ay4"><rect x="0" y="245.46" width="500" height="183.54000000000002"/></clipPath><clipPath class="axesclip" id="clip924d0axy4"><rect x="80" y="245.46" width="186" height="183.54000000000002"/></clipPath><clipPath class="axesclip" id="clip924d0ax2"><rect x="294" y="0" width="186" height="500"/></clipPath><clipPath class="axesclip" id="clip924d0ax2y"><rect x="294" y="30" width="186" height="183.54"/></clipPath><clipPath class="axesclip" id="clip924d0ax2y2"><rect x="294" y="30" width="186" height="183.54"/></clipPath><clipPath class="axesclip" id="clip924d0ax2y3"><rect x="294" y="245.46" width="186" height="183.54000000000002"/></clipPath><clipPath class="axesclip" id="clip924d0ax2y4"><rect x="294" y="245.46" width="186" height="183.54000000000002"/></clipPath><clipPath class="axesclip" id="clip924d0ax3"><rect x="80" y="0" width="186" height="500"/></clipPath><clipPath class="axesclip" id="clip924d0ax3y"><rect x="80" y="30" width="186" height="183.54"/></clipPath><clipPath class="axesclip" id="clip924d0ax3y2"><rect x="80" y="30" width="186" height="183.54"/></clipPath><clipPath class="axesclip" id="clip924d0ax3y3"><rect x="80" y="245.46" width="186" height="183.54000000000002"/></clipPath><clipPath class="axesclip" id="clip924d0ax3y4"><rect x="80" y="245.46" width="186" height="183.54000000000002"/></clipPath><clipPath class="axesclip" id="clip924d0ax4"><rect x="294" y="0" width="186" height="500"/></clipPath><clipPath class="axesclip" id="clip924d0ax4y"><rect x="294" y="30" width="186" height="183.54"/></clipPath><clipPath class="axesclip" id="clip924d0ax4y2"><rect x="294" y="30" width="186" height="183.54"/></clipPath><clipPath class="axesclip" id="clip924d0ax4y3"><rect x="294" y="245.46" width="186" height="183.54000000000002"/></clipPath><clipPath class="axesclip" id="clip924d0ax4y4"><rect x="294" y="245.46" width="186" height="183.54000000000002"/></clipPath></g><g class="gradients"/><g class="patterns"/></defs><g class="bglayer"/><g class="layer-below"><g class="imagelayer"/><g class="shapelayer"/></g><g class="cartesianlayer"><g class="subplot xy"><g class="layer-subplot"><g class="shapelayer"/><g class="imagelayer"/></g><g class="minor-gridlayer"><g class="x"/><g class="y"/></g><g class="gridlayer"><g class="x"/><g class="y"/></g><g class="zerolinelayer"><path class="xzl zl crisp" transform="translate(200.68,0)" d="M0,30v183.54" style="stroke: rgb(51, 51, 51); stroke-opacity: 1; stroke-width: 2px;"/><path class="yzl zl crisp" transform="translate(0,94.46)" d="M80,0h186" style="stroke: rgb(51, 51, 51); stroke-opacity: 1; stroke-width: 2px;"/></g><path class="xlines-below"/><path class="ylines-below"/><g class="overlines-below"/><g class="xaxislayer-below"/><g class="yaxislayer-below"/><g class="overaxes-below"/><g class="plot" transform="translate(80,30)" clip-path="url(#clip924d0axyplot)"><g class="scatterlayer mlayer"><g class="trace scatter trace190051" style="stroke-miterlimit: 2; opacity: 1;"><g class="fills"/><g class="errorbars"/><g class="lines"><path class="js-line" d="M87.56,97.13L175.02,10.84" style="vector-effect: none; fill: none; stroke: rgb(123, 44, 191); stroke-opacity: 1; stroke-dasharray: 3px, 3px; stroke-width: 2px; opacity: 1;"/></g><g class="points"/><g class="text"/></g><g class="trace scatter trace80089a" style="stroke-miterlimit: 2; opacity: 1;"><g class="fills"/><g class="errorbars"/><g class="lines"/><g class="points"><path class="point" transform="translate(118.82,41.62)" d="M3,0A3,3 0 1,1 0,-3A3,3 0 0,1 3,0Z" style="opacity: 1; stroke-width: 1px; fill: rgb(199, 125, 255); fill-opacity: 1; stroke: rgb(51, 51, 51); stroke-opacity: 1;"/><path class="point" transform="translate(113.44,50.8)" d="M3,0A3,3 0 1,1 0,-3A3,3 0 0,1 3,0Z" style="opacity: 1; stroke-width: 1px; fill: rgb(199, 125, 255); fill-opacity: 1; stroke: rgb(51, 51, 51); stroke-opacity: 1;"/><path class="point" transform="translate(121.27,32.64)" d="M3,0A3,3 0 1,1 0,-3A3,3 0 0,1 3,0Z" style="opacity: 1; stroke-width: 1px; fill: rgb(199, 125, 255); fill-opacity: 1; stroke: rgb(51, 51, 51); stroke-opacity: 1;"/><path class="point" transform="translate(110.9,49.91)" d="M3,0A3,3 0 1,1 0,-3A3,3 0 0,1 3,0Z" style="opacity: 1; stroke-width: 1px; fill: rgb(199, 125, 255); fill-opacity: 1; stroke: rgb(51, 51, 51); stroke-opacity: 1;"/><path class="point" transform="translate(111.74,53.72)" d="M3,0A3,3 0 1,1 0,-3A3,3 0 0,1 3,0Z" style="opacity: 1; stroke-width: 1px; fill: rgb(199, 125, 255); fill-opacity: 1; stroke: rgb(51, 51, 51); stroke-opacity: 1;"/><path class="point" transform="translate(117.87,46.28)" d="M3,0A3,3 0 1,1 0,-3A3,3 0 0,1 3,0Z" style="opacity: 1; stroke-width: 1px; fill: rgb(199, 125, 255); fill-opacity: 1; stroke: rgb(51, 51, 51); stroke-opacity: 1;"/><path class="point" transform="translate(106.75,57.17)" d="M3,0A3,3 0 1,1 0,-3A3,3 0 0,1 3,0Z" style="opacity: 1; stroke-width: 1px; fill: rgb(199, 125, 255); fill-opacity: 1; stroke: rgb(51, 51, 51); stroke-opacity: 1;"/><path class="point" transform="translate(116.44,43.89)" d="M3,0A3,3 0 1,1 0,-3A3,3 0 0,1 3,0Z" style="opacity: 1; stroke-width: 1px; fill: rgb(199, 125, 255); fill-opacity: 1; stroke: rgb(51, 51, 51); stroke-opacity: 1;"/><path class="point" transform="translate(130.75,35.55)" d="M3,0A3,3 0 1,1 0,-3A3,3 0 0,1 3,0Z" style="opacity: 1; stroke-width: 1px; fill: rgb(199, 125, 255); fill-opacity: 1; stroke: rgb(51, 51, 51); stroke-opacity: 1;"/><path class="point" transform="translate(117.56,42.85)" d="M3,0A3,3 0 1,1 0,-3A3,3 0 0,1 3,0Z" style="opacity: 1; stroke-width: 1px; fill: rgb(199, 125, 255); fill-opacity: 1; stroke: rgb(51, 51, 51); stroke-opacity: 1;"/><path class="point" transform="translate(129.69,29.08)" d="M3,0A3,3 0 1,1 0,-3A3,3 0 0,1 3,0Z" style="opacity: 1; stroke-width: 1px; fill: rgb(199, 125, 255); fill-opacity: 1; stroke: rgb(51, 51, 51); stroke-opacity: 1;"/><path class="point" transform="translate(149.31,10.84)" d="M3,0A3,3 0 1,1 0,-3A3,3 0 0,1 3,0Z" style="opacity: 1; stroke-width: 1px; fill: rgb(199, 125, 255); fill-opacity: 1; stroke: rgb(51, 51, 51); stroke-opacity: 1;"/><path class="point" transform="translate(125.04,37.3)" d="M3,0A3,3 0 1,1 0,-3A3,3 0 0,1 3,0Z" style="opacity: 1; stroke-width: 1px; fill: rgb(199, 125, 255); fill-opacity: 1; stroke: rgb(51, 51, 51); stroke-opacity: 1;"/><path class="point" transform="translate(121.37,44.39)" d="M3,0A3,3 0 1,1 0,-3A3,3 0 0,1 3,0Z" style="opacity: 1; stroke-width: 1px; fill: rgb(199, 125, 255); fill-opacity: 1; stroke: rgb(51, 51, 51); stroke-opacity: 1;"/><path class="point" transform="translate(118.13,41.86)" d="M3,0A3,3 0 1,1 0,-3A3,3 0 0,1 3,0Z" style="opacity: 1; stroke-width: 1px; fill: rgb(199, 125, 255); fill-opacity: 1; stroke: rgb(51, 51, 51); stroke-opacity: 1;"/><path class="point" transform="translate(139.3,19.42)" d="M3,0A3,3 0 1,1 0,-3A3,3 0 0,1 3,0Z" style="opacity: 1; stroke-width: 1px; fill: rgb(199, 125, 255); fill-opacity: 1; stroke: rgb(51, 51, 51); stroke-opacity: 1;"/><path class="point" transform="translate(142.04,22.85)" d="M3,0A3,3 0 1,1 0,-3A3,3 0 0,1 3,0Z" style="opacity: 1; stroke-width: 1px; fill: rgb(199, 125, 255); fill-opacity: 1; stroke: rgb(51, 51, 51); stroke-opacity: 1;"/><path class="point" transform="translate(99.1,62.38)" d="M3,0A3,3 0 1,1 0,-3A3,3 0 0,1 3,0Z" style="opacity: 1; stroke-width: 1px; fill: rgb(199, 125, 255); fill-opacity: 1; stroke: rgb(51, 51, 51); stroke-opacity: 1;"/><path class="point" transform="translate(116.12,46.76)" d="M3,0A3,3 0 1,1 0,-3A3,3 0 0,1 3,0Z" style="opacity: 1; stroke-width: 1px; fill: rgb(199, 125, 255); fill-opacity: 1; stroke: rgb(51, 51, 51); stroke-opacity: 1;"/><path class="point" transform="translate(129.86,28.87)" d="M3,0A3,3 0 1,1 0,-3A3,3 0 0,1 3,0Z" style="opacity: 1; stroke-width: 1px; fill: rgb(199, 125, 255); fill-opacity: 1; stroke: rgb(51, 51, 51); stroke-opacity: 1;"/><path class="point" transform="translate(128.54,39.25)" d="M3,0A3,3 0 1,1 0,-3A3,3 0 0,1 3,0Z" style="opacity: 1; stroke-width: 1px; fill: rgb(199, 125, 255); fill-opacity: 1; stroke: rgb(51, 51, 51); stroke-opacity: 1;"/><path class="point" transform="translate(139.52,14.59)" d="M3,0A3,3 0 1,1 0,-3A3,3 0 0,1 3,0Z" style="opacity: 1; stroke-width: 1px; fill: rgb(199, 125, 255); fill-opacity: 1; stroke: rgb(51, 51, 51); stroke-opacity: 1;"/><path class="point" transform="translate(109.4,55.41)" d="M3,0A3,3 0 1,1 0,-3A3,3 0 0,1 3,0Z" style="opacity: 1; stroke-width: 1px; fill: rgb(199, 125, 255); fill-opacity: 1; stroke: rgb(51, 51, 51); stroke-opacity: 1;"/><path class="point" transform="translate(108.14,55.85)" d="M3,0A3,3 0 1,1 0,-3A3,3 0 0,1 3,0Z" style="opacity: 1; stroke-width: 1px; fill: rgb(199, 125, 255); fill-opacity: 1; stroke: rgb(51, 51, 51); stroke-opacity: 1;"/><path class="point" transform="translate(87.56,68.5)" d="M3,0A3,3 0 1,1 0,-3A3,3 0 0,1 3,0Z" style="opacity: 1; stroke-width: 1px; fill: rgb(199, 125, 255); fill-opacity: 1; stroke: rgb(51, 51, 51); stroke-opacity: 1;"/><path class="point" transform="translate(129.38,30.2)" d="M3,0A3,3 0 1,1 0,-3A3,3 0 0,1 3,0Z" style="opacity: 1; stroke-width: 1px; fill: rgb(199, 125, 255); fill-opacity: 1; stroke: rgb(51, 51, 51); stroke-opacity: 1;"/></g><g class="text"/></g></g></g><g class="overplot"/><path class="xlines-above crisp" d="M78,214.54H268M78,29H268" style="fill: none; stroke-width: 2px; stroke: rgb(51, 51, 51); stroke-opacity: 1;"/><path class="ylines-above crisp" d="M79,30V213.54M267,30V213.54" style="fill: none; stroke-width: 2px; stroke: rgb(51, 51, 51); stroke-opacity: 1;"/><g class="overlines-above"/><g class="xaxislayer-above"/><g class="yaxislayer-above"><path class="ytick ticks crisp" d="M78,0h-5" transform="translate(0,192.78)" style="stroke: rgb(68, 68, 68); stroke-opacity: 1; stroke-width: 1px;"/><path class="ytick ticks crisp" d="M78,0h-5" transform="translate(0,160.01)" style="stroke: rgb(68, 68, 68); stroke-opacity: 1; stroke-width: 1px;"/><path class="ytick ticks crisp" d="M78,0h-5" transform="translate(0,127.23)" style="stroke: rgb(68, 68, 68); stroke-opacity: 1; stroke-width: 1px;"/><path class="ytick ticks crisp" d="M78,0h-5" transform="translate(0,94.46)" style="stroke: rgb(68, 68, 68); stroke-opacity: 1; stroke-width: 1px;"/><path class="ytick ticks crisp" d="M78,0h-5" transform="translate(0,61.68)" style="stroke: rgb(68, 68, 68); stroke-opacity: 1; stroke-width: 1px;"/><g class="ytick"><text text-anchor="end" x="70.6" y="4.199999999999999" transform="translate(0,192.78)" style="font-family: Helvetica; font-size: 12px; fill: rgb(51, 51, 51); fill-opacity: 1; white-space: pre; opacity: 1;">−0.9</text></g><g class="ytick"><text text-anchor="end" x="70.6" y="4.199999999999999" style="font-family: Helvetica; font-size: 12px; fill: rgb(51, 51, 51); fill-opacity: 1; white-space: pre; opacity: 1;" transform="translate(0,160.01)">−0.6</text></g><g class="ytick"><text text-anchor="end" x="70.6" y="4.199999999999999" style="font-family: Helvetica; font-size: 12px; fill: rgb(51, 51, 51); fill-opacity: 1; white-space: pre; opacity: 1;" transform="translate(0,127.23)">−0.3</text></g><g class="ytick"><text text-anchor="end" x="70.6" y="4.199999999999999" style="font-family: Helvetica; font-size: 12px; fill: rgb(51, 51, 51); fill-opacity: 1; white-space: pre; opacity: 1;" transform="translate(0,94.46)">0</text></g><g class="ytick"><text text-anchor="end" x="70.6" y="4.199999999999999" style="font-family: Helvetica; font-size: 12px; fill: rgb(51, 51, 51); fill-opacity: 1; white-space: pre; opacity: 1;" transform="translate(0,61.68)">0.3</text></g></g><g class="overaxes-above"/></g><g class="subplot x2y2"><g class="layer-subplot"><g class="shapelayer"/><g class="imagelayer"/></g><g class="minor-gridlayer"><g class="x2"/><g class="y2"/></g><g class="gridlayer"><g class="x2"/><g class="y2"/></g><g class="zerolinelayer"><path class="x2zl zl crisp" transform="translate(414.68,0)" d="M0,30v183.54" style="stroke: rgb(51, 51, 51); stroke-opacity: 1; stroke-width: 2px;"/><path class="y2zl zl crisp" transform="translate(0,94.46)" d="M294,0h186" style="stroke: rgb(51, 51, 51); stroke-opacity: 1; stroke-width: 2px;"/></g><path class="xlines-below"/><path class="ylines-below"/><g class="overlines-below"/><g class="xaxislayer-below"/><g class="yaxislayer-below"/><g class="overaxes-below"/><g class="plot" transform="translate(294,30)" clip-path="url(#clip924d0ax2y2plot)"><g class="scatterlayer mlayer"><g class="trace scatter tracea69835" style="stroke-miterlimit: 2; opacity: 1;"><g class="fills"/><g class="errorbars"/><g class="lines"><path class="js-line" d="M29.32,154.61L159.52,26.13" style="vector-effect: none; fill: none; stroke: rgb(123, 44, 191); stroke-opacity: 1; stroke-dasharray: 3px, 3px; stroke-width: 2px; opacity: 1;"/></g><g class="points"/><g class="text"/></g><g class="trace scatter trace93464a" style="stroke-miterlimit: 2; opacity: 1;"><g class="fills"/><g class="errorbars"/><g class="lines"/><g class="points"><path class="point" transform="translate(112.65,37.18)" d="M3,0A3,3 0 1,1 0,-3A3,3 0 0,1 3,0Z" style="opacity: 1; stroke-width: 1px; fill: rgb(199, 125, 255); fill-opacity: 1; stroke: rgb(51, 51, 51); stroke-opacity: 1;"/><path class="point" transform="translate(107.44,47.78)" d="M3,0A3,3 0 1,1 0,-3A3,3 0 0,1 3,0Z" style="opacity: 1; stroke-width: 1px; fill: rgb(199, 125, 255); fill-opacity: 1; stroke: rgb(51, 51, 51); stroke-opacity: 1;"/><path class="point" transform="translate(103.79,51.16)" d="M3,0A3,3 0 1,1 0,-3A3,3 0 0,1 3,0Z" style="opacity: 1; stroke-width: 1px; fill: rgb(199, 125, 255); fill-opacity: 1; stroke: rgb(51, 51, 51); stroke-opacity: 1;"/><path class="point" transform="translate(82.1,72.1)" d="M3,0A3,3 0 1,1 0,-3A3,3 0 0,1 3,0Z" style="opacity: 1; stroke-width: 1px; fill: rgb(199, 125, 255); fill-opacity: 1; stroke: rgb(51, 51, 51); stroke-opacity: 1;"/><path class="point" transform="translate(114.23,43.55)" d="M3,0A3,3 0 1,1 0,-3A3,3 0 0,1 3,0Z" style="opacity: 1; stroke-width: 1px; fill: rgb(199, 125, 255); fill-opacity: 1; stroke: rgb(51, 51, 51); stroke-opacity: 1;"/><path class="point" transform="translate(105.82,49.32)" d="M3,0A3,3 0 1,1 0,-3A3,3 0 0,1 3,0Z" style="opacity: 1; stroke-width: 1px; fill: rgb(199, 125, 255); fill-opacity: 1; stroke: rgb(51, 51, 51); stroke-opacity: 1;"/><path class="point" transform="translate(92.29,61.07)" d="M3,0A3,3 0 1,1 0,-3A3,3 0 0,1 3,0Z" style="opacity: 1; stroke-width: 1px; fill: rgb(199, 125, 255); fill-opacity: 1; stroke: rgb(51, 51, 51); stroke-opacity: 1;"/><path class="point" transform="translate(118.38,35.85)" d="M3,0A3,3 0 1,1 0,-3A3,3 0 0,1 3,0Z" style="opacity: 1; stroke-width: 1px; fill: rgb(199, 125, 255); fill-opacity: 1; stroke: rgb(51, 51, 51); stroke-opacity: 1;"/><path class="point" transform="translate(101.8,53.16)" d="M3,0A3,3 0 1,1 0,-3A3,3 0 0,1 3,0Z" style="opacity: 1; stroke-width: 1px; fill: rgb(199, 125, 255); fill-opacity: 1; stroke: rgb(51, 51, 51); stroke-opacity: 1;"/><path class="point" transform="translate(89.69,63.7)" d="M3,0A3,3 0 1,1 0,-3A3,3 0 0,1 3,0Z" style="opacity: 1; stroke-width: 1px; fill: rgb(199, 125, 255); fill-opacity: 1; stroke: rgb(51, 51, 51); stroke-opacity: 1;"/><path class="point" transform="translate(93.83,60.21)" d="M3,0A3,3 0 1,1 0,-3A3,3 0 0,1 3,0Z" style="opacity: 1; stroke-width: 1px; fill: rgb(199, 125, 255); fill-opacity: 1; stroke: rgb(51, 51, 51); stroke-opacity: 1;"/><path class="point" transform="translate(124.06,26.13)" d="M3,0A3,3 0 1,1 0,-3A3,3 0 0,1 3,0Z" style="opacity: 1; stroke-width: 1px; fill: rgb(199, 125, 255); fill-opacity: 1; stroke: rgb(51, 51, 51); stroke-opacity: 1;"/><path class="point" transform="translate(92.62,61.28)" d="M3,0A3,3 0 1,1 0,-3A3,3 0 0,1 3,0Z" style="opacity: 1; stroke-width: 1px; fill: rgb(199, 125, 255); fill-opacity: 1; stroke: rgb(51, 51, 51); stroke-opacity: 1;"/><path class="point" transform="translate(29.32,118.2)" d="M3,0A3,3 0 1,1 0,-3A3,3 0 0,1 3,0Z" style="opacity: 1; stroke-width: 1px; fill: rgb(199, 125, 255); fill-opacity: 1; stroke: rgb(51, 51, 51); stroke-opacity: 1;"/><path class="point" transform="translate(124.23,30.2)" d="M3,0A3,3 0 1,1 0,-3A3,3 0 0,1 3,0Z" style="opacity: 1; stroke-width: 1px; fill: rgb(199, 125, 255); fill-opacity: 1; stroke: rgb(51, 51, 51); stroke-opacity: 1;"/><path class="point" transform="translate(95.98,59.64)" d="M3,0A3,3 0 1,1 0,-3A3,3 0 0,1 3,0Z" style="opacity: 1; stroke-width: 1px; fill: rgb(199, 125, 255); fill-opacity: 1; stroke: rgb(51, 51, 51); stroke-opacity: 1;"/><path class="point" transform="translate(110.77,42.27)" d="M3,0A3,3 0 1,1 0,-3A3,3 0 0,1 3,0Z" style="opacity: 1; stroke-width: 1px; fill: rgb(199, 125, 255); fill-opacity: 1; stroke: rgb(51, 51, 51); stroke-opacity: 1;"/><path class="point" transform="translate(108.75,45.33)" d="M3,0A3,3 0 1,1 0,-3A3,3 0 0,1 3,0Z" style="opacity: 1; stroke-width: 1px; fill: rgb(199, 125, 255); fill-opacity: 1; stroke: rgb(51, 51, 51); stroke-opacity: 1;"/><path class="point" transform="translate(119.59,34.54)" d="M3,0A3,3 0 1,1 0,-3A3,3 0 0,1 3,0Z" style="opacity: 1; stroke-width: 1px; fill: rgb(199, 125, 255); fill-opacity: 1; stroke: rgb(51, 51, 51); stroke-opacity: 1;"/><path class="point" transform="translate(106.84,47.89)" d="M3,0A3,3 0 1,1 0,-3A3,3 0 0,1 3,0Z" style="opacity: 1; stroke-width: 1px; fill: rgb(199, 125, 255); fill-opacity: 1; stroke: rgb(51, 51, 51); stroke-opacity: 1;"/><path class="point" transform="translate(119.59,34.54)" d="M3,0A3,3 0 1,1 0,-3A3,3 0 0,1 3,0Z" style="opacity: 1; stroke-width: 1px; fill: rgb(199, 125, 255); fill-opacity: 1; stroke: rgb(51, 51, 51); stroke-opacity: 1;"/><path class="point" transform="translate(98.25,55.33)" d="M3,0A3,3 0 1,1 0,-3A3,3 0 0,1 3,0Z" style="opacity: 1; stroke-width: 1px; fill: rgb(199, 125, 255); fill-opacity: 1; stroke: rgb(51, 51, 51); stroke-opacity: 1;"/><path class="point" transform="translate(58.1,94.85)" d="M3,0A3,3 0 1,1 0,-3A3,3 0 0,1 3,0Z" style="opacity: 1; stroke-width: 1px; fill: rgb(199, 125, 255); fill-opacity: 1; stroke: rgb(51, 51, 51); stroke-opacity: 1;"/><path class="point" transform="translate(106.91,48.18)" d="M3,0A3,3 0 1,1 0,-3A3,3 0 0,1 3,0Z" style="opacity: 1; stroke-width: 1px; fill: rgb(199, 125, 255); fill-opacity: 1; stroke: rgb(51, 51, 51); stroke-opacity: 1;"/><path class="point" transform="translate(102.17,53.33)" d="M3,0A3,3 0 1,1 0,-3A3,3 0 0,1 3,0Z" style="opacity: 1; stroke-width: 1px; fill: rgb(199, 125, 255); fill-opacity: 1; stroke: rgb(51, 51, 51); stroke-opacity: 1;"/><path class="point" transform="translate(120.38,30.26)" d="M3,0A3,3 0 1,1 0,-3A3,3 0 0,1 3,0Z" style="opacity: 1; stroke-width: 1px; fill: rgb(199, 125, 255); fill-opacity: 1; stroke: rgb(51, 51, 51); stroke-opacity: 1;"/><path class="point" transform="translate(106.3,50.48)" d="M3,0A3,3 0 1,1 0,-3A3,3 0 0,1 3,0Z" style="opacity: 1; stroke-width: 1px; fill: rgb(199, 125, 255); fill-opacity: 1; stroke: rgb(51, 51, 51); stroke-opacity: 1;"/><path class="point" transform="translate(99.97,50.86)" d="M3,0A3,3 0 1,1 0,-3A3,3 0 0,1 3,0Z" style="opacity: 1; stroke-width: 1px; fill: rgb(199, 125, 255); fill-opacity: 1; stroke: rgb(51, 51, 51); stroke-opacity: 1;"/><path class="point" transform="translate(113.81,35.94)" d="M3,0A3,3 0 1,1 0,-3A3,3 0 0,1 3,0Z" style="opacity: 1; stroke-width: 1px; fill: rgb(199, 125, 255); fill-opacity: 1; stroke: rgb(51, 51, 51); stroke-opacity: 1;"/><path class="point" transform="translate(103.93,50.26)" d="M3,0A3,3 0 1,1 0,-3A3,3 0 0,1 3,0Z" style="opacity: 1; stroke-width: 1px; fill: rgb(199, 125, 255); fill-opacity: 1; stroke: rgb(51, 51, 51); stroke-opacity: 1;"/></g><g class="text"/></g></g></g><g class="overplot"/><path class="xlines-above crisp" d="M292,214.54H482M292,29H482" style="fill: none; stroke-width: 2px; stroke: rgb(51, 51, 51); stroke-opacity: 1;"/><path class="ylines-above crisp" d="M293,30V213.54M481,30V213.54" style="fill: none; stroke-width: 2px; stroke: rgb(51, 51, 51); stroke-opacity: 1;"/><g class="overlines-above"/><g class="xaxislayer-above"/><g class="yaxislayer-above"/><g class="overaxes-above"/></g><g class="subplot x3y3"><g class="layer-subplot"><g class="shapelayer"/><g class="imagelayer"/></g><g class="minor-gridlayer"><g class="x3"/><g class="y3"/></g><g class="gridlayer"><g class="x3"/><g class="y3"/></g><g class="zerolinelayer"><path class="x3zl zl crisp" transform="translate(200.68,0)" d="M0,245.46v183.54000000000002" style="stroke: rgb(51, 51, 51); stroke-opacity: 1; stroke-width: 2px;"/><path class="y3zl zl crisp" transform="translate(0,309.92)" d="M80,0h186" style="stroke: rgb(51, 51, 51); stroke-opacity: 1; stroke-width: 2px;"/></g><path class="xlines-below"/><path class="ylines-below"/><g class="overlines-below"/><g class="xaxislayer-below"/><g class="yaxislayer-below"/><g class="overaxes-below"/><g class="plot" transform="translate(80,245.46)" clip-path="url(#clip924d0ax3y3plot)"><g class="scatterlayer mlayer"><g class="trace scatter traced1a504" style="stroke-miterlimit: 2; opacity: 1;"><g class="fills"/><g class="errorbars"/><g class="lines"><path class="js-line" d="M15.65,168.1L162.95,22.75" style="vector-effect: none; fill: none; stroke: rgb(123, 44, 191); stroke-opacity: 1; stroke-dasharray: 3px, 3px; stroke-width: 2px; opacity: 1;"/></g><g class="points"/><g class="text"/></g><g class="trace scatter trace2295b0" style="stroke-miterlimit: 2; opacity: 1;"><g class="fills"/><g class="errorbars"/><g class="lines"/><g class="points"><path class="point" transform="translate(103.97,46.77)" d="M3,0A3,3 0 1,1 0,-3A3,3 0 0,1 3,0Z" style="opacity: 1; stroke-width: 1px; fill: rgb(199, 125, 255); fill-opacity: 1; stroke: rgb(51, 51, 51); stroke-opacity: 1;"/><path class="point" transform="translate(90.85,59.18)" d="M3,0A3,3 0 1,1 0,-3A3,3 0 0,1 3,0Z" style="opacity: 1; stroke-width: 1px; fill: rgb(199, 125, 255); fill-opacity: 1; stroke: rgb(51, 51, 51); stroke-opacity: 1;"/><path class="point" transform="translate(129.58,22.75)" d="M3,0A3,3 0 1,1 0,-3A3,3 0 0,1 3,0Z" style="opacity: 1; stroke-width: 1px; fill: rgb(199, 125, 255); fill-opacity: 1; stroke: rgb(51, 51, 51); stroke-opacity: 1;"/><path class="point" transform="translate(91.1,55.8)" d="M3,0A3,3 0 1,1 0,-3A3,3 0 0,1 3,0Z" style="opacity: 1; stroke-width: 1px; fill: rgb(199, 125, 255); fill-opacity: 1; stroke: rgb(51, 51, 51); stroke-opacity: 1;"/><path class="point" transform="translate(84.38,63.31)" d="M3,0A3,3 0 1,1 0,-3A3,3 0 0,1 3,0Z" style="opacity: 1; stroke-width: 1px; fill: rgb(199, 125, 255); fill-opacity: 1; stroke: rgb(51, 51, 51); stroke-opacity: 1;"/><path class="point" transform="translate(82.42,65.17)" d="M3,0A3,3 0 1,1 0,-3A3,3 0 0,1 3,0Z" style="opacity: 1; stroke-width: 1px; fill: rgb(199, 125, 255); fill-opacity: 1; stroke: rgb(51, 51, 51); stroke-opacity: 1;"/><path class="point" transform="translate(93.73,56)" d="M3,0A3,3 0 1,1 0,-3A3,3 0 0,1 3,0Z" style="opacity: 1; stroke-width: 1px; fill: rgb(199, 125, 255); fill-opacity: 1; stroke: rgb(51, 51, 51); stroke-opacity: 1;"/><path class="point" transform="translate(74.61,69.08)" d="M3,0A3,3 0 1,1 0,-3A3,3 0 0,1 3,0Z" style="opacity: 1; stroke-width: 1px; fill: rgb(199, 125, 255); fill-opacity: 1; stroke: rgb(51, 51, 51); stroke-opacity: 1;"/><path class="point" transform="translate(95.6,56.24)" d="M3,0A3,3 0 1,1 0,-3A3,3 0 0,1 3,0Z" style="opacity: 1; stroke-width: 1px; fill: rgb(199, 125, 255); fill-opacity: 1; stroke: rgb(51, 51, 51); stroke-opacity: 1;"/><path class="point" transform="translate(67.35,78.74)" d="M3,0A3,3 0 1,1 0,-3A3,3 0 0,1 3,0Z" style="opacity: 1; stroke-width: 1px; fill: rgb(199, 125, 255); fill-opacity: 1; stroke: rgb(51, 51, 51); stroke-opacity: 1;"/><path class="point" transform="translate(113.89,36.93)" d="M3,0A3,3 0 1,1 0,-3A3,3 0 0,1 3,0Z" style="opacity: 1; stroke-width: 1px; fill: rgb(199, 125, 255); fill-opacity: 1; stroke: rgb(51, 51, 51); stroke-opacity: 1;"/><path class="point" transform="translate(74.27,70.9)" d="M3,0A3,3 0 1,1 0,-3A3,3 0 0,1 3,0Z" style="opacity: 1; stroke-width: 1px; fill: rgb(199, 125, 255); fill-opacity: 1; stroke: rgb(51, 51, 51); stroke-opacity: 1;"/><path class="point" transform="translate(58.39,87.36)" d="M3,0A3,3 0 1,1 0,-3A3,3 0 0,1 3,0Z" style="opacity: 1; stroke-width: 1px; fill: rgb(199, 125, 255); fill-opacity: 1; stroke: rgb(51, 51, 51); stroke-opacity: 1;"/><path class="point" transform="translate(106.57,45.16)" d="M3,0A3,3 0 1,1 0,-3A3,3 0 0,1 3,0Z" style="opacity: 1; stroke-width: 1px; fill: rgb(199, 125, 255); fill-opacity: 1; stroke: rgb(51, 51, 51); stroke-opacity: 1;"/><path class="point" transform="translate(82.48,64.07)" d="M3,0A3,3 0 1,1 0,-3A3,3 0 0,1 3,0Z" style="opacity: 1; stroke-width: 1px; fill: rgb(199, 125, 255); fill-opacity: 1; stroke: rgb(51, 51, 51); stroke-opacity: 1;"/><path class="point" transform="translate(85.74,62.47)" d="M3,0A3,3 0 1,1 0,-3A3,3 0 0,1 3,0Z" style="opacity: 1; stroke-width: 1px; fill: rgb(199, 125, 255); fill-opacity: 1; stroke: rgb(51, 51, 51); stroke-opacity: 1;"/><path class="point" transform="translate(81.67,67.7)" d="M3,0A3,3 0 1,1 0,-3A3,3 0 0,1 3,0Z" style="opacity: 1; stroke-width: 1px; fill: rgb(199, 125, 255); fill-opacity: 1; stroke: rgb(51, 51, 51); stroke-opacity: 1;"/><path class="point" transform="translate(101.74,46.59)" d="M3,0A3,3 0 1,1 0,-3A3,3 0 0,1 3,0Z" style="opacity: 1; stroke-width: 1px; fill: rgb(199, 125, 255); fill-opacity: 1; stroke: rgb(51, 51, 51); stroke-opacity: 1;"/><path class="point" transform="translate(114.93,31.68)" d="M3,0A3,3 0 1,1 0,-3A3,3 0 0,1 3,0Z" style="opacity: 1; stroke-width: 1px; fill: rgb(199, 125, 255); fill-opacity: 1; stroke: rgb(51, 51, 51); stroke-opacity: 1;"/><path class="point" transform="translate(85.99,61.35)" d="M3,0A3,3 0 1,1 0,-3A3,3 0 0,1 3,0Z" style="opacity: 1; stroke-width: 1px; fill: rgb(199, 125, 255); fill-opacity: 1; stroke: rgb(51, 51, 51); stroke-opacity: 1;"/><path class="point" transform="translate(93.78,56.27)" d="M3,0A3,3 0 1,1 0,-3A3,3 0 0,1 3,0Z" style="opacity: 1; stroke-width: 1px; fill: rgb(199, 125, 255); fill-opacity: 1; stroke: rgb(51, 51, 51); stroke-opacity: 1;"/><path class="point" transform="translate(15.65,129.69)" d="M3,0A3,3 0 1,1 0,-3A3,3 0 0,1 3,0Z" style="opacity: 1; stroke-width: 1px; fill: rgb(199, 125, 255); fill-opacity: 1; stroke: rgb(51, 51, 51); stroke-opacity: 1;"/><path class="point" transform="translate(88.33,58.13)" d="M3,0A3,3 0 1,1 0,-3A3,3 0 0,1 3,0Z" style="opacity: 1; stroke-width: 1px; fill: rgb(199, 125, 255); fill-opacity: 1; stroke: rgb(51, 51, 51); stroke-opacity: 1;"/><path class="point" transform="translate(66.16,85.55)" d="M3,0A3,3 0 1,1 0,-3A3,3 0 0,1 3,0Z" style="opacity: 1; stroke-width: 1px; fill: rgb(199, 125, 255); fill-opacity: 1; stroke: rgb(51, 51, 51); stroke-opacity: 1;"/><path class="point" transform="translate(91.34,55.4)" d="M3,0A3,3 0 1,1 0,-3A3,3 0 0,1 3,0Z" style="opacity: 1; stroke-width: 1px; fill: rgb(199, 125, 255); fill-opacity: 1; stroke: rgb(51, 51, 51); stroke-opacity: 1;"/></g><g class="text"/></g></g></g><g class="overplot"/><path class="xlines-above crisp" d="M78,430H268M78,244.46H268" style="fill: none; stroke-width: 2px; stroke: rgb(51, 51, 51); stroke-opacity: 1;"/><path class="ylines-above crisp" d="M79,245.46V429M267,245.46V429" style="fill: none; stroke-width: 2px; stroke: rgb(51, 51, 51); stroke-opacity: 1;"/><g class="overlines-above"/><g class="xaxislayer-above"><path class="x3tick ticks crisp" d="M0,431v5" transform="translate(101.03999999999999,0)" style="stroke: rgb(68, 68, 68); stroke-opacity: 1; stroke-width: 1px;"/><path class="x3tick ticks crisp" d="M0,431v5" transform="translate(134.25,0)" style="stroke: rgb(68, 68, 68); stroke-opacity: 1; stroke-width: 1px;"/><path class="x3tick ticks crisp" d="M0,431v5" transform="translate(167.45999999999998,0)" style="stroke: rgb(68, 68, 68); stroke-opacity: 1; stroke-width: 1px;"/><path class="x3tick ticks crisp" d="M0,431v5" transform="translate(200.68,0)" style="stroke: rgb(68, 68, 68); stroke-opacity: 1; stroke-width: 1px;"/><path class="x3tick ticks crisp" d="M0,431v5" transform="translate(233.89,0)" style="stroke: rgb(68, 68, 68); stroke-opacity: 1; stroke-width: 1px;"/><g class="x3tick"><text text-anchor="middle" x="0" y="450.4" transform="translate(101.03999999999999,0)" style="font-family: Helvetica; font-size: 12px; fill: rgb(51, 51, 51); fill-opacity: 1; white-space: pre; opacity: 1;">−0.9</text></g><g class="x3tick"><text text-anchor="middle" x="0" y="450.4" style="font-family: Helvetica; font-size: 12px; fill: rgb(51, 51, 51); fill-opacity: 1; white-space: pre; opacity: 1;" transform="translate(134.25,0)">−0.6</text></g><g class="x3tick"><text text-anchor="middle" x="0" y="450.4" style="font-family: Helvetica; font-size: 12px; fill: rgb(51, 51, 51); fill-opacity: 1; white-space: pre; opacity: 1;" transform="translate(167.45999999999998,0)">−0.3</text></g><g class="x3tick"><text text-anchor="middle" x="0" y="450.4" style="font-family: Helvetica; font-size: 12px; fill: rgb(51, 51, 51); fill-opacity: 1; white-space: pre; opacity: 1;" transform="translate(200.68,0)">0</text></g><g class="x3tick"><text text-anchor="middle" x="0" y="450.4" style="font-family: Helvetica; font-size: 12px; fill: rgb(51, 51, 51); fill-opacity: 1; white-space: pre; opacity: 1;" transform="translate(233.89,0)">0.3</text></g></g><g class="yaxislayer-above"><path class="y3tick ticks crisp" d="M78,0h-5" transform="translate(0,408.24)" style="stroke: rgb(68, 68, 68); stroke-opacity: 1; stroke-width: 1px;"/><path class="y3tick ticks crisp" d="M78,0h-5" transform="translate(0,375.47)" style="stroke: rgb(68, 68, 68); stroke-opacity: 1; stroke-width: 1px;"/><path class="y3tick ticks crisp" d="M78,0h-5" transform="translate(0,342.69)" style="stroke: rgb(68, 68, 68); stroke-opacity: 1; stroke-width: 1px;"/><path class="y3tick ticks crisp" d="M78,0h-5" transform="translate(0,309.92)" style="stroke: rgb(68, 68, 68); stroke-opacity: 1; stroke-width: 1px;"/><path class="y3tick ticks crisp" d="M78,0h-5" transform="translate(0,277.14)" style="stroke: rgb(68, 68, 68); stroke-opacity: 1; stroke-width: 1px;"/><g class="y3tick"><text text-anchor="end" x="70.6" y="4.199999999999999" transform="translate(0,408.24)" style="font-family: Helvetica; font-size: 12px; fill: rgb(51, 51, 51); fill-opacity: 1; white-space: pre; opacity: 1;">−0.9</text></g><g class="y3tick"><text text-anchor="end" x="70.6" y="4.199999999999999" style="font-family: Helvetica; font-size: 12px; fill: rgb(51, 51, 51); fill-opacity: 1; white-space: pre; opacity: 1;" transform="translate(0,375.47)">−0.6</text></g><g class="y3tick"><text text-anchor="end" x="70.6" y="4.199999999999999" style="font-family: Helvetica; font-size: 12px; fill: rgb(51, 51, 51); fill-opacity: 1; white-space: pre; opacity: 1;" transform="translate(0,342.69)">−0.3</text></g><g class="y3tick"><text text-anchor="end" x="70.6" y="4.199999999999999" style="font-family: Helvetica; font-size: 12px; fill: rgb(51, 51, 51); fill-opacity: 1; white-space: pre; opacity: 1;" transform="translate(0,309.92)">0</text></g><g class="y3tick"><text text-anchor="end" x="70.6" y="4.199999999999999" style="font-family: Helvetica; font-size: 12px; fill: rgb(51, 51, 51); fill-opacity: 1; white-space: pre; opacity: 1;" transform="translate(0,277.14)">0.3</text></g></g><g class="overaxes-above"/></g><g class="subplot x4y4"><g class="layer-subplot"><g class="shapelayer"/><g class="imagelayer"/></g><g class="minor-gridlayer"><g class="x4"/><g class="y4"/></g><g class="gridlayer"><g class="x4"/><g class="y4"/></g><g class="zerolinelayer"><path class="x4zl zl crisp" transform="translate(414.68,0)" d="M0,245.46v183.54000000000002" style="stroke: rgb(51, 51, 51); stroke-opacity: 1; stroke-width: 2px;"/><path class="y4zl zl crisp" transform="translate(0,309.92)" d="M294,0h186" style="stroke: rgb(51, 51, 51); stroke-opacity: 1; stroke-width: 2px;"/></g><path class="xlines-below"/><path class="ylines-below"/><g class="overlines-below"/><g class="xaxislayer-below"/><g class="yaxislayer-below"/><g class="overaxes-below"/><g class="plot" transform="translate(294,245.46)" clip-path="url(#clip924d0ax4y4plot)"><g class="scatterlayer mlayer"><g class="trace scatter trace51763b" style="stroke-miterlimit: 2; opacity: 1;"><g class="fills"/><g class="errorbars"/><g class="lines"><path class="js-line" d="M23.92,159.94L143.01,42.42" style="vector-effect: none; fill: none; stroke: rgb(123, 44, 191); stroke-opacity: 1; stroke-dasharray: 3px, 3px; stroke-width: 2px; opacity: 1;"/></g><g class="points"/><g class="text"/></g><g class="trace scatter trace31144f" style="stroke-miterlimit: 2; opacity: 1;"><g class="fills"/><g class="errorbars"/><g class="lines"/><g class="points"><path class="point" transform="translate(100.05,42.42)" d="M3,0A3,3 0 1,1 0,-3A3,3 0 0,1 3,0Z" style="opacity: 1; stroke-width: 1px; fill: rgb(199, 125, 255); fill-opacity: 1; stroke: rgb(51, 51, 51); stroke-opacity: 1;"/><path class="point" transform="translate(64.71,78.29)" d="M3,0A3,3 0 1,1 0,-3A3,3 0 0,1 3,0Z" style="opacity: 1; stroke-width: 1px; fill: rgb(199, 125, 255); fill-opacity: 1; stroke: rgb(51, 51, 51); stroke-opacity: 1;"/><path class="point" transform="translate(23.92,118.55)" d="M3,0A3,3 0 1,1 0,-3A3,3 0 0,1 3,0Z" style="opacity: 1; stroke-width: 1px; fill: rgb(199, 125, 255); fill-opacity: 1; stroke: rgb(51, 51, 51); stroke-opacity: 1;"/><path class="point" transform="translate(67.87,78.53)" d="M3,0A3,3 0 1,1 0,-3A3,3 0 0,1 3,0Z" style="opacity: 1; stroke-width: 1px; fill: rgb(199, 125, 255); fill-opacity: 1; stroke: rgb(51, 51, 51); stroke-opacity: 1;"/><path class="point" transform="translate(59.34,83.22)" d="M3,0A3,3 0 1,1 0,-3A3,3 0 0,1 3,0Z" style="opacity: 1; stroke-width: 1px; fill: rgb(199, 125, 255); fill-opacity: 1; stroke: rgb(51, 51, 51); stroke-opacity: 1;"/><path class="point" transform="translate(63.03,80.93)" d="M3,0A3,3 0 1,1 0,-3A3,3 0 0,1 3,0Z" style="opacity: 1; stroke-width: 1px; fill: rgb(199, 125, 255); fill-opacity: 1; stroke: rgb(51, 51, 51); stroke-opacity: 1;"/><path class="point" transform="translate(63.32,81.18)" d="M3,0A3,3 0 1,1 0,-3A3,3 0 0,1 3,0Z" style="opacity: 1; stroke-width: 1px; fill: rgb(199, 125, 255); fill-opacity: 1; stroke: rgb(51, 51, 51); stroke-opacity: 1;"/><path class="point" transform="translate(77.14,66.32)" d="M3,0A3,3 0 1,1 0,-3A3,3 0 0,1 3,0Z" style="opacity: 1; stroke-width: 1px; fill: rgb(199, 125, 255); fill-opacity: 1; stroke: rgb(51, 51, 51); stroke-opacity: 1;"/><path class="point" transform="translate(66.99,77.62)" d="M3,0A3,3 0 1,1 0,-3A3,3 0 0,1 3,0Z" style="opacity: 1; stroke-width: 1px; fill: rgb(199, 125, 255); fill-opacity: 1; stroke: rgb(51, 51, 51); stroke-opacity: 1;"/><path class="point" transform="translate(94.95,48.37)" d="M3,0A3,3 0 1,1 0,-3A3,3 0 0,1 3,0Z" style="opacity: 1; stroke-width: 1px; fill: rgb(199, 125, 255); fill-opacity: 1; stroke: rgb(51, 51, 51); stroke-opacity: 1;"/><path class="point" transform="translate(74.86,68.51)" d="M3,0A3,3 0 1,1 0,-3A3,3 0 0,1 3,0Z" style="opacity: 1; stroke-width: 1px; fill: rgb(199, 125, 255); fill-opacity: 1; stroke: rgb(51, 51, 51); stroke-opacity: 1;"/><path class="point" transform="translate(91.67,51.64)" d="M3,0A3,3 0 1,1 0,-3A3,3 0 0,1 3,0Z" style="opacity: 1; stroke-width: 1px; fill: rgb(199, 125, 255); fill-opacity: 1; stroke: rgb(51, 51, 51); stroke-opacity: 1;"/><path class="point" transform="translate(94.26,50.36)" d="M3,0A3,3 0 1,1 0,-3A3,3 0 0,1 3,0Z" style="opacity: 1; stroke-width: 1px; fill: rgb(199, 125, 255); fill-opacity: 1; stroke: rgb(51, 51, 51); stroke-opacity: 1;"/></g><g class="text"/></g></g></g><g class="overplot"/><path class="xlines-above crisp" d="M292,430H482M292,244.46H482" style="fill: none; stroke-width: 2px; stroke: rgb(51, 51, 51); stroke-opacity: 1;"/><path class="ylines-above crisp" d="M293,245.46V429M481,245.46V429" style="fill: none; stroke-width: 2px; stroke: rgb(51, 51, 51); stroke-opacity: 1;"/><g class="overlines-above"/><g class="xaxislayer-above"><path class="x4tick ticks crisp" d="M0,431v5" transform="translate(315.04,0)" style="stroke: rgb(68, 68, 68); stroke-opacity: 1; stroke-width: 1px;"/><path class="x4tick ticks crisp" d="M0,431v5" transform="translate(348.25,0)" style="stroke: rgb(68, 68, 68); stroke-opacity: 1; stroke-width: 1px;"/><path class="x4tick ticks crisp" d="M0,431v5" transform="translate(381.46,0)" style="stroke: rgb(68, 68, 68); stroke-opacity: 1; stroke-width: 1px;"/><path class="x4tick ticks crisp" d="M0,431v5" transform="translate(414.68,0)" style="stroke: rgb(68, 68, 68); stroke-opacity: 1; stroke-width: 1px;"/><path class="x4tick ticks crisp" d="M0,431v5" transform="translate(447.89,0)" style="stroke: rgb(68, 68, 68); stroke-opacity: 1; stroke-width: 1px;"/><g class="x4tick"><text text-anchor="middle" x="0" y="450.4" transform="translate(315.04,0)" style="font-family: Helvetica; font-size: 12px; fill: rgb(51, 51, 51); fill-opacity: 1; white-space: pre; opacity: 1;">−0.9</text></g><g class="x4tick"><text text-anchor="middle" x="0" y="450.4" style="font-family: Helvetica; font-size: 12px; fill: rgb(51, 51, 51); fill-opacity: 1; white-space: pre; opacity: 1;" transform="translate(348.25,0)">−0.6</text></g><g class="x4tick"><text text-anchor="middle" x="0" y="450.4" style="font-family: Helvetica; font-size: 12px; fill: rgb(51, 51, 51); fill-opacity: 1; white-space: pre; opacity: 1;" transform="translate(381.46,0)">−0.3</text></g><g class="x4tick"><text text-anchor="middle" x="0" y="450.4" style="font-family: Helvetica; font-size: 12px; fill: rgb(51, 51, 51); fill-opacity: 1; white-space: pre; opacity: 1;" transform="translate(414.68,0)">0</text></g><g class="x4tick"><text text-anchor="middle" x="0" y="450.4" style="font-family: Helvetica; font-size: 12px; fill: rgb(51, 51, 51); fill-opacity: 1; white-space: pre; opacity: 1;" transform="translate(447.89,0)">0.3</text></g></g><g class="yaxislayer-above"/><g class="overaxes-above"/></g></g><g class="polarlayer"/><g class="smithlayer"/><g class="ternarylayer"/><g class="geolayer"/><g class="funnelarealayer"/><g class="pielayer"/><g class="iciclelayer"/><g class="treemaplayer"/><g class="sunburstlayer"/><g class="glimages"/><defs id="topdefs-924d0a"><g class="clips"/></defs><g class="layer-above"><g class="imagelayer"/><g class="shapelayer"/></g><g class="infolayer"><g class="g-gtitle"/><g class="g-xtitle"/><g class="g-x2title"/><g class="g-x3title" transform="translate(0,-24.21875)"><text class="x3title" x="173" y="499.40625" text-anchor="middle" style="font-family: Helvetica; font-size: 16px; fill: rgb(51, 51, 51); opacity: 1; font-weight: normal; white-space: pre;"><tspan class="line" dy="0em" x="173" y="499.40625">Error from extrapolations</tspan><tspan class="line" dy="1.3em" x="173" y="499.40625">including double-zeta basis</tspan></text></g><g class="g-x4title" transform="translate(0,-24.21875)"><text class="x4title" x="387" y="499.40625" text-anchor="middle" style="font-family: Helvetica; font-size: 16px; fill: rgb(51, 51, 51); opacity: 1; font-weight: normal; white-space: pre;"><tspan class="line" dy="0em" x="387" y="499.40625">Error from extrapolations</tspan><tspan class="line" dy="1.3em" x="387" y="499.40625">including double-zeta basis</tspan></text></g><g class="g-ytitle" transform="translate(13.09765625,0)"><text class="ytitle" transform="rotate(-90,0.90625,121.77)" x="0.90625" y="121.77" text-anchor="middle" style="font-family: Helvetica; font-size: 16px; fill: rgb(51, 51, 51); opacity: 1; font-weight: normal; white-space: pre;"><tspan class="line" dy="0em" x="0.90625" y="121.77">Error from extrapolations</tspan><tspan class="line" dy="1.3em" x="0.90625" y="121.77">excluding double-zeta basis</tspan></text></g><g class="g-y2title"/><g class="g-y3title" transform="translate(13.10546875,0)"><text class="y3title" transform="rotate(-90,0.90625,337.23)" x="0.90625" y="337.23" text-anchor="middle" style="font-family: Helvetica; font-size: 16px; fill: rgb(51, 51, 51); opacity: 1; font-weight: normal; white-space: pre;"><tspan class="line" dy="0em" x="0.90625" y="337.23">Error from extrapolations</tspan><tspan class="line" dy="1.3em" x="0.90625" y="337.23">excluding double-zeta basis</tspan></text></g><g class="g-y4title"/><g class="annotation" data-index="0" style="opacity: 1;"><g class="annotation-text-g" transform="rotate(0,173,19)"><g class="cursor-pointer" transform="translate(139,8)"><rect class="bg" x="0.5" y="0.5" width="68" height="21" style="stroke-width: 1px; stroke: rgb(0, 0, 0); stroke-opacity: 0; fill: rgb(0, 0, 0); fill-opacity: 0;"/><text class="annotation-text" text-anchor="middle" x="34.46875" y="16" style="font-family: Helvetica; font-size: 16px; fill: rgb(51, 51, 51); fill-opacity: 1; white-space: pre;"><tspan style="font-weight:bold">C-Series</tspan></text></g></g></g><g class="annotation" data-index="1" style="opacity: 1;"><g class="annotation-text-g" transform="rotate(0,386.99999999999994,19)"><g class="cursor-pointer" transform="translate(352,8)"><rect class="bg" x="0.5" y="0.5" width="68" height="21" style="stroke-width: 1px; stroke: rgb(0, 0, 0); stroke-opacity: 0; fill: rgb(0, 0, 0); fill-opacity: 0;"/><text class="annotation-text" text-anchor="middle" x="34.46875" y="16" style="font-family: Helvetica; font-size: 16px; fill: rgb(51, 51, 51); fill-opacity: 1; white-space: pre;"><tspan style="font-weight:bold">N-Series</tspan></text></g></g></g><g class="annotation" data-index="2" style="opacity: 1;"><g class="annotation-text-g" transform="rotate(0,173,234.46)"><g class="cursor-pointer" transform="translate(138,223)"><rect class="bg" x="0.5" y="0.5" width="69" height="21" style="stroke-width: 1px; stroke: rgb(0, 0, 0); stroke-opacity: 0; fill: rgb(0, 0, 0); fill-opacity: 0;"/><text class="annotation-text" text-anchor="middle" x="34.90625" y="16" style="font-family: Helvetica; font-size: 16px; fill: rgb(51, 51, 51); fill-opacity: 1; white-space: pre;"><tspan style="font-weight:bold">O-Series</tspan></text></g></g></g><g class="annotation" data-index="3" style="opacity: 1;"><g class="annotation-text-g" transform="rotate(0,386.99999999999994,234.46)"><g class="cursor-pointer" transform="translate(353,223)"><rect class="bg" x="0.5" y="0.5" width="66" height="21" style="stroke-width: 1px; stroke: rgb(0, 0, 0); stroke-opacity: 0; fill: rgb(0, 0, 0); fill-opacity: 0;"/><text class="annotation-text" text-anchor="middle" x="33.578125" y="16" style="font-family: Helvetica; font-size: 16px; fill: rgb(51, 51, 51); fill-opacity: 1; white-space: pre;"><tspan style="font-weight:bold">F-Series</tspan></text></g></g></g></g></svg>