<svg class="main-svg" xmlns="http://www.w3.org/2000/svg" xmlns:xlink="http://www.w3.org/1999/xlink" width="720" height="500" style="" viewBox="0 0 720 500"><rect x="0" y="0" width="720" height="500" style="fill: rgb(255, 255, 255); fill-opacity: 1;"/><defs id="defs-18e95d"><g class="clips"><clipPath id="clip18e95dxyplot" class="plotclip"><rect width="463" height="320"/></clipPath><clipPath class="axesclip" id="clip18e95dx"><rect x="80" y="0" width="463" height="500"/></clipPath><clipPath class="axesclip" id="clip18e95dy"><rect x="0" y="100" width="720" height="320"/></clipPath><clipPath class="axesclip" id="clip18e95dxy"><rect x="80" y="100" width="463" height="320"/></clipPath></g><g class="gradients"/><g class="patterns"/></defs><g class="bglayer"/><g class="layer-below"><g class="imagelayer"/><g class="shapelayer"/></g><g class="cartesianlayer"><g class="subplot xy"><g class="layer-subplot"><g class="shapelayer"/><g class="imagelayer"/></g><g class="minor-gridlayer"><g class="x"/><g class="y"/></g><g class="gridlayer"><g class="x"><path class="xgrid crisp" transform="translate(103.15,0)" d="M0,100v320" style="stroke: rgb(255, 255, 255); stroke-opacity: 1; stroke-width: 1px;"/><path class="xgrid crisp" transform="translate(126.3,0)" d="M0,100v320" style="stroke: rgb(255, 255, 255); stroke-opacity: 1; stroke-width: 1px;"/><path class="xgrid crisp" transform="translate(149.45,0)" d="M0,100v320" style="stroke: rgb(255, 255, 255); stroke-opacity: 1; stroke-width: 1px;"/><path class="xgrid crisp" transform="translate(172.6,0)" d="M0,100v320" style="stroke: rgb(255, 255, 255); stroke-opacity: 1; stroke-width: 1px;"/><path class="xgrid crisp" transform="translate(195.75,0)" d="M0,100v320" style="stroke: rgb(255, 255, 255); stroke-opacity: 1; stroke-width: 1px;"/><path class="xgrid crisp" transform="translate(218.9,0)" d="M0,100v320" style="stroke: rgb(255, 255, 255); stroke-opacity: 1; stroke-width: 1px;"/><path class="xgrid crisp" transform="translate(242.05,0)" d="M0,100v320" style="stroke: rgb(255, 255, 255); stroke-opacity: 1; stroke-width: 1px;"/><path class="xgrid crisp" transform="translate(265.2,0)" d="M0,100v320" style="stroke: rgb(255, 255, 255); stroke-opacity: 1; stroke-width: 1px;"/><path class="xgrid crisp" transform="translate(288.35,0)" d="M0,100v320" style="stroke: rgb(255, 255, 255); stroke-opacity: 1; stroke-width: 1px;"/><path class="xgrid crisp" transform="translate(311.5,0)" d="M0,100v320" style="stroke: rgb(255, 255, 255); stroke-opacity: 1; stroke-width: 1px;"/><path class="xgrid crisp" transform="translate(334.65,0)" d="M0,100v320" style="stroke: rgb(255, 255, 255); stroke-opacity: 1; stroke-width: 1px;"/><path class="xgrid crisp" transform="translate(357.8,0)" d="M0,100v320" style="stroke: rgb(255, 255, 255); stroke-opacity: 1; stroke-width: 1px;"/><path class="xgrid crisp" transform="translate(380.95,0)" d="M0,100v320" style="stroke: rgb(255, 255, 255); stroke-opacity: 1; stroke-width: 1px;"/><path class="xgrid crisp" transform="translate(404.1,0)" d="M0,100v320" style="stroke: rgb(255, 255, 255); stroke-opacity: 1; stroke-width: 1px;"/><path class="xgrid crisp" transform="translate(427.25,0)" d="M0,100v320" style="stroke: rgb(255, 255, 255); stroke-opacity: 1; stroke-width: 1px;"/><path class="xgrid crisp" transform="translate(450.4,0)" d="M0,100v320" style="stroke: rgb(255, 255, 255); stroke-opacity: 1; stroke-width: 1px;"/><path class="xgrid crisp" transform="translate(473.55,0)" d="M0,100v320" style="stroke: rgb(255, 255, 255); stroke-opacity: 1; stroke-width: 1px;"/><path class="xgrid crisp" transform="translate(496.7,0)" d="M0,100v320" style="stroke: rgb(255, 255, 255); stroke-opacity: 1; stroke-width: 1px;"/><path class="xgrid crisp" transform="translate(519.85,0)" d="M0,100v320" style="stroke: rgb(255, 255, 255); stroke-opacity: 1; stroke-width: 1px;"/></g><g class="y"><path class="ygrid crisp" transform="translate(0,414.64)" d="M80,0h463" style="stroke: rgb(236, 236, 236); stroke-opacity: 1; stroke-width: 1px;"/><path class="ygrid crisp" transform="translate(0,393.36)" d="M80,0h463" style="stroke: rgb(236, 236, 236); stroke-opacity: 1; stroke-width: 1px;"/><path class="ygrid crisp" transform="translate(0,382.72)" d="M80,0h463" style="stroke: rgb(236, 236, 236); stroke-opacity: 1; stroke-width: 1px;"/><path class="ygrid crisp" transform="translate(0,372.08)" d="M80,0h463" style="stroke: rgb(236, 236, 236); stroke-opacity: 1; stroke-width: 1px;"/><path class="ygrid crisp" transform="translate(0,361.44)" d="M80,0h463" style="stroke: rgb(236, 236, 236); stroke-opacity: 1; stroke-width: 1px;"/><path class="ygrid crisp" transform="translate(0,350.8)" d="M80,0h463" style="stroke: rgb(236, 236, 236); stroke-opacity: 1; stroke-width: 1px;"/><path class="ygrid crisp" transform="translate(0,340.15999999999997)" d="M80,0h463" style="stroke: rgb(236, 236, 236); stroke-opacity: 1; stroke-width: 1px;"/><path class="ygrid crisp" transform="translate(0,329.52)" d="M80,0h463" style="stroke: rgb(236, 236, 236); stroke-opacity: 1; stroke-width: 1px;"/><path class="ygrid crisp" transform="translate(0,318.88)" d="M80,0h463" style="stroke: rgb(236, 236, 236); stroke-opacity: 1; stroke-width: 1px;"/><path class="ygrid crisp" transform="translate(0,308.24)" d="M80,0h463" style="stroke: rgb(236, 236, 236); stroke-opacity: 1; stroke-width: 1px;"/><path class="ygrid crisp" transform="translate(0,297.6)" d="M80,0h463" style="stroke: rgb(236, 236, 236); stroke-opacity: 1; stroke-width: 1px;"/><path class="ygrid crisp" transform="translate(0,286.97)" d="M80,0h463" style="stroke: rgb(236, 236, 236); stroke-opacity: 1; stroke-width: 1px;"/><path class="ygrid crisp" transform="translate(0,276.33000000000004)" d="M80,0h463" style="stroke: rgb(236, 236, 236); stroke-opacity: 1; stroke-width: 1px;"/><path class="ygrid crisp" transform="translate(0,265.69)" d="M80,0h463" style="stroke: rgb(236, 236, 236); stroke-opacity: 1; stroke-width: 1px;"/><path class="ygrid crisp" transform="translate(0,255.05)" d="M80,0h463" style="stroke: rgb(236, 236, 236); stroke-opacity: 1; stroke-width: 1px;"/><path class="ygrid crisp" transform="translate(0,244.41)" d="M80,0h463" style="stroke: rgb(236, 236, 236); stroke-opacity: 1; stroke-width: 1px;"/><path class="ygrid crisp" transform="translate(0,233.77)" d="M80,0h463" style="stroke: rgb(236, 236, 236); stroke-opacity: 1; stroke-width: 1px;"/><path class="ygrid crisp" transform="translate(0,223.13)" d="M80,0h463" style="stroke: rgb(236, 236, 236); stroke-opacity: 1; stroke-width: 1px;"/><path class="ygrid crisp" transform="translate(0,212.49)" d="M80,0h463" style="stroke: rgb(236, 236, 236); stroke-opacity: 1; stroke-width: 1px;"/><path class="ygrid crisp" transform="translate(0,201.85)" d="M80,0h463" style="stroke: rgb(236, 236, 236); stroke-opacity: 1; stroke-width: 1px;"/><path class="ygrid crisp" transform="translate(0,191.20999999999998)" d="M80,0h463" style="stroke: rgb(236, 236, 236); stroke-opacity: 1; stroke-width: 1px;"/><path class="ygrid crisp" transform="translate(0,180.57)" d="M80,0h463" style="stroke: rgb(236, 236, 236); stroke-opacity: 1; stroke-width: 1px;"/><path class="ygrid crisp" transform="translate(0,169.93)" d="M80,0h463" style="stroke: rgb(236, 236, 236); stroke-opacity: 1; stroke-width: 1px;"/><path class="ygrid crisp" transform="translate(0,159.29)" d="M80,0h463" style="stroke: rgb(236, 236, 236); stroke-opacity: 1; stroke-width: 1px;"/><path class="ygrid crisp" transform="translate(0,148.65)" d="M80,0h463" style="stroke: rgb(236, 236, 236); stroke-opacity: 1; stroke-width: 1px;"/><path class="ygrid crisp" transform="translate(0,138.01)" d="M80,0h463" style="stroke: rgb(236, 236, 236); stroke-opacity: 1; stroke-width: 1px;"/><path class="ygrid crisp" transform="translate(0,127.37)" d="M80,0h463" style="stroke: rgb(236, 236, 236); stroke-opacity: 1; stroke-width: 1px;"/><path class="ygrid crisp" transform="translate(0,116.73)" d="M80,0h463" style="stroke: rgb(236, 236, 236); stroke-opacity: 1; stroke-width: 1px;"/><path class="ygrid crisp" transform="translate(0,106.09)" d="M80,0h463" style="stroke: rgb(236, 236, 236); stroke-opacity: 1; stroke-width: 1px;"/></g></g><g class="zerolinelayer"><path class="yzl zl crisp" transform="translate(0,404)" d="M80,0h463" style="stroke: rgb(51, 51, 51); stroke-opacity: 1; stroke-width: 2px;"/></g><path class="xlines-below"/><path class="ylines-below"/><g class="overlines-below"/><g class="xaxislayer-below"/><g class="yaxislayer-below"/><g class="overaxes-below"/><g class="plot" transform="translate(80,100)" clip-path="url(#clip18e95dxyplot)"><g class="barlayer mlayer"><g class="trace bars" shape-rendering="crispEdges" style="opacity: 0.7;"><g class="points"><g class="point"><path d="M167.15,304V282.72H178.72V304Z" style="vector-effect: none; opacity: 1; stroke-width: 0px; fill: rgb(3, 4, 94); fill-opacity: 1;"/></g><g class="point"><path d="M178.72,304V293.36H190.3V304Z" style="vector-effect: none; opacity: 1; stroke-width: 0px; fill: rgb(3, 4, 94); fill-opacity: 1;"/></g><g class="point"><path d="M190.3,304V293.36H201.87V304Z" style="vector-effect: none; opacity: 1; stroke-width: 0px; fill: rgb(3, 4, 94); fill-opacity: 1;"/></g><g class="point"><path d="M201.87,304V272.08H213.45V304Z" style="vector-effect: none; opacity: 1; stroke-width: 0px; fill: rgb(3, 4, 94); fill-opacity: 1;"/></g><g class="point"><path d="M213.45,304V229.52H225.02V304Z" style="vector-effect: none; opacity: 1; stroke-width: 0px; fill: rgb(3, 4, 94); fill-opacity: 1;"/></g><g class="point"><path d="M225.02,304V186.97H236.6V304Z" style="vector-effect: none; opacity: 1; stroke-width: 0px; fill: rgb(3, 4, 94); fill-opacity: 1;"/></g><g class="point"><path d="M236.6,304V16.73H248.17V304Z" style="vector-effect: none; opacity: 1; stroke-width: 0px; fill: rgb(3, 4, 94); fill-opacity: 1;"/></g><g class="point"><path d="M248.17,304V69.93H259.75V304Z" style="vector-effect: none; opacity: 1; stroke-width: 0px; fill: rgb(3, 4, 94); fill-opacity: 1;"/></g><g class="point"><path d="M259.75,304V133.77H271.32V304Z" style="vector-effect: none; opacity: 1; stroke-width: 0px; fill: rgb(3, 4, 94); fill-opacity: 1;"/></g><g class="point"><path d="M271.32,304V261.44H282.9V304Z" style="vector-effect: none; opacity: 1; stroke-width: 0px; fill: rgb(3, 4, 94); fill-opacity: 1;"/></g></g></g><g class="trace bars" shape-rendering="crispEdges" style="opacity: 0.7;"><g class="points"><g class="point"><path d="M162.39,304V293.36H173.96V304Z" style="vector-effect: none; opacity: 1; stroke-width: 0px; fill: rgb(0, 180, 216); fill-opacity: 1;"/></g><g class="point"><path d="M173.96,304V282.72H185.54V304Z" style="vector-effect: none; opacity: 1; stroke-width: 0px; fill: rgb(0, 180, 216); fill-opacity: 1;"/></g><g class="point"><path d="M0,0Z" style="vector-effect: none; opacity: 1; stroke-width: 0px; fill: rgb(0, 180, 216); fill-opacity: 1;"/></g><g class="point"><path d="M197.11,304V282.72H208.69V304Z" style="vector-effect: none; opacity: 1; stroke-width: 0px; fill: rgb(0, 180, 216); fill-opacity: 1;"/></g><g class="point"><path d="M208.69,304V218.88H220.26V304Z" style="vector-effect: none; opacity: 1; stroke-width: 0px; fill: rgb(0, 180, 216); fill-opacity: 1;"/></g><g class="point"><path d="M220.26,304V218.88H231.84V304Z" style="vector-effect: none; opacity: 1; stroke-width: 0px; fill: rgb(0, 180, 216); fill-opacity: 1;"/></g><g class="point"><path d="M231.84,304V59.29H243.41V304Z" style="vector-effect: none; opacity: 1; stroke-width: 0px; fill: rgb(0, 180, 216); fill-opacity: 1;"/></g><g class="point"><path d="M243.41,304V38.01H254.99V304Z" style="vector-effect: none; opacity: 1; stroke-width: 0px; fill: rgb(0, 180, 216); fill-opacity: 1;"/></g><g class="point"><path d="M254.99,304V155.05H266.56V304Z" style="vector-effect: none; opacity: 1; stroke-width: 0px; fill: rgb(0, 180, 216); fill-opacity: 1;"/></g><g class="point"><path d="M266.56,304V218.88H278.14V304Z" style="vector-effect: none; opacity: 1; stroke-width: 0px; fill: rgb(0, 180, 216); fill-opacity: 1;"/></g><g class="point"><path d="M278.14,304V272.08H289.71V304Z" style="vector-effect: none; opacity: 1; stroke-width: 0px; fill: rgb(0, 180, 216); fill-opacity: 1;"/></g></g></g><g class="trace bars" shape-rendering="crispEdges" style="opacity: 0.7;"><g class="points"><g class="point"><path d="M129.57,304V272.08H141.14V304Z" style="vector-effect: none; opacity: 1; stroke-width: 0px; fill: rgb(90, 24, 154); fill-opacity: 1;"/></g><g class="point"><path d="M0,0Z" style="vector-effect: none; opacity: 1; stroke-width: 0px; fill: rgb(90, 24, 154); fill-opacity: 1;"/></g><g class="point"><path d="M0,0Z" style="vector-effect: none; opacity: 1; stroke-width: 0px; fill: rgb(90, 24, 154); fill-opacity: 1;"/></g><g class="point"><path d="M164.29,304V282.72H175.87V304Z" style="vector-effect: none; opacity: 1; stroke-width: 0px; fill: rgb(90, 24, 154); fill-opacity: 1;"/></g><g class="point"><path d="M175.87,304V208.24H187.44V304Z" style="vector-effect: none; opacity: 1; stroke-width: 0px; fill: rgb(90, 24, 154); fill-opacity: 1;"/></g><g class="point"><path d="M187.44,304V218.88H199.02V304Z" style="vector-effect: none; opacity: 1; stroke-width: 0px; fill: rgb(90, 24, 154); fill-opacity: 1;"/></g><g class="point"><path d="M199.02,304V123.13H210.59V304Z" style="vector-effect: none; opacity: 1; stroke-width: 0px; fill: rgb(90, 24, 154); fill-opacity: 1;"/></g><g class="point"><path d="M210.59,304V48.65H222.17V304Z" style="vector-effect: none; opacity: 1; stroke-width: 0px; fill: rgb(90, 24, 154); fill-opacity: 1;"/></g><g class="point"><path d="M222.17,304V101.85H233.74V304Z" style="vector-effect: none; opacity: 1; stroke-width: 0px; fill: rgb(90, 24, 154); fill-opacity: 1;"/></g><g class="point"><path d="M233.74,304V208.24H245.32V304Z" style="vector-effect: none; opacity: 1; stroke-width: 0px; fill: rgb(90, 24, 154); fill-opacity: 1;"/></g><g class="point"><path d="M245.32,304V272.08H256.89V304Z" style="vector-effect: none; opacity: 1; stroke-width: 0px; fill: rgb(90, 24, 154); fill-opacity: 1;"/></g></g></g><g class="trace bars" shape-rendering="crispEdges" style="opacity: 0.7;"><g class="points"><g class="point"><path d="M121.69,304V282.72H133.27V304Z" style="vector-effect: none; opacity: 1; stroke-width: 0px; fill: rgb(224, 170, 255); fill-opacity: 1;"/></g><g class="point"><path d="M133.27,304V293.36H144.84V304Z" style="vector-effect: none; opacity: 1; stroke-width: 0px; fill: rgb(224, 170, 255); fill-opacity: 1;"/></g><g class="point"><path d="M0,0Z" style="vector-effect: none; opacity: 1; stroke-width: 0px; fill: rgb(224, 170, 255); fill-opacity: 1;"/></g><g class="point"><path d="M156.42,304V272.08H167.99V304Z" style="vector-effect: none; opacity: 1; stroke-width: 0px; fill: rgb(224, 170, 255); fill-opacity: 1;"/></g><g class="point"><path d="M167.99,304V229.52H179.57V304Z" style="vector-effect: none; opacity: 1; stroke-width: 0px; fill: rgb(224, 170, 255); fill-opacity: 1;"/></g><g class="point"><path d="M179.57,304V250.8H191.14V304Z" style="vector-effect: none; opacity: 1; stroke-width: 0px; fill: rgb(224, 170, 255); fill-opacity: 1;"/></g><g class="point"><path d="M191.14,304V144.41H202.72V304Z" style="vector-effect: none; opacity: 1; stroke-width: 0px; fill: rgb(224, 170, 255); fill-opacity: 1;"/></g><g class="point"><path d="M202.72,304V123.13H214.29V304Z" style="vector-effect: none; opacity: 1; stroke-width: 0px; fill: rgb(224, 170, 255); fill-opacity: 1;"/></g><g class="point"><path d="M214.29,304V101.85H225.87V304Z" style="vector-effect: none; opacity: 1; stroke-width: 0px; fill: rgb(224, 170, 255); fill-opacity: 1;"/></g><g class="point"><path d="M225.87,304V144.41H237.44V304Z" style="vector-effect: none; opacity: 1; stroke-width: 0px; fill: rgb(224, 170, 255); fill-opacity: 1;"/></g><g class="point"><path d="M237.44,304V240.16H249.02V304Z" style="vector-effect: none; opacity: 1; stroke-width: 0px; fill: rgb(224, 170, 255); fill-opacity: 1;"/></g><g class="point"><path d="M249.02,304V272.08H260.59V304Z" style="vector-effect: none; opacity: 1; stroke-width: 0px; fill: rgb(224, 170, 255); fill-opacity: 1;"/></g><g class="point"><path d="M260.59,304V293.36H272.17V304Z" style="vector-effect: none; opacity: 1; stroke-width: 0px; fill: rgb(224, 170, 255); fill-opacity: 1;"/></g></g></g></g><g class="scatterlayer mlayer"><g class="trace scatter trace02fd5a" style="stroke-miterlimit: 2; opacity: 1;"><g class="fills"/><g class="errorbars"/><g class="lines"><path class="js-line" d="M115.75,304L173.05,303.25L173.34,303.22L180.86,301.41L181.15,301.29L186.07,298.52L186.36,298.3L190.41,294.27L190.7,293.9L194.46,288.03L194.75,287.48L198.8,277.99L199.09,277.18L203.43,262.37L203.72,261.2L208.35,239.12L208.64,237.52L213.85,204.49L214.14,202.43L221.08,147.51L221.37,145.06L232.95,53.07L233.24,51.22L237.58,28.57L237.87,27.43L241.05,18.39L241.34,17.9L243.36,16.04L243.65,16L245.1,16.68L245.39,16.99L247.13,20.02L247.42,20.72L250.31,30.66L250.6,31.93L254.07,50.73L254.36,52.57L259.57,90.8L259.86,93.15L276.06,221.51L276.35,223.34L281.85,253.31L282.14,254.64L287.06,273.46L287.35,274.36L291.98,286.17L292.27,286.75L296.61,293.8L296.9,294.17L301.24,298.46L301.53,298.68L306.45,301.38L306.74,301.49L312.81,303.04L313.1,303.08L324.1,303.87L324.39,303.88L346.96,304" style="vector-effect: none; fill: none; stroke: rgb(3, 4, 94); stroke-opacity: 1; stroke-width: 3px; opacity: 1;"/></g><g class="points"/><g class="text"/></g><g class="trace scatter traceeb4be9" style="stroke-miterlimit: 2; opacity: 1;"><g class="fills"/><g class="errorbars"/><g class="lines"><path class="js-line" d="M115.75,304L166.97,303.28L167.26,303.24L174.49,301.79L174.78,301.7L180.57,299L180.86,298.81L185.78,294.52L186.07,294.19L190.41,288.03L190.7,287.52L194.75,278.99L195.04,278.27L199.38,265.33L199.67,264.33L204.59,244.13L204.88,242.76L210.38,212.86L210.66,211.09L218.19,159.94L218.48,157.83L230.92,72.02L231.21,70.41L235.84,49.01L236.13,47.99L239.31,39.48L239.6,38.96L241.92,36.49L242.21,36.39L243.94,36.74L244.23,36.96L246.26,39.78L246.55,40.36L249.15,47.54L249.44,48.55L252.91,63.58L253.2,65.06L258.12,94.48L258.41,96.41L270.28,181.72L270.57,183.72L276.93,223.97L277.22,225.59L283.01,253.82L283.3,255.02L288.51,273.2L288.8,274.03L293.72,285.68L294,286.23L298.63,293.35L298.92,293.7L303.84,298.32L304.13,298.52L309.34,301.25L309.63,301.35L315.71,302.9L316,302.95L327.86,303.85L328.15,303.86L346.96,304" style="vector-effect: none; fill: none; stroke: rgb(0, 180, 216); stroke-opacity: 1; stroke-width: 3px; opacity: 1;"/></g><g class="points"/><g class="text"/></g><g class="trace scatter trace960b68" style="stroke-miterlimit: 2; opacity: 1;"><g class="fills"/><g class="errorbars"/><g class="lines"><path class="js-line" d="M115.75,303.95L132.53,303.22L132.82,303.18L140.35,301.68L140.64,301.59L147,298.64L147.29,298.45L152.21,294.25L152.5,293.93L156.84,288.1L157.13,287.62L161.47,279.08L161.76,278.4L166.39,265.54L166.68,264.6L171.89,244.77L172.18,243.5L177.97,214.56L178.25,212.94L186.07,164.71L186.36,162.81L198.8,85.49L199.09,84.01L204.01,63.09L204.3,62.14L207.77,53.45L208.06,52.97L210.38,50.49L210.66,50.35L212.4,50.37L212.69,50.51L214.72,52.58L215.01,53.03L217.9,59.59L218.19,60.45L221.66,73.28L221.95,74.55L226.87,100L227.16,101.69L235.84,157.33L236.13,159.24L246.26,221.08L246.55,222.61L252.91,252.15L253.2,253.3L258.7,271.76L258.99,272.57L264.2,284.62L264.49,285.16L269.41,292.64L269.7,292.98L274.62,297.66L274.91,297.87L280.11,300.76L280.4,300.88L287.35,302.77L287.64,302.82L297.19,303.72L297.48,303.73L326.7,304L326.99,304L346.96,304" style="vector-effect: none; fill: none; stroke: rgb(90, 24, 154); stroke-opacity: 1; stroke-width: 3px; opacity: 1;"/></g><g class="points"/><g class="text"/></g><g class="trace scatter tracecb358c" style="stroke-miterlimit: 2; opacity: 1;"><g class="fills"/><g class="errorbars"/><g class="lines"><path class="js-line" d="M115.75,303.66L126.75,302.56L127.04,302.5L134.27,300.5L134.56,300.39L140.64,297.09L140.93,296.88L146.13,292.13L146.42,291.81L151.34,285.02L151.63,284.54L156.55,274.84L156.84,274.18L162.05,260.12L162.34,259.22L167.84,239.73L168.13,238.58L175.07,207.5L175.36,206.08L187.23,143.88L187.51,142.38L195.62,104.37L195.91,103.23L200.83,86.91L201.12,86.16L204.59,79.12L204.88,78.7L207.77,76.1L208.06,76L210.09,76.07L210.38,76.19L212.69,78.21L212.98,78.58L215.87,83.85L216.16,84.52L219.92,95.46L220.21,96.46L225.13,116.38L225.42,117.7L233.24,157.19L233.53,158.73L244.52,215.44L244.81,216.79L252.05,247.13L252.33,248.18L258.41,267.41L258.7,268.18L264.2,280.75L264.49,281.3L269.7,289.57L269.99,289.95L275.2,295.45L275.48,295.69L280.98,299.3L281.27,299.45L287.93,301.86L288.22,301.93L297.19,303.33L297.48,303.35L309.92,303.89L310.21,303.89L335.1,304L335.39,304L346.96,304" style="vector-effect: none; fill: none; stroke: rgb(224, 170, 255); stroke-opacity: 1; stroke-width: 3px; opacity: 1;"/></g><g class="points"/><g class="text"/></g></g></g><g class="overplot"/><path class="xlines-above crisp" d="M78,421H545M78,99H545" style="fill: none; stroke-width: 2px; stroke: rgb(51, 51, 51); stroke-opacity: 1;"/><path class="ylines-above crisp" d="M79,100V420M544,100V420" style="fill: none; stroke-width: 2px; stroke: rgb(51, 51, 51); stroke-opacity: 1;"/><g class="overlines-above"/><g class="xaxislayer-above"><path class="xtick ticks crisp" d="M0,422v5" transform="translate(80,0)" style="stroke: rgb(68, 68, 68); stroke-opacity: 1; stroke-width: 1px;"/><path class="xtick ticks crisp" d="M0,422v5" transform="translate(103.15,0)" style="stroke: rgb(68, 68, 68); stroke-opacity: 1; stroke-width: 1px;"/><path class="xtick ticks crisp" d="M0,422v5" transform="translate(126.3,0)" style="stroke: rgb(68, 68, 68); stroke-opacity: 1; stroke-width: 1px;"/><path class="xtick ticks crisp" d="M0,422v5" transform="translate(149.45,0)" style="stroke: rgb(68, 68, 68); stroke-opacity: 1; stroke-width: 1px;"/><path class="xtick ticks crisp" d="M0,422v5" transform="translate(172.6,0)" style="stroke: rgb(68, 68, 68); stroke-opacity: 1; stroke-width: 1px;"/><path class="xtick ticks crisp" d="M0,422v5" transform="translate(195.75,0)" style="stroke: rgb(68, 68, 68); stroke-opacity: 1; stroke-width: 1px;"/><path class="xtick ticks crisp" d="M0,422v5" transform="translate(218.9,0)" style="stroke: rgb(68, 68, 68); stroke-opacity: 1; stroke-width: 1px;"/><path class="xtick ticks crisp" d="M0,422v5" transform="translate(242.05,0)" style="stroke: rgb(68, 68, 68); stroke-opacity: 1; stroke-width: 1px;"/><path class="xtick ticks crisp" d="M0,422v5" transform="translate(265.2,0)" style="stroke: rgb(68, 68, 68); stroke-opacity: 1; stroke-width: 1px;"/><path class="xtick ticks crisp" d="M0,422v5" transform="translate(288.35,0)" style="stroke: rgb(68, 68, 68); stroke-opacity: 1; stroke-width: 1px;"/><path class="xtick ticks crisp" d="M0,422v5" transform="translate(311.5,0)" style="stroke: rgb(68, 68, 68); stroke-opacity: 1; stroke-width: 1px;"/><path class="xtick ticks crisp" d="M0,422v5" transform="translate(334.65,0)" style="stroke: rgb(68, 68, 68); stroke-opacity: 1; stroke-width: 1px;"/><path class="xtick ticks crisp" d="M0,422v5" transform="translate(357.8,0)" style="stroke: rgb(68, 68, 68); stroke-opacity: 1; stroke-width: 1px;"/><path class="xtick ticks crisp" d="M0,422v5" transform="translate(380.95,0)" style="stroke: rgb(68, 68, 68); stroke-opacity: 1; stroke-width: 1px;"/><path class="xtick ticks crisp" d="M0,422v5" transform="translate(404.1,0)" style="stroke: rgb(68, 68, 68); stroke-opacity: 1; stroke-width: 1px;"/><path class="xtick ticks crisp" d="M0,422v5" transform="translate(427.25,0)" style="stroke: rgb(68, 68, 68); stroke-opacity: 1; stroke-width: 1px;"/><path class="xtick ticks crisp" d="M0,422v5" transform="translate(450.4,0)" style="stroke: rgb(68, 68, 68); stroke-opacity: 1; stroke-width: 1px;"/><path class="xtick ticks crisp" d="M0,422v5" transform="translate(473.55,0)" style="stroke: rgb(68, 68, 68); stroke-opacity: 1; stroke-width: 1px;"/><path class="xtick ticks crisp" d="M0,422v5" transform="translate(496.7,0)" style="stroke: rgb(68, 68, 68); stroke-opacity: 1; stroke-width: 1px;"/><path class="xtick ticks crisp" d="M0,422v5" transform="translate(519.85,0)" style="stroke: rgb(68, 68, 68); stroke-opacity: 1; stroke-width: 1px;"/><path class="xtick ticks crisp" d="M0,422v5" transform="translate(543,0)" style="stroke: rgb(68, 68, 68); stroke-opacity: 1; stroke-width: 1px;"/><g class="xtick"><text text-anchor="start" x="0" y="441.4" transform="translate(80,0) rotate(90,0,435.4)" style="font-family: Helvetica; font-size: 12px; fill: rgb(51, 51, 51); fill-opacity: 1; white-space: pre; opacity: 1;">−2</text></g><g class="xtick"><text text-anchor="start" x="0" y="441.4" style="font-family: Helvetica; font-size: 12px; fill: rgb(51, 51, 51); fill-opacity: 1; white-space: pre; opacity: 1;" transform="translate(103.15,0) rotate(90,0,435.4)">−1.8</text></g><g class="xtick"><text text-anchor="start" x="0" y="441.4" style="font-family: Helvetica; font-size: 12px; fill: rgb(51, 51, 51); fill-opacity: 1; white-space: pre; opacity: 1;" transform="translate(126.3,0) rotate(90,0,435.4)">−1.6</text></g><g class="xtick"><text text-anchor="start" x="0" y="441.4" style="font-family: Helvetica; font-size: 12px; fill: rgb(51, 51, 51); fill-opacity: 1; white-space: pre; opacity: 1;" transform="translate(149.45,0) rotate(90,0,435.4)">−1.4</text></g><g class="xtick"><text text-anchor="start" x="0" y="441.4" style="font-family: Helvetica; font-size: 12px; fill: rgb(51, 51, 51); fill-opacity: 1; white-space: pre; opacity: 1;" transform="translate(172.6,0) rotate(90,0,435.4)">−1.2</text></g><g class="xtick"><text text-anchor="start" x="0" y="441.4" style="font-family: Helvetica; font-size: 12px; fill: rgb(51, 51, 51); fill-opacity: 1; white-space: pre; opacity: 1;" transform="translate(195.75,0) rotate(90,0,435.4)">−1</text></g><g class="xtick"><text text-anchor="start" x="0" y="441.4" style="font-family: Helvetica; font-size: 12px; fill: rgb(51, 51, 51); fill-opacity: 1; white-space: pre; opacity: 1;" transform="translate(218.9,0) rotate(90,0,435.4)">−0.8</text></g><g class="xtick"><text text-anchor="start" x="0" y="441.4" style="font-family: Helvetica; font-size: 12px; fill: rgb(51, 51, 51); fill-opacity: 1; white-space: pre; opacity: 1;" transform="translate(242.05,0) rotate(90,0,435.4)">−0.6</text></g><g class="xtick"><text text-anchor="start" x="0" y="441.4" style="font-family: Helvetica; font-size: 12px; fill: rgb(51, 51, 51); fill-opacity: 1; white-space: pre; opacity: 1;" transform="translate(265.2,0) rotate(90,0,435.4)">−0.4</text></g><g class="xtick"><text text-anchor="start" x="0" y="441.4" style="font-family: Helvetica; font-size: 12px; fill: rgb(51, 51, 51); fill-opacity: 1; white-space: pre; opacity: 1;" transform="translate(288.35,0) rotate(90,0,435.4)">−0.2</text></g><g class="xtick"><text text-anchor="start" x="0" y="441.4" style="font-family: Helvetica; font-size: 12px; fill: rgb(51, 51, 51); fill-opacity: 1; white-space: pre; opacity: 1;" transform="translate(311.5,0) rotate(90,0,435.4)">0</text></g><g class="xtick"><text text-anchor="start" x="0" y="441.4" style="font-family: Helvetica; font-size: 12px; fill: rgb(51, 51, 51); fill-opacity: 1; white-space: pre; opacity: 1;" transform="translate(334.65,0) rotate(90,0,435.4)">0.2</text></g><g class="xtick"><text text-anchor="start" x="0" y="441.4" style="font-family: Helvetica; font-size: 12px; fill: rgb(51, 51, 51); fill-opacity: 1; white-space: pre; opacity: 1;" transform="translate(357.8,0) rotate(90,0,435.4)">0.4</text></g><g class="xtick"><text text-anchor="start" x="0" y="441.4" style="font-family: Helvetica; font-size: 12px; fill: rgb(51, 51, 51); fill-opacity: 1; white-space: pre; opacity: 1;" transform="translate(380.95,0) rotate(90,0,435.4)">0.6</text></g><g class="xtick"><text text-anchor="start" x="0" y="441.4" style="font-family: Helvetica; font-size: 12px; fill: rgb(51, 51, 51); fill-opacity: 1; white-space: pre; opacity: 1;" transform="translate(404.1,0) rotate(90,0,435.4)">0.8</text></g><g class="xtick"><text text-anchor="start" x="0" y="441.4" style="font-family: Helvetica; font-size: 12px; fill: rgb(51, 51, 51); fill-opacity: 1; white-space: pre; opacity: 1;" transform="translate(427.25,0) rotate(90,0,435.4)">1</text></g><g class="xtick"><text text-anchor="start" x="0" y="441.4" style="font-family: Helvetica; font-size: 12px; fill: rgb(51, 51, 51); fill-opacity: 1; white-space: pre; opacity: 1;" transform="translate(450.4,0) rotate(90,0,435.4)">1.2</text></g><g class="xtick"><text text-anchor="start" x="0" y="441.4" style="font-family: Helvetica; font-size: 12px; fill: rgb(51, 51, 51); fill-opacity: 1; white-space: pre; opacity: 1;" transform="translate(473.55,0) rotate(90,0,435.4)">1.4</text></g><g class="xtick"><text text-anchor="start" x="0" y="441.4" style="font-family: Helvetica; font-size: 12px; fill: rgb(51, 51, 51); fill-opacity: 1; white-space: pre; opacity: 1;" transform="translate(496.7,0) rotate(90,0,435.4)">1.6</text></g><g class="xtick"><text text-anchor="start" x="0" y="441.4" style="font-family: Helvetica; font-size: 12px; fill: rgb(51, 51, 51); fill-opacity: 1; white-space: pre; opacity: 1;" transform="translate(519.85,0) rotate(90,0,435.4)">1.8</text></g><g class="xtick"><text text-anchor="start" x="0" y="441.4" style="font-family: Helvetica; font-size: 12px; fill: rgb(51, 51, 51); fill-opacity: 1; white-space: pre; opacity: 1;" transform="translate(543,0) rotate(90,0,435.4)">2</text></g></g><g class="yaxislayer-above"><path class="ytick ticks crisp" d="M78,0h-5" transform="translate(0,414.64)" style="stroke: rgb(68, 68, 68); stroke-opacity: 1; stroke-width: 1px;"/><path class="ytick ticks crisp" d="M78,0h-5" transform="translate(0,404)" style="stroke: rgb(68, 68, 68); stroke-opacity: 1; stroke-width: 1px;"/><path class="ytick ticks crisp" d="M78,0h-5" transform="translate(0,393.36)" style="stroke: rgb(68, 68, 68); stroke-opacity: 1; stroke-width: 1px;"/><path class="ytick ticks crisp" d="M78,0h-5" transform="translate(0,382.72)" style="stroke: rgb(68, 68, 68); stroke-opacity: 1; stroke-width: 1px;"/><path class="ytick ticks crisp" d="M78,0h-5" transform="translate(0,372.08)" style="stroke: rgb(68, 68, 68); stroke-opacity: 1; stroke-width: 1px;"/><path class="ytick ticks crisp" d="M78,0h-5" transform="translate(0,361.44)" style="stroke: rgb(68, 68, 68); stroke-opacity: 1; stroke-width: 1px;"/><path class="ytick ticks crisp" d="M78,0h-5" transform="translate(0,350.8)" style="stroke: rgb(68, 68, 68); stroke-opacity: 1; stroke-width: 1px;"/><path class="ytick ticks crisp" d="M78,0h-5" transform="translate(0,340.15999999999997)" style="stroke: rgb(68, 68, 68); stroke-opacity: 1; stroke-width: 1px;"/><path class="ytick ticks crisp" d="M78,0h-5" transform="translate(0,329.52)" style="stroke: rgb(68, 68, 68); stroke-opacity: 1; stroke-width: 1px;"/><path class="ytick ticks crisp" d="M78,0h-5" transform="translate(0,318.88)" style="stroke: rgb(68, 68, 68); stroke-opacity: 1; stroke-width: 1px;"/><path class="ytick ticks crisp" d="M78,0h-5" transform="translate(0,308.24)" style="stroke: rgb(68, 68, 68); stroke-opacity: 1; stroke-width: 1px;"/><path class="ytick ticks crisp" d="M78,0h-5" transform="translate(0,297.6)" style="stroke: rgb(68, 68, 68); stroke-opacity: 1; stroke-width: 1px;"/><path class="ytick ticks crisp" d="M78,0h-5" transform="translate(0,286.97)" style="stroke: rgb(68, 68, 68); stroke-opacity: 1; stroke-width: 1px;"/><path class="ytick ticks crisp" d="M78,0h-5" transform="translate(0,276.33000000000004)" style="stroke: rgb(68, 68, 68); stroke-opacity: 1; stroke-width: 1px;"/><path class="ytick ticks crisp" d="M78,0h-5" transform="translate(0,265.69)" style="stroke: rgb(68, 68, 68); stroke-opacity: 1; stroke-width: 1px;"/><path class="ytick ticks crisp" d="M78,0h-5" transform="translate(0,255.05)" style="stroke: rgb(68, 68, 68); stroke-opacity: 1; stroke-width: 1px;"/><path class="ytick ticks crisp" d="M78,0h-5" transform="translate(0,244.41)" style="stroke: rgb(68, 68, 68); stroke-opacity: 1; stroke-width: 1px;"/><path class="ytick ticks crisp" d="M78,0h-5" transform="translate(0,233.77)" style="stroke: rgb(68, 68, 68); stroke-opacity: 1; stroke-width: 1px;"/><path class="ytick ticks crisp" d="M78,0h-5" transform="translate(0,223.13)" style="stroke: rgb(68, 68, 68); stroke-opacity: 1; stroke-width: 1px;"/><path class="ytick ticks crisp" d="M78,0h-5" transform="translate(0,212.49)" style="stroke: rgb(68, 68, 68); stroke-opacity: 1; stroke-width: 1px;"/><path class="ytick ticks crisp" d="M78,0h-5" transform="translate(0,201.85)" style="stroke: rgb(68, 68, 68); stroke-opacity: 1; stroke-width: 1px;"/><path class="ytick ticks crisp" d="M78,0h-5" transform="translate(0,191.20999999999998)" style="stroke: rgb(68, 68, 68); stroke-opacity: 1; stroke-width: 1px;"/><path class="ytick ticks crisp" d="M78,0h-5" transform="translate(0,180.57)" style="stroke: rgb(68, 68, 68); stroke-opacity: 1; stroke-width: 1px;"/><path class="ytick ticks crisp" d="M78,0h-5" transform="translate(0,169.93)" style="stroke: rgb(68, 68, 68); stroke-opacity: 1; stroke-width: 1px;"/><path class="ytick ticks crisp" d="M78,0h-5" transform="translate(0,159.29)" style="stroke: rgb(68, 68, 68); stroke-opacity: 1; stroke-width: 1px;"/><path class="ytick ticks crisp" d="M78,0h-5" transform="translate(0,148.65)" style="stroke: rgb(68, 68, 68); stroke-opacity: 1; stroke-width: 1px;"/><path class="ytick ticks crisp" d="M78,0h-5" transform="translate(0,138.01)" style="stroke: rgb(68, 68, 68); stroke-opacity: 1; stroke-width: 1px;"/><path class="ytick ticks crisp" d="M78,0h-5" transform="translate(0,127.37)" style="stroke: rgb(68, 68, 68); stroke-opacity: 1; stroke-width: 1px;"/><path class="ytick ticks crisp" d="M78,0h-5" transform="translate(0,116.73)" style="stroke: rgb(68, 68, 68); stroke-opacity: 1; stroke-width: 1px;"/><path class="ytick ticks crisp" d="M78,0h-5" transform="translate(0,106.09)" style="stroke: rgb(68, 68, 68); stroke-opacity: 1; stroke-width: 1px;"/><g class="ytick"><text text-anchor="end" x="70.6" y="4.199999999999999" transform="translate(0,414.64)" style="font-family: Helvetica; font-size: 12px; fill: rgb(51, 51, 51); fill-opacity: 1; white-space: pre; opacity: 1;">−1</text></g><g class="ytick"><text text-anchor="end" x="70.6" y="4.199999999999999" style="font-family: Helvetica; font-size: 12px; fill: rgb(51, 51, 51); fill-opacity: 1; white-space: pre; opacity: 1;" transform="translate(0,404)">0</text></g><g class="ytick"><text text-anchor="end" x="70.6" y="4.199999999999999" style="font-family: Helvetica; font-size: 12px; fill: rgb(51, 51, 51); fill-opacity: 1; white-space: pre; opacity: 1;" transform="translate(0,393.36)">1</text></g><g class="ytick"><text text-anchor="end" x="70.6" y="4.199999999999999" style="font-family: Helvetica; font-size: 12px; fill: rgb(51, 51, 51); fill-opacity: 1; white-space: pre; opacity: 1;" transform="translate(0,382.72)">2</text></g><g class="ytick"><text text-anchor="end" x="70.6" y="4.199999999999999" style="font-family: Helvetica; font-size: 12px; fill: rgb(51, 51, 51); fill-opacity: 1; white-space: pre; opacity: 1;" transform="translate(0,372.08)">3</text></g><g class="ytick"><text text-anchor="end" x="70.6" y="4.199999999999999" style="font-family: Helvetica; font-size: 12px; fill: rgb(51, 51, 51); fill-opacity: 1; white-space: pre; opacity: 1;" transform="translate(0,361.44)">4</text></g><g class="ytick"><text text-anchor="end" x="70.6" y="4.199999999999999" style="font-family: Helvetica; font-size: 12px; fill: rgb(51, 51, 51); fill-opacity: 1; white-space: pre; opacity: 1;" transform="translate(0,350.8)">5</text></g><g class="ytick"><text text-anchor="end" x="70.6" y="4.199999999999999" style="font-family: Helvetica; font-size: 12px; fill: rgb(51, 51, 51); fill-opacity: 1; white-space: pre; opacity: 1;" transform="translate(0,340.15999999999997)">6</text></g><g class="ytick"><text text-anchor="end" x="70.6" y="4.199999999999999" style="font-family: Helvetica; font-size: 12px; fill: rgb(51, 51, 51); fill-opacity: 1; white-space: pre; opacity: 1;" transform="translate(0,329.52)">7</text></g><g class="ytick"><text text-anchor="end" x="70.6" y="4.199999999999999" style="font-family: Helvetica; font-size: 12px; fill: rgb(51, 51, 51); fill-opacity: 1; white-space: pre; opacity: 1;" transform="translate(0,318.88)">8</text></g><g class="ytick"><text text-anchor="end" x="70.6" y="4.199999999999999" style="font-family: Helvetica; font-size: 12px; fill: rgb(51, 51, 51); fill-opacity: 1; white-space: pre; opacity: 1;" transform="translate(0,308.24)">9</text></g><g class="ytick"><text text-anchor="end" x="70.6" y="4.199999999999999" style="font-family: Helvetica; font-size: 12px; fill: rgb(51, 51, 51); fill-opacity: 1; white-space: pre; opacity: 1;" transform="translate(0,297.6)">10</text></g><g class="ytick"><text text-anchor="end" x="70.6" y="4.199999999999999" style="font-family: Helvetica; font-size: 12px; fill: rgb(51, 51, 51); fill-opacity: 1; white-space: pre; opacity: 1;" transform="translate(0,286.97)">11</text></g><g class="ytick"><text text-anchor="end" x="70.6" y="4.199999999999999" style="font-family: Helvetica; font-size: 12px; fill: rgb(51, 51, 51); fill-opacity: 1; white-space: pre; opacity: 1;" transform="translate(0,276.33000000000004)">12</text></g><g class="ytick"><text text-anchor="end" x="70.6" y="4.199999999999999" style="font-family: Helvetica; font-size: 12px; fill: rgb(51, 51, 51); fill-opacity: 1; white-space: pre; opacity: 1;" transform="translate(0,265.69)">13</text></g><g class="ytick"><text text-anchor="end" x="70.6" y="4.199999999999999" style="font-family: Helvetica; font-size: 12px; fill: rgb(51, 51, 51); fill-opacity: 1; white-space: pre; opacity: 1;" transform="translate(0,255.05)">14</text></g><g class="ytick"><text text-anchor="end" x="70.6" y="4.199999999999999" style="font-family: Helvetica; font-size: 12px; fill: rgb(51, 51, 51); fill-opacity: 1; white-space: pre; opacity: 1;" transform="translate(0,244.41)">15</text></g><g class="ytick"><text text-anchor="end" x="70.6" y="4.199999999999999" style="font-family: Helvetica; font-size: 12px; fill: rgb(51, 51, 51); fill-opacity: 1; white-space: pre; opacity: 1;" transform="translate(0,233.77)">16</text></g><g class="ytick"><text text-anchor="end" x="70.6" y="4.199999999999999" style="font-family: Helvetica; font-size: 12px; fill: rgb(51, 51, 51); fill-opacity: 1; white-space: pre; opacity: 1;" transform="translate(0,223.13)">17</text></g><g class="ytick"><text text-anchor="end" x="70.6" y="4.199999999999999" style="font-family: Helvetica; font-size: 12px; fill: rgb(51, 51, 51); fill-opacity: 1; white-space: pre; opacity: 1;" transform="translate(0,212.49)">18</text></g><g class="ytick"><text text-anchor="end" x="70.6" y="4.199999999999999" style="font-family: Helvetica; font-size: 12px; fill: rgb(51, 51, 51); fill-opacity: 1; white-space: pre; opacity: 1;" transform="translate(0,201.85)">19</text></g><g class="ytick"><text text-anchor="end" x="70.6" y="4.199999999999999" style="font-family: Helvetica; font-size: 12px; fill: rgb(51, 51, 51); fill-opacity: 1; white-space: pre; opacity: 1;" transform="translate(0,191.20999999999998)">20</text></g><g class="ytick"><text text-anchor="end" x="70.6" y="4.199999999999999" style="font-family: Helvetica; font-size: 12px; fill: rgb(51, 51, 51); fill-opacity: 1; white-space: pre; opacity: 1;" transform="translate(0,180.57)">21</text></g><g class="ytick"><text text-anchor="end" x="70.6" y="4.199999999999999" style="font-family: Helvetica; font-size: 12px; fill: rgb(51, 51, 51); fill-opacity: 1; white-space: pre; opacity: 1;" transform="translate(0,169.93)">22</text></g><g class="ytick"><text text-anchor="end" x="70.6" y="4.199999999999999" style="font-family: Helvetica; font-size: 12px; fill: rgb(51, 51, 51); fill-opacity: 1; white-space: pre; opacity: 1;" transform="translate(0,159.29)">23</text></g><g class="ytick"><text text-anchor="end" x="70.6" y="4.199999999999999" style="font-family: Helvetica; font-size: 12px; fill: rgb(51, 51, 51); fill-opacity: 1; white-space: pre; opacity: 1;" transform="translate(0,148.65)">24</text></g><g class="ytick"><text text-anchor="end" x="70.6" y="4.199999999999999" style="font-family: Helvetica; font-size: 12px; fill: rgb(51, 51, 51); fill-opacity: 1; white-space: pre; opacity: 1;" transform="translate(0,138.01)">25</text></g><g class="ytick"><text text-anchor="end" x="70.6" y="4.199999999999999" style="font-family: Helvetica; font-size: 12px; fill: rgb(51, 51, 51); fill-opacity: 1; white-space: pre; opacity: 1;" transform="translate(0,127.37)">26</text></g><g class="ytick"><text text-anchor="end" x="70.6" y="4.199999999999999" style="font-family: Helvetica; font-size: 12px; fill: rgb(51, 51, 51); fill-opacity: 1; white-space: pre; opacity: 1;" transform="translate(0,116.73)">27</text></g><g class="ytick"><text text-anchor="end" x="70.6" y="4.199999999999999" style="font-family: Helvetica; font-size: 12px; fill: rgb(51, 51, 51); fill-opacity: 1; white-space: pre; opacity: 1;" transform="translate(0,106.09)">28</text></g></g><g class="overaxes-above"/></g></g><g class="polarlayer"/><g class="smithlayer"/><g class="ternarylayer"/><g class="geolayer"/><g class="funnelarealayer"/><g class="pielayer"/><g class="iciclelayer"/><g class="treemaplayer"/><g class="sunburstlayer"/><g class="glimages"/><defs id="topdefs-18e95d"><g class="clips"/><clipPath id="legend18e95d"><rect width="156" height="86" x="0" y="0"/></clipPath></defs><g class="layer-above"><g class="imagelayer"/><g class="shapelayer"/></g><g class="infolayer"><g class="legend" pointer-events="all" transform="translate(552.26,100)"><rect class="bg" shape-rendering="crispEdges" width="156" height="86" x="0" y="0" style="stroke: rgb(68, 68, 68); stroke-opacity: 1; fill: rgb(255, 255, 255); fill-opacity: 1; stroke-width: 0px;"/><g class="scrollbox" transform="" clip-path="url(#legend18e95d)"><g class="groups"><g class="traces" transform="translate(0,14.5)" style="opacity: 1;"><text class="legendtext" text-anchor="start" x="40" y="4.680000000000001" style="font-family: Helvetica; font-size: 12px; fill: rgb(51, 51, 51); fill-opacity: 1; white-space: pre;">T-Q-CCSD(T)</text><g class="layers" style="opacity: 0.7;"><g class="legendfill"/><g class="legendlines"/><g class="legendsymbols"><g class="legendpoints"><path class="legendundefined" d="M6,6H-6V-6H6Z" transform="translate(20,0)" style="stroke-width: 0px; fill: rgb(3, 4, 94); fill-opacity: 1;"/></g></g></g><rect class="legendtoggle" x="0" y="-9.5" width="150.328125" height="19" style="fill: rgb(0, 0, 0); fill-opacity: 0;"/></g><g class="traces" transform="translate(0,33.5)" style="opacity: 1;"><text class="legendtext" text-anchor="start" x="40" y="4.680000000000001" style="font-family: Helvetica; font-size: 12px; fill: rgb(51, 51, 51); fill-opacity: 1; white-space: pre;">MP2(T Q)+DifD(T)</text><g class="layers" style="opacity: 0.7;"><g class="legendfill"/><g class="legendlines"/><g class="legendsymbols"><g class="legendpoints"><path class="legendundefined" d="M6,6H-6V-6H6Z" transform="translate(20,0)" style="stroke-width: 0px; fill: rgb(0, 180, 216); fill-opacity: 1;"/></g></g></g><rect class="legendtoggle" x="0" y="-9.5" width="150.328125" height="19" style="fill: rgb(0, 0, 0); fill-opacity: 0;"/></g><g class="traces" transform="translate(0,52.5)" style="opacity: 1;"><text class="legendtext" text-anchor="start" x="40" y="4.680000000000001" style="font-family: Helvetica; font-size: 12px; fill: rgb(51, 51, 51); fill-opacity: 1; white-space: pre;">D-T-Q-CCSD(T)</text><g class="layers" style="opacity: 0.7;"><g class="legendfill"/><g class="legendlines"/><g class="legendsymbols"><g class="legendpoints"><path class="legendundefined" d="M6,6H-6V-6H6Z" transform="translate(20,0)" style="stroke-width: 0px; fill: rgb(90, 24, 154); fill-opacity: 1;"/></g></g></g><rect class="legendtoggle" x="0" y="-9.5" width="150.328125" height="19" style="fill: rgb(0, 0, 0); fill-opacity: 0;"/></g><g class="traces" transform="translate(0,71.5)" style="opacity: 1;"><text class="legendtext" text-anchor="start" x="40" y="4.680000000000001" style="font-family: Helvetica; font-size: 12px; fill: rgb(51, 51, 51); fill-opacity: 1; white-space: pre;">MP2(D T Q)+DifD(T)</text><g class="layers" style="opacity: 0.7;"><g class="legendfill"/><g class="legendlines"/><g class="legendsymbols"><g class="legendpoints"><path class="legendundefined" d="M6,6H-6V-6H6Z" transform="translate(20,0)" style="stroke-width: 0px; fill: rgb(224, 170, 255); fill-opacity: 1;"/></g></g></g><rect class="legendtoggle" x="0" y="-9.5" width="150.328125" height="19" style="fill: rgb(0, 0, 0); fill-opacity: 0;"/></g></g></g><rect class="scrollbar" rx="20" ry="3" width="0" height="0" x="0" y="0" style="fill: rgb(128, 139, 164); fill-opacity: 1;"/></g><g class="g-gtitle"/><g class="g-xtitle"><text class="xtitle" x="311.5" y="485.703515625" text-anchor="middle" style="font-family: Helvetica; font-size: 18px; fill: rgb(51, 51, 51); opacity: 1; font-weight: normal; white-space: pre;">Deviation from exp. (eV)</text></g><g class="g-ytitle"/></g></svg>