<svg class="main-svg" xmlns="http://www.w3.org/2000/svg" xmlns:xlink="http://www.w3.org/1999/xlink" width="720" height="500" style="" viewBox="0 0 720 500"><rect x="0" y="0" width="720" height="500" style="fill: rgb(255, 255, 255); fill-opacity: 1;"/><defs id="defs-b74aa6"><g class="clips"><clipPath id="clipb74aa6xyplot" class="plotclip"><rect width="477" height="316"/></clipPath><clipPath class="axesclip" id="clipb74aa6x"><rect x="80" y="0" width="477" height="500"/></clipPath><clipPath class="axesclip" id="clipb74aa6y"><rect x="0" y="100" width="720" height="316"/></clipPath><clipPath class="axesclip" id="clipb74aa6xy"><rect x="80" y="100" width="477" height="316"/></clipPath></g><g class="gradients"/><g class="patterns"/></defs><g class="bglayer"/><g class="layer-below"><g class="imagelayer"/><g class="shapelayer"/></g><g class="cartesianlayer"><g class="subplot xy"><g class="layer-subplot"><g class="shapelayer"/><g class="imagelayer"/></g><g class="minor-gridlayer"><g class="x"/><g class="y"/></g><g class="gridlayer"><g class="x"><path class="xgrid crisp" transform="translate(103.85,0)" d="M0,100v316" style="stroke: rgb(255, 255, 255); stroke-opacity: 1; stroke-width: 1px;"/><path class="xgrid crisp" transform="translate(127.7,0)" d="M0,100v316" style="stroke: rgb(255, 255, 255); stroke-opacity: 1; stroke-width: 1px;"/><path class="xgrid crisp" transform="translate(151.55,0)" d="M0,100v316" style="stroke: rgb(255, 255, 255); stroke-opacity: 1; stroke-width: 1px;"/><path class="xgrid crisp" transform="translate(175.4,0)" d="M0,100v316" style="stroke: rgb(255, 255, 255); stroke-opacity: 1; stroke-width: 1px;"/><path class="xgrid crisp" transform="translate(199.25,0)" d="M0,100v316" style="stroke: rgb(255, 255, 255); stroke-opacity: 1; stroke-width: 1px;"/><path class="xgrid crisp" transform="translate(223.1,0)" d="M0,100v316" style="stroke: rgb(255, 255, 255); stroke-opacity: 1; stroke-width: 1px;"/><path class="xgrid crisp" transform="translate(246.95,0)" d="M0,100v316" style="stroke: rgb(255, 255, 255); stroke-opacity: 1; stroke-width: 1px;"/><path class="xgrid crisp" transform="translate(270.8,0)" d="M0,100v316" style="stroke: rgb(255, 255, 255); stroke-opacity: 1; stroke-width: 1px;"/><path class="xgrid crisp" transform="translate(294.65,0)" d="M0,100v316" style="stroke: rgb(255, 255, 255); stroke-opacity: 1; stroke-width: 1px;"/><path class="xgrid crisp" transform="translate(318.5,0)" d="M0,100v316" style="stroke: rgb(255, 255, 255); stroke-opacity: 1; stroke-width: 1px;"/><path class="xgrid crisp" transform="translate(342.35,0)" d="M0,100v316" style="stroke: rgb(255, 255, 255); stroke-opacity: 1; stroke-width: 1px;"/><path class="xgrid crisp" transform="translate(366.2,0)" d="M0,100v316" style="stroke: rgb(255, 255, 255); stroke-opacity: 1; stroke-width: 1px;"/><path class="xgrid crisp" transform="translate(390.05,0)" d="M0,100v316" style="stroke: rgb(255, 255, 255); stroke-opacity: 1; stroke-width: 1px;"/><path class="xgrid crisp" transform="translate(413.9,0)" d="M0,100v316" style="stroke: rgb(255, 255, 255); stroke-opacity: 1; stroke-width: 1px;"/><path class="xgrid crisp" transform="translate(437.75,0)" d="M0,100v316" style="stroke: rgb(255, 255, 255); stroke-opacity: 1; stroke-width: 1px;"/><path class="xgrid crisp" transform="translate(461.6,0)" d="M0,100v316" style="stroke: rgb(255, 255, 255); stroke-opacity: 1; stroke-width: 1px;"/><path class="xgrid crisp" transform="translate(485.45,0)" d="M0,100v316" style="stroke: rgb(255, 255, 255); stroke-opacity: 1; stroke-width: 1px;"/><path class="xgrid crisp" transform="translate(509.3,0)" d="M0,100v316" style="stroke: rgb(255, 255, 255); stroke-opacity: 1; stroke-width: 1px;"/><path class="xgrid crisp" transform="translate(533.15,0)" d="M0,100v316" style="stroke: rgb(255, 255, 255); stroke-opacity: 1; stroke-width: 1px;"/></g><g class="y"><path class="ygrid crisp" transform="translate(0,412.33)" d="M80,0h477" style="stroke: rgb(236, 236, 236); stroke-opacity: 1; stroke-width: 1px;"/><path class="ygrid crisp" transform="translate(0,388.07)" d="M80,0h477" style="stroke: rgb(236, 236, 236); stroke-opacity: 1; stroke-width: 1px;"/><path class="ygrid crisp" transform="translate(0,375.94)" d="M80,0h477" style="stroke: rgb(236, 236, 236); stroke-opacity: 1; stroke-width: 1px;"/><path class="ygrid crisp" transform="translate(0,363.81)" d="M80,0h477" style="stroke: rgb(236, 236, 236); stroke-opacity: 1; stroke-width: 1px;"/><path class="ygrid crisp" transform="translate(0,351.68)" d="M80,0h477" style="stroke: rgb(236, 236, 236); stroke-opacity: 1; stroke-width: 1px;"/><path class="ygrid crisp" transform="translate(0,339.55)" d="M80,0h477" style="stroke: rgb(236, 236, 236); stroke-opacity: 1; stroke-width: 1px;"/><path class="ygrid crisp" transform="translate(0,327.41999999999996)" d="M80,0h477" style="stroke: rgb(236, 236, 236); stroke-opacity: 1; stroke-width: 1px;"/><path class="ygrid crisp" transform="translate(0,315.28999999999996)" d="M80,0h477" style="stroke: rgb(236, 236, 236); stroke-opacity: 1; stroke-width: 1px;"/><path class="ygrid crisp" transform="translate(0,303.15)" d="M80,0h477" style="stroke: rgb(236, 236, 236); stroke-opacity: 1; stroke-width: 1px;"/><path class="ygrid crisp" transform="translate(0,291.02)" d="M80,0h477" style="stroke: rgb(236, 236, 236); stroke-opacity: 1; stroke-width: 1px;"/><path class="ygrid crisp" transform="translate(0,278.89)" d="M80,0h477" style="stroke: rgb(236, 236, 236); stroke-opacity: 1; stroke-width: 1px;"/><path class="ygrid crisp" transform="translate(0,266.76)" d="M80,0h477" style="stroke: rgb(236, 236, 236); stroke-opacity: 1; stroke-width: 1px;"/><path class="ygrid crisp" transform="translate(0,254.63)" d="M80,0h477" style="stroke: rgb(236, 236, 236); stroke-opacity: 1; stroke-width: 1px;"/><path class="ygrid crisp" transform="translate(0,242.5)" d="M80,0h477" style="stroke: rgb(236, 236, 236); stroke-opacity: 1; stroke-width: 1px;"/><path class="ygrid crisp" transform="translate(0,230.37)" d="M80,0h477" style="stroke: rgb(236, 236, 236); stroke-opacity: 1; stroke-width: 1px;"/><path class="ygrid crisp" transform="translate(0,218.24)" d="M80,0h477" style="stroke: rgb(236, 236, 236); stroke-opacity: 1; stroke-width: 1px;"/><path class="ygrid crisp" transform="translate(0,206.11)" d="M80,0h477" style="stroke: rgb(236, 236, 236); stroke-opacity: 1; stroke-width: 1px;"/><path class="ygrid crisp" transform="translate(0,193.98000000000002)" d="M80,0h477" style="stroke: rgb(236, 236, 236); stroke-opacity: 1; stroke-width: 1px;"/><path class="ygrid crisp" transform="translate(0,181.85)" d="M80,0h477" style="stroke: rgb(236, 236, 236); stroke-opacity: 1; stroke-width: 1px;"/><path class="ygrid crisp" transform="translate(0,169.72)" d="M80,0h477" style="stroke: rgb(236, 236, 236); stroke-opacity: 1; stroke-width: 1px;"/><path class="ygrid crisp" transform="translate(0,157.59)" d="M80,0h477" style="stroke: rgb(236, 236, 236); stroke-opacity: 1; stroke-width: 1px;"/><path class="ygrid crisp" transform="translate(0,145.46)" d="M80,0h477" style="stroke: rgb(236, 236, 236); stroke-opacity: 1; stroke-width: 1px;"/><path class="ygrid crisp" transform="translate(0,133.32999999999998)" d="M80,0h477" style="stroke: rgb(236, 236, 236); stroke-opacity: 1; stroke-width: 1px;"/><path class="ygrid crisp" transform="translate(0,121.19)" d="M80,0h477" style="stroke: rgb(236, 236, 236); stroke-opacity: 1; stroke-width: 1px;"/><path class="ygrid crisp" transform="translate(0,109.06)" d="M80,0h477" style="stroke: rgb(236, 236, 236); stroke-opacity: 1; stroke-width: 1px;"/></g></g><g class="zerolinelayer"><path class="yzl zl crisp" transform="translate(0,400.2)" d="M80,0h477" style="stroke: rgb(51, 51, 51); stroke-opacity: 1; stroke-width: 2px;"/></g><path class="xlines-below"/><path class="ylines-below"/><g class="overlines-below"/><g class="xaxislayer-below"/><g class="yaxislayer-below"/><g class="overaxes-below"/><g class="plot" transform="translate(80,100)" clip-path="url(#clipb74aa6xyplot)"><g class="barlayer mlayer"><g class="trace bars" shape-rendering="crispEdges" style="opacity: 0.7;"><g class="points"><g class="point"><path d="M159.09,300.2V288.07H171.01V300.2Z" style="vector-effect: none; opacity: 1; stroke-width: 0px; fill: rgb(3, 4, 94); fill-opacity: 1;"/></g><g class="point"><path d="M171.01,300.2V275.94H182.94V300.2Z" style="vector-effect: none; opacity: 1; stroke-width: 0px; fill: rgb(3, 4, 94); fill-opacity: 1;"/></g><g class="point"><path d="M0,0Z" style="vector-effect: none; opacity: 1; stroke-width: 0px; fill: rgb(3, 4, 94); fill-opacity: 1;"/></g><g class="point"><path d="M194.86,300.2V263.81H206.79V300.2Z" style="vector-effect: none; opacity: 1; stroke-width: 0px; fill: rgb(3, 4, 94); fill-opacity: 1;"/></g><g class="point"><path d="M206.79,300.2V239.55H218.71V300.2Z" style="vector-effect: none; opacity: 1; stroke-width: 0px; fill: rgb(3, 4, 94); fill-opacity: 1;"/></g><g class="point"><path d="M218.71,300.2V154.63H230.64V300.2Z" style="vector-effect: none; opacity: 1; stroke-width: 0px; fill: rgb(3, 4, 94); fill-opacity: 1;"/></g><g class="point"><path d="M230.64,300.2V130.37H242.56V300.2Z" style="vector-effect: none; opacity: 1; stroke-width: 0px; fill: rgb(3, 4, 94); fill-opacity: 1;"/></g><g class="point"><path d="M242.56,300.2V33.33H254.49V300.2Z" style="vector-effect: none; opacity: 1; stroke-width: 0px; fill: rgb(3, 4, 94); fill-opacity: 1;"/></g><g class="point"><path d="M254.49,300.2V93.98H266.41V300.2Z" style="vector-effect: none; opacity: 1; stroke-width: 0px; fill: rgb(3, 4, 94); fill-opacity: 1;"/></g><g class="point"><path d="M266.41,300.2V191.02H278.34V300.2Z" style="vector-effect: none; opacity: 1; stroke-width: 0px; fill: rgb(3, 4, 94); fill-opacity: 1;"/></g><g class="point"><path d="M278.34,300.2V227.42H290.26V300.2Z" style="vector-effect: none; opacity: 1; stroke-width: 0px; fill: rgb(3, 4, 94); fill-opacity: 1;"/></g><g class="point"><path d="M290.26,300.2V275.94H302.19V300.2Z" style="vector-effect: none; opacity: 1; stroke-width: 0px; fill: rgb(3, 4, 94); fill-opacity: 1;"/></g><g class="point"><path d="M0,0Z" style="vector-effect: none; opacity: 1; stroke-width: 0px; fill: rgb(3, 4, 94); fill-opacity: 1;"/></g><g class="point"><path d="M314.11,300.2V288.07H326.04V300.2Z" style="vector-effect: none; opacity: 1; stroke-width: 0px; fill: rgb(3, 4, 94); fill-opacity: 1;"/></g></g></g><g class="trace bars" shape-rendering="crispEdges" style="opacity: 0.7;"><g class="points"><g class="point"><path d="M161.83,300.2V288.07H173.75V300.2Z" style="vector-effect: none; opacity: 1; stroke-width: 0px; fill: rgb(0, 180, 216); fill-opacity: 1;"/></g><g class="point"><path d="M173.75,300.2V275.94H185.68V300.2Z" style="vector-effect: none; opacity: 1; stroke-width: 0px; fill: rgb(0, 180, 216); fill-opacity: 1;"/></g><g class="point"><path d="M0,0Z" style="vector-effect: none; opacity: 1; stroke-width: 0px; fill: rgb(0, 180, 216); fill-opacity: 1;"/></g><g class="point"><path d="M197.6,300.2V263.81H209.53V300.2Z" style="vector-effect: none; opacity: 1; stroke-width: 0px; fill: rgb(0, 180, 216); fill-opacity: 1;"/></g><g class="point"><path d="M209.53,300.2V251.68H221.45V300.2Z" style="vector-effect: none; opacity: 1; stroke-width: 0px; fill: rgb(0, 180, 216); fill-opacity: 1;"/></g><g class="point"><path d="M221.45,300.2V142.5H233.38V300.2Z" style="vector-effect: none; opacity: 1; stroke-width: 0px; fill: rgb(0, 180, 216); fill-opacity: 1;"/></g><g class="point"><path d="M233.38,300.2V93.98H245.3V300.2Z" style="vector-effect: none; opacity: 1; stroke-width: 0px; fill: rgb(0, 180, 216); fill-opacity: 1;"/></g><g class="point"><path d="M245.3,300.2V57.59H257.23V300.2Z" style="vector-effect: none; opacity: 1; stroke-width: 0px; fill: rgb(0, 180, 216); fill-opacity: 1;"/></g><g class="point"><path d="M257.23,300.2V93.98H269.15V300.2Z" style="vector-effect: none; opacity: 1; stroke-width: 0px; fill: rgb(0, 180, 216); fill-opacity: 1;"/></g><g class="point"><path d="M269.15,300.2V166.76H281.08V300.2Z" style="vector-effect: none; opacity: 1; stroke-width: 0px; fill: rgb(0, 180, 216); fill-opacity: 1;"/></g><g class="point"><path d="M281.08,300.2V251.68H293V300.2Z" style="vector-effect: none; opacity: 1; stroke-width: 0px; fill: rgb(0, 180, 216); fill-opacity: 1;"/></g><g class="point"><path d="M293,300.2V288.07H304.93V300.2Z" style="vector-effect: none; opacity: 1; stroke-width: 0px; fill: rgb(0, 180, 216); fill-opacity: 1;"/></g><g class="point"><path d="M304.93,300.2V288.07H316.85V300.2Z" style="vector-effect: none; opacity: 1; stroke-width: 0px; fill: rgb(0, 180, 216); fill-opacity: 1;"/></g></g></g><g class="trace bars" shape-rendering="crispEdges" style="opacity: 0.7;"><g class="points"><g class="point"><path d="M120.39,300.2V288.07H132.31V300.2Z" style="vector-effect: none; opacity: 1; stroke-width: 0px; fill: rgb(90, 24, 154); fill-opacity: 1;"/></g><g class="point"><path d="M132.31,300.2V275.94H144.24V300.2Z" style="vector-effect: none; opacity: 1; stroke-width: 0px; fill: rgb(90, 24, 154); fill-opacity: 1;"/></g><g class="point"><path d="M0,0Z" style="vector-effect: none; opacity: 1; stroke-width: 0px; fill: rgb(90, 24, 154); fill-opacity: 1;"/></g><g class="point"><path d="M156.16,300.2V239.55H168.09V300.2Z" style="vector-effect: none; opacity: 1; stroke-width: 0px; fill: rgb(90, 24, 154); fill-opacity: 1;"/></g><g class="point"><path d="M168.09,300.2V263.81H180.01V300.2Z" style="vector-effect: none; opacity: 1; stroke-width: 0px; fill: rgb(90, 24, 154); fill-opacity: 1;"/></g><g class="point"><path d="M180.01,300.2V178.89H191.94V300.2Z" style="vector-effect: none; opacity: 1; stroke-width: 0px; fill: rgb(90, 24, 154); fill-opacity: 1;"/></g><g class="point"><path d="M191.94,300.2V154.63H203.86V300.2Z" style="vector-effect: none; opacity: 1; stroke-width: 0px; fill: rgb(90, 24, 154); fill-opacity: 1;"/></g><g class="point"><path d="M203.86,300.2V166.76H215.79V300.2Z" style="vector-effect: none; opacity: 1; stroke-width: 0px; fill: rgb(90, 24, 154); fill-opacity: 1;"/></g><g class="point"><path d="M215.79,300.2V45.46H227.71V300.2Z" style="vector-effect: none; opacity: 1; stroke-width: 0px; fill: rgb(90, 24, 154); fill-opacity: 1;"/></g><g class="point"><path d="M227.71,300.2V118.24H239.64V300.2Z" style="vector-effect: none; opacity: 1; stroke-width: 0px; fill: rgb(90, 24, 154); fill-opacity: 1;"/></g><g class="point"><path d="M239.64,300.2V239.55H251.56V300.2Z" style="vector-effect: none; opacity: 1; stroke-width: 0px; fill: rgb(90, 24, 154); fill-opacity: 1;"/></g><g class="point"><path d="M251.56,300.2V227.42H263.49V300.2Z" style="vector-effect: none; opacity: 1; stroke-width: 0px; fill: rgb(90, 24, 154); fill-opacity: 1;"/></g><g class="point"><path d="M263.49,300.2V275.94H275.41V300.2Z" style="vector-effect: none; opacity: 1; stroke-width: 0px; fill: rgb(90, 24, 154); fill-opacity: 1;"/></g><g class="point"><path d="M0,0Z" style="vector-effect: none; opacity: 1; stroke-width: 0px; fill: rgb(90, 24, 154); fill-opacity: 1;"/></g><g class="point"><path d="M287.34,300.2V288.07H299.26V300.2Z" style="vector-effect: none; opacity: 1; stroke-width: 0px; fill: rgb(90, 24, 154); fill-opacity: 1;"/></g></g></g><g class="trace bars" shape-rendering="crispEdges" style="opacity: 0.7;"><g class="points"><g class="point"><path d="M119.9,300.2V288.07H131.82V300.2Z" style="vector-effect: none; opacity: 1; stroke-width: 0px; fill: rgb(224, 170, 255); fill-opacity: 1;"/></g><g class="point"><path d="M131.82,300.2V275.94H143.75V300.2Z" style="vector-effect: none; opacity: 1; stroke-width: 0px; fill: rgb(224, 170, 255); fill-opacity: 1;"/></g><g class="point"><path d="M0,0Z" style="vector-effect: none; opacity: 1; stroke-width: 0px; fill: rgb(224, 170, 255); fill-opacity: 1;"/></g><g class="point"><path d="M155.67,300.2V275.94H167.6V300.2Z" style="vector-effect: none; opacity: 1; stroke-width: 0px; fill: rgb(224, 170, 255); fill-opacity: 1;"/></g><g class="point"><path d="M167.6,300.2V227.42H179.52V300.2Z" style="vector-effect: none; opacity: 1; stroke-width: 0px; fill: rgb(224, 170, 255); fill-opacity: 1;"/></g><g class="point"><path d="M179.52,300.2V191.02H191.45V300.2Z" style="vector-effect: none; opacity: 1; stroke-width: 0px; fill: rgb(224, 170, 255); fill-opacity: 1;"/></g><g class="point"><path d="M191.45,300.2V166.76H203.37V300.2Z" style="vector-effect: none; opacity: 1; stroke-width: 0px; fill: rgb(224, 170, 255); fill-opacity: 1;"/></g><g class="point"><path d="M203.37,300.2V130.37H215.3V300.2Z" style="vector-effect: none; opacity: 1; stroke-width: 0px; fill: rgb(224, 170, 255); fill-opacity: 1;"/></g><g class="point"><path d="M215.3,300.2V69.72H227.22V300.2Z" style="vector-effect: none; opacity: 1; stroke-width: 0px; fill: rgb(224, 170, 255); fill-opacity: 1;"/></g><g class="point"><path d="M227.22,300.2V93.98H239.15V300.2Z" style="vector-effect: none; opacity: 1; stroke-width: 0px; fill: rgb(224, 170, 255); fill-opacity: 1;"/></g><g class="point"><path d="M239.15,300.2V251.68H251.07V300.2Z" style="vector-effect: none; opacity: 1; stroke-width: 0px; fill: rgb(224, 170, 255); fill-opacity: 1;"/></g><g class="point"><path d="M251.07,300.2V215.29H263V300.2Z" style="vector-effect: none; opacity: 1; stroke-width: 0px; fill: rgb(224, 170, 255); fill-opacity: 1;"/></g><g class="point"><path d="M263,300.2V288.07H274.92V300.2Z" style="vector-effect: none; opacity: 1; stroke-width: 0px; fill: rgb(224, 170, 255); fill-opacity: 1;"/></g><g class="point"><path d="M274.92,300.2V288.07H286.85V300.2Z" style="vector-effect: none; opacity: 1; stroke-width: 0px; fill: rgb(224, 170, 255); fill-opacity: 1;"/></g></g></g></g><g class="scatterlayer mlayer"><g class="trace scatter trace62f1c9" style="stroke-miterlimit: 2; opacity: 1;"><g class="fills"/><g class="errorbars"/><g class="lines"><path class="js-line" d="M119.25,300.2L156.52,299.45L156.81,299.42L166.06,297.77L166.35,297.69L172.91,294.99L173.21,294.83L178.87,290.63L179.17,290.35L183.94,284.78L184.24,284.35L189.01,276.25L189.31,275.65L194.08,264.36L194.38,263.55L199.74,246.39L200.04,245.3L205.71,221.68L206,220.29L213.16,183.04L213.46,181.34L233.73,66.94L234.03,65.65L238.8,48.54L239.1,47.71L242.38,40.55L242.67,40.09L245.36,37.43L245.65,37.31L247.74,37.35L248.04,37.49L250.13,39.42L250.42,39.83L253.11,44.94L253.41,45.67L256.98,56.66L257.28,57.76L261.75,77.09L262.05,78.55L268.61,114.49L268.91,116.25L286.5,216.59L286.8,218.01L292.76,243.5L293.06,244.62L298.42,262.2L298.72,263.04L304.39,276.48L304.68,277.06L310.05,285.74L310.35,286.13L315.71,291.79L316.01,292.03L321.68,295.67L321.97,295.82L328.53,298.12L328.83,298.19L337.78,299.54L338.07,299.57L357.45,300.16" style="vector-effect: none; fill: none; stroke: rgb(3, 4, 94); stroke-opacity: 1; stroke-width: 3px; opacity: 1;"/></g><g class="points"/><g class="text"/></g><g class="trace scatter trace14e154" style="stroke-miterlimit: 2; opacity: 1;"><g class="fills"/><g class="errorbars"/><g class="lines"><path class="js-line" d="M119.25,300.2L163.67,299.47L163.97,299.44L172.32,297.87L172.61,297.78L178.28,295.37L178.58,295.2L183.94,291.06L184.24,290.77L189.01,284.77L189.31,284.31L193.78,275.91L194.08,275.24L198.55,263.4L198.85,262.48L203.62,245.34L203.92,244.11L209.28,218.77L209.58,217.18L215.84,179.96L216.14,178.02L227.47,99.46L227.77,97.41L235.52,49.74L235.82,48.2L240.29,28.99L240.59,27.99L243.87,19.48L244.16,18.94L246.55,16.17L246.85,16.01L248.64,15.97L248.93,16.11L250.72,17.85L251.02,18.29L253.41,23.25L253.7,24.05L256.98,35.35L257.28,36.59L261.46,57.21L261.75,58.9L267.72,96.69L268.01,98.74L285.31,213.38L285.6,215.01L291.86,244.91L292.16,246.12L297.83,265.75L298.12,266.61L303.19,278.82L303.49,279.41L308.26,287.17L308.56,287.56L313.63,292.84L313.93,293.08L318.7,296.1L318.99,296.24L325.25,298.39L325.55,298.46L333.9,299.65L334.2,299.68L352.68,300.17L352.98,300.18L357.45,300.19" style="vector-effect: none; fill: none; stroke: rgb(0, 180, 216); stroke-opacity: 1; stroke-width: 3px; opacity: 1;"/></g><g class="points"/><g class="text"/></g><g class="trace scatter trace1d06fe" style="stroke-miterlimit: 2; opacity: 1;"><g class="fills"/><g class="errorbars"/><g class="lines"><path class="js-line" d="M119.25,298.62L127.6,296.52L127.9,296.41L134.75,293.07L135.05,292.88L141.01,288.06L141.31,287.76L146.38,281.72L146.68,281.3L152.04,272.38L152.34,271.8L158.01,259.04L158.3,258.27L164.27,240.73L164.56,239.74L171.12,215.58L171.42,214.37L179.77,177.75L180.07,176.36L197.06,100.87L197.36,99.78L203.02,82.06L203.32,81.31L207.49,72.83L207.79,72.39L211.07,68.94L211.37,68.76L214.05,68.2L214.35,68.25L216.74,69.51L217.03,69.77L219.72,73.12L220.02,73.6L223.89,81.77L224.19,82.54L228.66,96.2L228.96,97.25L234.92,120.8L235.22,122.09L246.55,174.45L246.85,175.84L257.88,223.33L258.18,224.47L264.73,246.99L265.03,247.9L271.59,265.26L271.89,265.94L278.15,277.96L278.45,278.44L284.41,286.39L284.71,286.71L290.67,291.99L290.97,292.2L296.93,295.53L297.23,295.66L304.39,297.95L304.68,298.02L316.01,299.56L316.31,299.58L328.53,300.06L328.83,300.07L357.45,300.2" style="vector-effect: none; fill: none; stroke: rgb(90, 24, 154); stroke-opacity: 1; stroke-width: 3px; opacity: 1;"/></g><g class="points"/><g class="text"/></g><g class="trace scatter traceb135c6" style="stroke-miterlimit: 2; opacity: 1;"><g class="fills"/><g class="errorbars"/><g class="lines"><path class="js-line" d="M119.25,299.18L127.6,297.62L127.9,297.53L134.45,294.99L134.75,294.84L140.71,290.82L141.01,290.56L146.08,285.25L146.38,284.87L151.15,277.74L151.45,277.22L156.81,266.11L157.11,265.4L162.48,250.51L162.78,249.57L169.63,224.64L169.93,223.42L177.38,189.5L177.68,188.02L198.85,84.54L199.15,83.41L204.22,67.28L204.51,66.53L208.39,58.97L208.69,58.57L211.67,55.98L211.97,55.87L214.35,55.96L214.65,56.09L217.03,58.12L217.33,58.49L220.31,63.63L220.61,64.28L224.49,74.88L224.79,75.85L230.15,96.49L230.45,97.79L237.9,133.88L238.2,135.42L255.19,219.43L255.49,220.69L262.95,248.43L263.24,249.38L269.5,266.68L269.8,267.38L275.47,278.65L275.77,279.15L281.13,286.61L281.43,286.95L287.39,292.4L287.69,292.62L294.55,296.31L294.85,296.43L302.3,298.5L302.6,298.55L313.93,299.77L314.22,299.79L347.91,300.2L348.21,300.2L357.45,300.2" style="vector-effect: none; fill: none; stroke: rgb(224, 170, 255); stroke-opacity: 1; stroke-width: 3px; opacity: 1;"/></g><g class="points"/><g class="text"/></g></g></g><g class="overplot"/><path class="xlines-above crisp" d="M78,417H559M78,99H559" style="fill: none; stroke-width: 2px; stroke: rgb(51, 51, 51); stroke-opacity: 1;"/><path class="ylines-above crisp" d="M79,100V416M558,100V416" style="fill: none; stroke-width: 2px; stroke: rgb(51, 51, 51); stroke-opacity: 1;"/><g class="overlines-above"/><g class="xaxislayer-above"><path class="xtick ticks crisp" d="M0,418v5" transform="translate(80,0)" style="stroke: rgb(68, 68, 68); stroke-opacity: 1; stroke-width: 1px;"/><path class="xtick ticks crisp" d="M0,418v5" transform="translate(103.85,0)" style="stroke: rgb(68, 68, 68); stroke-opacity: 1; stroke-width: 1px;"/><path class="xtick ticks crisp" d="M0,418v5" transform="translate(127.7,0)" style="stroke: rgb(68, 68, 68); stroke-opacity: 1; stroke-width: 1px;"/><path class="xtick ticks crisp" d="M0,418v5" transform="translate(151.55,0)" style="stroke: rgb(68, 68, 68); stroke-opacity: 1; stroke-width: 1px;"/><path class="xtick ticks crisp" d="M0,418v5" transform="translate(175.4,0)" style="stroke: rgb(68, 68, 68); stroke-opacity: 1; stroke-width: 1px;"/><path class="xtick ticks crisp" d="M0,418v5" transform="translate(199.25,0)" style="stroke: rgb(68, 68, 68); stroke-opacity: 1; stroke-width: 1px;"/><path class="xtick ticks crisp" d="M0,418v5" transform="translate(223.1,0)" style="stroke: rgb(68, 68, 68); stroke-opacity: 1; stroke-width: 1px;"/><path class="xtick ticks crisp" d="M0,418v5" transform="translate(246.95,0)" style="stroke: rgb(68, 68, 68); stroke-opacity: 1; stroke-width: 1px;"/><path class="xtick ticks crisp" d="M0,418v5" transform="translate(270.8,0)" style="stroke: rgb(68, 68, 68); stroke-opacity: 1; stroke-width: 1px;"/><path class="xtick ticks crisp" d="M0,418v5" transform="translate(294.65,0)" style="stroke: rgb(68, 68, 68); stroke-opacity: 1; stroke-width: 1px;"/><path class="xtick ticks crisp" d="M0,418v5" transform="translate(318.5,0)" style="stroke: rgb(68, 68, 68); stroke-opacity: 1; stroke-width: 1px;"/><path class="xtick ticks crisp" d="M0,418v5" transform="translate(342.35,0)" style="stroke: rgb(68, 68, 68); stroke-opacity: 1; stroke-width: 1px;"/><path class="xtick ticks crisp" d="M0,418v5" transform="translate(366.2,0)" style="stroke: rgb(68, 68, 68); stroke-opacity: 1; stroke-width: 1px;"/><path class="xtick ticks crisp" d="M0,418v5" transform="translate(390.05,0)" style="stroke: rgb(68, 68, 68); stroke-opacity: 1; stroke-width: 1px;"/><path class="xtick ticks crisp" d="M0,418v5" transform="translate(413.9,0)" style="stroke: rgb(68, 68, 68); stroke-opacity: 1; stroke-width: 1px;"/><path class="xtick ticks crisp" d="M0,418v5" transform="translate(437.75,0)" style="stroke: rgb(68, 68, 68); stroke-opacity: 1; stroke-width: 1px;"/><path class="xtick ticks crisp" d="M0,418v5" transform="translate(461.6,0)" style="stroke: rgb(68, 68, 68); stroke-opacity: 1; stroke-width: 1px;"/><path class="xtick ticks crisp" d="M0,418v5" transform="translate(485.45,0)" style="stroke: rgb(68, 68, 68); stroke-opacity: 1; stroke-width: 1px;"/><path class="xtick ticks crisp" d="M0,418v5" transform="translate(509.3,0)" style="stroke: rgb(68, 68, 68); stroke-opacity: 1; stroke-width: 1px;"/><path class="xtick ticks crisp" d="M0,418v5" transform="translate(533.15,0)" style="stroke: rgb(68, 68, 68); stroke-opacity: 1; stroke-width: 1px;"/><path class="xtick ticks crisp" d="M0,418v5" transform="translate(557,0)" style="stroke: rgb(68, 68, 68); stroke-opacity: 1; stroke-width: 1px;"/><g class="xtick"><text text-anchor="start" x="0" y="439.8" transform="translate(80,0) rotate(90,0,432.8)" style="font-family: Helvetica; font-size: 14px; fill: rgb(51, 51, 51); fill-opacity: 1; white-space: pre; opacity: 1;">−2</text></g><g class="xtick"><text text-anchor="start" x="0" y="439.8" style="font-family: Helvetica; font-size: 14px; fill: rgb(51, 51, 51); fill-opacity: 1; white-space: pre; opacity: 1;" transform="translate(103.85,0) rotate(90,0,432.8)">−1.8</text></g><g class="xtick"><text text-anchor="start" x="0" y="439.8" style="font-family: Helvetica; font-size: 14px; fill: rgb(51, 51, 51); fill-opacity: 1; white-space: pre; opacity: 1;" transform="translate(127.7,0) rotate(90,0,432.8)">−1.6</text></g><g class="xtick"><text text-anchor="start" x="0" y="439.8" style="font-family: Helvetica; font-size: 14px; fill: rgb(51, 51, 51); fill-opacity: 1; white-space: pre; opacity: 1;" transform="translate(151.55,0) rotate(90,0,432.8)">−1.4</text></g><g class="xtick"><text text-anchor="start" x="0" y="439.8" style="font-family: Helvetica; font-size: 14px; fill: rgb(51, 51, 51); fill-opacity: 1; white-space: pre; opacity: 1;" transform="translate(175.4,0) rotate(90,0,432.8)">−1.2</text></g><g class="xtick"><text text-anchor="start" x="0" y="439.8" style="font-family: Helvetica; font-size: 14px; fill: rgb(51, 51, 51); fill-opacity: 1; white-space: pre; opacity: 1;" transform="translate(199.25,0) rotate(90,0,432.8)">−1</text></g><g class="xtick"><text text-anchor="start" x="0" y="439.8" style="font-family: Helvetica; font-size: 14px; fill: rgb(51, 51, 51); fill-opacity: 1; white-space: pre; opacity: 1;" transform="translate(223.1,0) rotate(90,0,432.8)">−0.8</text></g><g class="xtick"><text text-anchor="start" x="0" y="439.8" style="font-family: Helvetica; font-size: 14px; fill: rgb(51, 51, 51); fill-opacity: 1; white-space: pre; opacity: 1;" transform="translate(246.95,0) rotate(90,0,432.8)">−0.6</text></g><g class="xtick"><text text-anchor="start" x="0" y="439.8" style="font-family: Helvetica; font-size: 14px; fill: rgb(51, 51, 51); fill-opacity: 1; white-space: pre; opacity: 1;" transform="translate(270.8,0) rotate(90,0,432.8)">−0.4</text></g><g class="xtick"><text text-anchor="start" x="0" y="439.8" style="font-family: Helvetica; font-size: 14px; fill: rgb(51, 51, 51); fill-opacity: 1; white-space: pre; opacity: 1;" transform="translate(294.65,0) rotate(90,0,432.8)">−0.2</text></g><g class="xtick"><text text-anchor="start" x="0" y="439.8" style="font-family: Helvetica; font-size: 14px; fill: rgb(51, 51, 51); fill-opacity: 1; white-space: pre; opacity: 1;" transform="translate(318.5,0) rotate(90,0,432.8)">0</text></g><g class="xtick"><text text-anchor="start" x="0" y="439.8" style="font-family: Helvetica; font-size: 14px; fill: rgb(51, 51, 51); fill-opacity: 1; white-space: pre; opacity: 1;" transform="translate(342.35,0) rotate(90,0,432.8)">0.2</text></g><g class="xtick"><text text-anchor="start" x="0" y="439.8" style="font-family: Helvetica; font-size: 14px; fill: rgb(51, 51, 51); fill-opacity: 1; white-space: pre; opacity: 1;" transform="translate(366.2,0) rotate(90,0,432.8)">0.4</text></g><g class="xtick"><text text-anchor="start" x="0" y="439.8" style="font-family: Helvetica; font-size: 14px; fill: rgb(51, 51, 51); fill-opacity: 1; white-space: pre; opacity: 1;" transform="translate(390.05,0) rotate(90,0,432.8)">0.6</text></g><g class="xtick"><text text-anchor="start" x="0" y="439.8" style="font-family: Helvetica; font-size: 14px; fill: rgb(51, 51, 51); fill-opacity: 1; white-space: pre; opacity: 1;" transform="translate(413.9,0) rotate(90,0,432.8)">0.8</text></g><g class="xtick"><text text-anchor="start" x="0" y="439.8" style="font-family: Helvetica; font-size: 14px; fill: rgb(51, 51, 51); fill-opacity: 1; white-space: pre; opacity: 1;" transform="translate(437.75,0) rotate(90,0,432.8)">1</text></g><g class="xtick"><text text-anchor="start" x="0" y="439.8" style="font-family: Helvetica; font-size: 14px; fill: rgb(51, 51, 51); fill-opacity: 1; white-space: pre; opacity: 1;" transform="translate(461.6,0) rotate(90,0,432.8)">1.2</text></g><g class="xtick"><text text-anchor="start" x="0" y="439.8" style="font-family: Helvetica; font-size: 14px; fill: rgb(51, 51, 51); fill-opacity: 1; white-space: pre; opacity: 1;" transform="translate(485.45,0) rotate(90,0,432.8)">1.4</text></g><g class="xtick"><text text-anchor="start" x="0" y="439.8" style="font-family: Helvetica; font-size: 14px; fill: rgb(51, 51, 51); fill-opacity: 1; white-space: pre; opacity: 1;" transform="translate(509.3,0) rotate(90,0,432.8)">1.6</text></g><g class="xtick"><text text-anchor="start" x="0" y="439.8" style="font-family: Helvetica; font-size: 14px; fill: rgb(51, 51, 51); fill-opacity: 1; white-space: pre; opacity: 1;" transform="translate(533.15,0) rotate(90,0,432.8)">1.8</text></g><g class="xtick"><text text-anchor="start" x="0" y="439.8" style="font-family: Helvetica; font-size: 14px; fill: rgb(51, 51, 51); fill-opacity: 1; white-space: pre; opacity: 1;" transform="translate(557,0) rotate(90,0,432.8)">2</text></g></g><g class="yaxislayer-above"><path class="ytick ticks crisp" d="M78,0h-5" transform="translate(0,412.33)" style="stroke: rgb(68, 68, 68); stroke-opacity: 1; stroke-width: 1px;"/><path class="ytick ticks crisp" d="M78,0h-5" transform="translate(0,400.2)" style="stroke: rgb(68, 68, 68); stroke-opacity: 1; stroke-width: 1px;"/><path class="ytick ticks crisp" d="M78,0h-5" transform="translate(0,388.07)" style="stroke: rgb(68, 68, 68); stroke-opacity: 1; stroke-width: 1px;"/><path class="ytick ticks crisp" d="M78,0h-5" transform="translate(0,375.94)" style="stroke: rgb(68, 68, 68); stroke-opacity: 1; stroke-width: 1px;"/><path class="ytick ticks crisp" d="M78,0h-5" transform="translate(0,363.81)" style="stroke: rgb(68, 68, 68); stroke-opacity: 1; stroke-width: 1px;"/><path class="ytick ticks crisp" d="M78,0h-5" transform="translate(0,351.68)" style="stroke: rgb(68, 68, 68); stroke-opacity: 1; stroke-width: 1px;"/><path class="ytick ticks crisp" d="M78,0h-5" transform="translate(0,339.55)" style="stroke: rgb(68, 68, 68); stroke-opacity: 1; stroke-width: 1px;"/><path class="ytick ticks crisp" d="M78,0h-5" transform="translate(0,327.41999999999996)" style="stroke: rgb(68, 68, 68); stroke-opacity: 1; stroke-width: 1px;"/><path class="ytick ticks crisp" d="M78,0h-5" transform="translate(0,315.28999999999996)" style="stroke: rgb(68, 68, 68); stroke-opacity: 1; stroke-width: 1px;"/><path class="ytick ticks crisp" d="M78,0h-5" transform="translate(0,303.15)" style="stroke: rgb(68, 68, 68); stroke-opacity: 1; stroke-width: 1px;"/><path class="ytick ticks crisp" d="M78,0h-5" transform="translate(0,291.02)" style="stroke: rgb(68, 68, 68); stroke-opacity: 1; stroke-width: 1px;"/><path class="ytick ticks crisp" d="M78,0h-5" transform="translate(0,278.89)" style="stroke: rgb(68, 68, 68); stroke-opacity: 1; stroke-width: 1px;"/><path class="ytick ticks crisp" d="M78,0h-5" transform="translate(0,266.76)" style="stroke: rgb(68, 68, 68); stroke-opacity: 1; stroke-width: 1px;"/><path class="ytick ticks crisp" d="M78,0h-5" transform="translate(0,254.63)" style="stroke: rgb(68, 68, 68); stroke-opacity: 1; stroke-width: 1px;"/><path class="ytick ticks crisp" d="M78,0h-5" transform="translate(0,242.5)" style="stroke: rgb(68, 68, 68); stroke-opacity: 1; stroke-width: 1px;"/><path class="ytick ticks crisp" d="M78,0h-5" transform="translate(0,230.37)" style="stroke: rgb(68, 68, 68); stroke-opacity: 1; stroke-width: 1px;"/><path class="ytick ticks crisp" d="M78,0h-5" transform="translate(0,218.24)" style="stroke: rgb(68, 68, 68); stroke-opacity: 1; stroke-width: 1px;"/><path class="ytick ticks crisp" d="M78,0h-5" transform="translate(0,206.11)" style="stroke: rgb(68, 68, 68); stroke-opacity: 1; stroke-width: 1px;"/><path class="ytick ticks crisp" d="M78,0h-5" transform="translate(0,193.98000000000002)" style="stroke: rgb(68, 68, 68); stroke-opacity: 1; stroke-width: 1px;"/><path class="ytick ticks crisp" d="M78,0h-5" transform="translate(0,181.85)" style="stroke: rgb(68, 68, 68); stroke-opacity: 1; stroke-width: 1px;"/><path class="ytick ticks crisp" d="M78,0h-5" transform="translate(0,169.72)" style="stroke: rgb(68, 68, 68); stroke-opacity: 1; stroke-width: 1px;"/><path class="ytick ticks crisp" d="M78,0h-5" transform="translate(0,157.59)" style="stroke: rgb(68, 68, 68); stroke-opacity: 1; stroke-width: 1px;"/><path class="ytick ticks crisp" d="M78,0h-5" transform="translate(0,145.46)" style="stroke: rgb(68, 68, 68); stroke-opacity: 1; stroke-width: 1px;"/><path class="ytick ticks crisp" d="M78,0h-5" transform="translate(0,133.32999999999998)" style="stroke: rgb(68, 68, 68); stroke-opacity: 1; stroke-width: 1px;"/><path class="ytick ticks crisp" d="M78,0h-5" transform="translate(0,121.19)" style="stroke: rgb(68, 68, 68); stroke-opacity: 1; stroke-width: 1px;"/><path class="ytick ticks crisp" d="M78,0h-5" transform="translate(0,109.06)" style="stroke: rgb(68, 68, 68); stroke-opacity: 1; stroke-width: 1px;"/><g class="ytick"><text text-anchor="end" x="70.2" y="4.8999999999999995" transform="translate(0,412.33)" style="font-family: Helvetica; font-size: 14px; fill: rgb(51, 51, 51); fill-opacity: 1; white-space: pre; opacity: 1;">−1</text></g><g class="ytick"><text text-anchor="end" x="70.2" y="4.8999999999999995" style="font-family: Helvetica; font-size: 14px; fill: rgb(51, 51, 51); fill-opacity: 1; white-space: pre; opacity: 1;" transform="translate(0,400.2)">0</text></g><g class="ytick"><text text-anchor="end" x="70.2" y="4.8999999999999995" style="font-family: Helvetica; font-size: 14px; fill: rgb(51, 51, 51); fill-opacity: 1; white-space: pre; opacity: 1;" transform="translate(0,388.07)">1</text></g><g class="ytick"><text text-anchor="end" x="70.2" y="4.8999999999999995" style="font-family: Helvetica; font-size: 14px; fill: rgb(51, 51, 51); fill-opacity: 1; white-space: pre; opacity: 1;" transform="translate(0,375.94)">2</text></g><g class="ytick"><text text-anchor="end" x="70.2" y="4.8999999999999995" style="font-family: Helvetica; font-size: 14px; fill: rgb(51, 51, 51); fill-opacity: 1; white-space: pre; opacity: 1;" transform="translate(0,363.81)">3</text></g><g class="ytick"><text text-anchor="end" x="70.2" y="4.8999999999999995" style="font-family: Helvetica; font-size: 14px; fill: rgb(51, 51, 51); fill-opacity: 1; white-space: pre; opacity: 1;" transform="translate(0,351.68)">4</text></g><g class="ytick"><text text-anchor="end" x="70.2" y="4.8999999999999995" style="font-family: Helvetica; font-size: 14px; fill: rgb(51, 51, 51); fill-opacity: 1; white-space: pre; opacity: 1;" transform="translate(0,339.55)">5</text></g><g class="ytick"><text text-anchor="end" x="70.2" y="4.8999999999999995" style="font-family: Helvetica; font-size: 14px; fill: rgb(51, 51, 51); fill-opacity: 1; white-space: pre; opacity: 1;" transform="translate(0,327.41999999999996)">6</text></g><g class="ytick"><text text-anchor="end" x="70.2" y="4.8999999999999995" style="font-family: Helvetica; font-size: 14px; fill: rgb(51, 51, 51); fill-opacity: 1; white-space: pre; opacity: 1;" transform="translate(0,315.28999999999996)">7</text></g><g class="ytick"><text text-anchor="end" x="70.2" y="4.8999999999999995" style="font-family: Helvetica; font-size: 14px; fill: rgb(51, 51, 51); fill-opacity: 1; white-space: pre; opacity: 1;" transform="translate(0,303.15)">8</text></g><g class="ytick"><text text-anchor="end" x="70.2" y="4.8999999999999995" style="font-family: Helvetica; font-size: 14px; fill: rgb(51, 51, 51); fill-opacity: 1; white-space: pre; opacity: 1;" transform="translate(0,291.02)">9</text></g><g class="ytick"><text text-anchor="end" x="70.2" y="4.8999999999999995" style="font-family: Helvetica; font-size: 14px; fill: rgb(51, 51, 51); fill-opacity: 1; white-space: pre; opacity: 1;" transform="translate(0,278.89)">10</text></g><g class="ytick"><text text-anchor="end" x="70.2" y="4.8999999999999995" style="font-family: Helvetica; font-size: 14px; fill: rgb(51, 51, 51); fill-opacity: 1; white-space: pre; opacity: 1;" transform="translate(0,266.76)">11</text></g><g class="ytick"><text text-anchor="end" x="70.2" y="4.8999999999999995" style="font-family: Helvetica; font-size: 14px; fill: rgb(51, 51, 51); fill-opacity: 1; white-space: pre; opacity: 1;" transform="translate(0,254.63)">12</text></g><g class="ytick"><text text-anchor="end" x="70.2" y="4.8999999999999995" style="font-family: Helvetica; font-size: 14px; fill: rgb(51, 51, 51); fill-opacity: 1; white-space: pre; opacity: 1;" transform="translate(0,242.5)">13</text></g><g class="ytick"><text text-anchor="end" x="70.2" y="4.8999999999999995" style="font-family: Helvetica; font-size: 14px; fill: rgb(51, 51, 51); fill-opacity: 1; white-space: pre; opacity: 1;" transform="translate(0,230.37)">14</text></g><g class="ytick"><text text-anchor="end" x="70.2" y="4.8999999999999995" style="font-family: Helvetica; font-size: 14px; fill: rgb(51, 51, 51); fill-opacity: 1; white-space: pre; opacity: 1;" transform="translate(0,218.24)">15</text></g><g class="ytick"><text text-anchor="end" x="70.2" y="4.8999999999999995" style="font-family: Helvetica; font-size: 14px; fill: rgb(51, 51, 51); fill-opacity: 1; white-space: pre; opacity: 1;" transform="translate(0,206.11)">16</text></g><g class="ytick"><text text-anchor="end" x="70.2" y="4.8999999999999995" style="font-family: Helvetica; font-size: 14px; fill: rgb(51, 51, 51); fill-opacity: 1; white-space: pre; opacity: 1;" transform="translate(0,193.98000000000002)">17</text></g><g class="ytick"><text text-anchor="end" x="70.2" y="4.8999999999999995" style="font-family: Helvetica; font-size: 14px; fill: rgb(51, 51, 51); fill-opacity: 1; white-space: pre; opacity: 1;" transform="translate(0,181.85)">18</text></g><g class="ytick"><text text-anchor="end" x="70.2" y="4.8999999999999995" style="font-family: Helvetica; font-size: 14px; fill: rgb(51, 51, 51); fill-opacity: 1; white-space: pre; opacity: 1;" transform="translate(0,169.72)">19</text></g><g class="ytick"><text text-anchor="end" x="70.2" y="4.8999999999999995" style="font-family: Helvetica; font-size: 14px; fill: rgb(51, 51, 51); fill-opacity: 1; white-space: pre; opacity: 1;" transform="translate(0,157.59)">20</text></g><g class="ytick"><text text-anchor="end" x="70.2" y="4.8999999999999995" style="font-family: Helvetica; font-size: 14px; fill: rgb(51, 51, 51); fill-opacity: 1; white-space: pre; opacity: 1;" transform="translate(0,145.46)">21</text></g><g class="ytick"><text text-anchor="end" x="70.2" y="4.8999999999999995" style="font-family: Helvetica; font-size: 14px; fill: rgb(51, 51, 51); fill-opacity: 1; white-space: pre; opacity: 1;" transform="translate(0,133.32999999999998)">22</text></g><g class="ytick"><text text-anchor="end" x="70.2" y="4.8999999999999995" style="font-family: Helvetica; font-size: 14px; fill: rgb(51, 51, 51); fill-opacity: 1; white-space: pre; opacity: 1;" transform="translate(0,121.19)">23</text></g><g class="ytick"><text text-anchor="end" x="70.2" y="4.8999999999999995" style="font-family: Helvetica; font-size: 14px; fill: rgb(51, 51, 51); fill-opacity: 1; white-space: pre; opacity: 1;" transform="translate(0,109.06)">24</text></g></g><g class="overaxes-above"/></g></g><g class="polarlayer"/><g class="smithlayer"/><g class="ternarylayer"/><g class="geolayer"/><g class="funnelarealayer"/><g class="pielayer"/><g class="iciclelayer"/><g class="treemaplayer"/><g class="sunburstlayer"/><g class="glimages"/><defs id="topdefs-b74aa6"><g class="clips"/><clipPath id="legendb74aa6"><rect width="141" height="86" x="0" y="0"/></clipPath></defs><g class="layer-above"><g class="imagelayer"/><g class="shapelayer"/></g><g class="infolayer"><g class="legend" pointer-events="all" transform="translate(566.54,100)"><rect class="bg" shape-rendering="crispEdges" width="141" height="86" x="0" y="0" style="stroke: rgb(68, 68, 68); stroke-opacity: 1; fill: rgb(255, 255, 255); fill-opacity: 1; stroke-width: 0px;"/><g class="scrollbox" transform="" clip-path="url(#legendb74aa6)"><g class="groups"><g class="traces" transform="translate(0,14.5)" style="opacity: 1;"><text class="legendtext" text-anchor="start" x="40" y="4.680000000000001" style="font-family: Helvetica; font-size: 12px; fill: rgb(51, 51, 51); fill-opacity: 1; white-space: pre;">T-Q-CCSD</text><g class="layers" style="opacity: 0.7;"><g class="legendfill"/><g class="legendlines"/><g class="legendsymbols"><g class="legendpoints"><path class="legendundefined" d="M6,6H-6V-6H6Z" transform="translate(20,0)" style="stroke-width: 0px; fill: rgb(3, 4, 94); fill-opacity: 1;"/></g></g></g><rect class="legendtoggle" x="0" y="-9.5" width="135.015625" height="19" style="fill: rgb(0, 0, 0); fill-opacity: 0;"/></g><g class="traces" transform="translate(0,33.5)" style="opacity: 1;"><text class="legendtext" text-anchor="start" x="40" y="4.680000000000001" style="font-family: Helvetica; font-size: 12px; fill: rgb(51, 51, 51); fill-opacity: 1; white-space: pre;">MP2(T Q)+DifD</text><g class="layers" style="opacity: 0.7;"><g class="legendfill"/><g class="legendlines"/><g class="legendsymbols"><g class="legendpoints"><path class="legendundefined" d="M6,6H-6V-6H6Z" transform="translate(20,0)" style="stroke-width: 0px; fill: rgb(0, 180, 216); fill-opacity: 1;"/></g></g></g><rect class="legendtoggle" x="0" y="-9.5" width="135.015625" height="19" style="fill: rgb(0, 0, 0); fill-opacity: 0;"/></g><g class="traces" transform="translate(0,52.5)" style="opacity: 1;"><text class="legendtext" text-anchor="start" x="40" y="4.680000000000001" style="font-family: Helvetica; font-size: 12px; fill: rgb(51, 51, 51); fill-opacity: 1; white-space: pre;">D-T-Q-CCSD</text><g class="layers" style="opacity: 0.7;"><g class="legendfill"/><g class="legendlines"/><g class="legendsymbols"><g class="legendpoints"><path class="legendundefined" d="M6,6H-6V-6H6Z" transform="translate(20,0)" style="stroke-width: 0px; fill: rgb(90, 24, 154); fill-opacity: 1;"/></g></g></g><rect class="legendtoggle" x="0" y="-9.5" width="135.015625" height="19" style="fill: rgb(0, 0, 0); fill-opacity: 0;"/></g><g class="traces" transform="translate(0,71.5)" style="opacity: 1;"><text class="legendtext" text-anchor="start" x="40" y="4.680000000000001" style="font-family: Helvetica; font-size: 12px; fill: rgb(51, 51, 51); fill-opacity: 1; white-space: pre;">MP2(D T Q)+DifD</text><g class="layers" style="opacity: 0.7;"><g class="legendfill"/><g class="legendlines"/><g class="legendsymbols"><g class="legendpoints"><path class="legendundefined" d="M6,6H-6V-6H6Z" transform="translate(20,0)" style="stroke-width: 0px; fill: rgb(224, 170, 255); fill-opacity: 1;"/></g></g></g><rect class="legendtoggle" x="0" y="-9.5" width="135.015625" height="19" style="fill: rgb(0, 0, 0); fill-opacity: 0;"/></g></g></g><rect class="scrollbar" rx="20" ry="3" width="0" height="0" x="0" y="0" style="fill: rgb(128, 139, 164); fill-opacity: 1;"/></g><g class="g-gtitle"/><g class="g-xtitle"><text class="xtitle" x="318.5" y="487.0404296875" text-anchor="middle" style="font-family: Helvetica; font-size: 18px; fill: rgb(51, 51, 51); opacity: 1; font-weight: normal; white-space: pre;">Deviation from exp. (eV)</text></g><g class="g-ytitle"/></g></svg>