<svg class="main-svg" xmlns="http://www.w3.org/2000/svg" xmlns:xlink="http://www.w3.org/1999/xlink" width="700" height="500" style="" viewBox="0 0 700 500"><rect x="0" y="0" width="700" height="500" style="fill: rgb(255, 255, 255); fill-opacity: 1;"/><defs id="defs-cbe5d9"><g class="clips"><clipPath id="clipcbe5d9xyplot" class="plotclip"><rect width="480" height="418"/></clipPath><clipPath class="axesclip" id="clipcbe5d9x"><rect x="54" y="0" width="480" height="500"/></clipPath><clipPath class="axesclip" id="clipcbe5d9y"><rect x="0" y="30" width="700" height="418"/></clipPath><clipPath class="axesclip" id="clipcbe5d9xy"><rect x="54" y="30" width="480" height="418"/></clipPath></g><g class="gradients"/><g class="patterns"/></defs><g class="bglayer"/><g class="layer-below"><g class="imagelayer"/><g class="shapelayer"/></g><g class="cartesianlayer"><g class="subplot xy"><g class="layer-subplot"><g class="shapelayer"/><g class="imagelayer"/></g><g class="minor-gridlayer"><g class="x"/><g class="y"/></g><g class="gridlayer"><g class="x"><path class="xgrid crisp" transform="translate(78,0)" d="M0,30v418" style="stroke: rgb(255, 255, 255); stroke-opacity: 1; stroke-width: 1px;"/><path class="xgrid crisp" transform="translate(150,0)" d="M0,30v418" style="stroke: rgb(255, 255, 255); stroke-opacity: 1; stroke-width: 1px;"/><path class="xgrid crisp" transform="translate(222,0)" d="M0,30v418" style="stroke: rgb(255, 255, 255); stroke-opacity: 1; stroke-width: 1px;"/><path class="xgrid crisp" transform="translate(294,0)" d="M0,30v418" style="stroke: rgb(255, 255, 255); stroke-opacity: 1; stroke-width: 1px;"/><path class="xgrid crisp" transform="translate(366,0)" d="M0,30v418" style="stroke: rgb(255, 255, 255); stroke-opacity: 1; stroke-width: 1px;"/><path class="xgrid crisp" transform="translate(438,0)" d="M0,30v418" style="stroke: rgb(255, 255, 255); stroke-opacity: 1; stroke-width: 1px;"/><path class="xgrid crisp" transform="translate(510,0)" d="M0,30v418" style="stroke: rgb(255, 255, 255); stroke-opacity: 1; stroke-width: 1px;"/></g><g class="y"><path class="ygrid crisp" transform="translate(0,320.38)" d="M54,0h480" style="stroke: rgb(236, 236, 236); stroke-opacity: 1; stroke-width: 1px;"/><path class="ygrid crisp" transform="translate(0,203.01)" d="M54,0h480" style="stroke: rgb(236, 236, 236); stroke-opacity: 1; stroke-width: 1px;"/><path class="ygrid crisp" transform="translate(0,85.64)" d="M54,0h480" style="stroke: rgb(236, 236, 236); stroke-opacity: 1; stroke-width: 1px;"/></g></g><g class="zerolinelayer"><path class="yzl zl crisp" transform="translate(0,437.75)" d="M54,0h480" style="stroke: rgb(51, 51, 51); stroke-opacity: 1; stroke-width: 2px;"/></g><path class="xlines-below"/><path class="ylines-below"/><g class="overlines-below"/><g class="xaxislayer-below"/><g class="yaxislayer-below"/><g class="overaxes-below"/><g class="plot" transform="translate(54,30)" clip-path="url(#clipcbe5d9xyplot)"><g class="barlayer mlayer"><g class="trace bars" shape-rendering="crispEdges" style="opacity: 0.7;"><g class="points"><g class="point"><path d="M80.17,407.75V395.13H103.47V407.75Z" style="vector-effect: none; opacity: 1; stroke-width: 0px; fill: rgb(157, 78, 221); fill-opacity: 1;"/></g><g class="point"><path d="M103.47,407.75V382.51H126.76V407.75Z" style="vector-effect: none; opacity: 1; stroke-width: 0px; fill: rgb(157, 78, 221); fill-opacity: 1;"/></g><g class="point"><path d="M0,0Z" style="vector-effect: none; opacity: 1; stroke-width: 0px; fill: rgb(157, 78, 221); fill-opacity: 1;"/></g><g class="point"><path d="M150.05,407.75V382.51H173.35V407.75Z" style="vector-effect: none; opacity: 1; stroke-width: 0px; fill: rgb(157, 78, 221); fill-opacity: 1;"/></g><g class="point"><path d="M173.35,407.75V369.89H196.64V407.75Z" style="vector-effect: none; opacity: 1; stroke-width: 0px; fill: rgb(157, 78, 221); fill-opacity: 1;"/></g><g class="point"><path d="M196.64,407.75V243.68H219.94V407.75Z" style="vector-effect: none; opacity: 1; stroke-width: 0px; fill: rgb(157, 78, 221); fill-opacity: 1;"/></g><g class="point"><path d="M219.94,407.75V92.24H243.23V407.75Z" style="vector-effect: none; opacity: 1; stroke-width: 0px; fill: rgb(157, 78, 221); fill-opacity: 1;"/></g><g class="point"><path d="M243.23,407.75V130.1H266.52V407.75Z" style="vector-effect: none; opacity: 1; stroke-width: 0px; fill: rgb(157, 78, 221); fill-opacity: 1;"/></g><g class="point"><path d="M266.52,407.75V231.06H289.82V407.75Z" style="vector-effect: none; opacity: 1; stroke-width: 0px; fill: rgb(157, 78, 221); fill-opacity: 1;"/></g><g class="point"><path d="M289.82,407.75V268.92H313.11V407.75Z" style="vector-effect: none; opacity: 1; stroke-width: 0px; fill: rgb(157, 78, 221); fill-opacity: 1;"/></g></g></g><g class="trace bars" shape-rendering="crispEdges" style="opacity: 0.7;"><g class="points"><g class="point"><path d="M80.17,407.75V395.26H103.47V407.75Z" style="vector-effect: none; opacity: 1; stroke-width: 0px; fill: rgb(0, 180, 216); fill-opacity: 1;"/></g><g class="point"><path d="M103.47,407.75V395.26H126.76V407.75Z" style="vector-effect: none; opacity: 1; stroke-width: 0px; fill: rgb(0, 180, 216); fill-opacity: 1;"/></g><g class="point"><path d="M126.76,407.75V382.77H150.05V407.75Z" style="vector-effect: none; opacity: 1; stroke-width: 0px; fill: rgb(0, 180, 216); fill-opacity: 1;"/></g><g class="point"><path d="M150.05,407.75V382.77H173.35V407.75Z" style="vector-effect: none; opacity: 1; stroke-width: 0px; fill: rgb(0, 180, 216); fill-opacity: 1;"/></g><g class="point"><path d="M173.35,407.75V370.29H196.64V407.75Z" style="vector-effect: none; opacity: 1; stroke-width: 0px; fill: rgb(0, 180, 216); fill-opacity: 1;"/></g><g class="point"><path d="M196.64,407.75V207.97H219.94V407.75Z" style="vector-effect: none; opacity: 1; stroke-width: 0px; fill: rgb(0, 180, 216); fill-opacity: 1;"/></g><g class="point"><path d="M219.94,407.75V108.08H243.23V407.75Z" style="vector-effect: none; opacity: 1; stroke-width: 0px; fill: rgb(0, 180, 216); fill-opacity: 1;"/></g><g class="point"><path d="M243.23,407.75V158.02H266.52V407.75Z" style="vector-effect: none; opacity: 1; stroke-width: 0px; fill: rgb(0, 180, 216); fill-opacity: 1;"/></g><g class="point"><path d="M266.52,407.75V207.97H289.82V407.75Z" style="vector-effect: none; opacity: 1; stroke-width: 0px; fill: rgb(0, 180, 216); fill-opacity: 1;"/></g><g class="point"><path d="M289.82,407.75V295.37H313.11V407.75Z" style="vector-effect: none; opacity: 1; stroke-width: 0px; fill: rgb(0, 180, 216); fill-opacity: 1;"/></g></g></g></g><g class="scatterlayer mlayer"><g class="trace scatter trace5d6daf" style="stroke-miterlimit: 2; opacity: 1;"><g class="fills"/><g class="errorbars"/><g class="lines"><path class="js-line" d="M85.69,396.32L119.98,387.32L121.12,387.35L129.12,388.77L130.26,389.07L139.4,390.58L140.55,390.51L146.26,388.83L147.4,388.2L153.12,383.66L154.26,382.49L162.26,372.41L163.4,370.73L171.4,357.26L172.55,355.01L179.4,338.89L180.55,335.64L186.26,316.15L187.4,311.53L194.26,278.34L195.4,271.9L204.54,212.87L205.69,204.83L221.69,97.22L222.83,90.97L228.54,64.75L229.69,60.59L234.26,47.76L235.4,45.5L238.83,40.9L239.97,40.07L243.4,39.52L244.54,39.95L247.97,42.93L249.11,44.45L253.69,52.95L254.83,55.64L260.54,72.11L261.69,75.96L270.83,111.67L271.97,116.57L298.26,234.78L299.4,240.43L313.11,311.85" style="vector-effect: none; fill: none; stroke: rgb(90, 24, 154); stroke-opacity: 1; stroke-width: 4px; opacity: 1;"/></g><g class="points"/><g class="text"/></g><g class="trace scatter trace33001c" style="stroke-miterlimit: 2; opacity: 1;"><g class="fills"/><g class="errorbars"/><g class="lines"><path class="js-line" d="M80.17,397.1L106.49,393.27L107.63,392.88L121.36,386.66L122.5,386.09L137.38,379.55L138.52,379.16L161.4,371.31L162.55,370.62L169.41,364.9L170.55,363.61L176.28,355.01L177.42,352.74L182,341.29L183.14,337.72L188.86,314.84L190,309.16L195.72,275L196.87,267.06L206.02,194.01L207.17,184.21L218.61,92.59L219.75,84.87L226.62,47.13L227.76,42.39L232.34,28.13L233.48,25.75L236.91,21.44L238.06,20.94L240.34,21.3L241.49,22.14L244.92,27.16L246.06,29.6L250.64,42.72L251.79,46.71L259.79,79.59L260.94,84.67L276.95,152.31L278.1,156.75L291.83,213.23L292.97,218.59L303.27,272.24L304.41,278.59L307.85,297.6" style="vector-effect: none; fill: none; stroke: rgb(0, 119, 182); stroke-opacity: 1; stroke-width: 4px; opacity: 1;"/></g><g class="points"/><g class="text"/></g></g></g><g class="overplot"/><path class="xlines-above crisp" d="M52,449H536M52,29H536" style="fill: none; stroke-width: 2px; stroke: rgb(51, 51, 51); stroke-opacity: 1;"/><path class="ylines-above crisp" d="M53,30V448M535,30V448" style="fill: none; stroke-width: 2px; stroke: rgb(51, 51, 51); stroke-opacity: 1;"/><g class="overlines-above"/><g class="xaxislayer-above"><path class="xtick ticks crisp" d="M0,450v5" transform="translate(78,0)" style="stroke: rgb(68, 68, 68); stroke-opacity: 1; stroke-width: 1px;"/><path class="xtick ticks crisp" d="M0,450v5" transform="translate(150,0)" style="stroke: rgb(68, 68, 68); stroke-opacity: 1; stroke-width: 1px;"/><path class="xtick ticks crisp" d="M0,450v5" transform="translate(222,0)" style="stroke: rgb(68, 68, 68); stroke-opacity: 1; stroke-width: 1px;"/><path class="xtick ticks crisp" d="M0,450v5" transform="translate(294,0)" style="stroke: rgb(68, 68, 68); stroke-opacity: 1; stroke-width: 1px;"/><path class="xtick ticks crisp" d="M0,450v5" transform="translate(366,0)" style="stroke: rgb(68, 68, 68); stroke-opacity: 1; stroke-width: 1px;"/><path class="xtick ticks crisp" d="M0,450v5" transform="translate(438,0)" style="stroke: rgb(68, 68, 68); stroke-opacity: 1; stroke-width: 1px;"/><path class="xtick ticks crisp" d="M0,450v5" transform="translate(510,0)" style="stroke: rgb(68, 68, 68); stroke-opacity: 1; stroke-width: 1px;"/><g class="xtick"><text text-anchor="middle" x="0" y="469.4" transform="translate(78,0)" style="font-family: Helvetica; font-size: 12px; fill: rgb(51, 51, 51); fill-opacity: 1; white-space: pre; opacity: 1;">−0.9</text></g><g class="xtick"><text text-anchor="middle" x="0" y="469.4" style="font-family: Helvetica; font-size: 12px; fill: rgb(51, 51, 51); fill-opacity: 1; white-space: pre; opacity: 1;" transform="translate(150,0)">−0.6</text></g><g class="xtick"><text text-anchor="middle" x="0" y="469.4" style="font-family: Helvetica; font-size: 12px; fill: rgb(51, 51, 51); fill-opacity: 1; white-space: pre; opacity: 1;" transform="translate(222,0)">−0.3</text></g><g class="xtick"><text text-anchor="middle" x="0" y="469.4" style="font-family: Helvetica; font-size: 12px; fill: rgb(51, 51, 51); fill-opacity: 1; white-space: pre; opacity: 1;" transform="translate(294,0)">0</text></g><g class="xtick"><text text-anchor="middle" x="0" y="469.4" style="font-family: Helvetica; font-size: 12px; fill: rgb(51, 51, 51); fill-opacity: 1; white-space: pre; opacity: 1;" transform="translate(366,0)">0.3</text></g><g class="xtick"><text text-anchor="middle" x="0" y="469.4" style="font-family: Helvetica; font-size: 12px; fill: rgb(51, 51, 51); fill-opacity: 1; white-space: pre; opacity: 1;" transform="translate(438,0)">0.6</text></g><g class="xtick"><text text-anchor="middle" x="0" y="469.4" style="font-family: Helvetica; font-size: 12px; fill: rgb(51, 51, 51); fill-opacity: 1; white-space: pre; opacity: 1;" transform="translate(510,0)">0.9</text></g></g><g class="yaxislayer-above"><path class="ytick ticks crisp" d="M52,0h-5" transform="translate(0,437.75)" style="stroke: rgb(68, 68, 68); stroke-opacity: 1; stroke-width: 1px;"/><path class="ytick ticks crisp" d="M52,0h-5" transform="translate(0,320.38)" style="stroke: rgb(68, 68, 68); stroke-opacity: 1; stroke-width: 1px;"/><path class="ytick ticks crisp" d="M52,0h-5" transform="translate(0,203.01)" style="stroke: rgb(68, 68, 68); stroke-opacity: 1; stroke-width: 1px;"/><path class="ytick ticks crisp" d="M52,0h-5" transform="translate(0,85.64)" style="stroke: rgb(68, 68, 68); stroke-opacity: 1; stroke-width: 1px;"/><g class="ytick"><text text-anchor="end" x="44.6" y="4.199999999999999" transform="translate(0,437.75)" style="font-family: Helvetica; font-size: 12px; fill: rgb(51, 51, 51); fill-opacity: 1; white-space: pre; opacity: 1;">0</text></g><g class="ytick"><text text-anchor="end" x="44.6" y="4.199999999999999" style="font-family: Helvetica; font-size: 12px; fill: rgb(51, 51, 51); fill-opacity: 1; white-space: pre; opacity: 1;" transform="translate(0,320.38)">0.1</text></g><g class="ytick"><text text-anchor="end" x="44.6" y="4.199999999999999" style="font-family: Helvetica; font-size: 12px; fill: rgb(51, 51, 51); fill-opacity: 1; white-space: pre; opacity: 1;" transform="translate(0,203.01)">0.2</text></g><g class="ytick"><text text-anchor="end" x="44.6" y="4.199999999999999" style="font-family: Helvetica; font-size: 12px; fill: rgb(51, 51, 51); fill-opacity: 1; white-space: pre; opacity: 1;" transform="translate(0,85.64)">0.3</text></g></g><g class="overaxes-above"/></g></g><g class="polarlayer"/><g class="smithlayer"/><g class="ternarylayer"/><g class="geolayer"/><g class="funnelarealayer"/><g class="pielayer"/><g class="iciclelayer"/><g class="treemaplayer"/><g class="sunburstlayer"/><g class="glimages"/><defs id="topdefs-cbe5d9"><g class="clips"/><clipPath id="legendcbe5d9"><rect width="156" height="48" x="0" y="0"/></clipPath></defs><g class="layer-above"><g class="imagelayer"/><g class="shapelayer"/></g><g class="infolayer"><g class="legend" pointer-events="all" transform="translate(543.6,30)"><rect class="bg" shape-rendering="crispEdges" width="156" height="48" x="0" y="0" style="stroke: rgb(68, 68, 68); stroke-opacity: 1; fill: rgb(255, 255, 255); fill-opacity: 1; stroke-width: 0px;"/><g class="scrollbox" transform="" clip-path="url(#legendcbe5d9)"><g class="groups"><g class="traces" transform="translate(0,14.5)" style="opacity: 1;"><text class="legendtext" text-anchor="start" x="40" y="4.680000000000001" style="font-family: Helvetica; font-size: 12px; fill: rgb(51, 51, 51); fill-opacity: 1; white-space: pre;">MP2(D T Q)+DifD(T)</text><g class="layers" style="opacity: 0.7;"><g class="legendfill"/><g class="legendlines"/><g class="legendsymbols"><g class="legendpoints"><path class="legendundefined" d="M6,6H-6V-6H6Z" transform="translate(20,0)" style="stroke-width: 0px; fill: rgb(157, 78, 221); fill-opacity: 1;"/></g></g></g><rect class="legendtoggle" x="0" y="-9.5" width="150.328125" height="19" style="fill: rgb(0, 0, 0); fill-opacity: 0;"/></g><g class="traces" transform="translate(0,33.5)" style="opacity: 1;"><text class="legendtext" text-anchor="start" x="40" y="4.680000000000001" style="font-family: Helvetica; font-size: 12px; fill: rgb(51, 51, 51); fill-opacity: 1; white-space: pre;">D-T-Q-CCSD(T)</text><g class="layers" style="opacity: 0.7;"><g class="legendfill"/><g class="legendlines"/><g class="legendsymbols"><g class="legendpoints"><path class="legendundefined" d="M6,6H-6V-6H6Z" transform="translate(20,0)" style="stroke-width: 0px; fill: rgb(0, 180, 216); fill-opacity: 1;"/></g></g></g><rect class="legendtoggle" x="0" y="-9.5" width="150.328125" height="19" style="fill: rgb(0, 0, 0); fill-opacity: 0;"/></g></g></g><rect class="scrollbar" rx="20" ry="3" width="0" height="0" x="0" y="0" style="fill: rgb(128, 139, 164); fill-opacity: 1;"/></g><g class="g-gtitle"/><g class="g-xtitle"/><g class="g-ytitle"/></g></svg>