<svg class="main-svg" xmlns="http://www.w3.org/2000/svg" xmlns:xlink="http://www.w3.org/1999/xlink" width="720" height="490" style="" viewBox="0 0 720 490"><rect x="0" y="0" width="720" height="490" style="fill: rgb(255, 255, 255); fill-opacity: 1;"/><defs id="defs-337d3f"><g class="clips"><clipPath id="clip337d3fxyplot" class="plotclip"><rect width="592" height="406"/></clipPath><clipPath class="axesclip" id="clip337d3fx"><rect x="108" y="0" width="592" height="490"/></clipPath><clipPath class="axesclip" id="clip337d3fy"><rect x="0" y="10" width="720" height="406"/></clipPath><clipPath class="axesclip" id="clip337d3fxy"><rect x="108" y="10" width="592" height="406"/></clipPath></g><g class="gradients"/><g class="patterns"/></defs><g class="bglayer"/><g class="layer-below"><g class="imagelayer"/><g class="shapelayer"/></g><g class="cartesianlayer"><g class="subplot xy"><g class="layer-subplot"><g class="shapelayer"/><g class="imagelayer"/></g><g class="minor-gridlayer"><g class="x"/><g class="y"/></g><g class="gridlayer"><g class="x"><path class="xgrid crisp" transform="translate(182,0)" d="M0,10v406" style="stroke: rgb(255, 255, 255); stroke-opacity: 1; stroke-width: 1px;"/><path class="xgrid crisp" transform="translate(330,0)" d="M0,10v406" style="stroke: rgb(255, 255, 255); stroke-opacity: 1; stroke-width: 1px;"/><path class="xgrid crisp" transform="translate(478,0)" d="M0,10v406" style="stroke: rgb(255, 255, 255); stroke-opacity: 1; stroke-width: 1px;"/><path class="xgrid crisp" transform="translate(626,0)" d="M0,10v406" style="stroke: rgb(255, 255, 255); stroke-opacity: 1; stroke-width: 1px;"/></g><g class="y"><path class="ygrid crisp" transform="translate(0,378.92)" d="M108,0h592" style="stroke: rgb(236, 236, 236); stroke-opacity: 1; stroke-width: 1px;"/><path class="ygrid crisp" transform="translate(0,341.84)" d="M108,0h592" style="stroke: rgb(236, 236, 236); stroke-opacity: 1; stroke-width: 1px;"/><path class="ygrid crisp" transform="translate(0,304.77)" d="M108,0h592" style="stroke: rgb(236, 236, 236); stroke-opacity: 1; stroke-width: 1px;"/><path class="ygrid crisp" transform="translate(0,267.69)" d="M108,0h592" style="stroke: rgb(236, 236, 236); stroke-opacity: 1; stroke-width: 1px;"/><path class="ygrid crisp" transform="translate(0,230.61)" d="M108,0h592" style="stroke: rgb(236, 236, 236); stroke-opacity: 1; stroke-width: 1px;"/><path class="ygrid crisp" transform="translate(0,193.53)" d="M108,0h592" style="stroke: rgb(236, 236, 236); stroke-opacity: 1; stroke-width: 1px;"/><path class="ygrid crisp" transform="translate(0,156.46)" d="M108,0h592" style="stroke: rgb(236, 236, 236); stroke-opacity: 1; stroke-width: 1px;"/><path class="ygrid crisp" transform="translate(0,119.38)" d="M108,0h592" style="stroke: rgb(236, 236, 236); stroke-opacity: 1; stroke-width: 1px;"/><path class="ygrid crisp" transform="translate(0,82.3)" d="M108,0h592" style="stroke: rgb(236, 236, 236); stroke-opacity: 1; stroke-width: 1px;"/><path class="ygrid crisp" transform="translate(0,45.22)" d="M108,0h592" style="stroke: rgb(236, 236, 236); stroke-opacity: 1; stroke-width: 1px;"/></g></g><g class="zerolinelayer"><path class="yzl zl crisp" transform="translate(0,416)" d="M108,0h592" style="stroke: rgb(51, 51, 51); stroke-opacity: 1; stroke-width: 2px;"/></g><path class="xlines-below"/><path class="ylines-below"/><g class="overlines-below"/><g class="xaxislayer-below"/><g class="yaxislayer-below"/><g class="overaxes-below"/><g class="plot" transform="translate(108,10)" clip-path="url(#clip337d3fxyplot)"><g class="barlayer mlayer"><g class="trace bars" style="opacity: 1;"><g class="points"><g class="point"><path d="M14.8,406V329.12H44.4V406Z" style="vector-effect: none; opacity: 1; stroke-width: 0.5px; fill: rgb(178, 223, 138); fill-opacity: 1; stroke: rgb(229, 236, 246); stroke-opacity: 1;"/></g><g class="point"><path d="M162.8,406V250.58H192.4V406Z" style="vector-effect: none; opacity: 1; stroke-width: 0.5px; fill: rgb(178, 223, 138); fill-opacity: 1; stroke: rgb(229, 236, 246); stroke-opacity: 1;"/></g><g class="point"><path d="M310.8,406V237.32H340.4V406Z" style="vector-effect: none; opacity: 1; stroke-width: 0.5px; fill: rgb(178, 223, 138); fill-opacity: 1; stroke: rgb(229, 236, 246); stroke-opacity: 1;"/></g><g class="point"><path d="M458.8,406V235.01H488.4V406Z" style="vector-effect: none; opacity: 1; stroke-width: 0.5px; fill: rgb(178, 223, 138); fill-opacity: 1; stroke: rgb(229, 236, 246); stroke-opacity: 1;"/></g></g><g class="errorbar" style="opacity: 1;"><path class="yerror" d="M25.6,261.26h8m-4,0V396.98m-4,0h8" style="vector-effect: none; stroke-width: 2px; stroke: rgb(51, 51, 51); stroke-opacity: 1;"/></g><g class="errorbar" style="opacity: 1;"><path class="yerror" d="M173.6,166.05h8m-4,0V335.11m-4,0h8" style="vector-effect: none; stroke-width: 2px; stroke: rgb(51, 51, 51); stroke-opacity: 1;"/></g><g class="errorbar" style="opacity: 1;"><path class="yerror" d="M321.6,147.31h8m-4,0V327.33m-4,0h8" style="vector-effect: none; stroke-width: 2px; stroke: rgb(51, 51, 51); stroke-opacity: 1;"/></g><g class="errorbar" style="opacity: 1;"><path class="yerror" d="M469.6,143.78h8m-4,0V326.23m-4,0h8" style="vector-effect: none; stroke-width: 2px; stroke: rgb(51, 51, 51); stroke-opacity: 1;"/></g></g><g class="trace bars" style="opacity: 1;"><g class="points"><g class="point"><path d="M44.4,406V70.23H74V406Z" style="vector-effect: none; opacity: 1; stroke-width: 0.5px; fill: rgb(224, 170, 255); fill-opacity: 1; stroke: rgb(229, 236, 246); stroke-opacity: 1;"/></g><g class="point"><path d="M192.4,406V335.59H222V406Z" style="vector-effect: none; opacity: 1; stroke-width: 0.5px; fill: rgb(224, 170, 255); fill-opacity: 1; stroke: rgb(229, 236, 246); stroke-opacity: 1;"/></g><g class="point"><path d="M340.4,406V345.8H370V406Z" style="vector-effect: none; opacity: 1; stroke-width: 0.5px; fill: rgb(224, 170, 255); fill-opacity: 1; stroke: rgb(229, 236, 246); stroke-opacity: 1;"/></g><g class="point"><path d="M488.4,406V346.54H518V406Z" style="vector-effect: none; opacity: 1; stroke-width: 0.5px; fill: rgb(224, 170, 255); fill-opacity: 1; stroke: rgb(229, 236, 246); stroke-opacity: 1;"/></g></g><g class="errorbar" style="opacity: 1;"><path class="yerror" d="M55.2,6.59h8m-4,0V133.87m-4,0h8" style="vector-effect: none; stroke-width: 2px; stroke: rgb(51, 51, 51); stroke-opacity: 1;"/></g><g class="errorbar" style="opacity: 1;"><path class="yerror" d="M203.2,276.27h8m-4,0V394.9m-4,0h8" style="vector-effect: none; stroke-width: 2px; stroke: rgb(51, 51, 51); stroke-opacity: 1;"/></g><g class="errorbar" style="opacity: 1;"><path class="yerror" d="M351.2,285.89h8m-4,0V405.7m-4,0h8" style="vector-effect: none; stroke-width: 2px; stroke: rgb(51, 51, 51); stroke-opacity: 1;"/></g><g class="errorbar" style="opacity: 1;"><path class="yerror" d="M499.2,285.67h8m-4,0V407.41m-4,0h8" style="vector-effect: none; stroke-width: 2px; stroke: rgb(51, 51, 51); stroke-opacity: 1;"/></g></g><g class="trace bars" style="opacity: 1;"><g class="points"><g class="point"><path d="M74,406V101.2H103.6V406Z" style="vector-effect: none; opacity: 1; stroke-width: 0.5px; fill: rgb(72, 202, 228); fill-opacity: 1; stroke: rgb(229, 236, 246); stroke-opacity: 1;"/></g><g class="point"><path d="M222,406V360.78H251.6V406Z" style="vector-effect: none; opacity: 1; stroke-width: 0.5px; fill: rgb(72, 202, 228); fill-opacity: 1; stroke: rgb(229, 236, 246); stroke-opacity: 1;"/></g><g class="point"><path d="M370,406V369.17H399.6V406Z" style="vector-effect: none; opacity: 1; stroke-width: 0.5px; fill: rgb(72, 202, 228); fill-opacity: 1; stroke: rgb(229, 236, 246); stroke-opacity: 1;"/></g></g><g class="errorbar" style="opacity: 1;"><path class="yerror" d="M84.8,53.58h8m-4,0V148.83m-4,0h8" style="vector-effect: none; stroke-width: 2px; stroke: rgb(51, 51, 51); stroke-opacity: 1;"/></g><g class="errorbar" style="opacity: 1;"><path class="yerror" d="M232.8,334.41h8m-4,0V387.15m-4,0h8" style="vector-effect: none; stroke-width: 2px; stroke: rgb(51, 51, 51); stroke-opacity: 1;"/></g><g class="errorbar" style="opacity: 1;"><path class="yerror" d="M380.8,342.98h8m-4,0V395.37m-4,0h8" style="vector-effect: none; stroke-width: 2px; stroke: rgb(51, 51, 51); stroke-opacity: 1;"/></g></g><g class="trace bars" style="opacity: 1;"><g class="points"><g class="point"><path d="M103.6,406V97.71H133.2V406Z" style="vector-effect: none; opacity: 1; stroke-width: 0.5px; fill: rgb(0, 119, 182); fill-opacity: 1; stroke: rgb(229, 236, 246); stroke-opacity: 1;"/></g><g class="point"><path d="M251.6,406V357.54H281.2V406Z" style="vector-effect: none; opacity: 1; stroke-width: 0.5px; fill: rgb(0, 119, 182); fill-opacity: 1; stroke: rgb(229, 236, 246); stroke-opacity: 1;"/></g><g class="point"><path d="M399.6,406V368.22H429.2V406Z" style="vector-effect: none; opacity: 1; stroke-width: 0.5px; fill: rgb(0, 119, 182); fill-opacity: 1; stroke: rgb(229, 236, 246); stroke-opacity: 1;"/></g></g><g class="errorbar" style="opacity: 1;"><path class="yerror" d="M114.4,47.51h8m-4,0V147.9m-4,0h8" style="vector-effect: none; stroke-width: 2px; stroke: rgb(51, 51, 51); stroke-opacity: 1;"/></g><g class="errorbar" style="opacity: 1;"><path class="yerror" d="M262.4,333.91h8m-4,0V381.16m-4,0h8" style="vector-effect: none; stroke-width: 2px; stroke: rgb(51, 51, 51); stroke-opacity: 1;"/></g><g class="errorbar" style="opacity: 1;"><path class="yerror" d="M410.4,346.25h8m-4,0V390.2m-4,0h8" style="vector-effect: none; stroke-width: 2px; stroke: rgb(51, 51, 51); stroke-opacity: 1;"/></g></g></g></g><g class="overplot"/><path class="xlines-above crisp" d="M106,417H702M106,9H702" style="fill: none; stroke-width: 2px; stroke: rgb(51, 51, 51); stroke-opacity: 1;"/><path class="ylines-above crisp" d="M107,10V416M701,10V416" style="fill: none; stroke-width: 2px; stroke: rgb(51, 51, 51); stroke-opacity: 1;"/><g class="overlines-above"/><g class="xaxislayer-above"><path class="xtick ticks crisp" d="M0,418v5" transform="translate(182,0)" style="stroke: rgb(68, 68, 68); stroke-opacity: 1; stroke-width: 1px;"/><path class="xtick ticks crisp" d="M0,418v5" transform="translate(330,0)" style="stroke: rgb(68, 68, 68); stroke-opacity: 1; stroke-width: 1px;"/><path class="xtick ticks crisp" d="M0,418v5" transform="translate(478,0)" style="stroke: rgb(68, 68, 68); stroke-opacity: 1; stroke-width: 1px;"/><path class="xtick ticks crisp" d="M0,418v5" transform="translate(626,0)" style="stroke: rgb(68, 68, 68); stroke-opacity: 1; stroke-width: 1px;"/><g class="xtick"><text text-anchor="middle" x="0" y="451.8" transform="translate(182,0)" style="font-family: Helvetica; font-size: 24px; fill: rgb(51, 51, 51); fill-opacity: 1; white-space: pre; opacity: 1;">D</text></g><g class="xtick"><text text-anchor="middle" x="0" y="451.8" transform="translate(330,0)" style="font-family: Helvetica; font-size: 24px; fill: rgb(51, 51, 51); fill-opacity: 1; white-space: pre; opacity: 1;">T</text></g><g class="xtick"><text text-anchor="middle" x="0" y="451.8" transform="translate(478,0)" style="font-family: Helvetica; font-size: 24px; fill: rgb(51, 51, 51); fill-opacity: 1; white-space: pre; opacity: 1;">Q</text></g><g class="xtick"><text text-anchor="middle" x="0" y="451.8" transform="translate(626,0)" style="font-family: Helvetica; font-size: 24px; fill: rgb(51, 51, 51); fill-opacity: 1; white-space: pre; opacity: 1;">5</text></g></g><g class="yaxislayer-above"><path class="ytick ticks crisp" d="M106,0h-5" transform="translate(0,416)" style="stroke: rgb(68, 68, 68); stroke-opacity: 1; stroke-width: 1px;"/><path class="ytick ticks crisp" d="M106,0h-5" transform="translate(0,378.92)" style="stroke: rgb(68, 68, 68); stroke-opacity: 1; stroke-width: 1px;"/><path class="ytick ticks crisp" d="M106,0h-5" transform="translate(0,341.84)" style="stroke: rgb(68, 68, 68); stroke-opacity: 1; stroke-width: 1px;"/><path class="ytick ticks crisp" d="M106,0h-5" transform="translate(0,304.77)" style="stroke: rgb(68, 68, 68); stroke-opacity: 1; stroke-width: 1px;"/><path class="ytick ticks crisp" d="M106,0h-5" transform="translate(0,267.69)" style="stroke: rgb(68, 68, 68); stroke-opacity: 1; stroke-width: 1px;"/><path class="ytick ticks crisp" d="M106,0h-5" transform="translate(0,230.61)" style="stroke: rgb(68, 68, 68); stroke-opacity: 1; stroke-width: 1px;"/><path class="ytick ticks crisp" d="M106,0h-5" transform="translate(0,193.53)" style="stroke: rgb(68, 68, 68); stroke-opacity: 1; stroke-width: 1px;"/><path class="ytick ticks crisp" d="M106,0h-5" transform="translate(0,156.46)" style="stroke: rgb(68, 68, 68); stroke-opacity: 1; stroke-width: 1px;"/><path class="ytick ticks crisp" d="M106,0h-5" transform="translate(0,119.38)" style="stroke: rgb(68, 68, 68); stroke-opacity: 1; stroke-width: 1px;"/><path class="ytick ticks crisp" d="M106,0h-5" transform="translate(0,82.3)" style="stroke: rgb(68, 68, 68); stroke-opacity: 1; stroke-width: 1px;"/><path class="ytick ticks crisp" d="M106,0h-5" transform="translate(0,45.22)" style="stroke: rgb(68, 68, 68); stroke-opacity: 1; stroke-width: 1px;"/><g class="ytick"><text text-anchor="end" x="96.2" y="8.399999999999999" transform="translate(0,416)" style="font-family: Helvetica; font-size: 24px; fill: rgb(51, 51, 51); fill-opacity: 1; white-space: pre; opacity: 1;">0</text></g><g class="ytick"><text text-anchor="end" x="96.2" y="8.399999999999999" style="font-family: Helvetica; font-size: 24px; fill: rgb(51, 51, 51); fill-opacity: 1; white-space: pre; opacity: 1;" transform="translate(0,378.92)">0.2</text></g><g class="ytick"><text text-anchor="end" x="96.2" y="8.399999999999999" style="font-family: Helvetica; font-size: 24px; fill: rgb(51, 51, 51); fill-opacity: 1; white-space: pre; opacity: 1;" transform="translate(0,341.84)">0.4</text></g><g class="ytick"><text text-anchor="end" x="96.2" y="8.399999999999999" style="font-family: Helvetica; font-size: 24px; fill: rgb(51, 51, 51); fill-opacity: 1; white-space: pre; opacity: 1;" transform="translate(0,304.77)">0.6</text></g><g class="ytick"><text text-anchor="end" x="96.2" y="8.399999999999999" style="font-family: Helvetica; font-size: 24px; fill: rgb(51, 51, 51); fill-opacity: 1; white-space: pre; opacity: 1;" transform="translate(0,267.69)">0.8</text></g><g class="ytick"><text text-anchor="end" x="96.2" y="8.399999999999999" style="font-family: Helvetica; font-size: 24px; fill: rgb(51, 51, 51); fill-opacity: 1; white-space: pre; opacity: 1;" transform="translate(0,230.61)">1</text></g><g class="ytick"><text text-anchor="end" x="96.2" y="8.399999999999999" style="font-family: Helvetica; font-size: 24px; fill: rgb(51, 51, 51); fill-opacity: 1; white-space: pre; opacity: 1;" transform="translate(0,193.53)">1.2</text></g><g class="ytick"><text text-anchor="end" x="96.2" y="8.399999999999999" style="font-family: Helvetica; font-size: 24px; fill: rgb(51, 51, 51); fill-opacity: 1; white-space: pre; opacity: 1;" transform="translate(0,156.46)">1.4</text></g><g class="ytick"><text text-anchor="end" x="96.2" y="8.399999999999999" style="font-family: Helvetica; font-size: 24px; fill: rgb(51, 51, 51); fill-opacity: 1; white-space: pre; opacity: 1;" transform="translate(0,119.38)">1.6</text></g><g class="ytick"><text text-anchor="end" x="96.2" y="8.399999999999999" style="font-family: Helvetica; font-size: 24px; fill: rgb(51, 51, 51); fill-opacity: 1; white-space: pre; opacity: 1;" transform="translate(0,82.3)">1.8</text></g><g class="ytick"><text text-anchor="end" x="96.2" y="8.399999999999999" style="font-family: Helvetica; font-size: 24px; fill: rgb(51, 51, 51); fill-opacity: 1; white-space: pre; opacity: 1;" transform="translate(0,45.22)">2</text></g></g><g class="overaxes-above"/></g></g><g class="polarlayer"/><g class="smithlayer"/><g class="ternarylayer"/><g class="geolayer"/><g class="funnelarealayer"/><g class="pielayer"/><g class="iciclelayer"/><g class="treemaplayer"/><g class="sunburstlayer"/><g class="glimages"/><defs id="topdefs-337d3f"><g class="clips"/><clipPath id="legend337d3f"><rect width="471" height="42" x="0" y="0"/></clipPath></defs><g class="layer-above"><g class="imagelayer"/><g class="shapelayer"/></g><g class="infolayer"><g class="legend" pointer-events="all" transform="translate(226.4,4.539999999999985)"><rect class="bg" shape-rendering="crispEdges" width="471" height="42" x="0" y="0" style="stroke: rgb(68, 68, 68); stroke-opacity: 1; fill: rgb(0, 0, 0); fill-opacity: 0; stroke-width: 0px;"/><g class="scrollbox" transform="" clip-path="url(#legend337d3f)"><g class="groups"><g class="traces" transform="translate(0,20.8)" style="opacity: 1;"><text class="legendtext" text-anchor="start" x="40" y="8.58" style="font-family: Helvetica; font-size: 22px; fill: rgb(51, 51, 51); fill-opacity: 1; white-space: pre;">ΔHF</text><g class="layers" style="opacity: 1;"><g class="legendfill"/><g class="legendlines"/><g class="legendsymbols"><g class="legendpoints"><path class="legendundefined" d="M6,6H-6V-6H6Z" transform="translate(20,0)" style="stroke-width: 0.5px; fill: rgb(178, 223, 138); fill-opacity: 1; stroke: rgb(229, 236, 246); stroke-opacity: 1;"/></g></g></g><rect class="legendtoggle" x="0" y="-15.8" width="87.71875" height="31.6" style="fill: rgb(0, 0, 0); fill-opacity: 0;"/></g><g class="traces" transform="translate(90.21875,20.8)" style="opacity: 1;"><text class="legendtext" text-anchor="start" x="40" y="8.58" style="font-family: Helvetica; font-size: 22px; fill: rgb(51, 51, 51); fill-opacity: 1; white-space: pre;">ΔMP2</text><g class="layers" style="opacity: 1;"><g class="legendfill"/><g class="legendlines"/><g class="legendsymbols"><g class="legendpoints"><path class="legendundefined" d="M6,6H-6V-6H6Z" transform="translate(20,0)" style="stroke-width: 0.5px; fill: rgb(224, 170, 255); fill-opacity: 1; stroke: rgb(229, 236, 246); stroke-opacity: 1;"/></g></g></g><rect class="legendtoggle" x="0" y="-15.8" width="103.625" height="31.6" style="fill: rgb(0, 0, 0); fill-opacity: 0;"/></g><g class="traces" transform="translate(196.34375,20.8)" style="opacity: 1;"><text class="legendtext" text-anchor="start" x="40" y="8.58" style="font-family: Helvetica; font-size: 22px; fill: rgb(51, 51, 51); fill-opacity: 1; white-space: pre;">ΔCCSD</text><g class="layers" style="opacity: 1;"><g class="legendfill"/><g class="legendlines"/><g class="legendsymbols"><g class="legendpoints"><path class="legendundefined" d="M6,6H-6V-6H6Z" transform="translate(20,0)" style="stroke-width: 0.5px; fill: rgb(72, 202, 228); fill-opacity: 1; stroke: rgb(229, 236, 246); stroke-opacity: 1;"/></g></g></g><rect class="legendtoggle" x="0" y="-15.8" width="120.734375" height="31.6" style="fill: rgb(0, 0, 0); fill-opacity: 0;"/></g><g class="traces" transform="translate(319.578125,20.8)" style="opacity: 1;"><text class="legendtext" text-anchor="start" x="40" y="8.58" style="font-family: Helvetica; font-size: 22px; fill: rgb(51, 51, 51); fill-opacity: 1; white-space: pre;">ΔCCSD(T)</text><g class="layers" style="opacity: 1;"><g class="legendfill"/><g class="legendlines"/><g class="legendsymbols"><g class="legendpoints"><path class="legendundefined" d="M6,6H-6V-6H6Z" transform="translate(20,0)" style="stroke-width: 0.5px; fill: rgb(0, 119, 182); fill-opacity: 1; stroke: rgb(229, 236, 246); stroke-opacity: 1;"/></g></g></g><rect class="legendtoggle" x="0" y="-15.8" width="148.828125" height="31.6" style="fill: rgb(0, 0, 0); fill-opacity: 0;"/></g></g></g><rect class="scrollbar" rx="20" ry="3" width="0" height="0" x="0" y="0" style="fill: rgb(128, 139, 164); fill-opacity: 1;"/></g><g class="g-gtitle"/><g class="g-xtitle" transform="translate(0,-4.612500000000011)"><text class="xtitle" x="404" y="488.6125" text-anchor="middle" style="font-family: Helvetica; font-size: 24px; fill: rgb(51, 51, 51); opacity: 1; font-weight: normal; white-space: pre;">Basis Set</text></g><g class="g-ytitle" transform="translate(21.171875,0)"><text class="ytitle" transform="rotate(-90,0.828125,213)" x="0.828125" y="213" text-anchor="middle" style="font-family: Helvetica; font-size: 24px; fill: rgb(51, 51, 51); opacity: 1; font-weight: normal; white-space: pre;"><tspan class="line" dy="0em" x="0.828125" y="213">MAE compared with</tspan><tspan class="line" dy="1.3em" x="0.828125" y="213">experimental CEBEs (eV)</tspan></text></g></g></svg>