<svg class="main-svg" xmlns="http://www.w3.org/2000/svg" xmlns:xlink="http://www.w3.org/1999/xlink" width="700" height="500" style="" viewBox="0 0 700 500"><rect x="0" y="0" width="700" height="500" style="fill: rgb(255, 255, 255); fill-opacity: 1;"/><defs id="defs-313563"><g class="clips"><clipPath id="clip313563xyplot" class="plotclip"><rect width="284.115" height="177.1"/></clipPath><clipPath id="clip313563x2y2plot" class="plotclip"><rect width="284.115" height="177.1"/></clipPath><clipPath id="clip313563x3y3plot" class="plotclip"><rect width="284.115" height="177.1"/></clipPath><clipPath id="clip313563x4y4plot" class="plotclip"><rect width="284.115" height="177.1"/></clipPath><clipPath class="axesclip" id="clip313563x"><rect x="69" y="0" width="284.115" height="500"/></clipPath><clipPath class="axesclip" id="clip313563y"><rect x="0" y="30" width="700" height="177.1"/></clipPath><clipPath class="axesclip" id="clip313563xy"><rect x="69" y="30" width="284.115" height="177.1"/></clipPath><clipPath class="axesclip" id="clip313563y2"><rect x="0" y="30" width="700" height="177.1"/></clipPath><clipPath class="axesclip" id="clip313563xy2"><rect x="69" y="30" width="284.115" height="177.1"/></clipPath><clipPath class="axesclip" id="clip313563y3"><rect x="0" y="237.9" width="700" height="177.1"/></clipPath><clipPath class="axesclip" id="clip313563xy3"><rect x="69" y="237.9" width="284.115" height="177.1"/></clipPath><clipPath class="axesclip" id="clip313563y4"><rect x="0" y="237.9" width="700" height="177.1"/></clipPath><clipPath class="axesclip" id="clip313563xy4"><rect x="69" y="237.9" width="284.115" height="177.1"/></clipPath><clipPath class="axesclip" id="clip313563x2"><rect x="395.88499999999993" y="0" width="284.115" height="500"/></clipPath><clipPath class="axesclip" id="clip313563x2y"><rect x="395.88499999999993" y="30" width="284.115" height="177.1"/></clipPath><clipPath class="axesclip" id="clip313563x2y2"><rect x="395.88499999999993" y="30" width="284.115" height="177.1"/></clipPath><clipPath class="axesclip" id="clip313563x2y3"><rect x="395.88499999999993" y="237.9" width="284.115" height="177.1"/></clipPath><clipPath class="axesclip" id="clip313563x2y4"><rect x="395.88499999999993" y="237.9" width="284.115" height="177.1"/></clipPath><clipPath class="axesclip" id="clip313563x3"><rect x="69" y="0" width="284.115" height="500"/></clipPath><clipPath class="axesclip" id="clip313563x3y"><rect x="69" y="30" width="284.115" height="177.1"/></clipPath><clipPath class="axesclip" id="clip313563x3y2"><rect x="69" y="30" width="284.115" height="177.1"/></clipPath><clipPath class="axesclip" id="clip313563x3y3"><rect x="69" y="237.9" width="284.115" height="177.1"/></clipPath><clipPath class="axesclip" id="clip313563x3y4"><rect x="69" y="237.9" width="284.115" height="177.1"/></clipPath><clipPath class="axesclip" id="clip313563x4"><rect x="395.88499999999993" y="0" width="284.115" height="500"/></clipPath><clipPath class="axesclip" id="clip313563x4y"><rect x="395.88499999999993" y="30" width="284.115" height="177.1"/></clipPath><clipPath class="axesclip" id="clip313563x4y2"><rect x="395.88499999999993" y="30" width="284.115" height="177.1"/></clipPath><clipPath class="axesclip" id="clip313563x4y3"><rect x="395.88499999999993" y="237.9" width="284.115" height="177.1"/></clipPath><clipPath class="axesclip" id="clip313563x4y4"><rect x="395.88499999999993" y="237.9" width="284.115" height="177.1"/></clipPath></g><g class="gradients"/><g class="patterns"/></defs><g class="bglayer"/><g class="layer-below"><g class="imagelayer"/><g class="shapelayer"/></g><g class="cartesianlayer"><g class="subplot xy"><g class="layer-subplot"><g class="shapelayer"/><g class="imagelayer"/></g><g class="minor-gridlayer"><g class="x"/><g class="y"/></g><g class="gridlayer"><g class="x"/><g class="y"><path class="ygrid crisp" transform="translate(0,179.85)" d="M69,0h284.115" style="stroke: rgb(236, 236, 236); stroke-opacity: 1; stroke-width: 1px;"/><path class="ygrid crisp" transform="translate(0,152.61)" d="M69,0h284.115" style="stroke: rgb(236, 236, 236); stroke-opacity: 1; stroke-width: 1px;"/><path class="ygrid crisp" transform="translate(0,125.36)" d="M69,0h284.115" style="stroke: rgb(236, 236, 236); stroke-opacity: 1; stroke-width: 1px;"/><path class="ygrid crisp" transform="translate(0,98.12)" d="M69,0h284.115" style="stroke: rgb(236, 236, 236); stroke-opacity: 1; stroke-width: 1px;"/><path class="ygrid crisp" transform="translate(0,70.87)" d="M69,0h284.115" style="stroke: rgb(236, 236, 236); stroke-opacity: 1; stroke-width: 1px;"/><path class="ygrid crisp" transform="translate(0,43.62)" d="M69,0h284.115" style="stroke: rgb(236, 236, 236); stroke-opacity: 1; stroke-width: 1px;"/></g></g><g class="zerolinelayer"><path class="yzl zl crisp" transform="translate(0,207.1)" d="M69,0h284.115" style="stroke: rgb(51, 51, 51); stroke-opacity: 1; stroke-width: 2px;"/></g><path class="xlines-below"/><path class="ylines-below"/><g class="overlines-below"/><g class="xaxislayer-below"/><g class="yaxislayer-below"/><g class="overaxes-below"/><g class="plot" transform="translate(69,30)" clip-path="url(#clip313563xyplot)"><g class="barlayer mlayer"><g class="trace bars" style="opacity: 1;"><g class="points"><g class="point"><path d="M4.74,177.1V151.03H42.62V177.1Z" style="vector-effect: none; opacity: 1; stroke-width: 0.5px; fill: rgb(157, 78, 221); fill-opacity: 1; stroke: rgb(229, 236, 246); stroke-opacity: 1;"/></g><g class="point"><path d="M52.09,177.1V145.67H89.97V177.1Z" style="vector-effect: none; opacity: 1; stroke-width: 0.5px; fill: rgb(157, 78, 221); fill-opacity: 1; stroke: rgb(229, 236, 246); stroke-opacity: 1;"/></g><g class="point"><path d="M99.44,177.1V117.44H137.32V177.1Z" style="vector-effect: none; opacity: 1; stroke-width: 0.5px; fill: rgb(157, 78, 221); fill-opacity: 1; stroke: rgb(229, 236, 246); stroke-opacity: 1;"/></g><g class="point"><path d="M146.79,177.1V112.33H184.67V177.1Z" style="vector-effect: none; opacity: 1; stroke-width: 0.5px; fill: rgb(157, 78, 221); fill-opacity: 1; stroke: rgb(229, 236, 246); stroke-opacity: 1;"/></g><g class="point"><path d="M194.15,177.1V105.08H232.03V177.1Z" style="vector-effect: none; opacity: 1; stroke-width: 0.5px; fill: rgb(157, 78, 221); fill-opacity: 1; stroke: rgb(229, 236, 246); stroke-opacity: 1;"/></g><g class="point"><path d="M241.5,177.1V106.38H279.38V177.1Z" style="vector-effect: none; opacity: 1; stroke-width: 0.5px; fill: rgb(157, 78, 221); fill-opacity: 1; stroke: rgb(229, 236, 246); stroke-opacity: 1;"/></g></g><g class="errorbar" style="opacity: 1;"><path class="yerror" d="M19.68,130.44h8m-4,0V171.61m-4,0h8" style="vector-effect: none; stroke-width: 2px; stroke: rgb(51, 51, 51); stroke-opacity: 1;"/></g><g class="errorbar" style="opacity: 1;"><path class="yerror" d="M67.03,120.99h8m-4,0V170.35m-4,0h8" style="vector-effect: none; stroke-width: 2px; stroke: rgb(51, 51, 51); stroke-opacity: 1;"/></g><g class="errorbar" style="opacity: 1;"><path class="yerror" d="M114.38,83.32h8m-4,0V151.55m-4,0h8" style="vector-effect: none; stroke-width: 2px; stroke: rgb(51, 51, 51); stroke-opacity: 1;"/></g><g class="errorbar" style="opacity: 1;"><path class="yerror" d="M161.73,77.01h8m-4,0V147.66m-4,0h8" style="vector-effect: none; stroke-width: 2px; stroke: rgb(51, 51, 51); stroke-opacity: 1;"/></g><g class="errorbar" style="opacity: 1;"><path class="yerror" d="M209.09,68.77h8m-4,0V141.4m-4,0h8" style="vector-effect: none; stroke-width: 2px; stroke: rgb(51, 51, 51); stroke-opacity: 1;"/></g><g class="errorbar" style="opacity: 1;"><path class="yerror" d="M256.44,71.06h8m-4,0V141.7m-4,0h8" style="vector-effect: none; stroke-width: 2px; stroke: rgb(51, 51, 51); stroke-opacity: 1;"/></g></g></g></g><g class="overplot"/><path class="xlines-above crisp" d="M67,208.1H355.115M67,29H355.115" style="fill: none; stroke-width: 2px; stroke: rgb(51, 51, 51); stroke-opacity: 1;"/><path class="ylines-above crisp" d="M68,30V207.1M354.115,30V207.1" style="fill: none; stroke-width: 2px; stroke: rgb(51, 51, 51); stroke-opacity: 1;"/><g class="overlines-above"/><g class="xaxislayer-above"/><g class="yaxislayer-above"><path class="ytick ticks crisp" d="M67,0h-5" transform="translate(0,207.1)" style="stroke: rgb(68, 68, 68); stroke-opacity: 1; stroke-width: 1px;"/><path class="ytick ticks crisp" d="M67,0h-5" transform="translate(0,179.85)" style="stroke: rgb(68, 68, 68); stroke-opacity: 1; stroke-width: 1px;"/><path class="ytick ticks crisp" d="M67,0h-5" transform="translate(0,152.61)" style="stroke: rgb(68, 68, 68); stroke-opacity: 1; stroke-width: 1px;"/><path class="ytick ticks crisp" d="M67,0h-5" transform="translate(0,125.36)" style="stroke: rgb(68, 68, 68); stroke-opacity: 1; stroke-width: 1px;"/><path class="ytick ticks crisp" d="M67,0h-5" transform="translate(0,98.12)" style="stroke: rgb(68, 68, 68); stroke-opacity: 1; stroke-width: 1px;"/><path class="ytick ticks crisp" d="M67,0h-5" transform="translate(0,70.87)" style="stroke: rgb(68, 68, 68); stroke-opacity: 1; stroke-width: 1px;"/><path class="ytick ticks crisp" d="M67,0h-5" transform="translate(0,43.62)" style="stroke: rgb(68, 68, 68); stroke-opacity: 1; stroke-width: 1px;"/><g class="ytick"><text text-anchor="end" x="59.6" y="4.199999999999999" transform="translate(0,207.1)" style="font-family: Helvetica; font-size: 12px; fill: rgb(51, 51, 51); fill-opacity: 1; white-space: pre; opacity: 1;">0</text></g><g class="ytick"><text text-anchor="end" x="59.6" y="4.199999999999999" style="font-family: Helvetica; font-size: 12px; fill: rgb(51, 51, 51); fill-opacity: 1; white-space: pre; opacity: 1;" transform="translate(0,179.85)">0.1</text></g><g class="ytick"><text text-anchor="end" x="59.6" y="4.199999999999999" style="font-family: Helvetica; font-size: 12px; fill: rgb(51, 51, 51); fill-opacity: 1; white-space: pre; opacity: 1;" transform="translate(0,152.61)">0.2</text></g><g class="ytick"><text text-anchor="end" x="59.6" y="4.199999999999999" style="font-family: Helvetica; font-size: 12px; fill: rgb(51, 51, 51); fill-opacity: 1; white-space: pre; opacity: 1;" transform="translate(0,125.36)">0.3</text></g><g class="ytick"><text text-anchor="end" x="59.6" y="4.199999999999999" style="font-family: Helvetica; font-size: 12px; fill: rgb(51, 51, 51); fill-opacity: 1; white-space: pre; opacity: 1;" transform="translate(0,98.12)">0.4</text></g><g class="ytick"><text text-anchor="end" x="59.6" y="4.199999999999999" style="font-family: Helvetica; font-size: 12px; fill: rgb(51, 51, 51); fill-opacity: 1; white-space: pre; opacity: 1;" transform="translate(0,70.87)">0.5</text></g><g class="ytick"><text text-anchor="end" x="59.6" y="4.199999999999999" style="font-family: Helvetica; font-size: 12px; fill: rgb(51, 51, 51); fill-opacity: 1; white-space: pre; opacity: 1;" transform="translate(0,43.62)">0.6</text></g></g><g class="overaxes-above"/></g><g class="subplot x2y2"><g class="layer-subplot"><g class="shapelayer"/><g class="imagelayer"/></g><g class="minor-gridlayer"><g class="x2"/><g class="y2"/></g><g class="gridlayer"><g class="x2"/><g class="y2"><path class="y2grid crisp" transform="translate(0,179.85)" d="M395.88499999999993,0h284.115" style="stroke: rgb(236, 236, 236); stroke-opacity: 1; stroke-width: 1px;"/><path class="y2grid crisp" transform="translate(0,152.61)" d="M395.88499999999993,0h284.115" style="stroke: rgb(236, 236, 236); stroke-opacity: 1; stroke-width: 1px;"/><path class="y2grid crisp" transform="translate(0,125.36)" d="M395.88499999999993,0h284.115" style="stroke: rgb(236, 236, 236); stroke-opacity: 1; stroke-width: 1px;"/><path class="y2grid crisp" transform="translate(0,98.12)" d="M395.88499999999993,0h284.115" style="stroke: rgb(236, 236, 236); stroke-opacity: 1; stroke-width: 1px;"/><path class="y2grid crisp" transform="translate(0,70.87)" d="M395.88499999999993,0h284.115" style="stroke: rgb(236, 236, 236); stroke-opacity: 1; stroke-width: 1px;"/><path class="y2grid crisp" transform="translate(0,43.62)" d="M395.88499999999993,0h284.115" style="stroke: rgb(236, 236, 236); stroke-opacity: 1; stroke-width: 1px;"/></g></g><g class="zerolinelayer"><path class="y2zl zl crisp" transform="translate(0,207.1)" d="M395.88499999999993,0h284.115" style="stroke: rgb(51, 51, 51); stroke-opacity: 1; stroke-width: 2px;"/></g><path class="xlines-below"/><path class="ylines-below"/><g class="overlines-below"/><g class="xaxislayer-below"/><g class="yaxislayer-below"/><g class="overaxes-below"/><g class="plot" transform="translate(395.88499999999993,30)" clip-path="url(#clip313563x2y2plot)"><g class="barlayer mlayer"><g class="trace bars" style="opacity: 1;"><g class="points"><g class="point"><path d="M4.74,177.1V119.78H42.62V177.1Z" style="vector-effect: none; opacity: 1; stroke-width: 0.5px; fill: rgb(157, 78, 221); fill-opacity: 1; stroke: rgb(229, 236, 246); stroke-opacity: 1;"/></g><g class="point"><path d="M52.09,177.1V138.92H89.97V177.1Z" style="vector-effect: none; opacity: 1; stroke-width: 0.5px; fill: rgb(157, 78, 221); fill-opacity: 1; stroke: rgb(229, 236, 246); stroke-opacity: 1;"/></g><g class="point"><path d="M99.44,177.1V137.61H137.32V177.1Z" style="vector-effect: none; opacity: 1; stroke-width: 0.5px; fill: rgb(157, 78, 221); fill-opacity: 1; stroke: rgb(229, 236, 246); stroke-opacity: 1;"/></g><g class="point"><path d="M146.79,177.1V135.48H184.67V177.1Z" style="vector-effect: none; opacity: 1; stroke-width: 0.5px; fill: rgb(157, 78, 221); fill-opacity: 1; stroke: rgb(229, 236, 246); stroke-opacity: 1;"/></g><g class="point"><path d="M194.15,177.1V131.96H232.03V177.1Z" style="vector-effect: none; opacity: 1; stroke-width: 0.5px; fill: rgb(157, 78, 221); fill-opacity: 1; stroke: rgb(229, 236, 246); stroke-opacity: 1;"/></g><g class="point"><path d="M241.5,177.1V130.35H279.38V177.1Z" style="vector-effect: none; opacity: 1; stroke-width: 0.5px; fill: rgb(157, 78, 221); fill-opacity: 1; stroke: rgb(229, 236, 246); stroke-opacity: 1;"/></g></g><g class="errorbar" style="opacity: 1;"><path class="yerror" d="M19.68,73.45h8m-4,0V166.12m-4,0h8" style="vector-effect: none; stroke-width: 2px; stroke: rgb(51, 51, 51); stroke-opacity: 1;"/></g><g class="errorbar" style="opacity: 1;"><path class="yerror" d="M67.03,98.61h8m-4,0V179.23m-4,0h8" style="vector-effect: none; stroke-width: 2px; stroke: rgb(51, 51, 51); stroke-opacity: 1;"/></g><g class="errorbar" style="opacity: 1;"><path class="yerror" d="M114.38,106.48h8m-4,0V168.75m-4,0h8" style="vector-effect: none; stroke-width: 2px; stroke: rgb(51, 51, 51); stroke-opacity: 1;"/></g><g class="errorbar" style="opacity: 1;"><path class="yerror" d="M161.73,104.55h8m-4,0V166.42m-4,0h8" style="vector-effect: none; stroke-width: 2px; stroke: rgb(51, 51, 51); stroke-opacity: 1;"/></g><g class="errorbar" style="opacity: 1;"><path class="yerror" d="M209.09,101.74h8m-4,0V162.18m-4,0h8" style="vector-effect: none; stroke-width: 2px; stroke: rgb(51, 51, 51); stroke-opacity: 1;"/></g><g class="errorbar" style="opacity: 1;"><path class="yerror" d="M256.44,100.29h8m-4,0V160.41m-4,0h8" style="vector-effect: none; stroke-width: 2px; stroke: rgb(51, 51, 51); stroke-opacity: 1;"/></g></g></g></g><g class="overplot"/><path class="xlines-above crisp" d="M393.88499999999993,208.1H682M393.88499999999993,29H682" style="fill: none; stroke-width: 2px; stroke: rgb(51, 51, 51); stroke-opacity: 1;"/><path class="ylines-above crisp" d="M394.88499999999993,30V207.1M681,30V207.1" style="fill: none; stroke-width: 2px; stroke: rgb(51, 51, 51); stroke-opacity: 1;"/><g class="overlines-above"/><g class="xaxislayer-above"/><g class="yaxislayer-above"><path class="y2tick ticks crisp" d="M393.88499999999993,0h-5" transform="translate(0,207.1)" style="stroke: rgb(68, 68, 68); stroke-opacity: 1; stroke-width: 1px;"/><path class="y2tick ticks crisp" d="M393.88499999999993,0h-5" transform="translate(0,179.85)" style="stroke: rgb(68, 68, 68); stroke-opacity: 1; stroke-width: 1px;"/><path class="y2tick ticks crisp" d="M393.88499999999993,0h-5" transform="translate(0,152.61)" style="stroke: rgb(68, 68, 68); stroke-opacity: 1; stroke-width: 1px;"/><path class="y2tick ticks crisp" d="M393.88499999999993,0h-5" transform="translate(0,125.36)" style="stroke: rgb(68, 68, 68); stroke-opacity: 1; stroke-width: 1px;"/><path class="y2tick ticks crisp" d="M393.88499999999993,0h-5" transform="translate(0,98.12)" style="stroke: rgb(68, 68, 68); stroke-opacity: 1; stroke-width: 1px;"/><path class="y2tick ticks crisp" d="M393.88499999999993,0h-5" transform="translate(0,70.87)" style="stroke: rgb(68, 68, 68); stroke-opacity: 1; stroke-width: 1px;"/><path class="y2tick ticks crisp" d="M393.88499999999993,0h-5" transform="translate(0,43.62)" style="stroke: rgb(68, 68, 68); stroke-opacity: 1; stroke-width: 1px;"/><g class="y2tick"><text text-anchor="end" x="386.48499999999996" y="4.199999999999999" transform="translate(0,207.1)" style="font-family: Helvetica; font-size: 12px; fill: rgb(51, 51, 51); fill-opacity: 1; white-space: pre; opacity: 1;">0</text></g><g class="y2tick"><text text-anchor="end" x="386.48499999999996" y="4.199999999999999" style="font-family: Helvetica; font-size: 12px; fill: rgb(51, 51, 51); fill-opacity: 1; white-space: pre; opacity: 1;" transform="translate(0,179.85)">0.1</text></g><g class="y2tick"><text text-anchor="end" x="386.48499999999996" y="4.199999999999999" style="font-family: Helvetica; font-size: 12px; fill: rgb(51, 51, 51); fill-opacity: 1; white-space: pre; opacity: 1;" transform="translate(0,152.61)">0.2</text></g><g class="y2tick"><text text-anchor="end" x="386.48499999999996" y="4.199999999999999" style="font-family: Helvetica; font-size: 12px; fill: rgb(51, 51, 51); fill-opacity: 1; white-space: pre; opacity: 1;" transform="translate(0,125.36)">0.3</text></g><g class="y2tick"><text text-anchor="end" x="386.48499999999996" y="4.199999999999999" style="font-family: Helvetica; font-size: 12px; fill: rgb(51, 51, 51); fill-opacity: 1; white-space: pre; opacity: 1;" transform="translate(0,98.12)">0.4</text></g><g class="y2tick"><text text-anchor="end" x="386.48499999999996" y="4.199999999999999" style="font-family: Helvetica; font-size: 12px; fill: rgb(51, 51, 51); fill-opacity: 1; white-space: pre; opacity: 1;" transform="translate(0,70.87)">0.5</text></g><g class="y2tick"><text text-anchor="end" x="386.48499999999996" y="4.199999999999999" style="font-family: Helvetica; font-size: 12px; fill: rgb(51, 51, 51); fill-opacity: 1; white-space: pre; opacity: 1;" transform="translate(0,43.62)">0.6</text></g></g><g class="overaxes-above"/></g><g class="subplot x3y3"><g class="layer-subplot"><g class="shapelayer"/><g class="imagelayer"/></g><g class="minor-gridlayer"><g class="x3"/><g class="y3"/></g><g class="gridlayer"><g class="x3"><path class="x3grid crisp" transform="translate(92.68,0)" d="M0,237.9v177.1" style="stroke: rgb(255, 255, 255); stroke-opacity: 1; stroke-width: 1px;"/><path class="x3grid crisp" transform="translate(140.03,0)" d="M0,237.9v177.1" style="stroke: rgb(255, 255, 255); stroke-opacity: 1; stroke-width: 1px;"/><path class="x3grid crisp" transform="translate(187.38,0)" d="M0,237.9v177.1" style="stroke: rgb(255, 255, 255); stroke-opacity: 1; stroke-width: 1px;"/><path class="x3grid crisp" transform="translate(234.73,0)" d="M0,237.9v177.1" style="stroke: rgb(255, 255, 255); stroke-opacity: 1; stroke-width: 1px;"/><path class="x3grid crisp" transform="translate(282.09000000000003,0)" d="M0,237.9v177.1" style="stroke: rgb(255, 255, 255); stroke-opacity: 1; stroke-width: 1px;"/><path class="x3grid crisp" transform="translate(329.44,0)" d="M0,237.9v177.1" style="stroke: rgb(255, 255, 255); stroke-opacity: 1; stroke-width: 1px;"/></g><g class="y3"><path class="y3grid crisp" transform="translate(0,387.75)" d="M69,0h284.115" style="stroke: rgb(236, 236, 236); stroke-opacity: 1; stroke-width: 1px;"/><path class="y3grid crisp" transform="translate(0,360.51)" d="M69,0h284.115" style="stroke: rgb(236, 236, 236); stroke-opacity: 1; stroke-width: 1px;"/><path class="y3grid crisp" transform="translate(0,333.26)" d="M69,0h284.115" style="stroke: rgb(236, 236, 236); stroke-opacity: 1; stroke-width: 1px;"/><path class="y3grid crisp" transform="translate(0,306.02)" d="M69,0h284.115" style="stroke: rgb(236, 236, 236); stroke-opacity: 1; stroke-width: 1px;"/><path class="y3grid crisp" transform="translate(0,278.77)" d="M69,0h284.115" style="stroke: rgb(236, 236, 236); stroke-opacity: 1; stroke-width: 1px;"/><path class="y3grid crisp" transform="translate(0,251.52)" d="M69,0h284.115" style="stroke: rgb(236, 236, 236); stroke-opacity: 1; stroke-width: 1px;"/></g></g><g class="zerolinelayer"><path class="y3zl zl crisp" transform="translate(0,415)" d="M69,0h284.115" style="stroke: rgb(51, 51, 51); stroke-opacity: 1; stroke-width: 2px;"/></g><path class="xlines-below"/><path class="ylines-below"/><g class="overlines-below"/><g class="xaxislayer-below"/><g class="yaxislayer-below"/><g class="overaxes-below"/><g class="plot" transform="translate(69,237.9)" clip-path="url(#clip313563x3y3plot)"><g class="barlayer mlayer"><g class="trace bars" style="opacity: 1;"><g class="points"><g class="point"><path d="M4.74,177.1V81.92H42.62V177.1Z" style="vector-effect: none; opacity: 1; stroke-width: 0.5px; fill: rgb(157, 78, 221); fill-opacity: 1; stroke: rgb(229, 236, 246); stroke-opacity: 1;"/></g><g class="point"><path d="M52.09,177.1V108.9H89.97V177.1Z" style="vector-effect: none; opacity: 1; stroke-width: 0.5px; fill: rgb(157, 78, 221); fill-opacity: 1; stroke: rgb(229, 236, 246); stroke-opacity: 1;"/></g><g class="point"><path d="M99.44,177.1V141.4H137.32V177.1Z" style="vector-effect: none; opacity: 1; stroke-width: 0.5px; fill: rgb(157, 78, 221); fill-opacity: 1; stroke: rgb(229, 236, 246); stroke-opacity: 1;"/></g><g class="point"><path d="M146.79,177.1V141.23H184.67V177.1Z" style="vector-effect: none; opacity: 1; stroke-width: 0.5px; fill: rgb(157, 78, 221); fill-opacity: 1; stroke: rgb(229, 236, 246); stroke-opacity: 1;"/></g><g class="point"><path d="M194.15,177.1V140.97H232.03V177.1Z" style="vector-effect: none; opacity: 1; stroke-width: 0.5px; fill: rgb(157, 78, 221); fill-opacity: 1; stroke: rgb(229, 236, 246); stroke-opacity: 1;"/></g><g class="point"><path d="M241.5,177.1V140.44H279.38V177.1Z" style="vector-effect: none; opacity: 1; stroke-width: 0.5px; fill: rgb(157, 78, 221); fill-opacity: 1; stroke: rgb(229, 236, 246); stroke-opacity: 1;"/></g></g><g class="errorbar" style="opacity: 1;"><path class="yerror" d="M19.68,28.68h8m-4,0V135.17m-4,0h8" style="vector-effect: none; stroke-width: 2px; stroke: rgb(51, 51, 51); stroke-opacity: 1;"/></g><g class="errorbar" style="opacity: 1;"><path class="yerror" d="M67.03,60.05h8m-4,0V157.75m-4,0h8" style="vector-effect: none; stroke-width: 2px; stroke: rgb(51, 51, 51); stroke-opacity: 1;"/></g><g class="errorbar" style="opacity: 1;"><path class="yerror" d="M114.38,104.71h8m-4,0V178.1m-4,0h8" style="vector-effect: none; stroke-width: 2px; stroke: rgb(51, 51, 51); stroke-opacity: 1;"/></g><g class="errorbar" style="opacity: 1;"><path class="yerror" d="M161.73,104.82h8m-4,0V177.63m-4,0h8" style="vector-effect: none; stroke-width: 2px; stroke: rgb(51, 51, 51); stroke-opacity: 1;"/></g><g class="errorbar" style="opacity: 1;"><path class="yerror" d="M209.09,104.57h8m-4,0V177.37m-4,0h8" style="vector-effect: none; stroke-width: 2px; stroke: rgb(51, 51, 51); stroke-opacity: 1;"/></g><g class="errorbar" style="opacity: 1;"><path class="yerror" d="M256.44,103.88h8m-4,0V177.01m-4,0h8" style="vector-effect: none; stroke-width: 2px; stroke: rgb(51, 51, 51); stroke-opacity: 1;"/></g></g></g></g><g class="overplot"/><path class="xlines-above crisp" d="M67,416H355.115M67,236.9H355.115" style="fill: none; stroke-width: 2px; stroke: rgb(51, 51, 51); stroke-opacity: 1;"/><path class="ylines-above crisp" d="M68,237.9V415M354.115,237.9V415" style="fill: none; stroke-width: 2px; stroke: rgb(51, 51, 51); stroke-opacity: 1;"/><g class="overlines-above"/><g class="xaxislayer-above"><path class="x3tick ticks crisp" d="M0,417v5" transform="translate(92.68,0)" style="stroke: rgb(68, 68, 68); stroke-opacity: 1; stroke-width: 1px;"/><path class="x3tick ticks crisp" d="M0,417v5" transform="translate(140.03,0)" style="stroke: rgb(68, 68, 68); stroke-opacity: 1; stroke-width: 1px;"/><path class="x3tick ticks crisp" d="M0,417v5" transform="translate(187.38,0)" style="stroke: rgb(68, 68, 68); stroke-opacity: 1; stroke-width: 1px;"/><path class="x3tick ticks crisp" d="M0,417v5" transform="translate(234.73,0)" style="stroke: rgb(68, 68, 68); stroke-opacity: 1; stroke-width: 1px;"/><path class="x3tick ticks crisp" d="M0,417v5" transform="translate(282.09000000000003,0)" style="stroke: rgb(68, 68, 68); stroke-opacity: 1; stroke-width: 1px;"/><path class="x3tick ticks crisp" d="M0,417v5" transform="translate(329.44,0)" style="stroke: rgb(68, 68, 68); stroke-opacity: 1; stroke-width: 1px;"/><g class="x3tick"><text text-anchor="start" x="0" y="436.4" transform="translate(92.68,0) rotate(30,0,430.4)" style="font-family: Helvetica; font-size: 12px; fill: rgb(51, 51, 51); fill-opacity: 1; white-space: pre; opacity: 1;">MP2[D T Q]</text></g><g class="x3tick"><text text-anchor="start" x="0" y="436.4" transform="translate(140.03,0) rotate(30,0,430.4)" style="font-family: Helvetica; font-size: 12px; fill: rgb(51, 51, 51); fill-opacity: 1; white-space: pre; opacity: 1;">MP2[D T Q 5]</text></g><g class="x3tick"><text text-anchor="start" x="0" y="436.4" transform="translate(187.38,0) rotate(30,0,430.4)" style="font-family: Helvetica; font-size: 12px; fill: rgb(51, 51, 51); fill-opacity: 1; white-space: pre; opacity: 1;">MP2[T Q]</text></g><g class="x3tick"><text text-anchor="start" x="0" y="436.4" transform="translate(234.73,0) rotate(30,0,430.4)" style="font-family: Helvetica; font-size: 12px; fill: rgb(51, 51, 51); fill-opacity: 1; white-space: pre; opacity: 1;">MP2[T Q 5]</text></g><g class="x3tick"><text text-anchor="start" x="0" y="436.4" transform="translate(282.09000000000003,0) rotate(30,0,430.4)" style="font-family: Helvetica; font-size: 12px; fill: rgb(51, 51, 51); fill-opacity: 1; white-space: pre; opacity: 1;">MP2[Q 5]</text></g><g class="x3tick"><text text-anchor="start" x="0" y="436.4" transform="translate(329.44,0) rotate(30,0,430.4)" style="font-family: Helvetica; font-size: 12px; fill: rgb(51, 51, 51); fill-opacity: 1; white-space: pre; opacity: 1;">MP2[5]</text></g></g><g class="yaxislayer-above"><path class="y3tick ticks crisp" d="M67,0h-5" transform="translate(0,415)" style="stroke: rgb(68, 68, 68); stroke-opacity: 1; stroke-width: 1px;"/><path class="y3tick ticks crisp" d="M67,0h-5" transform="translate(0,387.75)" style="stroke: rgb(68, 68, 68); stroke-opacity: 1; stroke-width: 1px;"/><path class="y3tick ticks crisp" d="M67,0h-5" transform="translate(0,360.51)" style="stroke: rgb(68, 68, 68); stroke-opacity: 1; stroke-width: 1px;"/><path class="y3tick ticks crisp" d="M67,0h-5" transform="translate(0,333.26)" style="stroke: rgb(68, 68, 68); stroke-opacity: 1; stroke-width: 1px;"/><path class="y3tick ticks crisp" d="M67,0h-5" transform="translate(0,306.02)" style="stroke: rgb(68, 68, 68); stroke-opacity: 1; stroke-width: 1px;"/><path class="y3tick ticks crisp" d="M67,0h-5" transform="translate(0,278.77)" style="stroke: rgb(68, 68, 68); stroke-opacity: 1; stroke-width: 1px;"/><path class="y3tick ticks crisp" d="M67,0h-5" transform="translate(0,251.52)" style="stroke: rgb(68, 68, 68); stroke-opacity: 1; stroke-width: 1px;"/><g class="y3tick"><text text-anchor="end" x="59.6" y="4.199999999999999" transform="translate(0,415)" style="font-family: Helvetica; font-size: 12px; fill: rgb(51, 51, 51); fill-opacity: 1; white-space: pre; opacity: 1;">0</text></g><g class="y3tick"><text text-anchor="end" x="59.6" y="4.199999999999999" style="font-family: Helvetica; font-size: 12px; fill: rgb(51, 51, 51); fill-opacity: 1; white-space: pre; opacity: 1;" transform="translate(0,387.75)">0.1</text></g><g class="y3tick"><text text-anchor="end" x="59.6" y="4.199999999999999" style="font-family: Helvetica; font-size: 12px; fill: rgb(51, 51, 51); fill-opacity: 1; white-space: pre; opacity: 1;" transform="translate(0,360.51)">0.2</text></g><g class="y3tick"><text text-anchor="end" x="59.6" y="4.199999999999999" style="font-family: Helvetica; font-size: 12px; fill: rgb(51, 51, 51); fill-opacity: 1; white-space: pre; opacity: 1;" transform="translate(0,333.26)">0.3</text></g><g class="y3tick"><text text-anchor="end" x="59.6" y="4.199999999999999" style="font-family: Helvetica; font-size: 12px; fill: rgb(51, 51, 51); fill-opacity: 1; white-space: pre; opacity: 1;" transform="translate(0,306.02)">0.4</text></g><g class="y3tick"><text text-anchor="end" x="59.6" y="4.199999999999999" style="font-family: Helvetica; font-size: 12px; fill: rgb(51, 51, 51); fill-opacity: 1; white-space: pre; opacity: 1;" transform="translate(0,278.77)">0.5</text></g><g class="y3tick"><text text-anchor="end" x="59.6" y="4.199999999999999" style="font-family: Helvetica; font-size: 12px; fill: rgb(51, 51, 51); fill-opacity: 1; white-space: pre; opacity: 1;" transform="translate(0,251.52)">0.6</text></g></g><g class="overaxes-above"/></g><g class="subplot x4y4"><g class="layer-subplot"><g class="shapelayer"/><g class="imagelayer"/></g><g class="minor-gridlayer"><g class="x4"/><g class="y4"/></g><g class="gridlayer"><g class="x4"><path class="x4grid crisp" transform="translate(419.56499999999994,0)" d="M0,237.9v177.1" style="stroke: rgb(255, 255, 255); stroke-opacity: 1; stroke-width: 1px;"/><path class="x4grid crisp" transform="translate(466.91499999999996,0)" d="M0,237.9v177.1" style="stroke: rgb(255, 255, 255); stroke-opacity: 1; stroke-width: 1px;"/><path class="x4grid crisp" transform="translate(514.2649999999999,0)" d="M0,237.9v177.1" style="stroke: rgb(255, 255, 255); stroke-opacity: 1; stroke-width: 1px;"/><path class="x4grid crisp" transform="translate(561.6149999999999,0)" d="M0,237.9v177.1" style="stroke: rgb(255, 255, 255); stroke-opacity: 1; stroke-width: 1px;"/><path class="x4grid crisp" transform="translate(608.9749999999999,0)" d="M0,237.9v177.1" style="stroke: rgb(255, 255, 255); stroke-opacity: 1; stroke-width: 1px;"/><path class="x4grid crisp" transform="translate(656.3249999999999,0)" d="M0,237.9v177.1" style="stroke: rgb(255, 255, 255); stroke-opacity: 1; stroke-width: 1px;"/></g><g class="y4"><path class="y4grid crisp" transform="translate(0,387.75)" d="M395.88499999999993,0h284.115" style="stroke: rgb(236, 236, 236); stroke-opacity: 1; stroke-width: 1px;"/><path class="y4grid crisp" transform="translate(0,360.51)" d="M395.88499999999993,0h284.115" style="stroke: rgb(236, 236, 236); stroke-opacity: 1; stroke-width: 1px;"/><path class="y4grid crisp" transform="translate(0,333.26)" d="M395.88499999999993,0h284.115" style="stroke: rgb(236, 236, 236); stroke-opacity: 1; stroke-width: 1px;"/><path class="y4grid crisp" transform="translate(0,306.02)" d="M395.88499999999993,0h284.115" style="stroke: rgb(236, 236, 236); stroke-opacity: 1; stroke-width: 1px;"/><path class="y4grid crisp" transform="translate(0,278.77)" d="M395.88499999999993,0h284.115" style="stroke: rgb(236, 236, 236); stroke-opacity: 1; stroke-width: 1px;"/><path class="y4grid crisp" transform="translate(0,251.52)" d="M395.88499999999993,0h284.115" style="stroke: rgb(236, 236, 236); stroke-opacity: 1; stroke-width: 1px;"/></g></g><g class="zerolinelayer"><path class="y4zl zl crisp" transform="translate(0,415)" d="M395.88499999999993,0h284.115" style="stroke: rgb(51, 51, 51); stroke-opacity: 1; stroke-width: 2px;"/></g><path class="xlines-below"/><path class="ylines-below"/><g class="overlines-below"/><g class="xaxislayer-below"/><g class="yaxislayer-below"/><g class="overaxes-below"/><g class="plot" transform="translate(395.88499999999993,237.9)" clip-path="url(#clip313563x4y4plot)"><g class="barlayer mlayer"><g class="trace bars" style="opacity: 1;"><g class="points"><g class="point"><path d="M4.74,177.1V58.46H42.62V177.1Z" style="vector-effect: none; opacity: 1; stroke-width: 0.5px; fill: rgb(157, 78, 221); fill-opacity: 1; stroke: rgb(229, 236, 246); stroke-opacity: 1;"/></g><g class="point"><path d="M52.09,177.1V92.12H89.97V177.1Z" style="vector-effect: none; opacity: 1; stroke-width: 0.5px; fill: rgb(157, 78, 221); fill-opacity: 1; stroke: rgb(229, 236, 246); stroke-opacity: 1;"/></g><g class="point"><path d="M99.44,177.1V135.27H137.32V177.1Z" style="vector-effect: none; opacity: 1; stroke-width: 0.5px; fill: rgb(157, 78, 221); fill-opacity: 1; stroke: rgb(229, 236, 246); stroke-opacity: 1;"/></g><g class="point"><path d="M146.79,177.1V136.79H184.67V177.1Z" style="vector-effect: none; opacity: 1; stroke-width: 0.5px; fill: rgb(157, 78, 221); fill-opacity: 1; stroke: rgb(229, 236, 246); stroke-opacity: 1;"/></g><g class="point"><path d="M194.15,177.1V138.11H232.03V177.1Z" style="vector-effect: none; opacity: 1; stroke-width: 0.5px; fill: rgb(157, 78, 221); fill-opacity: 1; stroke: rgb(229, 236, 246); stroke-opacity: 1;"/></g><g class="point"><path d="M241.5,177.1V139.28H279.38V177.1Z" style="vector-effect: none; opacity: 1; stroke-width: 0.5px; fill: rgb(157, 78, 221); fill-opacity: 1; stroke: rgb(229, 236, 246); stroke-opacity: 1;"/></g></g><g class="errorbar" style="opacity: 1;"><path class="yerror" d="M19.68,10.44h8m-4,0V106.49m-4,0h8" style="vector-effect: none; stroke-width: 2px; stroke: rgb(51, 51, 51); stroke-opacity: 1;"/></g><g class="errorbar" style="opacity: 1;"><path class="yerror" d="M67.03,43.91h8m-4,0V140.33m-4,0h8" style="vector-effect: none; stroke-width: 2px; stroke: rgb(51, 51, 51); stroke-opacity: 1;"/></g><g class="errorbar" style="opacity: 1;"><path class="yerror" d="M114.38,105.43h8m-4,0V165.1m-4,0h8" style="vector-effect: none; stroke-width: 2px; stroke: rgb(51, 51, 51); stroke-opacity: 1;"/></g><g class="errorbar" style="opacity: 1;"><path class="yerror" d="M161.73,106.72h8m-4,0V166.86m-4,0h8" style="vector-effect: none; stroke-width: 2px; stroke: rgb(51, 51, 51); stroke-opacity: 1;"/></g><g class="errorbar" style="opacity: 1;"><path class="yerror" d="M209.09,107.93h8m-4,0V168.28m-4,0h8" style="vector-effect: none; stroke-width: 2px; stroke: rgb(51, 51, 51); stroke-opacity: 1;"/></g><g class="errorbar" style="opacity: 1;"><path class="yerror" d="M256.44,109.1h8m-4,0V169.46m-4,0h8" style="vector-effect: none; stroke-width: 2px; stroke: rgb(51, 51, 51); stroke-opacity: 1;"/></g></g></g></g><g class="overplot"/><path class="xlines-above crisp" d="M393.88499999999993,416H682M393.88499999999993,236.9H682" style="fill: none; stroke-width: 2px; stroke: rgb(51, 51, 51); stroke-opacity: 1;"/><path class="ylines-above crisp" d="M394.88499999999993,237.9V415M681,237.9V415" style="fill: none; stroke-width: 2px; stroke: rgb(51, 51, 51); stroke-opacity: 1;"/><g class="overlines-above"/><g class="xaxislayer-above"><path class="x4tick ticks crisp" d="M0,417v5" transform="translate(419.56499999999994,0)" style="stroke: rgb(68, 68, 68); stroke-opacity: 1; stroke-width: 1px;"/><path class="x4tick ticks crisp" d="M0,417v5" transform="translate(466.91499999999996,0)" style="stroke: rgb(68, 68, 68); stroke-opacity: 1; stroke-width: 1px;"/><path class="x4tick ticks crisp" d="M0,417v5" transform="translate(514.2649999999999,0)" style="stroke: rgb(68, 68, 68); stroke-opacity: 1; stroke-width: 1px;"/><path class="x4tick ticks crisp" d="M0,417v5" transform="translate(561.6149999999999,0)" style="stroke: rgb(68, 68, 68); stroke-opacity: 1; stroke-width: 1px;"/><path class="x4tick ticks crisp" d="M0,417v5" transform="translate(608.9749999999999,0)" style="stroke: rgb(68, 68, 68); stroke-opacity: 1; stroke-width: 1px;"/><path class="x4tick ticks crisp" d="M0,417v5" transform="translate(656.3249999999999,0)" style="stroke: rgb(68, 68, 68); stroke-opacity: 1; stroke-width: 1px;"/><g class="x4tick"><text text-anchor="start" x="0" y="436.4" transform="translate(419.56499999999994,0) rotate(30,0,430.4)" style="font-family: Helvetica; font-size: 12px; fill: rgb(51, 51, 51); fill-opacity: 1; white-space: pre; opacity: 1;">MP2[D T Q]</text></g><g class="x4tick"><text text-anchor="start" x="0" y="436.4" transform="translate(466.91499999999996,0) rotate(30,0,430.4)" style="font-family: Helvetica; font-size: 12px; fill: rgb(51, 51, 51); fill-opacity: 1; white-space: pre; opacity: 1;">MP2[D T Q 5]</text></g><g class="x4tick"><text text-anchor="start" x="0" y="436.4" transform="translate(514.2649999999999,0) rotate(30,0,430.4)" style="font-family: Helvetica; font-size: 12px; fill: rgb(51, 51, 51); fill-opacity: 1; white-space: pre; opacity: 1;">MP2[T Q]</text></g><g class="x4tick"><text text-anchor="start" x="0" y="436.4" transform="translate(561.6149999999999,0) rotate(30,0,430.4)" style="font-family: Helvetica; font-size: 12px; fill: rgb(51, 51, 51); fill-opacity: 1; white-space: pre; opacity: 1;">MP2[T Q 5]</text></g><g class="x4tick"><text text-anchor="start" x="0" y="436.4" transform="translate(608.9749999999999,0) rotate(30,0,430.4)" style="font-family: Helvetica; font-size: 12px; fill: rgb(51, 51, 51); fill-opacity: 1; white-space: pre; opacity: 1;">MP2[Q 5]</text></g><g class="x4tick"><text text-anchor="start" x="0" y="436.4" transform="translate(656.3249999999999,0) rotate(30,0,430.4)" style="font-family: Helvetica; font-size: 12px; fill: rgb(51, 51, 51); fill-opacity: 1; white-space: pre; opacity: 1;">MP2[5]</text></g></g><g class="yaxislayer-above"><path class="y4tick ticks crisp" d="M393.88499999999993,0h-5" transform="translate(0,415)" style="stroke: rgb(68, 68, 68); stroke-opacity: 1; stroke-width: 1px;"/><path class="y4tick ticks crisp" d="M393.88499999999993,0h-5" transform="translate(0,387.75)" style="stroke: rgb(68, 68, 68); stroke-opacity: 1; stroke-width: 1px;"/><path class="y4tick ticks crisp" d="M393.88499999999993,0h-5" transform="translate(0,360.51)" style="stroke: rgb(68, 68, 68); stroke-opacity: 1; stroke-width: 1px;"/><path class="y4tick ticks crisp" d="M393.88499999999993,0h-5" transform="translate(0,333.26)" style="stroke: rgb(68, 68, 68); stroke-opacity: 1; stroke-width: 1px;"/><path class="y4tick ticks crisp" d="M393.88499999999993,0h-5" transform="translate(0,306.02)" style="stroke: rgb(68, 68, 68); stroke-opacity: 1; stroke-width: 1px;"/><path class="y4tick ticks crisp" d="M393.88499999999993,0h-5" transform="translate(0,278.77)" style="stroke: rgb(68, 68, 68); stroke-opacity: 1; stroke-width: 1px;"/><path class="y4tick ticks crisp" d="M393.88499999999993,0h-5" transform="translate(0,251.52)" style="stroke: rgb(68, 68, 68); stroke-opacity: 1; stroke-width: 1px;"/><g class="y4tick"><text text-anchor="end" x="386.48499999999996" y="4.199999999999999" transform="translate(0,415)" style="font-family: Helvetica; font-size: 12px; fill: rgb(51, 51, 51); fill-opacity: 1; white-space: pre; opacity: 1;">0</text></g><g class="y4tick"><text text-anchor="end" x="386.48499999999996" y="4.199999999999999" style="font-family: Helvetica; font-size: 12px; fill: rgb(51, 51, 51); fill-opacity: 1; white-space: pre; opacity: 1;" transform="translate(0,387.75)">0.1</text></g><g class="y4tick"><text text-anchor="end" x="386.48499999999996" y="4.199999999999999" style="font-family: Helvetica; font-size: 12px; fill: rgb(51, 51, 51); fill-opacity: 1; white-space: pre; opacity: 1;" transform="translate(0,360.51)">0.2</text></g><g class="y4tick"><text text-anchor="end" x="386.48499999999996" y="4.199999999999999" style="font-family: Helvetica; font-size: 12px; fill: rgb(51, 51, 51); fill-opacity: 1; white-space: pre; opacity: 1;" transform="translate(0,333.26)">0.3</text></g><g class="y4tick"><text text-anchor="end" x="386.48499999999996" y="4.199999999999999" style="font-family: Helvetica; font-size: 12px; fill: rgb(51, 51, 51); fill-opacity: 1; white-space: pre; opacity: 1;" transform="translate(0,306.02)">0.4</text></g><g class="y4tick"><text text-anchor="end" x="386.48499999999996" y="4.199999999999999" style="font-family: Helvetica; font-size: 12px; fill: rgb(51, 51, 51); fill-opacity: 1; white-space: pre; opacity: 1;" transform="translate(0,278.77)">0.5</text></g><g class="y4tick"><text text-anchor="end" x="386.48499999999996" y="4.199999999999999" style="font-family: Helvetica; font-size: 12px; fill: rgb(51, 51, 51); fill-opacity: 1; white-space: pre; opacity: 1;" transform="translate(0,251.52)">0.6</text></g></g><g class="overaxes-above"/></g></g><g class="polarlayer"/><g class="smithlayer"/><g class="ternarylayer"/><g class="geolayer"/><g class="funnelarealayer"/><g class="pielayer"/><g class="iciclelayer"/><g class="treemaplayer"/><g class="sunburstlayer"/><g class="glimages"/><defs id="topdefs-313563"><g class="clips"/></defs><g class="layer-above"><g class="imagelayer"/><g class="shapelayer"/></g><g class="infolayer"><g class="g-gtitle"/><g class="g-xtitle"/><g class="g-x2title"/><g class="g-x3title"/><g class="g-x4title"/><g class="g-ytitle" transform="translate(12.0966796875,0)"><text class="ytitle" transform="rotate(-90,0.90625,118.55)" x="0.90625" y="118.55" text-anchor="middle" style="font-family: Helvetica; font-size: 14px; fill: rgb(51, 51, 51); opacity: 1; font-weight: normal; white-space: pre;"><tspan class="line" dy="0em" x="0.90625" y="118.55">MAE compared with</tspan><tspan class="line" dy="1.3em" x="0.90625" y="118.55">experimental CEBEs (eV)</tspan></text></g><g class="g-y2title"/><g class="g-y3title" transform="translate(12.1064453125,0)"><text class="y3title" transform="rotate(-90,0.90625,326.45)" x="0.90625" y="326.45" text-anchor="middle" style="font-family: Helvetica; font-size: 14px; fill: rgb(51, 51, 51); opacity: 1; font-weight: normal; white-space: pre;"><tspan class="line" dy="0em" x="0.90625" y="326.45">MAE compared with</tspan><tspan class="line" dy="1.3em" x="0.90625" y="326.45">experimental CEBEs (eV)</tspan></text></g><g class="g-y4title"/><g class="annotation" data-index="0" style="opacity: 1;"><g class="annotation-text-g" transform="rotate(0,211.0575,19)"><g class="cursor-pointer" transform="translate(177,8)"><rect class="bg" x="0.5" y="0.5" width="68" height="21" style="stroke-width: 1px; stroke: rgb(0, 0, 0); stroke-opacity: 0; fill: rgb(0, 0, 0); fill-opacity: 0;"/><text class="annotation-text" text-anchor="middle" x="34.46875" y="16" style="font-family: Helvetica; font-size: 16px; fill: rgb(51, 51, 51); fill-opacity: 1; white-space: pre;"><tspan style="font-weight:bold">C-Series</tspan></text></g></g></g><g class="annotation" data-index="1" style="opacity: 1;"><g class="annotation-text-g" transform="rotate(0,537.9424999999999,19)"><g class="cursor-pointer" transform="translate(503,8)"><rect class="bg" x="0.5" y="0.5" width="68" height="21" style="stroke-width: 1px; stroke: rgb(0, 0, 0); stroke-opacity: 0; fill: rgb(0, 0, 0); fill-opacity: 0;"/><text class="annotation-text" text-anchor="middle" x="34.46875" y="16" style="font-family: Helvetica; font-size: 16px; fill: rgb(51, 51, 51); fill-opacity: 1; white-space: pre;"><tspan style="font-weight:bold">N-Series</tspan></text></g></g></g><g class="annotation" data-index="2" style="opacity: 1;"><g class="annotation-text-g" transform="rotate(0,211.0575,226.9)"><g class="cursor-pointer" transform="translate(176,216)"><rect class="bg" x="0.5" y="0.5" width="69" height="21" style="stroke-width: 1px; stroke: rgb(0, 0, 0); stroke-opacity: 0; fill: rgb(0, 0, 0); fill-opacity: 0;"/><text class="annotation-text" text-anchor="middle" x="34.90625" y="16" style="font-family: Helvetica; font-size: 16px; fill: rgb(51, 51, 51); fill-opacity: 1; white-space: pre;"><tspan style="font-weight:bold">O-Series</tspan></text></g></g></g><g class="annotation" data-index="3" style="opacity: 1;"><g class="annotation-text-g" transform="rotate(0,537.9424999999999,226.9)"><g class="cursor-pointer" transform="translate(504,216)"><rect class="bg" x="0.5" y="0.5" width="66" height="21" style="stroke-width: 1px; stroke: rgb(0, 0, 0); stroke-opacity: 0; fill: rgb(0, 0, 0); fill-opacity: 0;"/><text class="annotation-text" text-anchor="middle" x="33.578125" y="16" style="font-family: Helvetica; font-size: 16px; fill: rgb(51, 51, 51); fill-opacity: 1; white-space: pre;"><tspan style="font-weight:bold">F-Series</tspan></text></g></g></g></g></svg>