<svg class="main-svg" xmlns="http://www.w3.org/2000/svg" xmlns:xlink="http://www.w3.org/1999/xlink" width="700" height="500" style="" viewBox="0 0 700 500"><rect x="0" y="0" width="700" height="500" style="fill: rgb(255, 255, 255); fill-opacity: 1;"/><defs id="defs-86a681"><g class="clips"><clipPath id="clip86a681xyplot" class="plotclip"><rect width="284.115" height="182.16"/></clipPath><clipPath id="clip86a681x2y2plot" class="plotclip"><rect width="284.115" height="182.16"/></clipPath><clipPath id="clip86a681x3y3plot" class="plotclip"><rect width="284.115" height="182.16"/></clipPath><clipPath id="clip86a681x4y4plot" class="plotclip"><rect width="284.115" height="182.16"/></clipPath><clipPath class="axesclip" id="clip86a681x"><rect x="69" y="0" width="284.115" height="500"/></clipPath><clipPath class="axesclip" id="clip86a681y"><rect x="0" y="30" width="700" height="182.16"/></clipPath><clipPath class="axesclip" id="clip86a681xy"><rect x="69" y="30" width="284.115" height="182.16"/></clipPath><clipPath class="axesclip" id="clip86a681y2"><rect x="0" y="30" width="700" height="182.16"/></clipPath><clipPath class="axesclip" id="clip86a681xy2"><rect x="69" y="30" width="284.115" height="182.16"/></clipPath><clipPath class="axesclip" id="clip86a681y3"><rect x="0" y="243.84" width="700" height="182.16"/></clipPath><clipPath class="axesclip" id="clip86a681xy3"><rect x="69" y="243.84" width="284.115" height="182.16"/></clipPath><clipPath class="axesclip" id="clip86a681y4"><rect x="0" y="243.84" width="700" height="182.16"/></clipPath><clipPath class="axesclip" id="clip86a681xy4"><rect x="69" y="243.84" width="284.115" height="182.16"/></clipPath><clipPath class="axesclip" id="clip86a681x2"><rect x="395.88499999999993" y="0" width="284.115" height="500"/></clipPath><clipPath class="axesclip" id="clip86a681x2y"><rect x="395.88499999999993" y="30" width="284.115" height="182.16"/></clipPath><clipPath class="axesclip" id="clip86a681x2y2"><rect x="395.88499999999993" y="30" width="284.115" height="182.16"/></clipPath><clipPath class="axesclip" id="clip86a681x2y3"><rect x="395.88499999999993" y="243.84" width="284.115" height="182.16"/></clipPath><clipPath class="axesclip" id="clip86a681x2y4"><rect x="395.88499999999993" y="243.84" width="284.115" height="182.16"/></clipPath><clipPath class="axesclip" id="clip86a681x3"><rect x="69" y="0" width="284.115" height="500"/></clipPath><clipPath class="axesclip" id="clip86a681x3y"><rect x="69" y="30" width="284.115" height="182.16"/></clipPath><clipPath class="axesclip" id="clip86a681x3y2"><rect x="69" y="30" width="284.115" height="182.16"/></clipPath><clipPath class="axesclip" id="clip86a681x3y3"><rect x="69" y="243.84" width="284.115" height="182.16"/></clipPath><clipPath class="axesclip" id="clip86a681x3y4"><rect x="69" y="243.84" width="284.115" height="182.16"/></clipPath><clipPath class="axesclip" id="clip86a681x4"><rect x="395.88499999999993" y="0" width="284.115" height="500"/></clipPath><clipPath class="axesclip" id="clip86a681x4y"><rect x="395.88499999999993" y="30" width="284.115" height="182.16"/></clipPath><clipPath class="axesclip" id="clip86a681x4y2"><rect x="395.88499999999993" y="30" width="284.115" height="182.16"/></clipPath><clipPath class="axesclip" id="clip86a681x4y3"><rect x="395.88499999999993" y="243.84" width="284.115" height="182.16"/></clipPath><clipPath class="axesclip" id="clip86a681x4y4"><rect x="395.88499999999993" y="243.84" width="284.115" height="182.16"/></clipPath></g><g class="gradients"/><g class="patterns"/></defs><g class="bglayer"/><g class="layer-below"><g class="imagelayer"/><g class="shapelayer"/></g><g class="cartesianlayer"><g class="subplot xy"><g class="layer-subplot"><g class="shapelayer"/><g class="imagelayer"/></g><g class="minor-gridlayer"><g class="x"/><g class="y"/></g><g class="gridlayer"><g class="x"/><g class="y"><path class="ygrid crisp" transform="translate(0,184.14)" d="M69,0h284.115" style="stroke: rgb(236, 236, 236); stroke-opacity: 1; stroke-width: 1px;"/><path class="ygrid crisp" transform="translate(0,156.11)" d="M69,0h284.115" style="stroke: rgb(236, 236, 236); stroke-opacity: 1; stroke-width: 1px;"/><path class="ygrid crisp" transform="translate(0,128.09)" d="M69,0h284.115" style="stroke: rgb(236, 236, 236); stroke-opacity: 1; stroke-width: 1px;"/><path class="ygrid crisp" transform="translate(0,100.06)" d="M69,0h284.115" style="stroke: rgb(236, 236, 236); stroke-opacity: 1; stroke-width: 1px;"/><path class="ygrid crisp" transform="translate(0,72.03999999999999)" d="M69,0h284.115" style="stroke: rgb(236, 236, 236); stroke-opacity: 1; stroke-width: 1px;"/><path class="ygrid crisp" transform="translate(0,44.01)" d="M69,0h284.115" style="stroke: rgb(236, 236, 236); stroke-opacity: 1; stroke-width: 1px;"/></g></g><g class="zerolinelayer"><path class="yzl zl crisp" transform="translate(0,212.16)" d="M69,0h284.115" style="stroke: rgb(51, 51, 51); stroke-opacity: 1; stroke-width: 2px;"/></g><path class="xlines-below"/><path class="ylines-below"/><g class="overlines-below"/><g class="xaxislayer-below"/><g class="yaxislayer-below"/><g class="overaxes-below"/><g class="plot" transform="translate(69,30)" clip-path="url(#clip86a681xyplot)"><g class="barlayer mlayer"><g class="trace bars" style="opacity: 1;"><g class="points"><g class="point"><path d="M4.06,182.16V92.33H36.53V182.16Z" style="vector-effect: none; opacity: 1; stroke-width: 0.5px; fill: rgb(157, 78, 221); fill-opacity: 1; stroke: rgb(229, 236, 246); stroke-opacity: 1;"/></g><g class="point"><path d="M44.65,182.16V106.49H77.12V182.16Z" style="vector-effect: none; opacity: 1; stroke-width: 0.5px; fill: rgb(157, 78, 221); fill-opacity: 1; stroke: rgb(229, 236, 246); stroke-opacity: 1;"/></g><g class="point"><path d="M85.23,182.16V106.54H117.7V182.16Z" style="vector-effect: none; opacity: 1; stroke-width: 0.5px; fill: rgb(157, 78, 221); fill-opacity: 1; stroke: rgb(229, 236, 246); stroke-opacity: 1;"/></g><g class="point"><path d="M125.82,182.16V145.49H158.29V182.16Z" style="vector-effect: none; opacity: 1; stroke-width: 0.5px; fill: rgb(157, 78, 221); fill-opacity: 1; stroke: rgb(229, 236, 246); stroke-opacity: 1;"/></g><g class="point"><path d="M166.41,182.16V130.89H198.88V182.16Z" style="vector-effect: none; opacity: 1; stroke-width: 0.5px; fill: rgb(157, 78, 221); fill-opacity: 1; stroke: rgb(229, 236, 246); stroke-opacity: 1;"/></g><g class="point"><path d="M207,182.16V138.11H239.47V182.16Z" style="vector-effect: none; opacity: 1; stroke-width: 0.5px; fill: rgb(157, 78, 221); fill-opacity: 1; stroke: rgb(229, 236, 246); stroke-opacity: 1;"/></g><g class="point"><path d="M247.59,182.16V155.34H280.06V182.16Z" style="vector-effect: none; opacity: 1; stroke-width: 0.5px; fill: rgb(157, 78, 221); fill-opacity: 1; stroke: rgb(229, 236, 246); stroke-opacity: 1;"/></g></g><g class="errorbar" style="opacity: 1;"><path class="yerror" d="M16.29,4.8h8m-4,0V179.86m-4,0h8" style="vector-effect: none; stroke-width: 2px; stroke: rgb(51, 51, 51); stroke-opacity: 1;"/></g><g class="errorbar" style="opacity: 1;"><path class="yerror" d="M56.88,39.96h8m-4,0V173.02m-4,0h8" style="vector-effect: none; stroke-width: 2px; stroke: rgb(51, 51, 51); stroke-opacity: 1;"/></g><g class="errorbar" style="opacity: 1;"><path class="yerror" d="M97.47,39.21h8m-4,0V173.86m-4,0h8" style="vector-effect: none; stroke-width: 2px; stroke: rgb(51, 51, 51); stroke-opacity: 1;"/></g><g class="errorbar" style="opacity: 1;"><path class="yerror" d="M138.06,121.7h8m-4,0V169.28m-4,0h8" style="vector-effect: none; stroke-width: 2px; stroke: rgb(51, 51, 51); stroke-opacity: 1;"/></g><g class="errorbar" style="opacity: 1;"><path class="yerror" d="M178.65,84.78h8m-4,0V177m-4,0h8" style="vector-effect: none; stroke-width: 2px; stroke: rgb(51, 51, 51); stroke-opacity: 1;"/></g><g class="errorbar" style="opacity: 1;"><path class="yerror" d="M219.23,114.86h8m-4,0V161.36m-4,0h8" style="vector-effect: none; stroke-width: 2px; stroke: rgb(51, 51, 51); stroke-opacity: 1;"/></g><g class="errorbar" style="opacity: 1;"><path class="yerror" d="M259.82,134.17h8m-4,0V176.51m-4,0h8" style="vector-effect: none; stroke-width: 2px; stroke: rgb(51, 51, 51); stroke-opacity: 1;"/></g></g></g></g><g class="overplot"/><path class="xlines-above crisp" d="M67,213.16H355.115M67,29H355.115" style="fill: none; stroke-width: 2px; stroke: rgb(51, 51, 51); stroke-opacity: 1;"/><path class="ylines-above crisp" d="M68,30V212.16M354.115,30V212.16" style="fill: none; stroke-width: 2px; stroke: rgb(51, 51, 51); stroke-opacity: 1;"/><g class="overlines-above"/><g class="xaxislayer-above"/><g class="yaxislayer-above"><path class="ytick ticks crisp" d="M67,0h-5" transform="translate(0,212.16)" style="stroke: rgb(68, 68, 68); stroke-opacity: 1; stroke-width: 1px;"/><path class="ytick ticks crisp" d="M67,0h-5" transform="translate(0,184.14)" style="stroke: rgb(68, 68, 68); stroke-opacity: 1; stroke-width: 1px;"/><path class="ytick ticks crisp" d="M67,0h-5" transform="translate(0,156.11)" style="stroke: rgb(68, 68, 68); stroke-opacity: 1; stroke-width: 1px;"/><path class="ytick ticks crisp" d="M67,0h-5" transform="translate(0,128.09)" style="stroke: rgb(68, 68, 68); stroke-opacity: 1; stroke-width: 1px;"/><path class="ytick ticks crisp" d="M67,0h-5" transform="translate(0,100.06)" style="stroke: rgb(68, 68, 68); stroke-opacity: 1; stroke-width: 1px;"/><path class="ytick ticks crisp" d="M67,0h-5" transform="translate(0,72.03999999999999)" style="stroke: rgb(68, 68, 68); stroke-opacity: 1; stroke-width: 1px;"/><path class="ytick ticks crisp" d="M67,0h-5" transform="translate(0,44.01)" style="stroke: rgb(68, 68, 68); stroke-opacity: 1; stroke-width: 1px;"/><g class="ytick"><text text-anchor="end" x="59.6" y="4.199999999999999" transform="translate(0,212.16)" style="font-family: Helvetica; font-size: 12px; fill: rgb(51, 51, 51); fill-opacity: 1; white-space: pre; opacity: 1;">0</text></g><g class="ytick"><text text-anchor="end" x="59.6" y="4.199999999999999" style="font-family: Helvetica; font-size: 12px; fill: rgb(51, 51, 51); fill-opacity: 1; white-space: pre; opacity: 1;" transform="translate(0,184.14)">0.1</text></g><g class="ytick"><text text-anchor="end" x="59.6" y="4.199999999999999" style="font-family: Helvetica; font-size: 12px; fill: rgb(51, 51, 51); fill-opacity: 1; white-space: pre; opacity: 1;" transform="translate(0,156.11)">0.2</text></g><g class="ytick"><text text-anchor="end" x="59.6" y="4.199999999999999" style="font-family: Helvetica; font-size: 12px; fill: rgb(51, 51, 51); fill-opacity: 1; white-space: pre; opacity: 1;" transform="translate(0,128.09)">0.3</text></g><g class="ytick"><text text-anchor="end" x="59.6" y="4.199999999999999" style="font-family: Helvetica; font-size: 12px; fill: rgb(51, 51, 51); fill-opacity: 1; white-space: pre; opacity: 1;" transform="translate(0,100.06)">0.4</text></g><g class="ytick"><text text-anchor="end" x="59.6" y="4.199999999999999" style="font-family: Helvetica; font-size: 12px; fill: rgb(51, 51, 51); fill-opacity: 1; white-space: pre; opacity: 1;" transform="translate(0,72.03999999999999)">0.5</text></g><g class="ytick"><text text-anchor="end" x="59.6" y="4.199999999999999" style="font-family: Helvetica; font-size: 12px; fill: rgb(51, 51, 51); fill-opacity: 1; white-space: pre; opacity: 1;" transform="translate(0,44.01)">0.6</text></g></g><g class="overaxes-above"/></g><g class="subplot x2y2"><g class="layer-subplot"><g class="shapelayer"/><g class="imagelayer"/></g><g class="minor-gridlayer"><g class="x2"/><g class="y2"/></g><g class="gridlayer"><g class="x2"/><g class="y2"><path class="y2grid crisp" transform="translate(0,184.14)" d="M395.88499999999993,0h284.115" style="stroke: rgb(236, 236, 236); stroke-opacity: 1; stroke-width: 1px;"/><path class="y2grid crisp" transform="translate(0,156.11)" d="M395.88499999999993,0h284.115" style="stroke: rgb(236, 236, 236); stroke-opacity: 1; stroke-width: 1px;"/><path class="y2grid crisp" transform="translate(0,128.09)" d="M395.88499999999993,0h284.115" style="stroke: rgb(236, 236, 236); stroke-opacity: 1; stroke-width: 1px;"/><path class="y2grid crisp" transform="translate(0,100.06)" d="M395.88499999999993,0h284.115" style="stroke: rgb(236, 236, 236); stroke-opacity: 1; stroke-width: 1px;"/><path class="y2grid crisp" transform="translate(0,72.03999999999999)" d="M395.88499999999993,0h284.115" style="stroke: rgb(236, 236, 236); stroke-opacity: 1; stroke-width: 1px;"/><path class="y2grid crisp" transform="translate(0,44.01)" d="M395.88499999999993,0h284.115" style="stroke: rgb(236, 236, 236); stroke-opacity: 1; stroke-width: 1px;"/></g></g><g class="zerolinelayer"><path class="y2zl zl crisp" transform="translate(0,212.16)" d="M395.88499999999993,0h284.115" style="stroke: rgb(51, 51, 51); stroke-opacity: 1; stroke-width: 2px;"/></g><path class="xlines-below"/><path class="ylines-below"/><g class="overlines-below"/><g class="xaxislayer-below"/><g class="yaxislayer-below"/><g class="overaxes-below"/><g class="plot" transform="translate(395.88499999999993,30)" clip-path="url(#clip86a681x2y2plot)"><g class="barlayer mlayer"><g class="trace bars" style="opacity: 1;"><g class="points"><g class="point"><path d="M4.06,182.16V122.4H36.53V182.16Z" style="vector-effect: none; opacity: 1; stroke-width: 0.5px; fill: rgb(157, 78, 221); fill-opacity: 1; stroke: rgb(229, 236, 246); stroke-opacity: 1;"/></g><g class="point"><path d="M44.65,182.16V106.56H77.12V182.16Z" style="vector-effect: none; opacity: 1; stroke-width: 0.5px; fill: rgb(157, 78, 221); fill-opacity: 1; stroke: rgb(229, 236, 246); stroke-opacity: 1;"/></g><g class="point"><path d="M85.23,182.16V107.47H117.7V182.16Z" style="vector-effect: none; opacity: 1; stroke-width: 0.5px; fill: rgb(157, 78, 221); fill-opacity: 1; stroke: rgb(229, 236, 246); stroke-opacity: 1;"/></g><g class="point"><path d="M125.82,182.16V136.1H158.29V182.16Z" style="vector-effect: none; opacity: 1; stroke-width: 0.5px; fill: rgb(157, 78, 221); fill-opacity: 1; stroke: rgb(229, 236, 246); stroke-opacity: 1;"/></g><g class="point"><path d="M166.41,182.16V144.65H198.88V182.16Z" style="vector-effect: none; opacity: 1; stroke-width: 0.5px; fill: rgb(157, 78, 221); fill-opacity: 1; stroke: rgb(229, 236, 246); stroke-opacity: 1;"/></g><g class="point"><path d="M207,182.16V144.62H239.47V182.16Z" style="vector-effect: none; opacity: 1; stroke-width: 0.5px; fill: rgb(157, 78, 221); fill-opacity: 1; stroke: rgb(229, 236, 246); stroke-opacity: 1;"/></g><g class="point"><path d="M247.59,182.16V141.54H280.06V182.16Z" style="vector-effect: none; opacity: 1; stroke-width: 0.5px; fill: rgb(157, 78, 221); fill-opacity: 1; stroke: rgb(229, 236, 246); stroke-opacity: 1;"/></g></g><g class="errorbar" style="opacity: 1;"><path class="yerror" d="M16.29,72.34h8m-4,0V172.46m-4,0h8" style="vector-effect: none; stroke-width: 2px; stroke: rgb(51, 51, 51); stroke-opacity: 1;"/></g><g class="errorbar" style="opacity: 1;"><path class="yerror" d="M56.88,61.87h8m-4,0V151.24m-4,0h8" style="vector-effect: none; stroke-width: 2px; stroke: rgb(51, 51, 51); stroke-opacity: 1;"/></g><g class="errorbar" style="opacity: 1;"><path class="yerror" d="M97.47,63.4h8m-4,0V151.54m-4,0h8" style="vector-effect: none; stroke-width: 2px; stroke: rgb(51, 51, 51); stroke-opacity: 1;"/></g><g class="errorbar" style="opacity: 1;"><path class="yerror" d="M138.06,104.19h8m-4,0V168.01m-4,0h8" style="vector-effect: none; stroke-width: 2px; stroke: rgb(51, 51, 51); stroke-opacity: 1;"/></g><g class="errorbar" style="opacity: 1;"><path class="yerror" d="M178.65,103.36h8m-4,0V185.94m-4,0h8" style="vector-effect: none; stroke-width: 2px; stroke: rgb(51, 51, 51); stroke-opacity: 1;"/></g><g class="errorbar" style="opacity: 1;"><path class="yerror" d="M219.23,103.64h8m-4,0V185.59m-4,0h8" style="vector-effect: none; stroke-width: 2px; stroke: rgb(51, 51, 51); stroke-opacity: 1;"/></g><g class="errorbar" style="opacity: 1;"><path class="yerror" d="M259.82,109.52h8m-4,0V173.57m-4,0h8" style="vector-effect: none; stroke-width: 2px; stroke: rgb(51, 51, 51); stroke-opacity: 1;"/></g></g></g></g><g class="overplot"/><path class="xlines-above crisp" d="M393.88499999999993,213.16H682M393.88499999999993,29H682" style="fill: none; stroke-width: 2px; stroke: rgb(51, 51, 51); stroke-opacity: 1;"/><path class="ylines-above crisp" d="M394.88499999999993,30V212.16M681,30V212.16" style="fill: none; stroke-width: 2px; stroke: rgb(51, 51, 51); stroke-opacity: 1;"/><g class="overlines-above"/><g class="xaxislayer-above"/><g class="yaxislayer-above"><path class="y2tick ticks crisp" d="M393.88499999999993,0h-5" transform="translate(0,212.16)" style="stroke: rgb(68, 68, 68); stroke-opacity: 1; stroke-width: 1px;"/><path class="y2tick ticks crisp" d="M393.88499999999993,0h-5" transform="translate(0,184.14)" style="stroke: rgb(68, 68, 68); stroke-opacity: 1; stroke-width: 1px;"/><path class="y2tick ticks crisp" d="M393.88499999999993,0h-5" transform="translate(0,156.11)" style="stroke: rgb(68, 68, 68); stroke-opacity: 1; stroke-width: 1px;"/><path class="y2tick ticks crisp" d="M393.88499999999993,0h-5" transform="translate(0,128.09)" style="stroke: rgb(68, 68, 68); stroke-opacity: 1; stroke-width: 1px;"/><path class="y2tick ticks crisp" d="M393.88499999999993,0h-5" transform="translate(0,100.06)" style="stroke: rgb(68, 68, 68); stroke-opacity: 1; stroke-width: 1px;"/><path class="y2tick ticks crisp" d="M393.88499999999993,0h-5" transform="translate(0,72.03999999999999)" style="stroke: rgb(68, 68, 68); stroke-opacity: 1; stroke-width: 1px;"/><path class="y2tick ticks crisp" d="M393.88499999999993,0h-5" transform="translate(0,44.01)" style="stroke: rgb(68, 68, 68); stroke-opacity: 1; stroke-width: 1px;"/><g class="y2tick"><text text-anchor="end" x="386.48499999999996" y="4.199999999999999" transform="translate(0,212.16)" style="font-family: Helvetica; font-size: 12px; fill: rgb(51, 51, 51); fill-opacity: 1; white-space: pre; opacity: 1;">0</text></g><g class="y2tick"><text text-anchor="end" x="386.48499999999996" y="4.199999999999999" style="font-family: Helvetica; font-size: 12px; fill: rgb(51, 51, 51); fill-opacity: 1; white-space: pre; opacity: 1;" transform="translate(0,184.14)">0.1</text></g><g class="y2tick"><text text-anchor="end" x="386.48499999999996" y="4.199999999999999" style="font-family: Helvetica; font-size: 12px; fill: rgb(51, 51, 51); fill-opacity: 1; white-space: pre; opacity: 1;" transform="translate(0,156.11)">0.2</text></g><g class="y2tick"><text text-anchor="end" x="386.48499999999996" y="4.199999999999999" style="font-family: Helvetica; font-size: 12px; fill: rgb(51, 51, 51); fill-opacity: 1; white-space: pre; opacity: 1;" transform="translate(0,128.09)">0.3</text></g><g class="y2tick"><text text-anchor="end" x="386.48499999999996" y="4.199999999999999" style="font-family: Helvetica; font-size: 12px; fill: rgb(51, 51, 51); fill-opacity: 1; white-space: pre; opacity: 1;" transform="translate(0,100.06)">0.4</text></g><g class="y2tick"><text text-anchor="end" x="386.48499999999996" y="4.199999999999999" style="font-family: Helvetica; font-size: 12px; fill: rgb(51, 51, 51); fill-opacity: 1; white-space: pre; opacity: 1;" transform="translate(0,72.03999999999999)">0.5</text></g><g class="y2tick"><text text-anchor="end" x="386.48499999999996" y="4.199999999999999" style="font-family: Helvetica; font-size: 12px; fill: rgb(51, 51, 51); fill-opacity: 1; white-space: pre; opacity: 1;" transform="translate(0,44.01)">0.6</text></g></g><g class="overaxes-above"/></g><g class="subplot x3y3"><g class="layer-subplot"><g class="shapelayer"/><g class="imagelayer"/></g><g class="minor-gridlayer"><g class="x3"/><g class="y3"/></g><g class="gridlayer"><g class="x3"><path class="x3grid crisp" transform="translate(89.28999999999999,0)" d="M0,243.84v182.16" style="stroke: rgb(255, 255, 255); stroke-opacity: 1; stroke-width: 1px;"/><path class="x3grid crisp" transform="translate(129.88,0)" d="M0,243.84v182.16" style="stroke: rgb(255, 255, 255); stroke-opacity: 1; stroke-width: 1px;"/><path class="x3grid crisp" transform="translate(170.47,0)" d="M0,243.84v182.16" style="stroke: rgb(255, 255, 255); stroke-opacity: 1; stroke-width: 1px;"/><path class="x3grid crisp" transform="translate(211.06,0)" d="M0,243.84v182.16" style="stroke: rgb(255, 255, 255); stroke-opacity: 1; stroke-width: 1px;"/><path class="x3grid crisp" transform="translate(251.65,0)" d="M0,243.84v182.16" style="stroke: rgb(255, 255, 255); stroke-opacity: 1; stroke-width: 1px;"/><path class="x3grid crisp" transform="translate(292.23,0)" d="M0,243.84v182.16" style="stroke: rgb(255, 255, 255); stroke-opacity: 1; stroke-width: 1px;"/><path class="x3grid crisp" transform="translate(332.82,0)" d="M0,243.84v182.16" style="stroke: rgb(255, 255, 255); stroke-opacity: 1; stroke-width: 1px;"/></g><g class="y3"><path class="y3grid crisp" transform="translate(0,397.98)" d="M69,0h284.115" style="stroke: rgb(236, 236, 236); stroke-opacity: 1; stroke-width: 1px;"/><path class="y3grid crisp" transform="translate(0,369.95)" d="M69,0h284.115" style="stroke: rgb(236, 236, 236); stroke-opacity: 1; stroke-width: 1px;"/><path class="y3grid crisp" transform="translate(0,341.93)" d="M69,0h284.115" style="stroke: rgb(236, 236, 236); stroke-opacity: 1; stroke-width: 1px;"/><path class="y3grid crisp" transform="translate(0,313.9)" d="M69,0h284.115" style="stroke: rgb(236, 236, 236); stroke-opacity: 1; stroke-width: 1px;"/><path class="y3grid crisp" transform="translate(0,285.88)" d="M69,0h284.115" style="stroke: rgb(236, 236, 236); stroke-opacity: 1; stroke-width: 1px;"/><path class="y3grid crisp" transform="translate(0,257.85)" d="M69,0h284.115" style="stroke: rgb(236, 236, 236); stroke-opacity: 1; stroke-width: 1px;"/></g></g><g class="zerolinelayer"><path class="y3zl zl crisp" transform="translate(0,426)" d="M69,0h284.115" style="stroke: rgb(51, 51, 51); stroke-opacity: 1; stroke-width: 2px;"/></g><path class="xlines-below"/><path class="ylines-below"/><g class="overlines-below"/><g class="xaxislayer-below"/><g class="yaxislayer-below"/><g class="overaxes-below"/><g class="plot" transform="translate(69,243.84)" clip-path="url(#clip86a681x3y3plot)"><g class="barlayer mlayer"><g class="trace bars" style="opacity: 1;"><g class="points"><g class="point"><path d="M4.06,182.16V135.22H36.53V182.16Z" style="vector-effect: none; opacity: 1; stroke-width: 0.5px; fill: rgb(157, 78, 221); fill-opacity: 1; stroke: rgb(229, 236, 246); stroke-opacity: 1;"/></g><g class="point"><path d="M44.65,182.16V112.42H77.12V182.16Z" style="vector-effect: none; opacity: 1; stroke-width: 0.5px; fill: rgb(157, 78, 221); fill-opacity: 1; stroke: rgb(229, 236, 246); stroke-opacity: 1;"/></g><g class="point"><path d="M85.23,182.16V110.18H117.7V182.16Z" style="vector-effect: none; opacity: 1; stroke-width: 0.5px; fill: rgb(157, 78, 221); fill-opacity: 1; stroke: rgb(229, 236, 246); stroke-opacity: 1;"/></g><g class="point"><path d="M125.82,182.16V146.35H158.29V182.16Z" style="vector-effect: none; opacity: 1; stroke-width: 0.5px; fill: rgb(157, 78, 221); fill-opacity: 1; stroke: rgb(229, 236, 246); stroke-opacity: 1;"/></g><g class="point"><path d="M166.41,182.16V142.86H198.88V182.16Z" style="vector-effect: none; opacity: 1; stroke-width: 0.5px; fill: rgb(157, 78, 221); fill-opacity: 1; stroke: rgb(229, 236, 246); stroke-opacity: 1;"/></g><g class="point"><path d="M207,182.16V142.14H239.47V182.16Z" style="vector-effect: none; opacity: 1; stroke-width: 0.5px; fill: rgb(157, 78, 221); fill-opacity: 1; stroke: rgb(229, 236, 246); stroke-opacity: 1;"/></g><g class="point"><path d="M247.59,182.16V145.44H280.06V182.16Z" style="vector-effect: none; opacity: 1; stroke-width: 0.5px; fill: rgb(157, 78, 221); fill-opacity: 1; stroke: rgb(229, 236, 246); stroke-opacity: 1;"/></g></g><g class="errorbar" style="opacity: 1;"><path class="yerror" d="M16.29,89.14h8m-4,0V181.29m-4,0h8" style="vector-effect: none; stroke-width: 2px; stroke: rgb(51, 51, 51); stroke-opacity: 1;"/></g><g class="errorbar" style="opacity: 1;"><path class="yerror" d="M56.88,75.32h8m-4,0V149.53m-4,0h8" style="vector-effect: none; stroke-width: 2px; stroke: rgb(51, 51, 51); stroke-opacity: 1;"/></g><g class="errorbar" style="opacity: 1;"><path class="yerror" d="M97.47,73.85h8m-4,0V146.51m-4,0h8" style="vector-effect: none; stroke-width: 2px; stroke: rgb(51, 51, 51); stroke-opacity: 1;"/></g><g class="errorbar" style="opacity: 1;"><path class="yerror" d="M138.06,108.39h8m-4,0V184.31m-4,0h8" style="vector-effect: none; stroke-width: 2px; stroke: rgb(51, 51, 51); stroke-opacity: 1;"/></g><g class="errorbar" style="opacity: 1;"><path class="yerror" d="M178.65,102.39h8m-4,0V183.33m-4,0h8" style="vector-effect: none; stroke-width: 2px; stroke: rgb(51, 51, 51); stroke-opacity: 1;"/></g><g class="errorbar" style="opacity: 1;"><path class="yerror" d="M219.23,101.26h8m-4,0V183.01m-4,0h8" style="vector-effect: none; stroke-width: 2px; stroke: rgb(51, 51, 51); stroke-opacity: 1;"/></g><g class="errorbar" style="opacity: 1;"><path class="yerror" d="M259.82,107.7h8m-4,0V183.19m-4,0h8" style="vector-effect: none; stroke-width: 2px; stroke: rgb(51, 51, 51); stroke-opacity: 1;"/></g></g></g></g><g class="overplot"/><path class="xlines-above crisp" d="M67,427H355.115M67,242.84H355.115" style="fill: none; stroke-width: 2px; stroke: rgb(51, 51, 51); stroke-opacity: 1;"/><path class="ylines-above crisp" d="M68,243.84V426M354.115,243.84V426" style="fill: none; stroke-width: 2px; stroke: rgb(51, 51, 51); stroke-opacity: 1;"/><g class="overlines-above"/><g class="xaxislayer-above"><path class="x3tick ticks crisp" d="M0,428v5" transform="translate(89.28999999999999,0)" style="stroke: rgb(68, 68, 68); stroke-opacity: 1; stroke-width: 1px;"/><path class="x3tick ticks crisp" d="M0,428v5" transform="translate(129.88,0)" style="stroke: rgb(68, 68, 68); stroke-opacity: 1; stroke-width: 1px;"/><path class="x3tick ticks crisp" d="M0,428v5" transform="translate(170.47,0)" style="stroke: rgb(68, 68, 68); stroke-opacity: 1; stroke-width: 1px;"/><path class="x3tick ticks crisp" d="M0,428v5" transform="translate(211.06,0)" style="stroke: rgb(68, 68, 68); stroke-opacity: 1; stroke-width: 1px;"/><path class="x3tick ticks crisp" d="M0,428v5" transform="translate(251.65,0)" style="stroke: rgb(68, 68, 68); stroke-opacity: 1; stroke-width: 1px;"/><path class="x3tick ticks crisp" d="M0,428v5" transform="translate(292.23,0)" style="stroke: rgb(68, 68, 68); stroke-opacity: 1; stroke-width: 1px;"/><path class="x3tick ticks crisp" d="M0,428v5" transform="translate(332.82,0)" style="stroke: rgb(68, 68, 68); stroke-opacity: 1; stroke-width: 1px;"/><g class="x3tick"><text text-anchor="start" x="0" y="447.4" transform="translate(89.28999999999999,0) rotate(30,0,441.4)" style="font-family: Helvetica; font-size: 12px; fill: rgb(51, 51, 51); fill-opacity: 1; white-space: pre; opacity: 1;">MP2[∞]</text></g><g class="x3tick"><text text-anchor="start" x="0" y="447.4" transform="translate(129.88,0) rotate(30,0,441.4)" style="font-family: Helvetica; font-size: 12px; fill: rgb(51, 51, 51); fill-opacity: 1; white-space: pre; opacity: 1;">+STO-3G</text></g><g class="x3tick"><text text-anchor="start" x="0" y="447.4" transform="translate(170.47,0) rotate(30,0,441.4)" style="font-family: Helvetica; font-size: 12px; fill: rgb(51, 51, 51); fill-opacity: 1; white-space: pre; opacity: 1;">+STO-6G</text></g><g class="x3tick"><text text-anchor="start" x="0" y="447.4" transform="translate(211.06,0) rotate(30,0,441.4)" style="font-family: Helvetica; font-size: 12px; fill: rgb(51, 51, 51); fill-opacity: 1; white-space: pre; opacity: 1;">+3-21G</text></g><g class="x3tick"><text text-anchor="start" x="0" y="447.4" transform="translate(251.65,0) rotate(30,0,441.4)" style="font-family: Helvetica; font-size: 12px; fill: rgb(51, 51, 51); fill-opacity: 1; white-space: pre; opacity: 1;">+4-31G</text></g><g class="x3tick"><text text-anchor="start" x="0" y="447.4" transform="translate(292.23,0) rotate(30,0,441.4)" style="font-family: Helvetica; font-size: 12px; fill: rgb(51, 51, 51); fill-opacity: 1; white-space: pre; opacity: 1;">+6-31G</text></g><g class="x3tick"><text text-anchor="start" x="0" y="447.4" transform="translate(332.82,0) rotate(30,0,441.4)" style="font-family: Helvetica; font-size: 12px; fill: rgb(51, 51, 51); fill-opacity: 1; white-space: pre; opacity: 1;">+D</text></g></g><g class="yaxislayer-above"><path class="y3tick ticks crisp" d="M67,0h-5" transform="translate(0,426)" style="stroke: rgb(68, 68, 68); stroke-opacity: 1; stroke-width: 1px;"/><path class="y3tick ticks crisp" d="M67,0h-5" transform="translate(0,397.98)" style="stroke: rgb(68, 68, 68); stroke-opacity: 1; stroke-width: 1px;"/><path class="y3tick ticks crisp" d="M67,0h-5" transform="translate(0,369.95)" style="stroke: rgb(68, 68, 68); stroke-opacity: 1; stroke-width: 1px;"/><path class="y3tick ticks crisp" d="M67,0h-5" transform="translate(0,341.93)" style="stroke: rgb(68, 68, 68); stroke-opacity: 1; stroke-width: 1px;"/><path class="y3tick ticks crisp" d="M67,0h-5" transform="translate(0,313.9)" style="stroke: rgb(68, 68, 68); stroke-opacity: 1; stroke-width: 1px;"/><path class="y3tick ticks crisp" d="M67,0h-5" transform="translate(0,285.88)" style="stroke: rgb(68, 68, 68); stroke-opacity: 1; stroke-width: 1px;"/><path class="y3tick ticks crisp" d="M67,0h-5" transform="translate(0,257.85)" style="stroke: rgb(68, 68, 68); stroke-opacity: 1; stroke-width: 1px;"/><g class="y3tick"><text text-anchor="end" x="59.6" y="4.199999999999999" transform="translate(0,426)" style="font-family: Helvetica; font-size: 12px; fill: rgb(51, 51, 51); fill-opacity: 1; white-space: pre; opacity: 1;">0</text></g><g class="y3tick"><text text-anchor="end" x="59.6" y="4.199999999999999" style="font-family: Helvetica; font-size: 12px; fill: rgb(51, 51, 51); fill-opacity: 1; white-space: pre; opacity: 1;" transform="translate(0,397.98)">0.1</text></g><g class="y3tick"><text text-anchor="end" x="59.6" y="4.199999999999999" style="font-family: Helvetica; font-size: 12px; fill: rgb(51, 51, 51); fill-opacity: 1; white-space: pre; opacity: 1;" transform="translate(0,369.95)">0.2</text></g><g class="y3tick"><text text-anchor="end" x="59.6" y="4.199999999999999" style="font-family: Helvetica; font-size: 12px; fill: rgb(51, 51, 51); fill-opacity: 1; white-space: pre; opacity: 1;" transform="translate(0,341.93)">0.3</text></g><g class="y3tick"><text text-anchor="end" x="59.6" y="4.199999999999999" style="font-family: Helvetica; font-size: 12px; fill: rgb(51, 51, 51); fill-opacity: 1; white-space: pre; opacity: 1;" transform="translate(0,313.9)">0.4</text></g><g class="y3tick"><text text-anchor="end" x="59.6" y="4.199999999999999" style="font-family: Helvetica; font-size: 12px; fill: rgb(51, 51, 51); fill-opacity: 1; white-space: pre; opacity: 1;" transform="translate(0,285.88)">0.5</text></g><g class="y3tick"><text text-anchor="end" x="59.6" y="4.199999999999999" style="font-family: Helvetica; font-size: 12px; fill: rgb(51, 51, 51); fill-opacity: 1; white-space: pre; opacity: 1;" transform="translate(0,257.85)">0.6</text></g></g><g class="overaxes-above"/></g><g class="subplot x4y4"><g class="layer-subplot"><g class="shapelayer"/><g class="imagelayer"/></g><g class="minor-gridlayer"><g class="x4"/><g class="y4"/></g><g class="gridlayer"><g class="x4"><path class="x4grid crisp" transform="translate(416.17499999999995,0)" d="M0,243.84v182.16" style="stroke: rgb(255, 255, 255); stroke-opacity: 1; stroke-width: 1px;"/><path class="x4grid crisp" transform="translate(456.76499999999993,0)" d="M0,243.84v182.16" style="stroke: rgb(255, 255, 255); stroke-opacity: 1; stroke-width: 1px;"/><path class="x4grid crisp" transform="translate(497.3549999999999,0)" d="M0,243.84v182.16" style="stroke: rgb(255, 255, 255); stroke-opacity: 1; stroke-width: 1px;"/><path class="x4grid crisp" transform="translate(537.9449999999999,0)" d="M0,243.84v182.16" style="stroke: rgb(255, 255, 255); stroke-opacity: 1; stroke-width: 1px;"/><path class="x4grid crisp" transform="translate(578.535,0)" d="M0,243.84v182.16" style="stroke: rgb(255, 255, 255); stroke-opacity: 1; stroke-width: 1px;"/><path class="x4grid crisp" transform="translate(619.1149999999999,0)" d="M0,243.84v182.16" style="stroke: rgb(255, 255, 255); stroke-opacity: 1; stroke-width: 1px;"/><path class="x4grid crisp" transform="translate(659.7049999999999,0)" d="M0,243.84v182.16" style="stroke: rgb(255, 255, 255); stroke-opacity: 1; stroke-width: 1px;"/></g><g class="y4"><path class="y4grid crisp" transform="translate(0,397.98)" d="M395.88499999999993,0h284.115" style="stroke: rgb(236, 236, 236); stroke-opacity: 1; stroke-width: 1px;"/><path class="y4grid crisp" transform="translate(0,369.95)" d="M395.88499999999993,0h284.115" style="stroke: rgb(236, 236, 236); stroke-opacity: 1; stroke-width: 1px;"/><path class="y4grid crisp" transform="translate(0,341.93)" d="M395.88499999999993,0h284.115" style="stroke: rgb(236, 236, 236); stroke-opacity: 1; stroke-width: 1px;"/><path class="y4grid crisp" transform="translate(0,313.9)" d="M395.88499999999993,0h284.115" style="stroke: rgb(236, 236, 236); stroke-opacity: 1; stroke-width: 1px;"/><path class="y4grid crisp" transform="translate(0,285.88)" d="M395.88499999999993,0h284.115" style="stroke: rgb(236, 236, 236); stroke-opacity: 1; stroke-width: 1px;"/><path class="y4grid crisp" transform="translate(0,257.85)" d="M395.88499999999993,0h284.115" style="stroke: rgb(236, 236, 236); stroke-opacity: 1; stroke-width: 1px;"/></g></g><g class="zerolinelayer"><path class="y4zl zl crisp" transform="translate(0,426)" d="M395.88499999999993,0h284.115" style="stroke: rgb(51, 51, 51); stroke-opacity: 1; stroke-width: 2px;"/></g><path class="xlines-below"/><path class="ylines-below"/><g class="overlines-below"/><g class="xaxislayer-below"/><g class="yaxislayer-below"/><g class="overaxes-below"/><g class="plot" transform="translate(395.88499999999993,243.84)" clip-path="url(#clip86a681x4y4plot)"><g class="barlayer mlayer"><g class="trace bars" style="opacity: 1;"><g class="points"><g class="point"><path d="M4.06,182.16V139.34H36.53V182.16Z" style="vector-effect: none; opacity: 1; stroke-width: 0.5px; fill: rgb(157, 78, 221); fill-opacity: 1; stroke: rgb(229, 236, 246); stroke-opacity: 1;"/></g><g class="point"><path d="M44.65,182.16V112.34H77.12V182.16Z" style="vector-effect: none; opacity: 1; stroke-width: 0.5px; fill: rgb(157, 78, 221); fill-opacity: 1; stroke: rgb(229, 236, 246); stroke-opacity: 1;"/></g><g class="point"><path d="M85.23,182.16V111.93H117.7V182.16Z" style="vector-effect: none; opacity: 1; stroke-width: 0.5px; fill: rgb(157, 78, 221); fill-opacity: 1; stroke: rgb(229, 236, 246); stroke-opacity: 1;"/></g><g class="point"><path d="M125.82,182.16V141.34H158.29V182.16Z" style="vector-effect: none; opacity: 1; stroke-width: 0.5px; fill: rgb(157, 78, 221); fill-opacity: 1; stroke: rgb(229, 236, 246); stroke-opacity: 1;"/></g><g class="point"><path d="M166.41,182.16V135.75H198.88V182.16Z" style="vector-effect: none; opacity: 1; stroke-width: 0.5px; fill: rgb(157, 78, 221); fill-opacity: 1; stroke: rgb(229, 236, 246); stroke-opacity: 1;"/></g><g class="point"><path d="M207,182.16V135.49H239.47V182.16Z" style="vector-effect: none; opacity: 1; stroke-width: 0.5px; fill: rgb(157, 78, 221); fill-opacity: 1; stroke: rgb(229, 236, 246); stroke-opacity: 1;"/></g><g class="point"><path d="M247.59,182.16V139.13H280.06V182.16Z" style="vector-effect: none; opacity: 1; stroke-width: 0.5px; fill: rgb(157, 78, 221); fill-opacity: 1; stroke: rgb(229, 236, 246); stroke-opacity: 1;"/></g></g><g class="errorbar" style="opacity: 1;"><path class="yerror" d="M16.29,104.48h8m-4,0V174.19m-4,0h8" style="vector-effect: none; stroke-width: 2px; stroke: rgb(51, 51, 51); stroke-opacity: 1;"/></g><g class="errorbar" style="opacity: 1;"><path class="yerror" d="M56.88,56.36h8m-4,0V168.31m-4,0h8" style="vector-effect: none; stroke-width: 2px; stroke: rgb(51, 51, 51); stroke-opacity: 1;"/></g><g class="errorbar" style="opacity: 1;"><path class="yerror" d="M97.47,55.32h8m-4,0V168.54m-4,0h8" style="vector-effect: none; stroke-width: 2px; stroke: rgb(51, 51, 51); stroke-opacity: 1;"/></g><g class="errorbar" style="opacity: 1;"><path class="yerror" d="M138.06,109.94h8m-4,0V172.75m-4,0h8" style="vector-effect: none; stroke-width: 2px; stroke: rgb(51, 51, 51); stroke-opacity: 1;"/></g><g class="errorbar" style="opacity: 1;"><path class="yerror" d="M178.65,100.79h8m-4,0V170.71m-4,0h8" style="vector-effect: none; stroke-width: 2px; stroke: rgb(51, 51, 51); stroke-opacity: 1;"/></g><g class="errorbar" style="opacity: 1;"><path class="yerror" d="M219.23,101.19h8m-4,0V169.79m-4,0h8" style="vector-effect: none; stroke-width: 2px; stroke: rgb(51, 51, 51); stroke-opacity: 1;"/></g><g class="errorbar" style="opacity: 1;"><path class="yerror" d="M259.82,108.44h8m-4,0V169.82m-4,0h8" style="vector-effect: none; stroke-width: 2px; stroke: rgb(51, 51, 51); stroke-opacity: 1;"/></g></g></g></g><g class="overplot"/><path class="xlines-above crisp" d="M393.88499999999993,427H682M393.88499999999993,242.84H682" style="fill: none; stroke-width: 2px; stroke: rgb(51, 51, 51); stroke-opacity: 1;"/><path class="ylines-above crisp" d="M394.88499999999993,243.84V426M681,243.84V426" style="fill: none; stroke-width: 2px; stroke: rgb(51, 51, 51); stroke-opacity: 1;"/><g class="overlines-above"/><g class="xaxislayer-above"><path class="x4tick ticks crisp" d="M0,428v5" transform="translate(416.17499999999995,0)" style="stroke: rgb(68, 68, 68); stroke-opacity: 1; stroke-width: 1px;"/><path class="x4tick ticks crisp" d="M0,428v5" transform="translate(456.76499999999993,0)" style="stroke: rgb(68, 68, 68); stroke-opacity: 1; stroke-width: 1px;"/><path class="x4tick ticks crisp" d="M0,428v5" transform="translate(497.3549999999999,0)" style="stroke: rgb(68, 68, 68); stroke-opacity: 1; stroke-width: 1px;"/><path class="x4tick ticks crisp" d="M0,428v5" transform="translate(537.9449999999999,0)" style="stroke: rgb(68, 68, 68); stroke-opacity: 1; stroke-width: 1px;"/><path class="x4tick ticks crisp" d="M0,428v5" transform="translate(578.535,0)" style="stroke: rgb(68, 68, 68); stroke-opacity: 1; stroke-width: 1px;"/><path class="x4tick ticks crisp" d="M0,428v5" transform="translate(619.1149999999999,0)" style="stroke: rgb(68, 68, 68); stroke-opacity: 1; stroke-width: 1px;"/><path class="x4tick ticks crisp" d="M0,428v5" transform="translate(659.7049999999999,0)" style="stroke: rgb(68, 68, 68); stroke-opacity: 1; stroke-width: 1px;"/><g class="x4tick"><text text-anchor="start" x="0" y="447.4" transform="translate(416.17499999999995,0) rotate(30,0,441.4)" style="font-family: Helvetica; font-size: 12px; fill: rgb(51, 51, 51); fill-opacity: 1; white-space: pre; opacity: 1;">MP2[∞]</text></g><g class="x4tick"><text text-anchor="start" x="0" y="447.4" transform="translate(456.76499999999993,0) rotate(30,0,441.4)" style="font-family: Helvetica; font-size: 12px; fill: rgb(51, 51, 51); fill-opacity: 1; white-space: pre; opacity: 1;">+STO-3G</text></g><g class="x4tick"><text text-anchor="start" x="0" y="447.4" transform="translate(497.3549999999999,0) rotate(30,0,441.4)" style="font-family: Helvetica; font-size: 12px; fill: rgb(51, 51, 51); fill-opacity: 1; white-space: pre; opacity: 1;">+STO-6G</text></g><g class="x4tick"><text text-anchor="start" x="0" y="447.4" transform="translate(537.9449999999999,0) rotate(30,0,441.4)" style="font-family: Helvetica; font-size: 12px; fill: rgb(51, 51, 51); fill-opacity: 1; white-space: pre; opacity: 1;">+3-21G</text></g><g class="x4tick"><text text-anchor="start" x="0" y="447.4" transform="translate(578.535,0) rotate(30,0,441.4)" style="font-family: Helvetica; font-size: 12px; fill: rgb(51, 51, 51); fill-opacity: 1; white-space: pre; opacity: 1;">+4-31G</text></g><g class="x4tick"><text text-anchor="start" x="0" y="447.4" transform="translate(619.1149999999999,0) rotate(30,0,441.4)" style="font-family: Helvetica; font-size: 12px; fill: rgb(51, 51, 51); fill-opacity: 1; white-space: pre; opacity: 1;">+6-31G</text></g><g class="x4tick"><text text-anchor="start" x="0" y="447.4" transform="translate(659.7049999999999,0) rotate(30,0,441.4)" style="font-family: Helvetica; font-size: 12px; fill: rgb(51, 51, 51); fill-opacity: 1; white-space: pre; opacity: 1;">+D</text></g></g><g class="yaxislayer-above"><path class="y4tick ticks crisp" d="M393.88499999999993,0h-5" transform="translate(0,426)" style="stroke: rgb(68, 68, 68); stroke-opacity: 1; stroke-width: 1px;"/><path class="y4tick ticks crisp" d="M393.88499999999993,0h-5" transform="translate(0,397.98)" style="stroke: rgb(68, 68, 68); stroke-opacity: 1; stroke-width: 1px;"/><path class="y4tick ticks crisp" d="M393.88499999999993,0h-5" transform="translate(0,369.95)" style="stroke: rgb(68, 68, 68); stroke-opacity: 1; stroke-width: 1px;"/><path class="y4tick ticks crisp" d="M393.88499999999993,0h-5" transform="translate(0,341.93)" style="stroke: rgb(68, 68, 68); stroke-opacity: 1; stroke-width: 1px;"/><path class="y4tick ticks crisp" d="M393.88499999999993,0h-5" transform="translate(0,313.9)" style="stroke: rgb(68, 68, 68); stroke-opacity: 1; stroke-width: 1px;"/><path class="y4tick ticks crisp" d="M393.88499999999993,0h-5" transform="translate(0,285.88)" style="stroke: rgb(68, 68, 68); stroke-opacity: 1; stroke-width: 1px;"/><path class="y4tick ticks crisp" d="M393.88499999999993,0h-5" transform="translate(0,257.85)" style="stroke: rgb(68, 68, 68); stroke-opacity: 1; stroke-width: 1px;"/><g class="y4tick"><text text-anchor="end" x="386.48499999999996" y="4.199999999999999" transform="translate(0,426)" style="font-family: Helvetica; font-size: 12px; fill: rgb(51, 51, 51); fill-opacity: 1; white-space: pre; opacity: 1;">0</text></g><g class="y4tick"><text text-anchor="end" x="386.48499999999996" y="4.199999999999999" style="font-family: Helvetica; font-size: 12px; fill: rgb(51, 51, 51); fill-opacity: 1; white-space: pre; opacity: 1;" transform="translate(0,397.98)">0.1</text></g><g class="y4tick"><text text-anchor="end" x="386.48499999999996" y="4.199999999999999" style="font-family: Helvetica; font-size: 12px; fill: rgb(51, 51, 51); fill-opacity: 1; white-space: pre; opacity: 1;" transform="translate(0,369.95)">0.2</text></g><g class="y4tick"><text text-anchor="end" x="386.48499999999996" y="4.199999999999999" style="font-family: Helvetica; font-size: 12px; fill: rgb(51, 51, 51); fill-opacity: 1; white-space: pre; opacity: 1;" transform="translate(0,341.93)">0.3</text></g><g class="y4tick"><text text-anchor="end" x="386.48499999999996" y="4.199999999999999" style="font-family: Helvetica; font-size: 12px; fill: rgb(51, 51, 51); fill-opacity: 1; white-space: pre; opacity: 1;" transform="translate(0,313.9)">0.4</text></g><g class="y4tick"><text text-anchor="end" x="386.48499999999996" y="4.199999999999999" style="font-family: Helvetica; font-size: 12px; fill: rgb(51, 51, 51); fill-opacity: 1; white-space: pre; opacity: 1;" transform="translate(0,285.88)">0.5</text></g><g class="y4tick"><text text-anchor="end" x="386.48499999999996" y="4.199999999999999" style="font-family: Helvetica; font-size: 12px; fill: rgb(51, 51, 51); fill-opacity: 1; white-space: pre; opacity: 1;" transform="translate(0,257.85)">0.6</text></g></g><g class="overaxes-above"/></g></g><g class="polarlayer"/><g class="smithlayer"/><g class="ternarylayer"/><g class="geolayer"/><g class="funnelarealayer"/><g class="pielayer"/><g class="iciclelayer"/><g class="treemaplayer"/><g class="sunburstlayer"/><g class="glimages"/><defs id="topdefs-86a681"><g class="clips"/></defs><g class="layer-above"><g class="imagelayer"/><g class="shapelayer"/></g><g class="infolayer"><g class="g-gtitle"/><g class="g-xtitle"/><g class="g-x2title"/><g class="g-x3title"/><g class="g-x4title"/><g class="g-ytitle" transform="translate(12.095703125,0)"><text class="ytitle" transform="rotate(-90,0.90625,121.08)" x="0.90625" y="121.08" text-anchor="middle" style="font-family: Helvetica; font-size: 14px; fill: rgb(51, 51, 51); opacity: 1; font-weight: normal; white-space: pre;"><tspan class="line" dy="0em" x="0.90625" y="121.08">MAE compared with</tspan><tspan class="line" dy="1.3em" x="0.90625" y="121.08">experimental CEBEs (eV)</tspan></text></g><g class="g-y2title"/><g class="g-y3title" transform="translate(12.107421875,0)"><text class="y3title" transform="rotate(-90,0.90625,334.92)" x="0.90625" y="334.92" text-anchor="middle" style="font-family: Helvetica; font-size: 14px; fill: rgb(51, 51, 51); opacity: 1; font-weight: normal; white-space: pre;"><tspan class="line" dy="0em" x="0.90625" y="334.92">MAE compared with</tspan><tspan class="line" dy="1.3em" x="0.90625" y="334.92">experimental CEBEs (eV)</tspan></text></g><g class="g-y4title"/><g class="annotation" data-index="0" style="opacity: 1;"><g class="annotation-text-g" transform="rotate(0,211.0575,19)"><g class="cursor-pointer" transform="translate(177,8)"><rect class="bg" x="0.5" y="0.5" width="68" height="21" style="stroke-width: 1px; stroke: rgb(0, 0, 0); stroke-opacity: 0; fill: rgb(0, 0, 0); fill-opacity: 0;"/><text class="annotation-text" text-anchor="middle" x="34.46875" y="16" style="font-family: Helvetica; font-size: 16px; fill: rgb(51, 51, 51); fill-opacity: 1; white-space: pre;"><tspan style="font-weight:bold">C-Series</tspan></text></g></g></g><g class="annotation" data-index="1" style="opacity: 1;"><g class="annotation-text-g" transform="rotate(0,537.9424999999999,19)"><g class="cursor-pointer" transform="translate(503,8)"><rect class="bg" x="0.5" y="0.5" width="68" height="21" style="stroke-width: 1px; stroke: rgb(0, 0, 0); stroke-opacity: 0; fill: rgb(0, 0, 0); fill-opacity: 0;"/><text class="annotation-text" text-anchor="middle" x="34.46875" y="16" style="font-family: Helvetica; font-size: 16px; fill: rgb(51, 51, 51); fill-opacity: 1; white-space: pre;"><tspan style="font-weight:bold">N-Series</tspan></text></g></g></g><g class="annotation" data-index="2" style="opacity: 1;"><g class="annotation-text-g" transform="rotate(0,211.0575,232.84)"><g class="cursor-pointer" transform="translate(176,222)"><rect class="bg" x="0.5" y="0.5" width="69" height="21" style="stroke-width: 1px; stroke: rgb(0, 0, 0); stroke-opacity: 0; fill: rgb(0, 0, 0); fill-opacity: 0;"/><text class="annotation-text" text-anchor="middle" x="34.90625" y="16" style="font-family: Helvetica; font-size: 16px; fill: rgb(51, 51, 51); fill-opacity: 1; white-space: pre;"><tspan style="font-weight:bold">O-Series</tspan></text></g></g></g><g class="annotation" data-index="3" style="opacity: 1;"><g class="annotation-text-g" transform="rotate(0,537.9424999999999,232.84)"><g class="cursor-pointer" transform="translate(504,222)"><rect class="bg" x="0.5" y="0.5" width="66" height="21" style="stroke-width: 1px; stroke: rgb(0, 0, 0); stroke-opacity: 0; fill: rgb(0, 0, 0); fill-opacity: 0;"/><text class="annotation-text" text-anchor="middle" x="33.578125" y="16" style="font-family: Helvetica; font-size: 16px; fill: rgb(51, 51, 51); fill-opacity: 1; white-space: pre;"><tspan style="font-weight:bold">F-Series</tspan></text></g></g></g></g></svg>